<svg xmlns="http://www.w3.org/2000/svg" xmlns:xlink="http://www.w3.org/1999/xlink" viewBox="0 0 608.85 349.43"><defs><style>.cls-1,.cls-11,.cls-12,.cls-14,.cls-16,.cls-19,.cls-21,.cls-22,.cls-23,.cls-25,.cls-27,.cls-29,.cls-30,.cls-32,.cls-34,.cls-36,.cls-37,.cls-38,.cls-4,.cls-40,.cls-43,.cls-45,.cls-47,.cls-49,.cls-50,.cls-52,.cls-53,.cls-55,.cls-56,.cls-58,.cls-59,.cls-61,.cls-63,.cls-65,.cls-66,.cls-68,.cls-69,.cls-7,.cls-8,.cls-9{fill:none;}.cls-2{fill:#0a2237;}.cls-3{clip-path:url(#clip-path);}.cls-11,.cls-12,.cls-36,.cls-37,.cls-38,.cls-4,.cls-45,.cls-49,.cls-50,.cls-52,.cls-53,.cls-58,.cls-59,.cls-63,.cls-65,.cls-66,.cls-7,.cls-8{stroke:#d18311;}.cls-11,.cls-12,.cls-14,.cls-16,.cls-19,.cls-21,.cls-22,.cls-23,.cls-25,.cls-27,.cls-29,.cls-30,.cls-32,.cls-34,.cls-36,.cls-37,.cls-38,.cls-4,.cls-40,.cls-43,.cls-45,.cls-47,.cls-49,.cls-50,.cls-52,.cls-53,.cls-55,.cls-56,.cls-58,.cls-59,.cls-61,.cls-63,.cls-65,.cls-66,.cls-68,.cls-69,.cls-7,.cls-8,.cls-9{stroke-miterlimit:10;}.cls-4{stroke-width:0.86px;}.cls-5{fill:#d18311;}.cls-6{clip-path:url(#clip-path-2);}.cls-7{stroke-width:0.93px;}.cls-8{stroke-width:1.4px;}.cls-23,.cls-9{stroke:#fff;}.cls-9{stroke-width:0.32px;}.cls-10{clip-path:url(#clip-path-3);}.cls-11{stroke-width:0.78px;}.cls-12{stroke-width:0.78px;}.cls-13{clip-path:url(#clip-path-4);}.cls-14,.cls-16,.cls-19,.cls-21,.cls-22,.cls-25,.cls-27,.cls-29,.cls-30,.cls-32,.cls-34,.cls-40,.cls-43,.cls-47,.cls-55,.cls-56,.cls-61,.cls-68,.cls-69{stroke:#0a2237;}.cls-14{stroke-width:1px;}.cls-15{clip-path:url(#clip-path-5);}.cls-17{clip-path:url(#clip-path-6);}.cls-18{clip-path:url(#clip-path-7);}.cls-19{stroke-width:0.99px;}.cls-20{clip-path:url(#clip-path-8);}.cls-21{stroke-width:0.94px;}.cls-22{stroke-width:0.32px;}.cls-23{stroke-width:0.06px;}.cls-24{clip-path:url(#clip-path-9);}.cls-25{stroke-width:0.96px;}.cls-26{clip-path:url(#clip-path-10);}.cls-27{stroke-width:0.94px;}.cls-28{clip-path:url(#clip-path-11);}.cls-29{stroke-width:0.94px;}.cls-30{stroke-width:0.44px;}.cls-31{clip-path:url(#clip-path-12);}.cls-32{stroke-width:0.94px;}.cls-33{clip-path:url(#clip-path-13);}.cls-34{stroke-width:0.94px;}.cls-35{clip-path:url(#clip-path-14);}.cls-36{stroke-width:0.81px;}.cls-37{stroke-width:0.81px;}.cls-38{stroke-width:1.22px;}.cls-39{clip-path:url(#clip-path-15);}.cls-40{stroke-width:0.92px;}.cls-41{fill:#fff;}.cls-42{clip-path:url(#clip-path-16);}.cls-43{stroke-width:1.25px;}.cls-44{clip-path:url(#clip-path-17);}.cls-45{stroke-width:1.41px;}.cls-46{clip-path:url(#clip-path-18);}.cls-47{stroke-width:1.24px;}.cls-48{clip-path:url(#clip-path-19);}.cls-49{stroke-width:1.01px;}.cls-50{stroke-width:1.51px;}.cls-51{clip-path:url(#clip-path-20);}.cls-52{stroke-width:0.85px;}.cls-53{stroke-width:0.85px;}.cls-54{clip-path:url(#clip-path-21);}.cls-55{stroke-width:1.08px;}.cls-56{stroke-width:1.08px;}.cls-57{clip-path:url(#clip-path-22);}.cls-58{stroke-width:1.11px;}.cls-59{stroke-width:1.67px;}.cls-60{clip-path:url(#clip-path-23);}.cls-61{stroke-width:0.78px;}.cls-62{clip-path:url(#clip-path-24);}.cls-63{stroke-width:0.78px;}.cls-64{clip-path:url(#clip-path-25);}.cls-65{stroke-width:0.69px;}.cls-66{stroke-width:1.03px;}.cls-67{clip-path:url(#clip-path-26);}.cls-68{stroke-width:1.08px;}.cls-69{stroke-width:1.33px;}</style><clipPath id="clip-path"><path class="cls-1" d="M568.77,150.78l8.78,7.51a18.12,18.12,0,0,1-6.42,1.18c-9.68,0-16.2-8.06-16.2-17.19v-.19a18.29,18.29,0,0,1,2.8-9.83l-12.84-11.54a32.38,32.38,0,0,0-8,21.37v.19c0,18.18,14.47,32.75,34,32.75a35.2,35.2,0,0,0,19.27-5.61l7,6.24,3.94-4.38L573,146Z"/></clipPath><clipPath id="clip-path-2"><path class="cls-1" d="M265.61,43.2h7.71c9.92,0,16.92,4.88,18.49,13.45H311.4C309.8,38.81,295.93,26.42,273,26.42H246.68V56.65h18.93Z"/></clipPath><clipPath id="clip-path-3"><rect class="cls-1" x="324.17" y="26.42" width="13.85" height="68.29"/></clipPath><clipPath id="clip-path-4"><polygon class="cls-1" points="321.63 107.37 321.63 175.66 338.14 175.66 338.14 138.2 363.85 175.66 378.47 175.66 378.47 175.03 328.41 107.37 321.63 107.37"/></clipPath><clipPath id="clip-path-5"><polygon class="cls-1" points="503 187.72 490.88 187.72 514.76 221.28 490.88 256.02 504.33 256.02 527.38 221.27 503 187.72"/></clipPath><clipPath id="clip-path-6"><polygon class="cls-1" points="554.61 187.72 566.73 187.72 542.85 221.28 566.73 256.02 553.28 256.02 530.23 221.27 554.61 187.72"/></clipPath><clipPath id="clip-path-7"><rect class="cls-1" x="183.91" y="202.29" width="19.11" height="53.72"/></clipPath><clipPath id="clip-path-8"><path class="cls-1" d="M426.59,124.46c7.92,0,13.8,5.55,15.81,12.85H461c-2.42-17-16.2-29.94-34.21-29.94s-31.84,13-34.37,29.94H411C412.9,130,418.69,124.46,426.59,124.46Z"/></clipPath><clipPath id="clip-path-9"><rect class="cls-1" x="104.87" y="26.42" width="16.69" height="68.29"/></clipPath><clipPath id="clip-path-10"><rect class="cls-1" x="22.29" y="140.77" width="19.02" height="34.89"/></clipPath><clipPath id="clip-path-11"><rect class="cls-1" x="200.18" y="158.73" width="28.5" height="16.59"/></clipPath><clipPath id="clip-path-12"><polygon class="cls-1" points="60.07 48.7 60.07 48.7 68.92 26.42 51.16 26.42 22.29 94.71 41.97 94.71 52.42 67.97 60.07 48.7"/></clipPath><clipPath id="clip-path-13"><path class="cls-1" d="M68.69,232.21c8.49-3.61,14-10.54,14-21V211c0-6.73-2-12-6-15.9-4.58-4.68-11.8-7.42-22.24-7.42H43.6v16.39h9.87c6.34,0,10.25,2.74,10.25,8.1v.2c0,5-3.71,8.09-10.15,8.09h-10v14.83h5.78L63.13,256H85Z"/></clipPath><clipPath id="clip-path-14"><path class="cls-1" d="M192.16,60.58v-.19c0-7.52,4-13.94,10.16-16.35V26.81a33.59,33.59,0,0,0-28.94,33.77v.19c0,17.87,12.53,31.38,28.94,33.66V77.13C196.16,74.73,192.16,68.32,192.16,60.58Z"/></clipPath><clipPath id="clip-path-15"><path class="cls-1" d="M155.54,232.19c0-11.79-8.8-16.47-22.95-19.62-8.53-2-10.64-3.24-10.64-6.12v-.18c0-2.25,2-4.05,6.15-4.05,5.45,0,11.61,2.16,17.24,6.21l8.53-12.33c-6.69-5.5-14.86-8.38-25.33-8.38-8.26,0-14.73,2.65-18.83,7-1.25,5.9-1.35,18.84,19,25.37,12.94,4.15,21.42,8.26,26.75,13.35,0-.36,0-.72,0-1.1Z"/></clipPath><clipPath id="clip-path-16"><path class="cls-1" d="M63.48,153.08l-12,11.33c3.89,5.32,11.85,9.94,20.32,11.25v-17C69.7,157.57,65.45,155.45,63.48,153.08Z"/></clipPath><clipPath id="clip-path-17"><polygon class="cls-1" points="152.62 136.73 178.48 107.37 156.04 107.37 132.93 134.6 132.93 157.56 139.45 150.29 156.62 175.66 179.35 175.66 152.62 136.73"/></clipPath><clipPath id="clip-path-18"><polygon class="cls-1" points="257.97 107.37 237.97 107.37 237.97 175.66 256.51 175.66 256.51 136.64 272.2 160.62 272.2 130.46 257.97 107.37"/></clipPath><clipPath id="clip-path-19"><path class="cls-1" d="M499,94.71a41.54,41.54,0,0,0,26.68-9.48V64.47H497.38v5.58h12.11v7.46a17.4,17.4,0,0,1-9.83,2.54c-9.26,0-16-6.42-16.62-15.58H465.55C466.32,82.26,480.36,94.71,499,94.71Z"/></clipPath><clipPath id="clip-path-20"><rect class="cls-1" x="393.83" y="26.42" width="16.54" height="68.29"/></clipPath><clipPath id="clip-path-21"><path class="cls-1" d="M501.6,107.37h-7.66v14.86h6.19c6.83,0,10.93,2.92,10.93,8.39v.18c0,5-4.1,8.3-10.83,8.3h-6.29V153h6.68c17,0,29.37-7.93,29.37-23v-.18C530,115.66,518.87,107.37,501.6,107.37Z"/></clipPath><clipPath id="clip-path-22"><path class="cls-1" d="M251,225V187.72H232.16V225.4c0,20.07,11,29.8,28.59,30.62V239.08C254.79,238.07,251,233.49,251,225Z"/></clipPath><clipPath id="clip-path-23"><polygon class="cls-1" points="327.19 187.72 306.17 187.72 326.82 238.07 336.02 212.38 327.19 187.72"/></clipPath><clipPath id="clip-path-24"><polygon class="cls-1" points="421.54 256.02 428.21 256.02 436.13 233.04 443.95 256.02 451.6 256.02 436.17 216.14 421.54 256.02"/></clipPath><clipPath id="clip-path-25"><polygon class="cls-1" points="74.77 272.86 66.74 272.86 57.89 288.11 49.33 272.86 40.86 272.86 57.76 302.71 74.77 272.86"/></clipPath><clipPath id="clip-path-26"><polygon class="cls-1" points="157.02 270.19 101.58 270.19 101.58 285.17 132.54 285.17 100.48 321.24 100.48 334.12 100.49 334.12 157.02 270.2 157.02 270.19"/></clipPath></defs><title>Asset 1</title><g id="Layer_2" data-name="Layer 2"><g id="Layer_1-2" data-name="Layer 1"><path class="cls-2" d="M608.13,164l-4.93,5.49-28.1-25.27,4.62-5.19,8.59,7.78a17.12,17.12,0,0,0,1.09-6.15v-.18c0-9.23-6.6-17.28-16.38-17.28a15.38,15.38,0,0,0-13.22,7.27L547,118.93a34.39,34.39,0,0,1,26.24-11.56c19.54,0,34,14.56,34,32.75v.18a31.59,31.59,0,0,1-5.61,18.19Zm-34.35-48.76c0-1.53-.67-2.77-2.2-2.77a2.77,2.77,0,0,0-2.77,2.77c0,1.53,1,2.21,2.49,2.21S573.78,116.77,573.78,115.24Zm22.91,11c0-1.53-.68-2.77-2.21-2.77a2.77,2.77,0,0,0-2.77,2.77c0,1.53,1,2.21,2.49,2.21S596.69,127.73,596.69,126.2Zm1.63,25.74c0-1.53-.68-2.77-2.21-2.77a2.77,2.77,0,0,0-2.77,2.77c0,1.53,1,2.21,2.49,2.21S598.32,153.47,598.32,151.94Z"/><path class="cls-1" d="M554.93,142.28c0,9.13,6.52,17.19,16.2,17.19a18.12,18.12,0,0,0,6.42-1.18l-8.78-7.51L573,146l-15.29-13.75a18.29,18.29,0,0,0-2.8,9.83Z"/><g class="cls-3"><polygon class="cls-4" points="573.55 196.03 540.43 179.03 552.12 126.7 591.62 160.82 573.55 196.03"/><polygon class="cls-4" points="576.45 205.41 534.36 183.81 549.21 117.32 599.41 160.68 576.45 205.41"/><polygon class="cls-4" points="579.77 216.14 527.42 189.28 545.9 106.59 608.32 160.51 579.77 216.14"/><polygon class="cls-4" points="571.35 188.61 545.29 175.24 554.48 134.06 585.57 160.91 571.35 188.61"/><polygon class="cls-4" points="569.15 181.19 550.15 171.44 556.86 141.43 579.5 161 569.15 181.19"/><polygon class="cls-4" points="567.23 174.72 554.39 168.13 558.92 147.85 574.23 161.08 567.23 174.72"/><polygon class="cls-4" points="565.56 169.31 557.88 165.38 560.59 153.26 569.74 161.16 565.56 169.31"/><polygon class="cls-4" points="563.89 163.91 561.38 162.62 562.26 158.66 565.25 161.24 563.89 163.91"/></g><path class="cls-5" d="M558.6,122c-1.53,0-2.48-.68-2.48-2.21a2.77,2.77,0,0,1,2.77-2.77c1.53,0,2.2,1.24,2.2,2.77S560.13,122,558.6,122Z"/><path class="cls-5" d="M583.84,120.06c-1.53,0-2.48-.67-2.48-2.2a2.77,2.77,0,0,1,2.77-2.78c1.53,0,2.2,1.24,2.2,2.78S585.38,120.06,583.84,120.06Z"/><path class="cls-5" d="M598.21,141.06c-1.53,0-2.48-.68-2.48-2.21a2.77,2.77,0,0,1,2.77-2.77c1.53,0,2.2,1.24,2.2,2.77S599.75,141.06,598.21,141.06Z"/><path class="cls-2" d="M291.91,63.88c-1.34,9-8.43,14.05-18.59,14.05h-7.71V63.88H246.68V94.71h25.95c23.1,0,37.16-12.92,38.77-30.83ZM253.09,87.59c-.75,0-1.08-.61-1.08-1.36s.47-1.09,1.22-1.09,1.22.34,1.22,1.09A1.36,1.36,0,0,1,253.09,87.59Zm0-9.49c-.75,0-1.08-.61-1.08-1.37s.47-1.08,1.22-1.08,1.22.33,1.22,1.08A1.36,1.36,0,0,1,253.09,78.1Zm0-9.5c-.75,0-1.08-.61-1.08-1.36s.47-1.09,1.22-1.09,1.22.34,1.22,1.09A1.36,1.36,0,0,1,253.09,68.6Zm4.48,23.74c-.75,0-1.08-.61-1.08-1.36s.47-1.09,1.22-1.09,1.22.33,1.22,1.09A1.36,1.36,0,0,1,257.57,92.34Zm0-9.5c-.75,0-1.08-.61-1.08-1.36s.47-1.08,1.22-1.08,1.22.33,1.22,1.08A1.36,1.36,0,0,1,257.57,82.84Zm0-9.49c-.75,0-1.08-.61-1.08-1.36s.47-1.09,1.22-1.09,1.22.33,1.22,1.09A1.36,1.36,0,0,1,257.57,73.35Z"/><path class="cls-5" d="M253.23,89.89c.75,0,1.22.33,1.22,1.09a1.36,1.36,0,0,1-1.36,1.36c-.75,0-1.08-.61-1.08-1.36S252.48,89.89,253.23,89.89Z"/><path class="cls-5" d="M253.23,80.4c.75,0,1.22.33,1.22,1.08a1.36,1.36,0,0,1-1.36,1.36c-.75,0-1.08-.61-1.08-1.36S252.48,80.4,253.23,80.4Z"/><path class="cls-5" d="M253.23,70.9c.75,0,1.22.33,1.22,1.09a1.36,1.36,0,0,1-1.36,1.36c-.75,0-1.08-.61-1.08-1.36S252.48,70.9,253.23,70.9Z"/><path class="cls-5" d="M257.57,87.59c-.75,0-1.08-.61-1.08-1.36s.47-1.09,1.22-1.09,1.22.34,1.22,1.09A1.36,1.36,0,0,1,257.57,87.59Z"/><path class="cls-5" d="M257.57,78.1c-.75,0-1.08-.61-1.08-1.37s.47-1.08,1.22-1.08,1.22.33,1.22,1.08A1.36,1.36,0,0,1,257.57,78.1Z"/><path class="cls-5" d="M257.57,68.6c-.75,0-1.08-.61-1.08-1.36s.47-1.09,1.22-1.09,1.22.34,1.22,1.09A1.36,1.36,0,0,1,257.57,68.6Z"/><path class="cls-1" d="M273.32,43.2h-7.71V56.65h26.2C290.24,48.08,283.24,43.2,273.32,43.2Z"/><g class="cls-6"><polygon class="cls-7" points="242.11 37.66 270.62 8.75 321.24 38.01 272.83 67.96 242.11 37.66"/><polygon class="cls-8" points="231.4 37.61 267.62 0.88 331.95 38.05 270.44 76.11 231.4 37.61"/><polygon class="cls-7" points="250.54 37.79 272.97 15.04 312.81 38.07 274.72 61.63 250.54 37.79"/><polygon class="cls-7" points="258.99 37.93 275.33 21.35 304.37 38.13 276.61 55.3 258.99 37.93"/><polygon class="cls-7" points="266.35 38.04 277.39 26.84 297.01 38.18 278.25 49.78 266.35 38.04"/><polygon class="cls-7" points="272.51 38.07 279.12 31.37 290.84 38.15 279.63 45.09 272.51 38.07"/><polygon class="cls-7" points="278.68 38.1 280.84 35.91 284.68 38.12 281.01 40.39 278.68 38.1"/><line class="cls-8" x1="231.66" y1="37.93" x2="209.3" y2="38.09"/></g><path class="cls-2" d="M343.46,52.86V67.78h30.19V52.86Zm7.88,8.76a1.44,1.44,0,0,1-1.44-1.45c0-.79.64-1.14,1.44-1.14s1.15.5,1.15,1.29S352.14,61.62,351.34,61.62Zm10.05,0A1.44,1.44,0,0,1,360,60.17c0-.79.64-1.14,1.44-1.14s1.14.5,1.14,1.29S362.18,61.62,361.39,61.62Zm10,0A1.45,1.45,0,0,1,370,60.17c0-.79.65-1.14,1.44-1.14s1.15.5,1.15,1.29S372.23,61.62,371.43,61.62Z"/><path class="cls-5" d="M347.46,60.32c0,.8-.35,1.3-1.14,1.3a1.45,1.45,0,0,1-1.45-1.45c0-.79.65-1.14,1.45-1.14S347.46,59.53,347.46,60.32Z"/><path class="cls-5" d="M357.51,60.32c0,.8-.35,1.3-1.15,1.3a1.45,1.45,0,0,1-1.44-1.45c0-.79.65-1.14,1.44-1.14S357.51,59.53,357.51,60.32Z"/><path class="cls-5" d="M367.56,60.32c0,.8-.35,1.3-1.15,1.3A1.45,1.45,0,0,1,365,60.17c0-.79.65-1.14,1.44-1.14S367.56,59.53,367.56,60.32Z"/><path class="cls-9" d="M344.14,74.25c-.1,3.08,0,2.79,0,2.79"/><path class="cls-9" d="M345.6,74.25c-.1,3.08,0,2.79,0,2.79"/><path class="cls-9" d="M347,74.25c-.1,3.08,0,2.79,0,2.79"/><path class="cls-9" d="M351.68,74.24c-3.08-.1-2.79,0-2.79,0"/><path class="cls-9" d="M351.68,75.7c-3.08-.1-2.79,0-2.79,0"/><path class="cls-9" d="M351.68,77.1c-3.08-.1-2.79,0-2.79,0"/><path class="cls-9" d="M353.91,74.25c-.1,3.08,0,2.79,0,2.79"/><path class="cls-9" d="M355.37,74.25c-.11,3.08,0,2.79,0,2.79"/><path class="cls-9" d="M356.76,74.25c-.1,3.08,0,2.79,0,2.79"/><path class="cls-9" d="M361.44,74.24c-3.07-.1-2.78,0-2.78,0"/><path class="cls-9" d="M361.44,75.7c-3.07-.1-2.78,0-2.78,0"/><path class="cls-9" d="M361.44,77.1c-3.07-.1-2.78,0-2.78,0"/><path class="cls-9" d="M363.67,74.25c-.1,3.08,0,2.79,0,2.79"/><path class="cls-9" d="M365.13,74.25c-.1,3.08,0,2.79,0,2.79"/><path class="cls-9" d="M366.53,74.25c-.1,3.08,0,2.79,0,2.79"/><path class="cls-9" d="M371.21,74.24c-3.08-.1-2.78,0-2.78,0"/><path class="cls-9" d="M371.21,75.7c-3.08-.1-2.78,0-2.78,0"/><path class="cls-9" d="M371.21,77.1c-3.08-.1-2.78,0-2.78,0"/><path class="cls-9" d="M344.14,43.82c-.1,3.08,0,2.78,0,2.78"/><path class="cls-9" d="M345.6,43.82c-.1,3.08,0,2.78,0,2.78"/><path class="cls-9" d="M347,43.82c-.1,3.08,0,2.78,0,2.78"/><path class="cls-9" d="M351.68,43.81c-3.08-.1-2.79,0-2.79,0"/><path class="cls-9" d="M351.68,45.27c-3.08-.1-2.79,0-2.79,0"/><path class="cls-9" d="M351.68,46.67c-3.08-.1-2.79,0-2.79,0"/><path class="cls-9" d="M353.91,43.82c-.1,3.08,0,2.78,0,2.78"/><path class="cls-9" d="M355.37,43.82c-.11,3.08,0,2.78,0,2.78"/><path class="cls-9" d="M356.76,43.82c-.1,3.08,0,2.78,0,2.78"/><path class="cls-9" d="M361.44,43.81c-3.07-.1-2.78,0-2.78,0"/><path class="cls-9" d="M361.44,45.27c-3.07-.1-2.78,0-2.78,0"/><path class="cls-9" d="M361.44,46.67c-3.07-.1-2.78,0-2.78,0"/><path class="cls-9" d="M363.67,43.82c-.1,3.08,0,2.78,0,2.78"/><path class="cls-9" d="M365.13,43.82c-.1,3.08,0,2.78,0,2.78"/><path class="cls-9" d="M366.53,43.82c-.1,3.08,0,2.78,0,2.78"/><path class="cls-9" d="M371.21,43.81c-3.08-.1-2.78,0-2.78,0"/><path class="cls-9" d="M371.21,45.27c-3.08-.1-2.78,0-2.78,0"/><path class="cls-9" d="M371.21,46.67c-3.08-.1-2.78,0-2.78,0"/><g class="cls-10"><polygon class="cls-11" points="330.87 93.98 306.75 70.19 331.16 27.95 356.16 68.34 330.87 93.98"/><polygon class="cls-11" points="330.83 102.92 300.18 72.69 331.2 19.01 362.96 70.34 330.83 102.92"/><polygon class="cls-12" points="330.98 86.94 312 68.22 331.21 34.98 350.88 66.77 330.98 86.94"/><polygon class="cls-12" points="331.1 79.89 317.26 66.25 331.26 42.03 345.59 65.19 331.1 79.89"/><polygon class="cls-12" points="331.19 73.75 321.84 64.54 331.3 48.17 340.99 63.82 331.19 73.75"/><polygon class="cls-12" points="331.21 68.61 325.63 63.1 331.28 53.31 337.07 62.67 331.21 68.61"/><polygon class="cls-12" points="331.24 63.46 329.41 61.66 331.26 58.46 333.15 61.52 331.24 63.46"/></g><rect class="cls-2" x="343.46" y="78.61" width="34.09" height="16.1"/><rect class="cls-2" x="343.46" y="26.42" width="33.6" height="16.1"/><g class="cls-13"><polygon class="cls-14" points="339.64 183.99 311.81 156.54 339.97 107.81 368.8 154.41 339.64 183.99"/><polygon class="cls-14" points="339.59 194.3 304.23 159.43 340.02 97.5 376.65 156.71 339.59 194.3"/><polygon class="cls-14" points="339.54 206.09 295.56 162.72 340.07 85.71 385.63 159.35 339.54 206.09"/><polygon class="cls-14" points="339.76 175.87 317.87 154.28 340.03 115.93 362.71 152.59 339.76 175.87"/><polygon class="cls-14" points="339.89 167.74 323.94 152 340.08 124.06 356.62 150.78 339.89 167.74"/><polygon class="cls-14" points="340 160.65 329.22 150.02 340.13 131.14 351.31 149.19 340 160.65"/><polygon class="cls-14" points="340.03 154.72 333.59 148.36 340.11 137.08 346.79 147.87 340.03 154.72"/><polygon class="cls-14" points="340.06 148.78 337.95 146.7 340.08 143.01 342.27 146.54 340.06 148.78"/></g><path class="cls-5" d="M369.61,107.37v36.1l-24.76-36.1h-8.78L386.12,175V107.37Zm8.86,51.5c-1.39,0-2.26-.61-2.26-2a2.52,2.52,0,0,1,2.52-2.52c1.39,0,2,1.13,2,2.52S379.86,158.87,378.47,158.87Zm0-17.55c-1.39,0-2.26-.61-2.26-2a2.52,2.52,0,0,1,2.52-2.52c1.39,0,2,1.13,2,2.52S379.86,141.32,378.47,141.32Zm0-17.55c-1.39,0-2.26-.62-2.26-2a2.51,2.51,0,0,1,2.52-2.51c1.39,0,2,1.12,2,2.51S379.86,123.77,378.47,123.77Z"/><path class="cls-2" d="M378.47,115c-1.39,0-2.26-.61-2.26-2a2.52,2.52,0,0,1,2.52-2.52c1.39,0,2,1.13,2,2.52S379.86,115,378.47,115Z"/><path class="cls-2" d="M378.47,132.54c-1.39,0-2.26-.61-2.26-2a2.52,2.52,0,0,1,2.52-2.52c1.39,0,2,1.13,2,2.52S379.86,132.54,378.47,132.54Z"/><path class="cls-2" d="M378.47,150.1c-1.39,0-2.26-.62-2.26-2a2.52,2.52,0,0,1,2.52-2.52c1.39,0,2,1.13,2,2.52S379.86,150.1,378.47,150.1Z"/><path class="cls-2" d="M517.22,253.51a1.14,1.14,0,0,0-1.26-1.29,1.52,1.52,0,0,0-1.59,1.44c0,.79.71,1.14,1.59,1.14A1.14,1.14,0,0,0,517.22,253.51Z"/><path class="cls-2" d="M540,253.51a1.14,1.14,0,0,1,1.26-1.29,1.52,1.52,0,0,1,1.59,1.44c0,.79-.71,1.14-1.59,1.14A1.14,1.14,0,0,1,540,253.51Z"/><path class="cls-5" d="M547.35,256l-18.74-27-18.35,27h8.07l10.19-14.41,10,14.41Zm-26.78-6.91a1.15,1.15,0,0,1-1.27,1.29c-.87,0-1.58-.35-1.58-1.15a1.52,1.52,0,0,1,1.58-1.44A1.15,1.15,0,0,1,520.57,249.11Zm6.42-9.25a1.14,1.14,0,0,1-1.26,1.29c-.88,0-1.59-.35-1.59-1.15a1.52,1.52,0,0,1,1.59-1.44A1.15,1.15,0,0,1,527,239.86Zm6.09.14c0,.8-.71,1.15-1.59,1.15a1.3,1.3,0,0,1,0-2.59A1.52,1.52,0,0,1,533.08,240Zm6.42,9.25c0,.8-.71,1.15-1.59,1.15a1.3,1.3,0,0,1,0-2.59A1.52,1.52,0,0,1,539.5,249.25Z"/><path class="cls-2" d="M523.67,244.26A1.15,1.15,0,0,0,522.4,243a1.52,1.52,0,0,0-1.58,1.44c0,.8.71,1.15,1.58,1.15A1.15,1.15,0,0,0,523.67,244.26Z"/><path class="cls-2" d="M533.55,244.26a1.14,1.14,0,0,1,1.26-1.29,1.52,1.52,0,0,1,1.59,1.44c0,.8-.71,1.15-1.59,1.15A1.15,1.15,0,0,1,533.55,244.26Z"/><path class="cls-2" d="M530.23,235.34A1.15,1.15,0,0,0,529,234a1.52,1.52,0,0,0-1.59,1.45c0,.79.71,1.14,1.59,1.14A1.14,1.14,0,0,0,530.23,235.34Z"/><path class="cls-5" d="M538.51,188.18l-10,14.4-10.19-14.4h-8.07l18.35,27,18.74-27Zm-19.21,8.2a1.52,1.52,0,0,1-1.58-1.44c0-.8.71-1.15,1.58-1.15a1.3,1.3,0,0,1,0,2.59Zm6.43,9.25a1.52,1.52,0,0,1-1.59-1.44c0-.8.71-1.15,1.59-1.15a1.3,1.3,0,0,1,0,2.59Zm5.76,0a1.3,1.3,0,0,1,0-2.59c.88,0,1.59.35,1.59,1.15A1.52,1.52,0,0,1,531.49,205.63Zm6.42-9.25a1.3,1.3,0,0,1,0-2.59c.88,0,1.59.35,1.59,1.15A1.52,1.52,0,0,1,537.91,196.38Z"/><g class="cls-15"><polygon class="cls-16" points="519.62 256.92 491.17 231.44 519.96 186.19 549.43 229.46 519.62 256.92"/><polygon class="cls-16" points="519.57 266.49 483.43 234.12 520.01 176.62 557.46 231.6 519.57 266.49"/><polygon class="cls-16" points="519.75 249.38 497.37 229.33 520.02 193.73 543.21 227.77 519.75 249.38"/><polygon class="cls-16" points="519.88 241.83 503.57 227.22 520.08 201.28 536.98 226.09 519.88 241.83"/><polygon class="cls-16" points="520 235.26 508.97 225.38 520.13 207.85 531.55 224.62 520 235.26"/><polygon class="cls-16" points="520.02 229.75 513.43 223.84 520.1 213.37 526.93 223.38 520.02 229.75"/><polygon class="cls-16" points="520.05 224.24 517.89 222.3 520.08 218.88 522.31 222.15 520.05 224.24"/></g><g class="cls-17"><polygon class="cls-16" points="539.28 256.92 510.84 231.44 539.63 186.19 569.1 229.46 539.28 256.92"/><polygon class="cls-16" points="539.24 266.49 503.09 234.12 539.67 176.62 577.12 231.6 539.24 266.49"/><polygon class="cls-16" points="539.42 249.38 517.03 229.33 539.68 193.73 562.88 227.77 539.42 249.38"/><polygon class="cls-16" points="539.55 241.83 523.23 227.22 539.74 201.28 556.64 226.09 539.55 241.83"/><polygon class="cls-16" points="539.66 235.26 528.64 225.38 539.79 207.85 551.21 224.62 539.66 235.26"/><polygon class="cls-16" points="539.69 229.75 533.1 223.84 539.77 213.37 546.59 223.38 539.69 229.75"/><polygon class="cls-16" points="539.71 224.24 537.56 222.3 539.74 218.88 541.97 222.15 539.71 224.24"/></g><path class="cls-2" d="M517.22,190.68A1.14,1.14,0,0,1,516,192a1.52,1.52,0,0,1-1.59-1.44c0-.79.71-1.14,1.59-1.14A1.14,1.14,0,0,1,517.22,190.68Z"/><path class="cls-2" d="M523.67,199.93a1.15,1.15,0,0,1-1.27,1.29,1.51,1.51,0,0,1-1.58-1.44c0-.8.71-1.15,1.58-1.15A1.15,1.15,0,0,1,523.67,199.93Z"/><path class="cls-2" d="M540,190.68a1.14,1.14,0,0,0,1.26,1.29,1.52,1.52,0,0,0,1.59-1.44c0-.79-.71-1.14-1.59-1.14A1.14,1.14,0,0,0,540,190.68Z"/><path class="cls-2" d="M533.55,199.93a1.14,1.14,0,0,0,1.26,1.29,1.52,1.52,0,0,0,1.59-1.44c0-.8-.71-1.15-1.59-1.15A1.15,1.15,0,0,0,533.55,199.93Z"/><path class="cls-2" d="M530.23,208.85a1.15,1.15,0,0,1-1.26,1.3,1.52,1.52,0,0,1-1.59-1.44c0-.8.71-1.15,1.59-1.15A1.14,1.14,0,0,1,530.23,208.85Z"/><path class="cls-2" d="M163.23,187.72V201H223.7V187.72Zm14.07,7.82a1.58,1.58,0,0,1-1.58-1.58c0-.88.7-1.26,1.58-1.26s1.26.54,1.26,1.42S178.18,195.54,177.3,195.54Zm16,0a1.58,1.58,0,0,1-1.58-1.58c0-.88.71-1.26,1.58-1.26s1.26.54,1.26,1.42S194.21,195.54,193.33,195.54Zm16.47,0a1.58,1.58,0,0,1-1.58-1.58c0-.88.71-1.26,1.58-1.26s1.27.54,1.27,1.42S210.68,195.54,209.8,195.54Z"/><path class="cls-5" d="M170.56,194.12c0,.88-.39,1.42-1.26,1.42a1.59,1.59,0,0,1-1.59-1.58c0-.88.71-1.26,1.59-1.26S170.56,193.24,170.56,194.12Z"/><path class="cls-5" d="M186.59,194.12c0,.88-.38,1.42-1.26,1.42a1.58,1.58,0,0,1-1.58-1.58c0-.88.71-1.26,1.58-1.26S186.59,193.24,186.59,194.12Z"/><path class="cls-5" d="M203.06,194.12c0,.88-.38,1.42-1.26,1.42a1.58,1.58,0,0,1-1.58-1.58c0-.88.71-1.26,1.58-1.26S203.06,193.24,203.06,194.12Z"/><path class="cls-5" d="M219.1,194.12c0,.88-.39,1.42-1.27,1.42a1.58,1.58,0,0,1-1.58-1.58c0-.88.71-1.26,1.58-1.26S219.1,193.24,219.1,194.12Z"/><g class="cls-18"><polygon class="cls-19" points="192.95 261.07 169.37 237.81 193.24 196.51 217.68 236 192.95 261.07"/><polygon class="cls-19" points="192.92 269.81 162.94 240.25 193.28 187.77 224.33 237.96 192.92 269.81"/><polygon class="cls-19" points="193.06 254.19 174.5 235.89 193.29 203.39 212.51 234.47 193.06 254.19"/><polygon class="cls-19" points="193.17 247.3 179.65 233.96 193.33 210.28 207.35 232.93 193.17 247.3"/><polygon class="cls-19" points="193.27 241.3 184.13 232.28 193.38 216.28 202.84 231.58 193.27 241.3"/><polygon class="cls-19" points="193.29 236.26 187.82 230.88 193.35 221.31 199.01 230.46 193.29 236.26"/><polygon class="cls-19" points="193.31 231.23 191.52 229.47 193.33 226.34 195.18 229.34 193.31 231.23"/></g><path class="cls-1" d="M426.59,124.46c-7.9,0-13.69,5.51-15.6,12.85H442.4C440.39,130,434.51,124.46,426.59,124.46Z"/><path class="cls-2" d="M442.47,145.71c-1.91,7.35-7.72,12.86-15.69,12.86s-13.72-5.55-15.72-12.86H392.38c2.42,17,16.2,29.95,34.21,29.95s31.84-13,34.37-29.95Zm-28.86,19.58A2.66,2.66,0,0,1,411,162.6c0-1.49,1.17-2.14,2.62-2.14s2.09.93,2.09,2.41S415.06,165.29,413.61,165.29Zm26.41,0c-1.45,0-2.09-.93-2.09-2.42s.64-2.41,2.09-2.41,2.62.65,2.62,2.14A2.66,2.66,0,0,1,440,165.29Z"/><path class="cls-5" d="M406.57,152.53c0,1.48-.64,2.41-2.09,2.41a2.67,2.67,0,0,1-2.63-2.69c0-1.48,1.18-2.14,2.63-2.14S406.57,151,406.57,152.53Z"/><path class="cls-5" d="M429,168.24c0,1.49-.64,2.41-2.09,2.41a2.65,2.65,0,0,1-2.62-2.68c0-1.49,1.17-2.14,2.62-2.14S429,166.76,429,168.24Z"/><path class="cls-5" d="M447.06,152.53c0,1.48.64,2.41,2.09,2.41a2.67,2.67,0,0,0,2.63-2.69c0-1.48-1.18-2.14-2.63-2.14S447.06,151,447.06,152.53Z"/><g class="cls-20"><polygon class="cls-21" points="425.98 152.13 402.19 127.24 426.26 83.03 450.91 125.3 425.98 152.13"/><polygon class="cls-21" points="425.94 161.49 395.71 129.85 426.3 73.68 457.62 127.39 425.94 161.49"/><polygon class="cls-21" points="425.66 170.61 389.16 132.4 426.4 64.26 464.14 129.21 425.66 170.61"/><polygon class="cls-21" points="426.09 144.77 407.37 125.18 426.31 90.4 445.7 123.66 426.09 144.77"/><polygon class="cls-21" points="426.2 137.39 412.56 123.12 426.36 97.77 440.49 122.01 426.2 137.39"/><polygon class="cls-21" points="426.29 130.97 417.08 121.32 426.4 104.19 435.95 120.57 426.29 130.97"/><polygon class="cls-21" points="426.32 125.58 420.81 119.82 426.38 109.58 432.09 119.37 426.32 125.58"/><polygon class="cls-21" points="426.34 120.2 424.54 118.31 426.36 114.96 428.23 118.17 426.34 120.2"/></g><path class="cls-5" d="M153.45,59.37a1.15,1.15,0,0,1-1.26,1,1.63,1.63,0,0,1-1.63-1.63c0-.9.73-1.3,1.63-1.3a1.16,1.16,0,0,1,1.27,1c5.5-2.72,9.46-7.3,9.46-14.73v-.19a15,15,0,0,0-4.39-11c-4-4-10.05-6.14-18.63-6.14H126.54V41.64h9.06c5.66,0,8.59,2.14,8.59,5.85v.2c0,4-3.22,6-9,6h-8.67V66.91h11.21c6.34,0,9.27,2.43,9.27,6.14v.2c0,4-3.32,6.24-9.07,6.24H126.54V94.71h13.55c16.3,0,25.86-7.12,25.86-18.83v-.19C166,66.82,161.13,62.15,153.45,59.37Zm-24,1a1.64,1.64,0,0,1-1.64-1.63c0-.9.74-1.3,1.64-1.3s1.3.57,1.3,1.47S130.34,60.39,129.44,60.39Zm11.37,0a1.63,1.63,0,0,1-1.63-1.63c0-.9.73-1.3,1.63-1.3s1.3.57,1.3,1.47S141.72,60.39,140.81,60.39Z"/><path class="cls-2" d="M136.43,58.93c0,.9-.4,1.46-1.3,1.46a1.63,1.63,0,0,1-1.64-1.63c0-.9.73-1.3,1.64-1.3S136.43,58,136.43,58.93Z"/><path class="cls-2" d="M147.8,58.93c0,.9-.4,1.46-1.3,1.46a1.63,1.63,0,0,1-1.63-1.63c0-.9.73-1.3,1.63-1.3S147.8,58,147.8,58.93Z"/><path class="cls-22" d="M126.73,75.3c-.1,3.08,0,2.79,0,2.79"/><path class="cls-22" d="M128.19,75.3c-.1,3.08,0,2.79,0,2.79"/><path class="cls-22" d="M129.59,75.3c-.1,3.08,0,2.79,0,2.79"/><path class="cls-22" d="M134.27,75.29c-3.08-.1-2.78,0-2.78,0"/><path class="cls-22" d="M134.27,76.75c-3.08-.1-2.78,0-2.78,0"/><path class="cls-22" d="M134.27,78.15c-3.08-.1-2.78,0-2.78,0"/><path class="cls-22" d="M136.5,75.3c-.1,3.08,0,2.79,0,2.79"/><path class="cls-22" d="M138,75.3c-.1,3.08,0,2.79,0,2.79"/><path class="cls-22" d="M139.35,75.3c-.1,3.08,0,2.79,0,2.79"/><path class="cls-22" d="M144,75.29c-3.07-.1-2.78,0-2.78,0"/><path class="cls-22" d="M144,76.75c-3.07-.1-2.78,0-2.78,0"/><path class="cls-22" d="M144,78.15c-3.07-.1-2.78,0-2.78,0"/><path class="cls-22" d="M126.73,42.78c-.1,3.07,0,2.78,0,2.78"/><path class="cls-22" d="M128.19,42.78c-.1,3.07,0,2.78,0,2.78"/><path class="cls-22" d="M129.59,42.78c-.1,3.07,0,2.78,0,2.78"/><path class="cls-22" d="M134.27,42.77c-3.08-.1-2.78,0-2.78,0"/><path class="cls-22" d="M134.27,44.23c-3.08-.11-2.78,0-2.78,0"/><path class="cls-22" d="M134.27,45.62c-3.08-.1-2.78,0-2.78,0"/><path class="cls-22" d="M136.5,42.78c-.1,3.07,0,2.78,0,2.78"/><path class="cls-22" d="M138,42.78c-.1,3.07,0,2.78,0,2.78"/><path class="cls-22" d="M139.35,42.78c-.1,3.07,0,2.78,0,2.78"/><path class="cls-23" d="M141.34,42.77c-.11-.1-.09,0-.09,0"/><path class="cls-22" d="M142.62,44.23c-1.52-.11-1.37,0-1.37,0"/><path class="cls-22" d="M143.29,45.62c-2.26-.1-2,0-2,0"/><g class="cls-24"><polygon class="cls-25" points="111.96 93.71 87.7 68.51 114.03 25.57 138.74 67.93 111.96 93.71"/><polygon class="cls-25" points="111.68 102.94 80.85 70.92 114.31 16.34 145.71 70.17 111.68 102.94"/><polygon class="cls-25" points="112.26 86.45 93.17 66.62 113.89 32.83 133.33 66.16 112.26 86.45"/><polygon class="cls-25" points="112.57 79.18 98.65 64.73 113.75 40.11 127.92 64.39 112.57 79.18"/><polygon class="cls-25" points="112.83 72.85 103.43 63.08 113.63 46.44 123.21 62.85 112.83 72.85"/><polygon class="cls-25" points="112.99 67.54 107.37 61.7 113.47 51.75 119.19 61.56 112.99 67.54"/><polygon class="cls-25" points="113.15 62.23 111.31 60.32 113.31 57.06 115.18 60.27 113.15 62.23"/><line class="cls-25" x1="111.96" y1="102.71" x2="111.6" y2="121.97"/></g><path class="cls-2" d="M22.29,107.37v27.7h19v-27.7ZM32,123a2.27,2.27,0,0,1-2.26-2.27c0-1.25,1-1.8,2.26-1.8s1.81.79,1.81,2S33.29,123,32,123Z"/><path class="cls-5" d="M33.84,112.24c0,1.25-.55,2-1.81,2A2.26,2.26,0,0,1,29.77,112c0-1.25,1-1.8,2.26-1.8S33.84,111,33.84,112.24Z"/><path class="cls-5" d="M33.84,129.75c0,1.25-.55,2-1.81,2a2.26,2.26,0,0,1-2.26-2.26c0-1.25,1-1.8,2.26-1.8S33.84,128.5,33.84,129.75Z"/><g class="cls-26"><polygon class="cls-27" points="31.37 204.96 7.18 181.11 31.66 138.74 56.73 179.25 31.37 204.96"/><polygon class="cls-27" points="31.33 213.93 0.59 183.61 31.7 129.78 63.55 181.25 31.33 213.93"/><polygon class="cls-27" points="31.48 197.91 12.45 179.13 31.71 145.8 51.43 177.67 31.48 197.91"/><polygon class="cls-27" points="31.59 190.84 17.72 177.16 31.76 152.87 46.13 176.09 31.59 190.84"/><polygon class="cls-27" points="31.69 184.68 22.32 175.44 31.8 159.02 41.52 174.72 31.69 184.68"/><polygon class="cls-27" points="31.71 179.52 26.11 173.99 31.78 164.18 37.59 173.56 31.71 179.52"/><polygon class="cls-27" points="31.74 174.36 29.9 172.55 31.76 169.34 33.66 172.41 31.74 174.36"/></g><path class="cls-5" d="M181.11,107.37v68.29h16.76V107.37Zm8.65,49.79a2.68,2.68,0,0,1-2.68-2.68c0-1.49,1.2-2.14,2.68-2.14s2.14.93,2.14,2.41S191.25,157.16,189.76,157.16Zm0-25.11a2.68,2.68,0,0,1-2.68-2.68c0-1.49,1.2-2.14,2.68-2.14s2.14.93,2.14,2.41S191.25,132.05,189.76,132.05Z"/><path class="cls-2" d="M191.9,116.35c0,1.48-.65,2.41-2.14,2.41a2.68,2.68,0,0,1-2.68-2.69c0-1.48,1.2-2.13,2.68-2.13S191.9,114.86,191.9,116.35Z"/><path class="cls-2" d="M191.9,142.48c0,1.49-.65,2.41-2.14,2.41a2.68,2.68,0,0,1-2.68-2.68c0-1.49,1.2-2.14,2.68-2.14S191.9,141,191.9,142.48Z"/><path class="cls-2" d="M191.9,167c0,1.48-.65,2.41-2.14,2.41a2.68,2.68,0,0,1-2.68-2.68c0-1.49,1.2-2.14,2.68-2.14S191.9,165.54,191.9,167Z"/><g class="cls-28"><polygon class="cls-29" points="247.49 167.78 224.62 190.97 184.01 167.5 222.84 143.48 247.49 167.78"/><polygon class="cls-29" points="256.07 167.82 227.02 197.28 175.42 167.47 224.76 136.94 256.07 167.82"/><polygon class="cls-29" points="240.72 167.68 222.73 185.92 190.78 167.46 221.33 148.56 240.72 167.68"/><polygon class="cls-29" points="233.95 167.57 220.83 180.87 197.55 167.41 219.81 153.63 233.95 167.57"/><polygon class="cls-29" points="228.04 167.48 219.19 176.46 203.45 167.37 218.5 158.06 228.04 167.48"/><polygon class="cls-29" points="223.1 167.45 217.8 172.82 208.4 167.39 217.39 161.83 223.1 167.45"/><polygon class="cls-29" points="218.15 167.43 216.42 169.19 213.34 167.41 216.28 165.59 218.15 167.43"/></g><polyline class="cls-5" points="50.87 82.6 77.03 82.6 81.97 94.71 102.11 94.71 73.25 26.42 72.89 26.42 64.05 48.7 71.6 67.97 56.39 67.97"/><path class="cls-30" d="M50.37,84c-.1,3.06,0,2.77,0,2.77"/><path class="cls-30" d="M51.82,84c-.1,3.06,0,2.77,0,2.77"/><path class="cls-30" d="M53.21,84c-.1,3.06,0,2.77,0,2.77"/><path class="cls-30" d="M57.86,84c-3.06-.1-2.77,0-2.77,0"/><path class="cls-30" d="M57.86,85.41c-3.06-.1-2.77,0-2.77,0"/><path class="cls-30" d="M57.86,86.8c-3.06-.1-2.77,0-2.77,0"/><path class="cls-30" d="M60.07,84c-.1,3.06,0,2.77,0,2.77"/><path class="cls-30" d="M61.52,84c-.1,3.06,0,2.77,0,2.77"/><path class="cls-30" d="M62.91,84c-.1,3.06,0,2.77,0,2.77"/><path class="cls-30" d="M67.55,84c-3-.1-2.76,0-2.76,0"/><path class="cls-30" d="M67.55,85.41c-3-.1-2.76,0-2.76,0"/><path class="cls-30" d="M67.55,86.8c-3-.1-2.76,0-2.76,0"/><path class="cls-30" d="M69.77,84c-.1,3.06,0,2.77,0,2.77"/><path class="cls-30" d="M71.22,84c-.1,3.06,0,2.77,0,2.77"/><path class="cls-30" d="M72.6,84c-.1,3.06,0,2.77,0,2.77"/><path class="cls-30" d="M77.25,84c-3-.1-2.76,0-2.76,0"/><path class="cls-30" d="M77.25,85.41c-3-.1-2.76,0-2.76,0"/><path class="cls-30" d="M77.25,86.8c-3-.1-2.76,0-2.76,0"/><path class="cls-2" d="M77.91,30.8a.79.79,0,0,1-1.18-.41A1,1,0,0,1,77.3,29c.53-.22.94.12,1.16.65S78.44,30.58,77.91,30.8Z"/><path class="cls-2" d="M79.3,34.15a.79.79,0,0,1-1.18-.41,1,1,0,0,1,.56-1.36c.53-.22.94.11,1.16.65S79.83,33.93,79.3,34.15Z"/><path class="cls-2" d="M80.69,37.5a.79.79,0,0,1-1.18-.41,1,1,0,0,1,.56-1.36c.53-.22.94.11,1.16.64S81.22,37.28,80.69,37.5Z"/><path class="cls-2" d="M82.07,40.85a.79.79,0,0,1-1.18-.41,1,1,0,0,1,.57-1.36c.53-.22.94.11,1.16.64S82.6,40.63,82.07,40.85Z"/><path class="cls-2" d="M83.46,44.2a.79.79,0,0,1-1.18-.41,1,1,0,0,1,.56-1.36c.53-.22,1,.11,1.17.64S84,44,83.46,44.2Z"/><path class="cls-2" d="M84.85,47.55c-.53.21-1,.12-1.18-.41a1,1,0,0,1,.56-1.36c.53-.22.94.11,1.16.64A.8.8,0,0,1,84.85,47.55Z"/><path class="cls-2" d="M86.23,50.89c-.53.22-1,.13-1.17-.4a1,1,0,0,1,.56-1.36c.53-.22.94.11,1.16.64S86.76,50.67,86.23,50.89Z"/><path class="cls-2" d="M87.62,54.24c-.53.22-1,.13-1.18-.4A1,1,0,0,1,87,52.48c.54-.22,1,.11,1.17.64S88.15,54,87.62,54.24Z"/><path class="cls-2" d="M89,57.59c-.53.22-1,.13-1.18-.4a1,1,0,0,1,.56-1.36c.53-.22.94.11,1.16.64S89.54,57.37,89,57.59Z"/><path class="cls-2" d="M90.4,60.94c-.54.22-1,.13-1.18-.41a1,1,0,0,1,.56-1.35c.53-.22.94.11,1.16.64S90.93,60.72,90.4,60.94Z"/><path class="cls-2" d="M91.78,64.29a.79.79,0,0,1-1.18-.41,1,1,0,0,1,.57-1.35c.53-.22.94.11,1.16.64S92.31,64.07,91.78,64.29Z"/><path class="cls-2" d="M93.17,67.64A.79.79,0,0,1,92,67.23a1,1,0,0,1,.56-1.36c.53-.22,1,.12,1.17.65S93.7,67.42,93.17,67.64Z"/><path class="cls-2" d="M94.56,71a.79.79,0,0,1-1.18-.41,1,1,0,0,1,.56-1.36c.53-.22.94.12,1.16.65S95.09,70.77,94.56,71Z"/><path class="cls-2" d="M95.94,74.34a.79.79,0,0,1-1.18-.41,1,1,0,0,1,.57-1.36c.53-.22.94.12,1.16.65S96.47,74.12,95.94,74.34Z"/><path class="cls-2" d="M97.33,77.69a.79.79,0,0,1-1.18-.41,1,1,0,0,1,.56-1.36c.54-.22,1,.12,1.17.65S97.86,77.47,97.33,77.69Z"/><path class="cls-2" d="M98.72,81a.79.79,0,0,1-1.18-.41,1,1,0,0,1,.56-1.36c.53-.22.94.12,1.16.65S99.25,80.82,98.72,81Z"/><path class="cls-2" d="M100.11,84.39c-.54.22-1,.12-1.18-.41a1,1,0,0,1,.56-1.36c.53-.22.94.12,1.16.65S100.64,84.17,100.11,84.39Z"/><path class="cls-2" d="M101.49,87.74a.79.79,0,0,1-1.18-.41,1,1,0,0,1,.57-1.36c.53-.22.94.11,1.16.65S102,87.52,101.49,87.74Z"/><path class="cls-2" d="M102.88,91.09a.79.79,0,0,1-1.18-.41,1,1,0,0,1,.56-1.36c.53-.22.94.11,1.16.64S103.41,90.87,102.88,91.09Z"/><path class="cls-2" d="M104.27,94.44a.79.79,0,0,1-1.18-.41,1,1,0,0,1,.56-1.36c.53-.22.94.11,1.16.64A.8.8,0,0,1,104.27,94.44Z"/><polygon class="cls-1" points="71.6 67.97 64.05 48.7 56.39 67.97 71.6 67.97"/><g class="cls-31"><polygon class="cls-32" points="35.24 86.44 23.23 57.65 59.02 30.48 65.84 73.68 35.24 86.44"/><polygon class="cls-32" points="32.02 94.02 16.76 57.43 62.23 22.9 70.91 77.8 32.02 94.02"/><polygon class="cls-32" points="37.84 80.51 28.39 57.85 56.55 36.47 61.92 70.47 37.84 80.51"/><polygon class="cls-32" points="40.45 74.56 33.56 58.05 54.08 42.47 57.99 67.25 40.45 74.56"/><polygon class="cls-32" points="42.72 69.38 38.06 58.23 51.93 47.7 54.57 64.44 42.72 69.38"/><polygon class="cls-32" points="44.57 65.02 41.79 58.35 50.08 52.06 51.66 62.07 44.57 65.02"/><polygon class="cls-32" points="46.42 60.66 45.51 58.48 48.22 56.42 48.74 59.69 46.42 60.66"/></g><path class="cls-5" d="M22.29,187.72V256H39v-68.3Zm8.65,49.8a2.69,2.69,0,0,1-2.68-2.69c0-1.48,1.2-2.13,2.68-2.13s2.14.92,2.14,2.41S32.42,237.52,30.94,237.52Zm0-25.11a2.69,2.69,0,0,1-2.68-2.69c0-1.48,1.2-2.13,2.68-2.13s2.14.92,2.14,2.41S32.42,212.41,30.94,212.41Z"/><path class="cls-2" d="M33.08,196.7c0,1.49-.66,2.41-2.14,2.41a2.68,2.68,0,0,1-2.68-2.68c0-1.49,1.2-2.14,2.68-2.14S33.08,195.22,33.08,196.7Z"/><path class="cls-2" d="M33.08,222.84c0,1.48-.66,2.41-2.14,2.41a2.68,2.68,0,0,1-2.68-2.69c0-1.48,1.2-2.13,2.68-2.13S33.08,221.35,33.08,222.84Z"/><path class="cls-2" d="M33.08,247.38c0,1.48-.66,2.41-2.14,2.41a2.69,2.69,0,0,1-2.68-2.69c0-1.48,1.2-2.13,2.68-2.13S33.08,245.89,33.08,247.38Z"/><g class="cls-33"><polygon class="cls-34" points="69.89 260.39 41.2 231.06 70.23 178.98 99.95 228.78 69.89 260.39"/><polygon class="cls-34" points="69.84 271.41 33.39 234.14 70.28 167.97 108.04 231.24 69.84 271.41"/><polygon class="cls-34" points="69.78 285.33 23.52 238.03 70.34 154.05 118.27 234.35 69.78 285.33"/><polygon class="cls-34" points="70.02 251.71 47.45 228.64 70.29 187.66 93.67 226.84 70.02 251.71"/><polygon class="cls-34" points="70.15 243.02 53.7 226.21 70.35 196.35 87.39 224.9 70.15 243.02"/><polygon class="cls-34" points="70.27 235.46 59.15 224.09 70.4 203.91 81.92 223.21 70.27 235.46"/><polygon class="cls-34" points="70.29 229.11 63.65 222.32 70.37 210.26 77.26 221.79 70.29 229.11"/><polygon class="cls-34" points="70.32 222.77 68.15 220.55 70.35 216.6 72.6 220.37 70.32 222.77"/></g><path class="cls-2" d="M206.89,26.42V43.11c5.3.53,9.13,3.39,12.51,7.6L233.11,40.1C227.53,32.36,219.37,26.87,206.89,26.42Zm7.81,9.31a1.13,1.13,0,0,1-1.13-1.12c0-.62.51-.9,1.13-.9s.89.39.89,1S215.32,35.73,214.7,35.73Zm7.71,5.49a1.12,1.12,0,0,1-1.12-1.13c0-.62.5-.89,1.12-.89s.9.39.9,1S223,41.22,222.41,41.22Z"/><path class="cls-5" d="M210.84,33.71c0,.62-.28,1-.9,1a1.12,1.12,0,0,1-1.12-1.12c0-.62.5-.9,1.12-.9S210.84,33.09,210.84,33.71Z"/><path class="cls-5" d="M220,36.72c0,.62-.27,1-.89,1a1.13,1.13,0,0,1-1.13-1.12c0-.63.51-.9,1.13-.9S220,36.1,220,36.72Z"/><path class="cls-5" d="M226.19,44c0,.62-.28,1-.9,1a1.13,1.13,0,0,1-1.12-1.13c0-.62.5-.89,1.12-.89S226.19,43.42,226.19,44Z"/><path class="cls-1" d="M192.16,60.39v.19c0,7.74,4,14.15,10.16,16.55V44C196.16,46.45,192.16,52.87,192.16,60.39Z"/><g class="cls-35"><polygon class="cls-36" points="186.42 90.31 161.62 65 187.91 21.26 213.32 63.95 186.42 90.31"/><polygon class="cls-36" points="186.22 99.66 154.71 67.49 188.11 11.91 220.41 66.16 186.22 99.66"/><polygon class="cls-37" points="186.67 82.95 167.15 63.04 187.84 28.62 207.83 62.21 186.67 82.95"/><polygon class="cls-37" points="186.91 75.58 172.69 61.07 187.76 35.99 202.33 60.47 186.91 75.58"/><polygon class="cls-37" points="187.12 69.17 177.51 59.36 187.7 42.41 197.54 58.95 187.12 69.17"/><polygon class="cls-37" points="187.24 63.78 181.49 57.92 187.58 47.79 193.47 57.68 187.24 63.78"/><polygon class="cls-37" points="187.35 58.4 185.47 56.48 187.47 53.17 189.39 56.41 187.35 58.4"/><line class="cls-38" x1="186.5" y1="99.43" x2="186.31" y2="118.94"/></g><path class="cls-2" d="M219.86,70.16c-3.57,4.34-7.22,7.37-13,7.9V94.71C220,94,227.73,88,233.58,79.93Zm-4.41,15.5a.87.87,0,0,1-1.3.37c-.56-.27-.79-.69-.52-1.25a1.12,1.12,0,0,1,1.5-.52C215.69,84.52,215.72,85.1,215.45,85.66Zm8.29-4.58a.87.87,0,0,1-1.3.37c-.56-.27-.79-.69-.52-1.25a1.12,1.12,0,0,1,1.5-.52C224,79.94,224,80.52,223.74,81.08Z"/><path class="cls-5" d="M225.4,77.6c-.56-.27-.79-.68-.52-1.24a1.12,1.12,0,0,1,1.5-.53c.56.27.59.84.32,1.4A.86.86,0,0,1,225.4,77.6Z"/><path class="cls-5" d="M218.75,84.52c-.56-.27-.79-.68-.53-1.24a1.12,1.12,0,0,1,1.5-.53c.56.27.59.84.32,1.4S219.31,84.79,218.75,84.52Z"/><path class="cls-5" d="M209.45,87c-.55-.27-.79-.69-.52-1.25a1.13,1.13,0,0,1,1.5-.52c.56.27.59.84.32,1.4A.86.86,0,0,1,209.45,87Z"/><path class="cls-5" d="M127.07,222.77C105.89,216.14,106,203,107.28,197a18.81,18.81,0,0,0-5.18,13.32v.19c0,13.14,10.5,17,24.1,20.08,8.67,2,10.77,3.47,10.77,6.12v.18c0,2.74-2.55,4.39-7.3,4.39a32.93,32.93,0,0,1-20.73-7.67l-9.86,11.77c7.86,7,18.63,10.6,30,10.6,15.08,0,25.24-7.33,25.81-19.71C149.3,231.15,140.5,227,127.07,222.77Zm-5.79,27.64a2.51,2.51,0,0,1-2.51-2.51c0-1.39,1.12-2,2.51-2s2,.87,2,2.25S122.67,250.41,121.28,250.41Zm20.36-2.82a2.51,2.51,0,0,1-2.52-2.51c0-1.39,1.13-2,2.52-2s2,.87,2,2.26S143,247.59,141.64,247.59Z"/><g class="cls-39"><polygon class="cls-40" points="135.35 230.36 111.11 205.59 135.64 161.6 160.74 203.66 135.35 230.36"/><polygon class="cls-40" points="135.31 239.67 104.51 208.19 135.68 152.29 167.58 205.74 135.31 239.67"/><polygon class="cls-40" points="135.26 251.43 96.18 211.48 135.73 140.53 176.21 208.37 135.26 251.43"/><polygon class="cls-40" points="135.46 223.03 116.39 203.54 135.69 168.93 155.44 202.03 135.46 223.03"/><polygon class="cls-40" points="135.57 215.69 121.67 201.49 135.74 176.26 150.13 200.38 135.57 215.69"/><polygon class="cls-40" points="135.67 209.3 126.28 199.7 135.78 182.66 145.51 198.96 135.67 209.3"/><polygon class="cls-40" points="135.69 203.94 130.08 198.21 135.76 188.02 141.57 197.76 135.69 203.94"/><polygon class="cls-40" points="135.71 198.58 133.88 196.71 135.73 193.37 137.64 196.56 135.71 198.58"/></g><path class="cls-2" d="M113.76,243.64c0,1.39-.61,2.26-2,2.26a2.52,2.52,0,0,1-2.51-2.51c0-1.39,1.13-2,2.51-2S113.76,242.26,113.76,243.64Z"/><path class="cls-2" d="M133.91,249.85c0,1.38-.61,2.25-2,2.25a2.51,2.51,0,0,1-2.51-2.51c0-1.39,1.12-2,2.51-2S133.91,248.46,133.91,249.85Z"/><path class="cls-2" d="M147.55,235.73c0,1.39-.61,2.25-2,2.25a2.51,2.51,0,0,1-2.51-2.51c0-1.39,1.12-2,2.51-2S147.55,234.34,147.55,235.73Z"/><path class="cls-2" d="M557.08,68.28v26H538.16V25.93h18.92V51.49M545.53,59c0,1.28.57,2.32,1.85,2.32A2.32,2.32,0,0,0,549.71,59c0-1.29-.8-1.86-2.09-1.86S545.53,57.71,545.53,59Zm0-17.94c0,1.29.57,2.33,1.85,2.33a2.33,2.33,0,0,0,2.33-2.33c0-1.28-.8-1.85-2.09-1.85S545.53,39.78,545.53,41.06Zm0,35.87c0,1.29.57,2.33,1.85,2.33a2.33,2.33,0,0,0,2.33-2.33c0-1.28-.8-1.85-2.09-1.85S545.53,75.65,545.53,76.93Z"/><path class="cls-5" d="M581.3,51.49V25.93h18.93v68.3H581.3V68.28M588.94,59c0,1.28.56,2.32,1.85,2.32A2.32,2.32,0,0,0,593.11,59c0-1.29-.8-1.86-2.08-1.86S588.94,57.71,588.94,59Zm0-17.94c0,1.29.56,2.33,1.85,2.33a2.32,2.32,0,0,0,2.32-2.33c0-1.28-.8-1.85-2.08-1.85S588.94,39.78,588.94,41.06Zm0,35.87c0,1.29.56,2.33,1.85,2.33a2.32,2.32,0,0,0,2.32-2.33c0-1.28-.8-1.85-2.08-1.85S588.94,75.65,588.94,76.93Z"/><path class="cls-41" d="M591,48.18c1.28,0,2.08.57,2.08,1.85a2.32,2.32,0,0,1-2.32,2.33c-1.29,0-1.85-1-1.85-2.33S589.74,48.18,591,48.18Z"/><path class="cls-2" d="M591,30.24c1.28,0,2.08.57,2.08,1.86a2.32,2.32,0,0,1-2.32,2.32c-1.29,0-1.85-1-1.85-2.32S589.74,30.24,591,30.24Z"/><path class="cls-41" d="M591,84c1.28,0,2.08.57,2.08,1.86a2.32,2.32,0,0,1-2.32,2.32c-1.29,0-1.85-1-1.85-2.32S589.74,84,591,84Z"/><path class="cls-2" d="M591,66.11c1.28,0,2.08.57,2.08,1.85a2.32,2.32,0,0,1-2.32,2.33c-1.29,0-1.85-1-1.85-2.33S589.74,66.11,591,66.11Z"/><polygon class="cls-5" points="581.3 51.49 581.3 59.55 576.55 51.49 581.3 51.49"/><polygon class="cls-5" points="577.12 61.32 573.18 65.11 573.18 54.58 577.12 61.32"/><polygon class="cls-5" points="579.95 62.25 573.69 68.28 573.18 68.28 573.18 65.8 577.75 61.41 573.18 53.59 573.18 51.49 573.67 51.49 579.95 62.25"/><polygon class="cls-5" points="581.3 60.54 581.44 64.46 577.48 68.28 574.41 68.28 580.58 62.34 574.25 51.49 575.97 51.49 581.3 60.54"/><polygon class="cls-5" points="578.2 68.28 581.38 65.21 581.3 68.28 578.2 68.28"/><polygon class="cls-2" points="557.07 51.49 557.07 59.55 561.82 51.49 557.07 51.49"/><polygon class="cls-2" points="561.25 61.32 565.19 65.11 565.19 54.58 561.25 61.32"/><polygon class="cls-2" points="558.42 62.25 564.68 68.28 565.19 68.28 565.19 65.8 560.63 61.41 565.19 53.59 565.19 51.49 564.7 51.49 558.42 62.25"/><polygon class="cls-2" points="557.07 60.54 556.93 64.46 560.89 68.28 563.96 68.28 557.79 62.34 564.12 51.49 562.4 51.49 557.07 60.54"/><polygon class="cls-2" points="560.17 68.28 556.99 65.21 557.07 68.28 560.17 68.28"/><path class="cls-5" d="M547.62,48.18c1.29,0,2.09.57,2.09,1.85a2.33,2.33,0,0,1-2.33,2.33c-1.28,0-1.85-1-1.85-2.33S546.34,48.18,547.62,48.18Z"/><path class="cls-41" d="M547.62,30.24c1.29,0,2.09.57,2.09,1.86a2.32,2.32,0,0,1-2.33,2.32c-1.28,0-1.85-1-1.85-2.32S546.34,30.24,547.62,30.24Z"/><path class="cls-5" d="M547.62,84c1.29,0,2.09.57,2.09,1.86a2.32,2.32,0,0,1-2.33,2.32c-1.28,0-1.85-1-1.85-2.32S546.34,84,547.62,84Z"/><path class="cls-41" d="M547.62,66.11c1.29,0,2.09.57,2.09,1.85a2.33,2.33,0,0,1-2.33,2.33c-1.28,0-1.85-1-1.85-2.33S546.34,66.11,547.62,66.11Z"/><g class="cls-42"><polygon class="cls-43" points="98.25 180.48 55.2 184.87 33.48 126.44 93.59 134.72 98.25 180.48"/><polygon class="cls-43" points="107.02 187.8 52.31 193.37 24.71 119.13 101.1 129.65 107.02 187.8"/><polygon class="cls-43" points="91.42 174.65 57.54 178.09 40.45 132.12 87.75 138.64 91.42 174.65"/><polygon class="cls-43" points="84.57 168.8 59.88 171.31 47.43 137.81 81.9 142.56 84.57 168.8"/><polygon class="cls-43" points="78.6 163.7 61.92 165.4 53.51 142.77 76.8 145.97 78.6 163.7"/><polygon class="cls-43" points="73.56 159.49 63.58 160.51 58.55 146.98 72.47 148.9 73.56 159.49"/><polygon class="cls-43" points="68.51 155.28 65.25 155.62 63.6 151.19 68.15 151.81 68.51 155.28"/></g><path class="cls-5" d="M100.16,107.37V150c0,8.45-2.11,14.41-6.62,18.92-4,4-9.46,6.3-16.09,6.74V158.58c2.63-1.27,4.18-4.17,4.18-8.67V107.37Zm-7.32,44c0-1.41-.63-2.29-2-2.29s-2.55.62-2.55,2a2.55,2.55,0,0,0,2.55,2.54C92.21,153.69,92.84,152.81,92.84,151.41Zm0-23.83c0-1.41-.63-2.29-2-2.29s-2.55.62-2.55,2a2.55,2.55,0,0,0,2.55,2.54C92.21,129.86,92.84,129,92.84,127.58Z"/><path class="cls-41" d="M92.84,115c0,1.41-.63,2.29-2,2.29a2.55,2.55,0,0,1-2.55-2.55c0-1.41,1.14-2,2.55-2S92.84,113.55,92.84,115Z"/><path class="cls-41" d="M92.84,139.76c0,1.41-.63,2.29-2,2.29a2.55,2.55,0,0,1-2.55-2.55c0-1.41,1.14-2,2.55-2S92.84,138.36,92.84,139.76Z"/><path class="cls-41" d="M90.55,162.55c0,1.41-.62,2.29-2,2.29A2.55,2.55,0,0,1,86,162.29c0-1.41,1.14-2,2.55-2S90.55,161.14,90.55,162.55Z"/><g class="cls-44"><polygon class="cls-45" points="127.76 189.59 104.47 133.73 173.88 81.03 187.12 164.84 127.76 189.59"/><polygon class="cls-45" points="121.52 204.28 91.93 133.31 180.12 66.34 196.95 172.83 121.52 204.28"/><polygon class="cls-45" points="132.81 178.07 114.48 134.12 169.1 92.66 179.52 158.6 132.81 178.07"/><polygon class="cls-45" points="137.86 166.54 124.51 134.51 164.31 104.3 171.9 152.35 137.86 166.54"/><polygon class="cls-45" points="142.27 156.5 133.24 134.85 160.14 114.44 165.27 146.91 142.27 156.5"/><polygon class="cls-45" points="145.86 148.04 140.47 135.1 156.54 122.89 159.61 142.3 145.86 148.04"/><polygon class="cls-45" points="149.46 139.58 147.69 135.35 152.95 131.35 153.95 137.7 149.46 139.58"/><line class="cls-45" x1="122.11" y1="204.1" x2="109.43" y2="234.91"/></g><rect class="cls-2" x="111.45" y="107.37" width="15.89" height="68.29"/><path class="cls-41" d="M121.13,114.69c0,1.06-.47,1.73-1.53,1.73a1.92,1.92,0,0,1-1.93-1.92c0-1.07.86-1.53,1.93-1.53S121.13,113.63,121.13,114.69Z"/><path class="cls-5" d="M121.13,125.31c0,1.06-.47,1.72-1.53,1.72a1.92,1.92,0,0,1-1.93-1.92c0-1.06.86-1.53,1.93-1.53S121.13,124.24,121.13,125.31Z"/><path class="cls-41" d="M121.13,135.92c0,1.06-.47,1.73-1.53,1.73a1.92,1.92,0,0,1-1.93-1.93c0-1.06.86-1.53,1.93-1.53S121.13,134.86,121.13,135.92Z"/><path class="cls-5" d="M121.13,146.54c0,1.06-.47,1.72-1.53,1.72a1.92,1.92,0,0,1-1.93-1.92c0-1.06.86-1.53,1.93-1.53S121.13,145.47,121.13,146.54Z"/><path class="cls-41" d="M121.13,157.15c0,1.06-.47,1.73-1.53,1.73a1.92,1.92,0,0,1-1.93-1.93c0-1.06.86-1.53,1.93-1.53S121.13,156.09,121.13,157.15Z"/><path class="cls-5" d="M121.13,167.76c0,1.07-.47,1.73-1.53,1.73a1.92,1.92,0,0,1-1.93-1.92c0-1.06.86-1.53,1.93-1.53S121.13,166.7,121.13,167.76Z"/><path class="cls-5" d="M312.21,107.37v68.29H293.38V136.44l-16.21,24.81V131.77l15-24.4Zm-6.64,5.41c0-1.59-.7-2.87-2.28-2.87a2.86,2.86,0,0,0-2.87,2.87c0,1.59,1,2.29,2.57,2.29S305.57,114.37,305.57,112.78Zm-11.71,14.16c0-1.58-.7-2.87-2.28-2.87a2.87,2.87,0,0,0-2.87,2.87c0,1.59,1,2.29,2.57,2.29S293.86,128.53,293.86,126.94Zm11.71,9.28c0-1.58-.7-2.87-2.28-2.87a2.87,2.87,0,0,0-2.87,2.87c0,1.59,1,2.29,2.57,2.29S305.57,137.81,305.57,136.22Zm0,22.34c0-1.59-.7-2.87-2.28-2.87a2.86,2.86,0,0,0-2.87,2.87c0,1.58,1,2.28,2.57,2.28S305.57,160.14,305.57,158.56Z"/><g class="cls-46"><polygon class="cls-47" points="247.47 188.57 212.87 154.46 247.88 93.89 283.72 151.81 247.47 188.57"/><polygon class="cls-47" points="247.41 201.39 203.45 158.04 247.94 81.07 293.48 154.67 247.41 201.39"/><polygon class="cls-47" points="247.34 216.05 192.68 162.14 248 66.41 304.64 157.95 247.34 216.05"/><polygon class="cls-47" points="247.63 178.48 220.41 151.64 247.95 103.98 276.15 149.55 247.63 178.48"/><polygon class="cls-47" points="247.78 168.38 227.95 148.81 248.02 114.08 268.57 147.29 247.78 168.38"/><polygon class="cls-47" points="247.92 159.57 234.52 146.35 248.09 122.88 261.97 145.33 247.92 159.57"/><polygon class="cls-47" points="247.96 152.19 239.94 144.29 248.05 130.26 256.35 143.68 247.96 152.19"/><polygon class="cls-47" points="247.99 144.81 245.37 142.23 248.02 137.64 250.74 142.03 247.99 144.81"/></g><path class="cls-2" d="M282.14,144c-1.59,0-2.58-.71-2.58-2.29a2.87,2.87,0,0,1,2.87-2.87c1.59,0,2.29,1.28,2.29,2.87S283.73,144,282.14,144Z"/><path class="cls-2" d="M303,127.34c-1.58,0-2.57-.7-2.57-2.29a2.87,2.87,0,0,1,2.87-2.87c1.58,0,2.28,1.29,2.28,2.87S304.58,127.34,303,127.34Z"/><path class="cls-2" d="M303,149.68c-1.58,0-2.57-.7-2.57-2.29a2.86,2.86,0,0,1,2.87-2.87c1.58,0,2.28,1.28,2.28,2.87S304.58,149.68,303,149.68Z"/><path class="cls-2" d="M303,172c-1.58,0-2.57-.7-2.57-2.28a2.87,2.87,0,0,1,2.87-2.88c1.58,0,2.28,1.29,2.28,2.88S304.58,172,303,172Z"/><path class="cls-2" d="M483,60.08H465.55c0-.51,0-1,0-1.54v-.17c0-17.91,14-31.95,33.09-31.95,10.79,0,18.43,3.33,24.93,8.95l-10,12c-4.39-3.69-8.78-5.8-14.83-5.8-8.87,0-15.72,7.46-15.72,16.85v.18C483,59.12,483,59.6,483,60.08ZM476.17,55c0-1.13-.5-2.05-1.64-2.05a2.05,2.05,0,0,0-2,2.05c0,1.13.71,1.64,1.84,1.64S476.17,56.12,476.17,55Zm10.74-16.54c0-1.14-.49-2.06-1.63-2.06a2.05,2.05,0,0,0-2,2.06c0,1.13.71,1.63,1.84,1.63S486.91,39.58,486.91,38.45Zm20.56-3.58c0-1.13-.5-2-1.64-2a2.05,2.05,0,0,0-2.05,2c0,1.14.71,1.64,1.84,1.64S507.47,36,507.47,34.87Z"/><g class="cls-48"><polygon class="cls-49" points="519.62 112.56 475.81 109.55 464.13 47.41 522.81 66 519.62 112.56"/><polygon class="cls-50" points="527.13 121.37 471.46 117.55 456.62 38.59 531.19 62.22 527.13 121.37"/><polygon class="cls-49" points="513.78 105.55 479.31 103.18 470.12 54.28 516.3 68.91 513.78 105.55"/><polygon class="cls-49" points="507.94 98.52 482.82 96.8 476.12 61.16 509.77 71.83 507.94 98.52"/><polygon class="cls-49" points="502.85 92.41 485.88 91.24 481.35 67.16 504.09 74.37 502.85 92.41"/><polygon class="cls-49" points="498.52 87.33 488.38 86.63 485.67 72.24 499.26 76.55 498.52 87.33"/><polygon class="cls-49" points="494.2 82.25 490.88 82.03 490 77.32 494.44 78.73 494.2 82.25"/><line class="cls-50" x1="527.2" y1="120.93" x2="543.08" y2="139.16"/></g><path class="cls-5" d="M477.7,47.4c-1.14,0-1.85-.5-1.85-1.64a2.05,2.05,0,0,1,2.06-2c1.13,0,1.63.92,1.63,2S478.83,47.4,477.7,47.4Z"/><path class="cls-5" d="M495.14,36.05c-1.14,0-1.85-.51-1.85-1.64a2.05,2.05,0,0,1,2.06-2c1.13,0,1.63.92,1.63,2S496.27,36.05,495.14,36.05Z"/><path class="cls-5" d="M514.74,41.29c-1.13,0-1.84-.5-1.84-1.64a2.05,2.05,0,0,1,2.05-2c1.14,0,1.63.92,1.63,2S515.88,41.29,514.74,41.29Z"/><path class="cls-5" d="M415.48,52.86V67.78h36V52.86Zm9.4,8.76a1.6,1.6,0,0,1-1.72-1.45c0-.79.77-1.14,1.72-1.14s1.38.5,1.38,1.29S425.84,61.62,424.88,61.62Zm12,0a1.6,1.6,0,0,1-1.72-1.45c0-.79.77-1.14,1.72-1.14a1.3,1.3,0,1,1,0,2.59Zm12,0a1.6,1.6,0,0,1-1.72-1.45c0-.79.77-1.14,1.72-1.14a1.3,1.3,0,1,1,0,2.59Z"/><path class="cls-2" d="M421.65,60.32c0,.8-.42,1.3-1.38,1.3a1.6,1.6,0,0,1-1.72-1.45c0-.79.77-1.14,1.72-1.14S421.65,59.53,421.65,60.32Z"/><path class="cls-2" d="M432.25,60.32a1.19,1.19,0,0,1-1.37,1.3,1.6,1.6,0,0,1-1.72-1.45c0-.79.77-1.14,1.72-1.14A1.19,1.19,0,0,1,432.25,60.32Z"/><path class="cls-2" d="M444.25,60.32a1.19,1.19,0,0,1-1.37,1.3,1.6,1.6,0,0,1-1.72-1.45c0-.79.77-1.14,1.72-1.14A1.19,1.19,0,0,1,444.25,60.32Z"/><path class="cls-2" d="M415.48,26.42V41.34h36V26.42Zm9.4,8.76a1.6,1.6,0,0,1-1.72-1.44c0-.8.77-1.15,1.72-1.15s1.38.5,1.38,1.29S425.84,35.18,424.88,35.18Zm12,0a1.6,1.6,0,0,1-1.72-1.44c0-.8.77-1.15,1.72-1.15a1.3,1.3,0,1,1,0,2.59Zm12,0a1.6,1.6,0,0,1-1.72-1.44c0-.8.77-1.15,1.72-1.15a1.3,1.3,0,1,1,0,2.59Z"/><path class="cls-5" d="M421.65,33.88c0,.8-.42,1.3-1.38,1.3a1.6,1.6,0,0,1-1.72-1.44c0-.8.77-1.15,1.72-1.15S421.65,33.09,421.65,33.88Z"/><path class="cls-5" d="M432.25,33.88a1.19,1.19,0,0,1-1.37,1.3,1.6,1.6,0,0,1-1.72-1.44c0-.8.77-1.15,1.72-1.15A1.19,1.19,0,0,1,432.25,33.88Z"/><path class="cls-5" d="M444.25,33.88a1.19,1.19,0,0,1-1.37,1.3,1.6,1.6,0,0,1-1.72-1.44c0-.8.77-1.15,1.72-1.15A1.19,1.19,0,0,1,444.25,33.88Z"/><g class="cls-51"><polygon class="cls-52" points="401.83 93.98 373.02 70.19 402.18 27.95 432.02 68.34 401.83 93.98"/><polygon class="cls-52" points="401.79 102.92 365.18 72.69 402.23 19.01 440.15 70.34 401.79 102.92"/><polygon class="cls-53" points="401.97 86.94 379.3 68.22 402.24 34.98 425.72 66.77 401.97 86.94"/><polygon class="cls-53" points="402.1 79.89 385.58 66.25 402.3 42.03 419.41 65.19 402.1 79.89"/><polygon class="cls-53" points="402.21 73.75 391.05 64.54 402.35 48.17 413.91 63.82 402.21 73.75"/><polygon class="cls-53" points="402.24 68.61 395.57 63.1 402.32 53.31 409.23 62.67 402.24 68.61"/><polygon class="cls-53" points="402.27 63.46 400.08 61.66 402.29 58.46 404.56 61.52 402.27 63.46"/></g><g class="cls-54"><polygon class="cls-55" points="508.19 171.59 471.6 141.36 508.63 87.7 546.55 139.01 508.19 171.59"/><polygon class="cls-55" points="508.14 182.94 461.63 144.54 508.69 76.34 556.87 141.55 508.14 182.94"/><polygon class="cls-56" points="508.36 162.64 479.57 138.86 508.71 96.64 538.54 137.01 508.36 162.64"/><polygon class="cls-56" points="508.53 153.69 487.55 136.36 508.78 105.59 530.52 135.01 508.53 153.69"/><polygon class="cls-56" points="508.68 145.89 494.5 134.18 508.85 113.39 523.54 133.27 508.68 145.89"/><polygon class="cls-56" points="508.71 139.35 500.24 132.35 508.81 119.92 517.6 131.81 508.71 139.35"/><polygon class="cls-56" points="508.75 132.82 505.98 130.53 508.78 126.46 511.65 130.35 508.75 132.82"/></g><path class="cls-5" d="M471,107.37v68.29h16.76V107.37Zm8.65,49.79a2.68,2.68,0,0,1-2.68-2.68c0-1.49,1.2-2.14,2.68-2.14s2.14.93,2.14,2.41S481.11,157.16,479.62,157.16Zm0-25.11a2.68,2.68,0,0,1-2.68-2.68c0-1.49,1.2-2.14,2.68-2.14s2.14.93,2.14,2.41S481.11,132.05,479.62,132.05Z"/><path class="cls-2" d="M481.76,116.35c0,1.48-.65,2.41-2.14,2.41a2.68,2.68,0,0,1-2.68-2.69c0-1.48,1.2-2.13,2.68-2.13S481.76,114.86,481.76,116.35Z"/><path class="cls-2" d="M481.76,142.48c0,1.49-.65,2.41-2.14,2.41a2.68,2.68,0,0,1-2.68-2.68c0-1.49,1.2-2.14,2.68-2.14S481.76,141,481.76,142.48Z"/><path class="cls-2" d="M481.76,167c0,1.48-.65,2.41-2.14,2.41a2.68,2.68,0,0,1-2.68-2.68c0-1.49,1.2-2.14,2.68-2.14S481.76,165.54,481.76,167Z"/><path class="cls-2" d="M294.66,187.72v37.2c0,20.56-11.14,30.15-28.59,31.08V239.09c6-1,9.71-5.37,9.71-13.6V187.72Zm-7.24,19.76c0-1.36-.59-2.45-1.94-2.45a2.44,2.44,0,0,0-2.45,2.45c0,1.35.84,2,2.2,2S287.42,208.83,287.42,207.48Zm0,23.13c0-1.35-.59-2.45-1.94-2.45a2.45,2.45,0,0,0-2.45,2.45c0,1.35.84,1.95,2.2,1.95S287.42,232,287.42,230.61ZM273.6,248.08c0-1.35-.59-2.45-2-2.45a2.45,2.45,0,0,0-2.45,2.45c0,1.35.85,1.95,2.2,1.95S273.6,249.43,273.6,248.08Z"/><g class="cls-57"><polygon class="cls-58" points="246.73 272.9 210.91 240.46 243.42 178.75 281.43 234.82 246.73 272.9"/><polygon class="cls-59" points="247.18 285.65 201.66 244.42 242.97 166.01 291.26 237.25 247.18 285.65"/><polygon class="cls-58" points="246.49 262.87 218.3 237.33 243.89 188.78 273.79 232.9 246.49 262.87"/><polygon class="cls-58" points="246.25 252.81 225.71 234.21 244.36 198.82 266.15 230.97 246.25 252.81"/><polygon class="cls-58" points="246.05 244.05 232.17 231.48 244.76 207.57 259.49 229.3 246.05 244.05"/><polygon class="cls-58" points="245.79 236.72 237.49 229.2 245.02 214.91 253.82 227.9 245.79 236.72"/><polygon class="cls-58" points="245.53 229.38 242.82 226.92 245.28 222.25 248.16 226.49 245.53 229.38"/><line class="cls-59" x1="247.55" y1="285.32" x2="248.79" y2="311.9"/></g><path class="cls-5" d="M285.23,197.86c-1.36,0-2.2-.6-2.2-2a2.45,2.45,0,0,1,2.45-2.45c1.35,0,1.94,1.1,1.94,2.45S286.58,197.86,285.23,197.86Z"/><path class="cls-5" d="M285.23,221c-1.36,0-2.2-.59-2.2-2a2.45,2.45,0,0,1,2.45-2.45c1.35,0,1.94,1.1,1.94,2.45S286.58,221,285.23,221Z"/><path class="cls-5" d="M281.13,243.72c-1.35,0-2.19-.6-2.19-1.95a2.44,2.44,0,0,1,2.45-2.45c1.35,0,1.94,1.09,1.94,2.45S282.49,243.72,281.13,243.72Z"/><g class="cls-60"><polygon class="cls-61" points="333.42 232.56 304.41 222.42 308.19 178.25 344.32 201.68 333.42 232.56"/><polygon class="cls-61" points="336.83 239.92 299.98 227.03 304.78 170.9 350.68 200.68 336.83 239.92"/><polygon class="cls-61" points="330.8 226.74 307.97 218.76 310.95 184 339.37 202.44 330.8 226.74"/><polygon class="cls-61" points="328.17 220.92 311.54 215.1 313.71 189.77 334.42 203.21 328.17 220.92"/><polygon class="cls-61" points="325.88 215.84 314.64 211.91 316.11 194.79 330.1 203.87 325.88 215.84"/><polygon class="cls-61" points="323.92 211.6 317.2 209.26 318.07 199.03 326.44 204.45 323.92 211.6"/><polygon class="cls-61" points="321.95 207.37 319.75 206.6 320.04 203.26 322.78 205.03 321.95 207.37"/><line class="cls-61" x1="336.96" y1="239.63" x2="344.26" y2="254.89"/></g><polygon class="cls-5" points="358.81 187.72 343.41 230.64 340.1 221.41 330.91 247.09 334.5 256.02 338.45 256.02 362.91 187.72 358.81 187.72"/><path class="cls-5" d="M350.77,256H337.23l24.45-68.3h16.6Zm13.73-51.55c0-1.41-.62-2.56-2-2.56a2.56,2.56,0,0,0-2.56,2.56c0,1.41.88,2,2.29,2S364.5,205.88,364.5,204.47Zm-9.24,22.25c0-1.41-.62-2.56-2-2.56a2.56,2.56,0,0,0-2.55,2.56c0,1.41.88,2,2.29,2S355.26,228.13,355.26,226.72Zm-9.61,22.64c0-1.41-.62-2.55-2-2.55a2.55,2.55,0,0,0-2.55,2.55c0,1.41.88,2,2.29,2S345.65,250.77,345.65,249.36Z"/><path class="cls-2" d="M365.63,195.18c-1.41,0-2.29-.62-2.29-2a2.56,2.56,0,0,1,2.56-2.56c1.41,0,2,1.15,2,2.56S367,195.18,365.63,195.18Z"/><path class="cls-2" d="M356.19,217.82c-1.41,0-2.29-.62-2.29-2a2.56,2.56,0,0,1,2.55-2.56c1.41,0,2,1.15,2,2.56S357.6,217.82,356.19,217.82Z"/><path class="cls-2" d="M347.17,240.46c-1.41,0-2.3-.62-2.3-2a2.56,2.56,0,0,1,2.56-2.55c1.41,0,2,1.14,2,2.55S348.58,240.46,347.17,240.46Z"/><path class="cls-2" d="M466,256h-9.56l-20.34-52.23L416.54,256H406.19l-22.6-68.1h19.8L415.18,227l13-39.32h16.13l13,39.32,11.78-39.12h19.42ZM396.4,194c0-1.25-.54-2.26-1.79-2.26a2.27,2.27,0,0,0-2.27,2.26c0,1.25.78,1.8,2,1.8S396.4,195.24,396.4,194Zm6.69,20.64c0-1.25-.55-2.27-1.8-2.27a2.27,2.27,0,0,0-2.26,2.27c0,1.25.78,1.8,2,1.8S403.09,215.88,403.09,214.63Zm7,19.81c0-1.25-.55-2.26-1.8-2.26a2.26,2.26,0,0,0-2.26,2.26c0,1.25.78,1.8,2,1.8S410.11,235.69,410.11,234.44Zm64.8-28c1.25,0,2-.55,2-1.8a2.27,2.27,0,0,0-2.26-2.27c-1.25,0-1.8,1-1.8,2.27S473.66,206.41,474.91,206.41ZM468,226.33c1.24,0,2-.55,2-1.8a2.27,2.27,0,0,0-2.27-2.26c-1.25,0-1.8,1-1.8,2.26S466.79,226.33,468,226.33Zm-47.67,7.77c0-1.25-.55-2.26-1.8-2.26a2.26,2.26,0,0,0-2.26,2.26c0,1.25.78,1.8,2,1.8S420.37,235.35,420.37,234.1Zm7.11-19.94c0-1.25-.55-2.26-1.8-2.26a2.26,2.26,0,0,0-2.26,2.26c0,1.25.78,1.8,2,1.8S427.48,215.41,427.48,214.16Zm27,21.74c1.25,0,2-.55,2-1.8a2.26,2.26,0,0,0-2.26-2.26c-1.25,0-1.8,1-1.8,2.26S453.28,235.9,454.53,235.9ZM447.43,216c1.25,0,2-.55,2-1.8a2.27,2.27,0,0,0-2.27-2.26c-1.25,0-1.8,1-1.8,2.26S446.18,216,447.43,216Zm-9.31-21.74c0-1.25-.55-2.26-1.8-2.26a2.26,2.26,0,0,0-2.26,2.26c0,1.25.78,1.81,2,1.81S438.12,195.47,438.12,194.22Z"/><g class="cls-62"><polygon class="cls-63" points="435.98 266.01 414.64 245.32 435.92 208.08 458.1 243.33 435.98 266.01"/><polygon class="cls-63" points="435.99 273.85 408.87 247.56 435.91 200.24 464.1 245.03 435.99 273.85"/><polygon class="cls-63" points="436.05 259.84 419.25 243.56 435.99 214.25 453.45 241.99 436.05 259.84"/><polygon class="cls-63" points="436.11 253.65 423.87 241.79 436.07 220.43 448.79 240.65 436.11 253.65"/><polygon class="cls-63" points="436.17 248.26 427.9 240.25 436.14 225.82 444.74 239.48 436.17 248.26"/><polygon class="cls-63" points="436.16 243.75 431.22 238.96 436.14 230.33 441.28 238.5 436.16 243.75"/><polygon class="cls-63" points="436.15 239.24 434.54 237.67 436.15 234.85 437.83 237.52 436.15 239.24"/><line class="cls-63" x1="436.23" y1="273.66" x2="436.43" y2="290.02"/></g><path class="cls-5" d="M397.62,206.41c-1.25,0-2-.55-2-1.8a2.27,2.27,0,0,1,2.26-2.27c1.25,0,1.8,1,1.8,2.27S398.87,206.41,397.62,206.41Z"/><path class="cls-5" d="M404.5,226.33c-1.25,0-2-.55-2-1.8a2.26,2.26,0,0,1,2.26-2.26c1.25,0,1.8,1,1.8,2.26S405.75,226.33,404.5,226.33Z"/><path class="cls-5" d="M478.16,195.79c1.25,0,2-.55,2-1.8a2.26,2.26,0,0,0-2.26-2.26c-1.25,0-1.8,1-1.8,2.26S476.91,195.79,478.16,195.79Z"/><path class="cls-5" d="M471.47,216.43c1.25,0,2-.55,2-1.8a2.27,2.27,0,0,0-2.27-2.27c-1.25,0-1.8,1-1.8,2.27S470.22,216.43,471.47,216.43Z"/><path class="cls-5" d="M464.45,236.24c1.25,0,2-.55,2-1.8a2.26,2.26,0,0,0-2.26-2.26c-1.25,0-1.8,1-1.8,2.26S463.2,236.24,464.45,236.24Z"/><path class="cls-5" d="M412.15,246.41c-1.25,0-2-.55-2-1.8a2.27,2.27,0,0,1,2.27-2.26c1.25,0,1.8,1,1.8,2.26S413.39,246.41,412.15,246.41Z"/><path class="cls-5" d="M422.07,225.93c-1.25,0-2-.55-2-1.8a2.26,2.26,0,0,1,2.26-2.26c1.25,0,1.8,1,1.8,2.26S423.32,225.93,422.07,225.93Z"/><path class="cls-5" d="M460.73,246.41c1.25,0,2-.55,2-1.8a2.26,2.26,0,0,0-2.26-2.26c-1.25,0-1.8,1-1.8,2.26S459.48,246.41,460.73,246.41Z"/><path class="cls-5" d="M450.81,225.93c1.25,0,2-.55,2-1.8a2.27,2.27,0,0,0-2.27-2.26c-1.25,0-1.79,1-1.79,2.26S449.56,225.93,450.81,225.93Z"/><path class="cls-5" d="M429.5,206c-1.25,0-2-.56-2-1.81a2.27,2.27,0,0,1,2.27-2.26c1.25,0,1.8,1,1.8,2.26S430.75,206,429.5,206Z"/><path class="cls-5" d="M443.7,206c-1.25,0-2-.56-2-1.81a2.26,2.26,0,0,1,2.26-2.26c1.25,0,1.8,1,1.8,2.26S445,206,443.7,206Z"/><path class="cls-2" d="M93.22,270.19,67.27,312.63v25.85h-19V312.92L22.29,270.19H36.35l21.49,36.92,21.51-36.92ZM59.45,314.66c0-1-.44-1.79-1.42-1.79a1.79,1.79,0,0,0-1.79,1.79c0,1,.62,1.42,1.6,1.42S59.45,315.64,59.45,314.66Zm0,17.56c0-1-.44-1.79-1.42-1.79a1.79,1.79,0,0,0-1.79,1.79c0,1,.62,1.42,1.6,1.42S59.45,333.2,59.45,332.22Zm10.79-31.85c.5-.85.52-1.76-.33-2.25a1.77,1.77,0,0,0-2.44.65c-.5.85-.18,1.54.67,2S69.75,301.23,70.24,300.37ZM79.82,285c.5-.85.52-1.76-.33-2.25a1.77,1.77,0,0,0-2.44.65,1.36,1.36,0,0,0,.67,2C78.58,286,79.33,285.9,79.82,285ZM47.7,300.89c.85-.49,1.17-1.18.68-2a1.79,1.79,0,0,0-2.44-.65c-.86.49-.83,1.4-.34,2.25A1.35,1.35,0,0,0,47.7,300.89Zm-9.58-15.33c.85-.49,1.17-1.18.67-2a1.77,1.77,0,0,0-2.44-.65c-.85.49-.83,1.4-.33,2.25S37.26,286.06,38.12,285.56Z"/><g class="cls-64"><polygon class="cls-65" points="57.52 322.31 36.16 301.51 57.58 264.18 79.76 299.6 57.52 322.31"/><polygon class="cls-66" points="57.52 330.18 30.37 303.74 57.59 256.32 85.78 301.32 57.52 330.18"/><polygon class="cls-65" points="57.6 316.11 40.79 299.74 57.64 270.38 75.1 298.24 57.6 316.11"/><polygon class="cls-65" points="57.68 309.91 45.43 297.98 57.71 276.58 70.43 296.89 57.68 309.91"/><polygon class="cls-65" points="57.74 304.5 49.47 296.44 57.77 281.98 66.36 295.7 57.74 304.5"/><polygon class="cls-65" points="57.75 299.98 52.8 295.16 57.76 286.51 62.9 294.71 57.75 299.98"/><polygon class="cls-65" points="57.75 295.45 56.13 293.87 57.76 291.04 59.44 293.73 57.75 295.45"/><line class="cls-66" x1="57.75" y1="329.98" x2="57.92" y2="346.4"/></g><path class="cls-5" d="M57.84,324.86c-1,0-1.6-.44-1.6-1.42A1.79,1.79,0,0,1,58,321.65c1,0,1.42.8,1.42,1.79S58.83,324.86,57.84,324.86Z"/><path class="cls-5" d="M72.54,293.2c-.85-.49-1.17-1.18-.67-2a1.77,1.77,0,0,1,2.44-.65c.85.49.82,1.4.33,2.25A1.35,1.35,0,0,1,72.54,293.2Z"/><path class="cls-5" d="M63.74,308.4a1.36,1.36,0,0,1-.67-2,1.77,1.77,0,0,1,2.44-.65c.85.49.83,1.4.33,2.25S64.6,308.9,63.74,308.4Z"/><path class="cls-5" d="M82.12,277.87c-.85-.49-1.17-1.18-.67-2a1.77,1.77,0,0,1,2.44-.65c.85.49.83,1.4.33,2.25S83,278.37,82.12,277.87Z"/><path class="cls-5" d="M43.3,293.29a1.36,1.36,0,0,0,.68-2,1.79,1.79,0,0,0-2.44-.65c-.86.49-.83,1.4-.34,2.25A1.35,1.35,0,0,0,43.3,293.29Z"/><path class="cls-5" d="M52.1,308.49c.85-.49,1.17-1.18.67-2a1.78,1.78,0,0,0-2.44-.65c-.85.49-.83,1.4-.33,2.26A1.36,1.36,0,0,0,52.1,308.49Z"/><path class="cls-5" d="M33.72,278c.85-.49,1.17-1.18.68-2a1.78,1.78,0,0,0-2.44-.65c-.86.49-.83,1.4-.34,2.25A1.35,1.35,0,0,0,33.72,278Z"/><path class="cls-5" d="M157.44,338.48H99.12L157,272.94l.48,14.48L125.38,323.5h32.06Zm-14.18-7.29c0-1-.43-1.74-1.39-1.74a1.74,1.74,0,0,0-1.74,1.74c0,1,.6,1.39,1.56,1.39S143.26,332.15,143.26,331.19Zm-18.3,0c0-1-.43-1.74-1.39-1.74a1.74,1.74,0,0,0-1.74,1.74c0,1,.6,1.39,1.56,1.39S125,332.15,125,331.19Zm21.09-37.11c-.71-.65-1.57-.86-2.22-.15a1.73,1.73,0,0,0,.12,2.46,1.57,1.57,0,0,0,2.1-2.31Zm-12.79,13.76c-.71-.65-1.57-.86-2.22-.15a1.73,1.73,0,0,0,.12,2.46,1.57,1.57,0,0,0,2.1-2.31Zm-12.32,13.53c-.71-.65-1.58-.86-2.22-.15a1.74,1.74,0,0,0,.11,2.46,1.58,1.58,0,0,0,2.11-2.31Z"/><g class="cls-67"><polygon class="cls-68" points="156.95 323.27 115.58 333.42 86.57 279.23 146.26 279.15 156.95 323.27"/><polygon class="cls-68" points="166.47 329.24 113.91 342.13 77.05 273.27 152.89 273.17 166.47 329.24"/><polygon class="cls-69" points="174.19 332.81 109.59 348.66 64.3 264.04 157.5 263.92 174.19 332.81"/><polygon class="cls-68" points="149.5 318.5 116.95 326.48 94.13 283.84 141.09 283.78 149.5 318.5"/><polygon class="cls-68" points="142.04 313.71 118.32 319.52 101.69 288.45 135.91 288.41 142.04 313.71"/><polygon class="cls-68" points="135.54 309.54 119.52 313.47 108.28 292.47 131.4 292.44 135.54 309.54"/><polygon class="cls-68" points="130.06 306.11 120.48 308.45 113.76 295.9 127.59 295.89 130.06 306.11"/><polygon class="cls-68" points="124.58 302.67 121.44 303.44 119.25 299.34 123.77 299.33 124.58 302.67"/><line class="cls-68" x1="166.41" y1="328.8" x2="186.43" y2="341.02"/></g><path class="cls-2" d="M150.84,332.58c-1,0-1.56-.43-1.56-1.39a1.74,1.74,0,0,1,1.74-1.74c1,0,1.39.78,1.39,1.74S151.81,332.58,150.84,332.58Z"/><path class="cls-2" d="M132.54,332.58c-1,0-1.56-.43-1.56-1.39a1.74,1.74,0,0,1,1.74-1.74c1,0,1.39.78,1.39,1.74S133.51,332.58,132.54,332.58Z"/><path class="cls-2" d="M114.24,332.58c-1,0-1.56-.43-1.56-1.39a1.74,1.74,0,0,1,1.74-1.74c1,0,1.39.78,1.39,1.74S115.21,332.58,114.24,332.58Z"/><path class="cls-2" d="M139.63,302.93a1.33,1.33,0,0,1-2.08.23,1.75,1.75,0,0,1-.11-2.47c.64-.71,1.51-.5,2.22.15A1.33,1.33,0,0,1,139.63,302.93Z"/><path class="cls-2" d="M127.07,316.7a1.33,1.33,0,0,1-2.08.22,1.74,1.74,0,0,1-.11-2.46c.65-.72,1.51-.5,2.22.14A1.34,1.34,0,0,1,127.07,316.7Z"/></g></g></svg>