<svg xmlns="http://www.w3.org/2000/svg" xmlns:xlink="http://www.w3.org/1999/xlink" viewBox="0 0 82.23 90.51"><defs><style>.cls-1,.cls-5{fill:none;}.cls-2{fill:#d18311;}.cls-3{fill:#0a2237;}.cls-4{clip-path:url(#clip-path);}.cls-5{stroke:#0a2237;stroke-miterlimit:10;stroke-width:0.94px;}</style><clipPath id="clip-path"><rect class="cls-1" x="25.67" y="51.36" width="28.5" height="16.59"/></clipPath></defs><title>Asset 19</title><g id="Layer_2" data-name="Layer 2"><g id="Layer_1-2" data-name="Layer 1"><path class="cls-2" d="M6.61,0V68.29H23.36V0Zm8.65,49.79a2.68,2.68,0,0,1-2.69-2.68c0-1.48,1.2-2.14,2.69-2.14s2.13.93,2.13,2.41S16.74,49.79,15.26,49.79Zm0-25.11A2.68,2.68,0,0,1,12.57,22c0-1.49,1.2-2.14,2.69-2.14s2.13.93,2.13,2.41S16.74,24.68,15.26,24.68Z"/><path class="cls-3" d="M17.39,9c0,1.48-.65,2.41-2.13,2.41A2.68,2.68,0,0,1,12.57,8.7c0-1.48,1.2-2.13,2.69-2.13S17.39,7.5,17.39,9Z"/><path class="cls-3" d="M17.39,35.11c0,1.49-.65,2.41-2.13,2.41a2.68,2.68,0,0,1-2.69-2.68c0-1.48,1.2-2.14,2.69-2.14S17.39,33.63,17.39,35.11Z"/><path class="cls-3" d="M17.39,59.65c0,1.49-.65,2.41-2.13,2.41a2.68,2.68,0,0,1-2.69-2.68c0-1.49,1.2-2.14,2.69-2.14S17.39,58.17,17.39,59.65Z"/><g class="cls-4"><polygon class="cls-5" points="72.98 60.41 50.11 83.6 9.51 60.14 48.33 36.11 72.98 60.41"/><polygon class="cls-5" points="81.57 60.45 52.51 89.92 0.92 60.1 50.25 29.57 81.57 60.45"/><polygon class="cls-5" points="66.21 60.31 48.22 78.55 16.27 60.09 46.82 41.19 66.21 60.31"/><polygon class="cls-5" points="59.44 60.2 46.33 73.5 23.04 60.04 45.31 46.27 59.44 60.2"/><polygon class="cls-5" points="53.54 60.11 44.68 69.09 28.94 60 43.99 50.69 53.54 60.11"/><polygon class="cls-5" points="48.59 60.09 43.3 65.46 33.89 60.02 42.88 54.46 48.59 60.09"/><polygon class="cls-5" points="43.65 60.06 41.91 61.82 38.84 60.04 41.78 58.22 43.65 60.06"/></g></g></g></svg>