<svg xmlns="http://www.w3.org/2000/svg" xmlns:xlink="http://www.w3.org/1999/xlink" viewBox="0 0 83.94 86.67"><defs><style>.cls-1,.cls-3{fill:none;}.cls-2{clip-path:url(#clip-path);}.cls-3{stroke:#0a2237;stroke-miterlimit:10;stroke-width:1.25px;}.cls-4{fill:#d18311;}.cls-5{fill:#fff;}</style><clipPath id="clip-path"><path class="cls-1" d="M39.71,45.71,27.71,57C31.61,62.37,39.57,67,48,68.29V51.24C45.93,50.2,41.68,48.08,39.71,45.71Z"/></clipPath></defs><title>Asset 13</title><g id="Layer_2" data-name="Layer 2"><g id="Layer_1-2" data-name="Layer 1"><g class="cls-2"><polygon class="cls-3" points="74.49 73.11 31.43 77.5 9.72 19.07 69.83 27.35 74.49 73.11"/><polygon class="cls-3" points="83.25 80.43 28.54 86 0.95 11.76 77.33 22.28 83.25 80.43"/><polygon class="cls-3" points="67.65 67.28 33.77 70.73 16.68 24.75 63.98 31.27 67.65 67.28"/><polygon class="cls-3" points="60.8 61.43 36.11 63.94 23.66 30.44 58.13 35.19 60.8 61.43"/><polygon class="cls-3" points="54.84 56.34 38.15 58.03 29.74 35.4 53.03 38.61 54.84 56.34"/><polygon class="cls-3" points="49.79 52.13 39.82 53.14 34.79 39.61 48.71 41.53 49.79 52.13"/><polygon class="cls-3" points="44.74 47.91 41.48 48.25 39.84 43.82 44.39 44.45 44.74 47.91"/></g><path class="cls-4" d="M76.4,0V42.64c0,8.45-2.12,14.4-6.63,18.91-4,4-9.46,6.3-16.08,6.74V51.21c2.63-1.27,4.17-4.17,4.17-8.67V0ZM69.07,44c0-1.41-.62-2.29-2-2.29s-2.55.62-2.55,2A2.55,2.55,0,0,0,67,46.33C68.45,46.33,69.07,45.45,69.07,44Zm0-23.83c0-1.41-.62-2.29-2-2.29s-2.55.62-2.55,2A2.56,2.56,0,0,0,67,22.5C68.45,22.5,69.07,21.62,69.07,20.21Z"/><path class="cls-5" d="M69.07,7.59c0,1.41-.62,2.29-2,2.29a2.55,2.55,0,0,1-2.55-2.55c0-1.41,1.15-2,2.55-2S69.07,6.19,69.07,7.59Z"/><path class="cls-5" d="M69.07,32.4c0,1.4-.62,2.28-2,2.28a2.55,2.55,0,0,1-2.55-2.55c0-1.4,1.15-2,2.55-2S69.07,31,69.07,32.4Z"/><path class="cls-5" d="M66.78,55.18c0,1.41-.62,2.29-2,2.29a2.55,2.55,0,0,1-2.54-2.55c0-1.41,1.14-2,2.54-2S66.78,53.77,66.78,55.18Z"/></g></g></svg>