<svg xmlns="http://www.w3.org/2000/svg" xmlns:xlink="http://www.w3.org/1999/xlink" viewBox="0 0 106.67 170.12"><defs><style>.cls-1,.cls-3{fill:none;}.cls-2{clip-path:url(#clip-path);}.cls-3{stroke:#d18311;stroke-miterlimit:10;stroke-width:1.41px;}.cls-4{fill:#0a2237;}.cls-5{fill:#fff;}.cls-6{fill:#d18311;}</style><clipPath id="clip-path"><polygon class="cls-1" points="61.56 71.67 87.41 42.3 64.97 42.3 41.86 69.54 41.86 92.49 48.39 85.23 65.56 110.6 88.29 110.6 61.56 71.67"/></clipPath></defs><title>Asset 12</title><g id="Layer_2" data-name="Layer 2"><g id="Layer_1-2" data-name="Layer 1"><g class="cls-2"><polygon class="cls-3" points="36.7 124.52 13.41 68.67 82.82 15.97 96.06 99.77 36.7 124.52"/><polygon class="cls-3" points="30.45 139.21 0.86 68.24 89.06 1.28 105.88 107.76 30.45 139.21"/><polygon class="cls-3" points="41.74 113.01 23.42 69.06 78.03 27.59 88.45 93.53 41.74 113.01"/><polygon class="cls-3" points="46.8 101.48 33.45 69.45 73.24 39.23 80.84 87.28 46.8 101.48"/><polygon class="cls-3" points="51.2 91.43 42.18 69.79 69.07 49.37 74.2 81.84 51.2 91.43"/><polygon class="cls-3" points="54.8 82.97 49.4 70.04 65.48 57.83 68.55 77.24 54.8 82.97"/><polygon class="cls-3" points="58.39 74.51 56.63 70.28 61.88 66.29 62.89 72.64 58.39 74.51"/><line class="cls-3" x1="31.05" y1="139.03" x2="18.37" y2="169.85"/></g><rect class="cls-4" x="20.39" y="42.3" width="15.89" height="68.29"/><path class="cls-5" d="M30.06,49.63c0,1.06-.47,1.73-1.53,1.73a1.93,1.93,0,0,1-1.92-1.93c0-1.06.86-1.53,1.92-1.53S30.06,48.57,30.06,49.63Z"/><path class="cls-6" d="M30.06,60.24c0,1.07-.47,1.73-1.53,1.73a1.92,1.92,0,0,1-1.92-1.92c0-1.07.86-1.53,1.92-1.53S30.06,59.18,30.06,60.24Z"/><path class="cls-5" d="M30.06,70.86c0,1.06-.47,1.72-1.53,1.72a1.92,1.92,0,0,1-1.92-1.92c0-1.06.86-1.53,1.92-1.53S30.06,69.8,30.06,70.86Z"/><path class="cls-6" d="M30.06,81.47c0,1.06-.47,1.73-1.53,1.73a1.92,1.92,0,0,1-1.92-1.92c0-1.07.86-1.53,1.92-1.53S30.06,80.41,30.06,81.47Z"/><path class="cls-5" d="M30.06,92.09c0,1.06-.47,1.72-1.53,1.72a1.92,1.92,0,0,1-1.92-1.92c0-1.06.86-1.53,1.92-1.53S30.06,91,30.06,92.09Z"/><path class="cls-6" d="M30.06,102.7c0,1.06-.47,1.73-1.53,1.73a1.92,1.92,0,0,1-1.92-1.93c0-1.06.86-1.53,1.92-1.53S30.06,101.64,30.06,102.7Z"/></g></g></svg>