<svg xmlns="http://www.w3.org/2000/svg" xmlns:xlink="http://www.w3.org/1999/xlink" viewBox="0 0 91.32 122.06"><defs><style>.cls-1,.cls-3{fill:none;}.cls-2{clip-path:url(#clip-path);}.cls-3{stroke:#0a2237;stroke-miterlimit:10;stroke-width:1px;}.cls-4{fill:#d18311;}.cls-5{fill:#0a2237;}</style><clipPath id="clip-path"><polygon class="cls-1" points="26.7 22.63 26.7 90.92 43.21 90.92 43.21 53.46 68.92 90.92 83.53 90.92 83.53 90.29 33.48 22.63 26.7 22.63"/></clipPath></defs><title>Asset 25</title><g id="Layer_2" data-name="Layer 2"><g id="Layer_1-2" data-name="Layer 1"><g class="cls-2"><polygon class="cls-3" points="44.7 99.25 16.87 71.81 45.03 23.07 73.87 69.67 44.7 99.25"/><polygon class="cls-3" points="44.66 109.56 9.29 74.69 45.08 12.77 81.72 71.98 44.66 109.56"/><polygon class="cls-3" points="44.6 121.35 0.63 77.98 45.13 0.97 90.69 74.61 44.6 121.35"/><polygon class="cls-3" points="44.83 91.13 22.93 69.54 45.09 31.19 67.78 67.86 44.83 91.13"/><polygon class="cls-3" points="44.96 83 29 67.26 45.15 39.32 61.68 66.04 44.96 83"/><polygon class="cls-3" points="45.07 75.92 34.29 65.28 45.2 46.4 56.37 64.46 45.07 75.92"/><polygon class="cls-3" points="45.09 69.98 38.65 63.63 45.17 52.34 51.85 63.13 45.09 69.98"/><polygon class="cls-3" points="45.12 64.05 43.01 61.97 45.15 58.27 47.33 61.8 45.12 64.05"/></g><path class="cls-4" d="M74.68,22.63v36.1L49.92,22.63H41.13L91.19,90.29V22.63Zm8.85,51.51c-1.39,0-2.26-.62-2.26-2a2.52,2.52,0,0,1,2.52-2.52c1.39,0,2,1.13,2,2.52S84.92,74.14,83.53,74.14Zm0-17.56c-1.39,0-2.26-.61-2.26-2a2.52,2.52,0,0,1,2.52-2.52c1.39,0,2,1.13,2,2.52S84.92,56.58,83.53,56.58Zm0-17.55c-1.39,0-2.26-.61-2.26-2a2.52,2.52,0,0,1,2.52-2.52c1.39,0,2,1.13,2,2.52S84.92,39,83.53,39Z"/><path class="cls-5" d="M83.53,30.26c-1.39,0-2.26-.62-2.26-2a2.52,2.52,0,0,1,2.52-2.52c1.39,0,2,1.13,2,2.52S84.92,30.26,83.53,30.26Z"/><path class="cls-5" d="M83.53,47.81c-1.39,0-2.26-.62-2.26-2a2.52,2.52,0,0,1,2.52-2.52c1.39,0,2,1.13,2,2.52S84.92,47.81,83.53,47.81Z"/><path class="cls-5" d="M83.53,65.36c-1.39,0-2.26-.62-2.26-2a2.51,2.51,0,0,1,2.52-2.51c1.39,0,2,1.12,2,2.51S84.92,65.36,83.53,65.36Z"/></g></g></svg>