<svg xmlns="http://www.w3.org/2000/svg" viewBox="0 0 6364.8 652.68"><defs><style>.cls-1{fill:#fff;}.cls-2{fill:#f7931e;}</style></defs><title>OSF + SustainAfrica</title><g id="Layer_2" data-name="Layer 2"><g id="Layer_1-2" data-name="Layer 1"><path class="cls-1" d="M4709.15,206.5a157.13,157.13,0,0,0-19.75-1.23,164.61,164.61,0,0,0-22.4,1.63,166.83,166.83,0,0,0-124,84.92,175.94,175.94,0,0,0-11,24.44,166.94,166.94,0,0,0-113-67.41,164.73,164.73,0,0,0-22.4-1.63,157.41,157.41,0,0,0-19.76,1.23,159,159,0,0,0-1.22,19.75,163,163,0,0,0,1.63,22.4A167.42,167.42,0,0,0,4520.58,434c.4,0,1,.2,1.42.2V582H4564V392.42c.41,0,1-.2,1.43-.2a167.41,167.41,0,0,0,143.36-143.37,163,163,0,0,0,1.63-22.4,158,158,0,0,0-1.22-19.95ZM4410.4,113.84a18.14,18.14,0,0,0,21.18,3,236.8,236.8,0,0,1,207.72-6.72,17.8,17.8,0,0,0,20-3.66l40.12-40.12a18,18,0,0,0-4.28-28.51,326,326,0,0,0-320.54,8.75,18.07,18.07,0,0,0-3.46,28.11Zm383.67,41.34-39.3,39.3a18.16,18.16,0,0,0-3.06,21.18,236.9,236.9,0,0,1,0,221.57,18.24,18.24,0,0,0,3.06,21.17l39.3,39.31a18.08,18.08,0,0,0,28.1-3.46,324.45,324.45,0,0,0,0-335.2C4816.07,148.66,4802.22,146.83,4794.07,155.18Z"/><path class="cls-1" d="M4659.26,546a17.8,17.8,0,0,0-20-3.66,236.8,236.8,0,0,1-207.72-6.72,18.22,18.22,0,0,0-21.17,3l-39.31,39.3a18.08,18.08,0,0,0,3.46,28.11,325.29,325.29,0,0,0,320.54,8.55,18,18,0,0,0,4.28-28.51L4659.26,546Z"/><path class="cls-1" d="M4322.63,443.13a17.8,17.8,0,0,0,3.67-20,236.59,236.59,0,0,1,0-193.87,17.78,17.78,0,0,0-3.67-20l-39.91-39.92a18,18,0,0,0-28.51,4.28,324.92,324.92,0,0,0,0,305.26,18,18,0,0,0,28.51,4.28Z"/><path class="cls-1" d="M5110.43,208.68c-16.68-15.33-40.45-24.73-70.54-27.6-24.34-2.49-41.21-7.48-50-15-8.43-7.1-12.65-15.53-12.65-26.07,0-10.93,4.41-19.17,13.61-24.92,10.16-6.33,23.77-9.58,40.44-9.58q20.41,0,33.36,7.47c8.62,5,15.91,12.46,21.66,21.85a25.71,25.71,0,0,0,9.77,10,27.1,27.1,0,0,0,13.42,3.64,24.6,24.6,0,0,0,13.23-3.64c6.51-4.6,10-10.93,10-18.4A30,30,0,0,0,5127.3,110c-10.35-16.29-23.2-29.13-38-37.95-15.14-9-33.73-13.42-55.39-13.42-19.55,0-37.57,3.07-53.48,9.2-16.29,6.33-29.33,15.53-38.72,27.61-9.58,12.26-14.57,27-14.57,43.7,0,23.58,9.39,43.7,27.8,59.42,18,15.34,42.74,24.54,73.41,27.6,19.93,1.92,34.69,7.29,44.09,15.91,9.2,8.44,13.61,18.21,13.61,30.1,0,12.07-5.18,21.27-15.72,28.37-11.31,7.47-25.3,11.31-41.79,11.31a84.91,84.91,0,0,1-38.91-9c-11.31-5.75-18.78-12.65-22.43-20.32a27,27,0,0,0-10.16-12.08,25.43,25.43,0,0,0-14.56-4.41,19,19,0,0,0-5.18.58,28.27,28.27,0,0,0-14,7.47,20,20,0,0,0-5.75,14.19,26.26,26.26,0,0,0,2.3,9.77c7.67,18.21,21.85,33.17,42.17,44.47a136.4,136.4,0,0,0,66.51,16.68,142.47,142.47,0,0,0,52.14-9.58c16.48-6.52,29.9-16.49,39.87-29.71,10.16-13.42,15.33-29.71,15.33-48.31.39-26.26-8.24-47.15-25.49-62.87Z"/><path class="cls-1" d="M5373.23,134.12c-4.8-4.8-11.12-7.29-18.79-7.29a26,26,0,0,0-18.59,7.29c-5,4.79-7.48,11.11-7.48,18.78V263.5a38.19,38.19,0,0,1-6.52,22,45.14,45.14,0,0,1-18.78,15.91,60.3,60.3,0,0,1-27.22,5.95c-17.44,0-30.86-4.8-41-14.57-10.16-9.59-15.14-24.34-15.14-43.7V152.71a26.07,26.07,0,1,0-52.14,0v96.42c0,22,4.41,41.4,12.84,57.12,8.63,15.91,20.7,28.37,36.23,36.8,15.14,8.24,32.59,12.46,51.56,12.46a106.46,106.46,0,0,0,39.11-7.29,96.38,96.38,0,0,0,22.62-12.65,24,24,0,0,0,6.32,10.55,25.14,25.14,0,0,0,18.59,7.47c7.67,0,14-2.49,18.79-7.47a25.77,25.77,0,0,0,7.28-18.6V152.71c-.57-7.48-2.87-13.8-7.66-18.59Z"/><path class="cls-1" d="M5582.93,240.88c-12.85-10.92-33.55-19.17-63.26-25.3-13.42-2.87-23.77-5.56-30.67-8.43-7.86-3.26-10.92-6-12.27-7.86-1.91-2.49-2.68-5.56-2.68-9.59,0-3.06,1-7.66,8.24-11.69,6.71-3.64,15.72-5.37,26.84-5.37q14.65,0,24.72,3.45c6.52,2.11,12.66,6.14,18.6,11.51a32.76,32.76,0,0,0,22.42,9,24.11,24.11,0,0,0,14.76-4.6c5.95-4.79,8.82-10.54,8.82-16.86,0-5.56-2.11-11.12-6.52-16.3-8.43-10.35-19.93-18.59-34.31-24.53-14.18-5.75-30.28-8.63-47.92-8.63a117.15,117.15,0,0,0-41.21,7.09c-13.23,4.8-24.15,12.08-32.39,21.66-8.44,10-12.85,22.24-12.85,36.42,0,34.89,27,57.7,80.13,67.86,18.4,3.45,31.62,7.67,38.91,12.65,6.32,4.22,9.39,9.2,9.39,15.14,0,6.14-3.07,10.93-9.39,14.76-7.29,4.41-17.83,6.52-31.63,6.52a80.06,80.06,0,0,1-29.52-5.56c-9-3.64-15.72-8.05-20.32-13-10.54-10.55-23-12.08-36.61-2.11a24.53,24.53,0,0,0-10.35,20.12,22.61,22.61,0,0,0,6.9,16.49c9.39,9.39,22.62,17.25,39.11,23a155.75,155.75,0,0,0,52.13,8.63c18.6,0,34.7-3.07,48.11-9,13.61-6.14,24.16-14.57,31.44-25.3a64.67,64.67,0,0,0,10.73-36c.58-18-6.13-32.78-19.35-44.09Z"/><path class="cls-1" d="M5756.78,309.89a21.47,21.47,0,0,0-16.48-7.48h-13.42c-6.52,0-11.89-2.68-16.49-8.43-4.79-5.94-7.28-13.42-7.28-22.43V180.89h27.22c7.09,0,12.84-2.11,17.44-6.33a21.45,21.45,0,0,0,7.09-16.29c0-6.9-2.3-12.65-7.09-17.06-4.6-4.22-10.35-6.33-17.44-6.33h-27V84.66a25.3,25.3,0,0,0-7.28-18.4c-4.79-4.79-10.93-7.28-18.4-7.28s-13.61,2.49-18.41,7.28-7.28,10.93-7.28,18.4v50.41h-11.88c-7.1,0-12.85,2.11-17.45,6.33a22.54,22.54,0,0,0-7.09,17.06,22,22,0,0,0,7.09,16.29c4.6,4.22,10.35,6.33,17.45,6.33h11.88v90.66c0,15.34,3.26,29.33,9.78,41.6a74.42,74.42,0,0,0,27,29.52,70.38,70.38,0,0,0,38.34,10.92h7.09c8.24,0,15.15-2.3,20.51-6.9a24.23,24.23,0,0,0,8.63-18.78,26.77,26.77,0,0,0-6.52-18.21Z"/><path class="cls-1" d="M6096.25,68.37A30.56,30.56,0,0,0,6073.82,59a31,31,0,0,0-22.42,9.39A30.55,30.55,0,0,0,6042,90.8a31,31,0,0,0,9.4,22.42,30.54,30.54,0,0,0,22.42,9.4,31,31,0,0,0,22.43-9.4,30.57,30.57,0,0,0,9.39-22.42A30.89,30.89,0,0,0,6096.25,68.37Z"/><path class="cls-1" d="M6073.82,145.62a26.06,26.06,0,0,0-18.59,7.28c-5,4.79-7.48,11.12-7.48,18.79v156a25.54,25.54,0,0,0,26.07,26.07c7.67,0,14-2.49,18.79-7.47s7.09-11.12,7.09-18.6v-156c0-7.67-2.49-14-7.28-18.79C6087.82,148.11,6081.49,145.62,6073.82,145.62Z"/><path class="cls-1" d="M6352.14,174.56a88.22,88.22,0,0,0-36.22-36.8c-15.15-8.24-32.59-12.46-51.57-12.46a106.6,106.6,0,0,0-39.1,7.28,92,92,0,0,0-22.43,12.65,26.16,26.16,0,0,0-6.13-10.73c-4.79-4.79-11.12-7.28-18.78-7.28a26.09,26.09,0,0,0-18.6,7.28c-5,4.79-7.47,11.12-7.47,18.78V328.1a25.54,25.54,0,0,0,26.07,26.07c7.66,0,14-2.5,18.78-7.48A25.75,25.75,0,0,0,6204,328.1V217.5a38.24,38.24,0,0,1,6.52-22.05,45.37,45.37,0,0,1,18.79-15.91,60.52,60.52,0,0,1,27.22-6.13c17.44,0,30.86,4.79,41,14.57,10.15,9.58,15.14,24.34,15.14,43.7V328.1a26.07,26.07,0,1,0,52.14,0V231.68c.19-22-4.22-41.21-12.66-57.12Z"/><path class="cls-1" d="M5980.67,127.22a26.09,26.09,0,0,0-18.6,7.28,22.88,22.88,0,0,0-6.13,9.78c-1.73-1.15-3.64-2.3-5.37-3.46a113.78,113.78,0,0,0-57.7-15.14,115.68,115.68,0,0,0-58.07,15.14,108.3,108.3,0,0,0-41.22,41.41c-10,17.44-14.95,37.18-14.95,58.46s4.6,40.83,13.8,58.27a105.14,105.14,0,0,0,38.34,41.41c16.1,10,34.5,14.95,54.25,14.95a105.87,105.87,0,0,0,45-10,113.57,113.57,0,0,0,24.73-16.49,26.07,26.07,0,0,0,52.14-.76V153.28c0-7.66-2.5-14-7.29-18.78-5-4.79-11.31-7.28-19-7.28Zm-32.78,148a60.58,60.58,0,0,1-22.62,24,62.2,62.2,0,0,1-32.4,8.82,60.38,60.38,0,0,1-32.39-8.82,64.29,64.29,0,0,1-23-24,70.73,70.73,0,0,1-8.44-34.5,72,72,0,0,1,8.44-34.69,63,63,0,0,1,22.81-24.16,62.19,62.19,0,0,1,32.39-8.81,60.49,60.49,0,0,1,32.4,8.81A61.19,61.19,0,0,1,5947.7,206c5.55,10.35,8.24,22,8.24,34.69A66.59,66.59,0,0,1,5947.89,275.19Z"/><path class="cls-1" d="M5138.08,637.43h-55.83l-14.6-42.37h-77.58l-14.61,42.37H4921l77.44-209.64h62.23Zm-83.43-80.81-25.79-75.11-25.79,75.11Z"/><path class="cls-1" d="M5260.69,455.53h-3.79q-3.37-1-8.78-2.25a50.3,50.3,0,0,0-11.58-1.27q-14.88,0-20.15,5.35t-5.26,20.7v1.26h39v34.36h-37.31V637.43H5162V513.68h-21.68V479.32H5162V475q0-29,15.42-43.51t46.67-14.5q11.27,0,20.42.78t16.19,2Z"/><path class="cls-1" d="M5387.37,527.61h-4.49a45.3,45.3,0,0,0-10.4-1.68q-7.17-.57-11.94-.57a114.88,114.88,0,0,0-19.1,1.41,107.66,107.66,0,0,0-17.85,4.79V637.43h-50.82V479.32h50.82v23.23q16.72-14.35,29.08-19.07t22.76-4.72q2.67,0,6,.14t5.9.42Z"/><path class="cls-1" d="M5461.12,456.8h-53.64V418.36h53.64Zm-1.41,180.63h-50.82V479.32h50.82Z"/><path class="cls-1" d="M5582.59,641.66a136.52,136.52,0,0,1-37.8-4.93A83.09,83.09,0,0,1,5515,621.52a68.91,68.91,0,0,1-19.43-25.9q-6.9-15.63-6.89-36.61,0-22.1,7.39-38.15a72,72,0,0,1,20.62-26.61,83.93,83.93,0,0,1,29.57-14.65,129.83,129.83,0,0,1,34.78-4.64,119.19,119.19,0,0,1,29.84,3.52,141.61,141.61,0,0,1,25.49,9.15v43.22h-7.17q-3-2.54-7.1-5.91a65,65,0,0,0-10.19-6.62,68,68,0,0,0-12.66-5.14,56.58,56.58,0,0,0-16-2q-20.25,0-31.14,12.88t-10.9,35q0,22.82,11.18,34.64t31.7,11.82a62.68,62.68,0,0,0,17.22-2.18,55.21,55.21,0,0,0,12.72-5.14,59.61,59.61,0,0,0,8.44-5.91q3.66-3.09,6.75-6h7.17v43.22a139.6,139.6,0,0,1-25,8.94A117.25,117.25,0,0,1,5582.59,641.66Z"/><path class="cls-1" d="M5758.42,620.68q-4.08,3.09-10.14,7.46a73.86,73.86,0,0,1-11.4,6.9,72.2,72.2,0,0,1-15.49,5,89,89,0,0,1-17.6,1.62q-22.53,0-37.73-13.94t-15.21-35.62q0-17.33,7.75-28.3t22-17.32q14.08-6.33,34.92-9t43.22-3.94v-.85q0-13.08-10.7-18.09t-31.54-5a90,90,0,0,0-26.75,4.44q-14.22,4.43-20.41,6.83h-4.65V482.7q8-2.11,26.12-5a230.28,230.28,0,0,1,36.25-2.88q43.23,0,62.45,13.3t19.21,41.75V637.43h-50.26Zm0-24.6V563.24q-10.28.84-22.25,2.31A107.32,107.32,0,0,0,5718,569q-7.59,2.38-11.61,7t-4,12a31.34,31.34,0,0,0,.84,8,12,12,0,0,0,4.22,5.89,20.57,20.57,0,0,0,7.75,4.14q4.5,1.34,14.08,1.33a41.66,41.66,0,0,0,15.41-3.08A48.17,48.17,0,0,0,5758.42,596.08Z"/><path class="cls-1" d="M3860.84,232.34h53.6v67.58h68.33v52.47h-68.33v67.95h-53.6V352.39H3792.5V299.92h68.34Z"/><path class="cls-2" d="M1148.49,212.87V167.66c0-30.31-11.89-58.06-33.51-79.68s-48.69-34.21-79-34.21H719.86c-30.32,0-57.77,12.47-79.39,33.83s-33.91,49.25-33.91,80.06V273.53c0,30.82,12.29,58.42,33.91,79.79s49.07,33.56,79.39,33.56h314.28v89.49H527V167.66c0-30.31-8.7-58.06-30.32-79.68S451.21,53.77,420.9,53.77H104.78C74,53.77,50.65,66.24,29.28,87.6S0,136.85,0,167.66V483.78c0,30.82,7.9,57.71,29.28,79.07S74,595.7,104.78,595.7H1036c30.31,0,57.38-11.6,79-33.22s33.51-48.38,33.51-78.7V377.91c0-30.31-11.89-56.3-33.51-77.92s-48.69-32.43-79-32.43H720.92V173.09h313.22v39.78ZM427.58,277.48v.08a13.71,13.71,0,0,1-.63,2.67c-.25.21-.9,2.24-1.08,2.24h-.09c-.12,0-.25-2.06-.39-2.06s-.22-1.05-.27-1c-.32.12-.36-.38-.39,0s0,.67,0,1.17c0,1.56,0,3.05-1,4.39a7.3,7.3,0,0,0-1,2,5.63,5.63,0,0,1-1.49,2.62,3.66,3.66,0,0,0-1.1,2.17,4.92,4.92,0,0,1-.87,2.07,8.86,8.86,0,0,0-2.08,4,16.7,16.7,0,0,1-2.71,6c-.38.61-.78,1.25-1.13,1.89-2.5,4.48-6,8.15-9.44,11.7l-1.35,1.4a15.44,15.44,0,0,1-4,2.75l-.39.22a30.82,30.82,0,0,0-5.35,4l-.32.28a58.67,58.67,0,0,0-4.87,4.85c-.53.57-1.05,1.14-1.59,1.7l-.93.94a19.23,19.23,0,0,0-2.18,2.44c-.28.41-.54.84-.8,1.3a12.81,12.81,0,0,1-1.46,2.16c-.15.17-.29.35-.43.54a2.66,2.66,0,0,1-2.84,1.45s0,.1,0,.21c-.29,1.89-.76,2.36-2.8,2.77-.31.07-.62.27-.61.52a6.05,6.05,0,0,1-1.14,3.6l-.06.11a17.32,17.32,0,0,0-1,2.08c-.26.64-.54,1.3-.87,1.94l-.13.24a4.72,4.72,0,0,1-1,1.47,4.05,4.05,0,0,0-1.19,2.36,14.6,14.6,0,0,1-1.36,3.2l-.24.47a1.18,1.18,0,0,0,0,.86,4,4,0,0,1,.06.62c0,.48.09.61.61.82a2.1,2.1,0,0,1,1.29,1.58c.05.29.07.3.16.32a1.48,1.48,0,0,1,1.14,1,1.79,1.79,0,0,1-.4,1.75c-.65.79-.9,1.24-.42,2a2.56,2.56,0,0,1,0,2.46,2,2,0,0,0,.14,2.46,8.2,8.2,0,0,1,1,3.36,11,11,0,0,0,.46,2.11,2,2,0,0,0,1.15,1.35c2.06.9,2.49,1.69,2.21,4v.14a.59.59,0,0,0,0,.13l.06,0c.83.17.7,1,.66,1.24a.9.9,0,0,0,0,.21c0,.36-.1.16-.22.27-.26.27-.61-.2-.82-.2h-.12v.52c0,.08,0,.36,0,.45a12.1,12.1,0,0,0,.25,3.32,15,15,0,0,1,.29,3,1.7,1.7,0,0,1-.8,1.64,3.52,3.52,0,0,1,.35,1.39,6.78,6.78,0,0,1-.1,1.58c0,.24-.08.48-.1.71a4.43,4.43,0,0,0,.54,2.09,4.94,4.94,0,0,1,.59,2.72,4.11,4.11,0,0,1-.33,1.09,3.32,3.32,0,0,0-.22.65c-.47,2.31-2,3.88-3.51,5.4l-.35.37a22.67,22.67,0,0,1-4.12,3.55,14.39,14.39,0,0,1-4.85,1.71l-.61.13a6.31,6.31,0,0,0-1.73.82c-.28.17-.56.34-.85.49a19,19,0,0,0-5.21,4.62l-.3.33-.29.34a3.39,3.39,0,0,1-2.67,1.56,3,3,0,0,0-1.44,1.14l-.2.26a7.05,7.05,0,0,1-2.72,2.47c-.9.34-1,.66-1.16,1.59l0,.1c-.19.92-.2,1.13.48,1.57a2.42,2.42,0,0,1,.74,2.69c-.24.66,0,1,.4,1.65a.78.78,0,0,1,.9-.35c.55.12.75.56.61,1.32a.78.78,0,0,0,0,.14,1.58,1.58,0,0,0,0,.36,1.33,1.33,0,0,1-1,1.69.17.17,0,0,0,0,.1c1.32.38,1,1.44.89,1.95-.05.18-.11.35-.17.52-.24.66-.29.93.07,1.28s.1,1,0,1.12a6.16,6.16,0,0,0-.77,4.36,2.06,2.06,0,0,1-.72,2.08l-.3.34a6.5,6.5,0,0,1-3.35,2.5l-.25.07a33.6,33.6,0,0,0-7,2.55,3.91,3.91,0,0,0-1.25.88l.23.76a5.37,5.37,0,0,1,0,2.62,6.14,6.14,0,0,0-.14,1.09,13.69,13.69,0,0,1-1.18,4.57,17.87,17.87,0,0,0-.95,2.9,5.55,5.55,0,0,1-3.09,4.11,7.15,7.15,0,0,0-1.83,1.27l-.48.42a9.35,9.35,0,0,0-2.08,2.82c-.3.54-.62,1.09-1,1.61l-.55.81c-1.61,2.35-3.26,4.77-5.9,6.3a5,5,0,0,0-1.52,1.4,17.52,17.52,0,0,1-3.89,3.48l-.07.05c-.53.39-1.06.8-1.59,1.21a30,30,0,0,1-3.85,2.68l-.38.22c-1.4.78-3,1.67-4.94.78a.51.51,0,0,0-.45,0,.91.91,0,0,0-.26.72.94.94,0,0,1-.25.69.93.93,0,0,1-.67.23c-.1,0-.19,0-.3,0a1.73,1.73,0,0,1-.92-.08c-1.06-.48-1.37-.41-1.74.38a.8.8,0,0,1-.51.41,2.32,2.32,0,0,1-1.63-.2,7.06,7.06,0,0,0-2.31-.7c-.43-.08-.88-.16-1.32-.28-.18,0-.36,0-.66.18a2.42,2.42,0,0,1-1.11.33,7.46,7.46,0,0,1-1.53-.18,5.17,5.17,0,0,0-1.6-.15,1.78,1.78,0,0,0-1.35.62,3.51,3.51,0,0,1-3.24,1.17,6.7,6.7,0,0,0-1,0,13.54,13.54,0,0,0-3,.74,4,4,0,0,1-2.52,1.16,5.1,5.1,0,0,1-2.52-.91,2.24,2.24,0,0,1-.67-.71c-.19-.29-.3-.44-.52-.5l-.15,0a2,2,0,0,1-1.32-.74l0,.12a.94.94,0,0,1-.56.61.91.91,0,0,1-.72,0,1.26,1.26,0,0,1-.67-.72c-.15-.36-.31.69-.37.27-.09.23-.18,1.9-.27,1.9h-.07c-.19,0-.5-3-.68-3.27a7.94,7.94,0,0,1-.07-2,2.35,2.35,0,0,0-.37-1.69,2.88,2.88,0,0,1-.63-2c0-.07,0-.34,0-.41a1.65,1.65,0,0,1,.48-1.26,1.15,1.15,0,0,1,.95-.2.53.53,0,0,0,.41,0c.05,0,.15-.19.15-.64a6.49,6.49,0,0,0-1.42-4.46A20.05,20.05,0,0,1,261.5,479l-.3-.82a27.75,27.75,0,0,0-2.73-6,1.07,1.07,0,0,0-.17-.21,17,17,0,0,1-5.34-6.34l-.17-.33a7.6,7.6,0,0,1-1.15-4.13s0,0,0-.11a15,15,0,0,1-1.45-6.36,6.41,6.41,0,0,0-.81-2.7l-.24-.47a4.74,4.74,0,0,1-.62-3.83,4.37,4.37,0,0,0-.15-2c-.05-.25-.11-.5-.15-.74,0-.06,0-.13,0-.19a1.49,1.49,0,0,1,0-1c.85-1.79-.16-3-1.32-4.33l-.24-.27a22.81,22.81,0,0,1-2.25-3.41c-.17-.29-.33-.59-.51-.88-.91-1.55-1.71-3.19-2.48-4.78a49.63,49.63,0,0,0-3.28-6l0-.06a2.61,2.61,0,0,0-.49-.61,9.57,9.57,0,0,1-3-5.72,3.75,3.75,0,0,1,.07-1.46,4.53,4.53,0,0,0-.14-2.9l0-.09a1.21,1.21,0,0,1,.57-1.83,3.28,3.28,0,0,0-.16-.78,4.39,4.39,0,0,1-.17-.67,3.06,3.06,0,0,0-.05-.32,1.57,1.57,0,0,1,1-2.1c.15-.05.19-.44.21-.67v-.07a17.43,17.43,0,0,1,.75-3.17,12.54,12.54,0,0,0,.76-3.88,4.33,4.33,0,0,1,.33-1.42,3.06,3.06,0,0,0,.29-1.45.9.9,0,0,1,.51-.89.31.31,0,0,0,.09-.07,5.1,5.1,0,0,1,.69-.63c.56-.45.88-.74.85-1.37,0-.18,0-.74,1.29-1.59,2-1.26,2.38-2.09,2.32-4.41a7.35,7.35,0,0,1,.16-1.42c0-.12,0-.23.07-.35.23-1.33-3.75-2.36-4.56-3.6s4.24-3-5.7-4.92v0c0-.73,2.8-1.41,2.9-2.07.14-1,2.74-1.76,3.38-2.24.07-.2,3.54-.78,3.41-1-1.24-1.94.25-4.09.25-6.17v-.75c0-.48-3-.88-3.35-1.31s-2.09-1-2.33-1.69c-.13-.38-.83-.77-.9-1.15a3.62,3.62,0,0,0-1.13-1.93.93.93,0,0,1-.15-1.29c.05-.06,0-.16.05-.2a3.26,3.26,0,0,0-.73-1.32,8.82,8.82,0,0,1-.94-1.54,6.39,6.39,0,0,0-1-1.52c-1-1.08-2.06-2.21-3-3.31-.75-.83-1.5-1.65-2.26-2.47a17.23,17.23,0,0,0-1.72-1.54,16.16,16.16,0,0,1-2.07-1.91l-.28-.33a13.15,13.15,0,0,1-2.78-4.35,17.11,17.11,0,0,0-2-3.78,2.08,2.08,0,0,1-.32-2l.17-.47.47.15a1.68,1.68,0,0,0,1.44,0c.43-.29.71-1,.81-2.23,0-.28-1.4-.57-1.41-.88,0-.16-1.42-.31-1.42-.46v-.46l1.61,0c-.2-.43.45-.93.57-1.48.15-.77,1.16-.81,1.52-.82a2.19,2.19,0,0,1,.1-.81,1.12,1.12,0,0,1-.85-.6c-.24-.49.13-1,.36-1.37l.1-.12c.27-.45.58-.88.88-1.3s.43-.61.63-.92a1.72,1.72,0,0,0,.22-1,18.35,18.35,0,0,1,.55-4.6,1.59,1.59,0,0,0-.59-1.78,2.41,2.41,0,0,1-.85-2.09,3.81,3.81,0,0,1-2.33-.69,2,2,0,0,1-.92-1.54,2.76,2.76,0,0,0-.17-.59l0,0a1.49,1.49,0,0,1-1.31,0,1.21,1.21,0,0,1-.43-.44,2.46,2.46,0,0,1-1.66.31l-.36,0a5.2,5.2,0,0,0-1.51.28,6.88,6.88,0,0,1-1.66.32,17.79,17.79,0,0,0-2.41.28,12.75,12.75,0,0,1-3.76.22,4.46,4.46,0,0,1-3.47-3.2,16.52,16.52,0,0,0-3.32-6A4.38,4.38,0,0,0,196.4,300a62,62,0,0,0-9.55.44l-.62.06a7.38,7.38,0,0,0-1.46.32,8.86,8.86,0,0,1-1.83.37c-.08,0-.24.23-.28.48A1.46,1.46,0,0,1,180.8,303c-2.11-.27-3.83.71-5.67,1.75l-.18.1a16.23,16.23,0,0,1-4.91,1.54,2.41,2.41,0,0,0-1,.55,3.45,3.45,0,0,1-1.42.71l-.2,0a1.92,1.92,0,0,1-1.88-.36,4.93,4.93,0,0,0-2.66-.9l-.89-.14-1.22-.26a15.07,15.07,0,0,0-4.69-.5c-.81.09-1.64.15-2.43.21a38.81,38.81,0,0,0-4.83.56,9.64,9.64,0,0,0-2,.75,13.89,13.89,0,0,1-1.79.71,18.75,18.75,0,0,0-3,1.28l-.84.41a2.36,2.36,0,0,1-2.11.08c-.83-.44-1.7-.84-2.54-1.24a31.74,31.74,0,0,1-4.48-2.39,13.74,13.74,0,0,1-2.52-2.4,14.92,14.92,0,0,0-1.81-1.83c-.23-.19-.44-.39-.66-.59a3.73,3.73,0,0,0-1.81-1.14c-1.06-.21-1.58-.72-1.54-1.53a8.87,8.87,0,0,1-3.29-2.6,6,6,0,0,0-2.77-1.65c-.31-.12-.61-.23-.91-.36a10.24,10.24,0,0,1-1-.51,4,4,0,0,0-1.63-.67c-.7-.08-.84-.75-.9-1.07l-.13-.54.39-.17a1.58,1.58,0,0,1,.49-.14.85.85,0,0,1-.08-.71,1.78,1.78,0,0,0,.11-.55,3,3,0,0,0-.92.23l-1.14.39.5-1.1c.31-.67.24-.77.06-.93a.92.92,0,0,1-.22-1.06.87.87,0,0,1,.31-.3,4,4,0,0,1-.18-1.43,3.09,3.09,0,0,0-.14-1.16c-.07-.16-.13-.31-.18-.46-.4-1-.56-1.34-1.44-1.12l-.18,0c.08.25.15,1.62.22,1.69l0,3.24h0c-.14,0-.42-3.14-.59-2.87s-.13-2.11-.09-1.91l.11.23.34-.23a5,5,0,0,0-.37-1.15c-.42-.43-.81-1.38-1.26-1.58a4.59,4.59,0,0,1-1.65-1.82,7.38,7.38,0,0,0-.62-.89.64.64,0,0,1-.23-.56,3.72,3.72,0,0,0-.23-1.46s0,0,0,0a1,1,0,0,1-.91.32.64.64,0,0,1-.45-.5,1.69,1.69,0,0,0-.66-.81,2.31,2.31,0,0,1-.94-1.27,1,1,0,0,1-.72.38,1.15,1.15,0,0,0-.65.29,2.26,2.26,0,0,1-.88.43l-.17,0a1.52,1.52,0,0,1-1.43-.16c-.28-.27-.32-3.29-.31-3.58-.09,0-.18-2.82-.24-2.82h-.07c-.56,0-.78,1.24-.86,1.59.57,0,1.06.21,1,.26-.36.2-.48.35-.53.49s0,.06.06.05-.12.27-.1.07l0,0c-.35,0-.46-.63-.47-.35,0,.11,0,0,0-.1-.82,0-.62,0-.49,0-.35-.3-2.8-.6-2.8-1.28v-.12c0-.05,2.14-.15,2.12-.19a3.32,3.32,0,0,1-2-3.76,19.16,19.16,0,0,0-.13-3v-.09c0-.19,1.47-.37,1.52-.5l.7,0c0-.25.47-.41.54-.49a1.22,1.22,0,0,1,.82-.21,1.43,1.43,0,0,1,0-.63c0-.06.06-.13.06-.18h0l-.48-.1.1-.5a3,3,0,0,0-.58-2,6.09,6.09,0,0,1-.6-1.29c-.17-.53-.25-.55-.46-.53a1,1,0,0,1-.75-.2,1.21,1.21,0,0,1-.39-.83.87.87,0,0,1,.72-1l.08,0a7.7,7.7,0,0,0,4.48-6.43,2.17,2.17,0,0,1,.47-1.26.93.93,0,0,1,.23-.75.86.86,0,0,1,.26-.72,1.83,1.83,0,0,1,.44-.85.8.8,0,0,1,.24-.54c0-.22.72-.39.87-.51.26-.75,1.67-1.47,1.67-2.13v0c0-.13-.62-.48-.37-.74a3.93,3.93,0,0,1,.18-2,11.67,11.67,0,0,0-.26-2.45,16.32,16.32,0,0,1-.21-2,4,4,0,0,1-.48-.67,3.91,3.91,0,0,0-.37-.54,1.59,1.59,0,0,1,.13-2.24c0-.07,0-.16,0-.25a1.47,1.47,0,0,1,.21-1.09,1.31,1.31,0,0,1,.68-1c.25-.19.35-.27.37-.45a2.53,2.53,0,0,0-.06-.82c0-.11,0-.23,0-.35a1.91,1.91,0,0,1-.16-.32c-.14-.3-.19-.4-.48-.45-.62-.1-.85-1-.94-1.58a.89.89,0,0,1-1,.29,1,1,0,0,1-.65-.47,1.53,1.53,0,0,1,.11-1.24c0-.09.07-.18.1-.26.12-.41.23-.83.35-1.24a16.1,16.1,0,0,1,1.73-4.5l.06-.54c.34-.54.8-1.64,1.85-1.64h0s0,.34,0,.27.1,0,.19-.19c.2-.31.4-.5.61-.8l.17-.19a1,1,0,0,1,.54-.85,7.3,7.3,0,0,1,.9-1.68,5,5,0,0,0,.89-1.89,1.58,1.58,0,0,1,.61-1.06l.54-.51a11.2,11.2,0,0,0,1.82-1.4,10.87,10.87,0,0,1,2.25-1.67,2.05,2.05,0,0,0,1.17-1.72,6.19,6.19,0,0,1,1.35-3.49c.25-.39.49-.76.69-1.15a2.83,2.83,0,0,1,.3-.42,1.15,1.15,0,0,0,.19-.28c.3-1.48,1.45-1.89,2.39-2.22l.32-.12a15.56,15.56,0,0,0,1.68-.76l.6-.29a20.56,20.56,0,0,1,2.76-4.55l.4-.41c.56-1.42,1.83-1.34,2.68-1.29.23,0,.45,0,.63,0a9.66,9.66,0,0,0,6.22-2.62,4.43,4.43,0,0,1,1.59-.92l.32-.13c2.09-.89,3.41-2.56,4.8-4.33.36-.44.71-.89,1.08-1.33a.89.89,0,0,0,0-1.18,2.59,2.59,0,0,1-.16-2.36l0-.12c.09-.32.15-.65.22-1a4.92,4.92,0,0,1,1.55-3.25l1.76-1.76a8.92,8.92,0,0,0,.46-1.35l.1-.35a3.46,3.46,0,0,1,1.68-1.9,4.13,4.13,0,0,0,1-.79c1.29-1.57,3-2,4.74-2.49.56-.15,1.13-.3,1.67-.49a6.75,6.75,0,0,0,.73-.34,4.18,4.18,0,0,1,1.51-.55,2.8,2.8,0,0,1,.88-.72l.36-.23a4.53,4.53,0,0,1,1.65-2.11c.43-.85.93-1.65,1.41-2.43a23.32,23.32,0,0,0,1.77-3.21.86.86,0,0,1,1-.5,2.09,2.09,0,0,0,.83-.1,2.56,2.56,0,0,1,1.33-.09,1.3,1.3,0,0,1,.86,1.39,1.07,1.07,0,0,0,.08.47c.35.46.72.9,1.08,1.35l.39.48a7.78,7.78,0,0,0,2.56.08c.41,0,.83-.13,1.25-.13h.15a2.35,2.35,0,0,1,1.36.45c.14-.05.27,0,.4-.07.42-.12.58-.15.68-.4a.83.83,0,0,1,.85-.51.89.89,0,0,1,.77.78c.15.78.36,1,1.32,1a5.24,5.24,0,0,1,1.19.15,2.84,2.84,0,0,0,1.41.08.94.94,0,0,1,.56-.31l0,0a1.26,1.26,0,0,1,1-.47,1.09,1.09,0,0,0,.25-.05l0-.08.13-.12a1,1,0,0,1,.43-.66,1,1,0,0,1,.67-.44l0,0c.39-.53.94.1,1.28.12.08,0,.16.59.23.59h.22c.25,0,3.19-.59,3.26-.66A32,32,0,0,1,193.9,151v.18s-2.05.26-1.7.63c0,0-1.22,0-1-.21l-.62,0c0-.25-.17-.46.09-.66s.23-.38.47-.42a.7.7,0,0,1,.4-.23,1.8,1.8,0,0,1,.8-.34l.21,0a1.86,1.86,0,0,1,1-.39l.31-.05a1,1,0,0,1,.54-.32,1.55,1.55,0,0,1,1.32-.25h.12a10.21,10.21,0,0,0,2.4-.07,9.68,9.68,0,0,1,3.22,0l.15-.06.11,0,.11-.11a1.63,1.63,0,0,1,2.08-.47,2.42,2.42,0,0,0,1.73-.08.51.51,0,0,1,.35-.21,16.66,16.66,0,0,1,5.18.33.9.9,0,0,1,.72.25.73.73,0,0,1,.51.33.62.62,0,0,1,.35.49l.12,0a.75.75,0,0,0,.32,0,1,1,0,0,1,1.06-.65,3.19,3.19,0,0,0,1.21-.11c.21-.05.42-.1.64-.13a1.15,1.15,0,0,1,.55-.52.41.41,0,0,0,.11-.07l.56-.45.07.17a1.31,1.31,0,0,1,1.77.66,2.4,2.4,0,0,0,.4.06l.45.08.13,0,.14,0a.43.43,0,0,0,0-.11.85.85,0,0,1,.47-.56,1.83,1.83,0,0,1,1.36.09l.38.13a2.57,2.57,0,0,1,1,.51.89.89,0,0,1,.39.38,9.17,9.17,0,0,1,1.77-.24,4.85,4.85,0,0,0,2.74-.78c1.71-1.3,3.44-.85,4.85-.4.81.26.41.94.41,1.27v.06c0,.14.38.31.44.51s.22,2.17.25,2.27c.19-.15.61,1.72.94,1.72h0c-.29,0-.17-2.83.12-3.11s.69-1.27.94-1c.08.08.24-.38.42-.32.38.11.95,0,1.15.73a1.61,1.61,0,0,1-.5,1.82,5.36,5.36,0,0,0-.52.54,3.88,3.88,0,0,1-1.73,1.37.74.74,0,0,0-.07.55.94.94,0,0,0,.39.74,2.79,2.79,0,0,1,1.66,2.48,3.67,3.67,0,0,1-.63,3,8.27,8.27,0,0,1-3.58,3c-.63.28-.48.64-.42.77.32.76.66,1.1,1.16,1.17a.22.22,0,0,0,.17-.05c.06,0,.08-.41.08-.43a1.33,1.33,0,0,1,1.19-1.3h.12c.7,0,1.1.73,1.17,1.53a6.77,6.77,0,0,0,.26,1.28c.1.35.2.79.27,1.18s.57.49,1.2.6l.36.1a6.81,6.81,0,0,1,2.29,1,2.8,2.8,0,0,0,2.88.49,4,4,0,0,1,3,.06,5.6,5.6,0,0,0,1.27.28,4.92,4.92,0,0,1,2.27.9,4.9,4.9,0,0,0,1.42.69l.52.15a2.7,2.7,0,0,0,.85.18c1.71-.11,1.93,1.34,2,2,.4,2.82,1.58,3.9,4.35,4a16.58,16.58,0,0,1,6.39,1.82,13.76,13.76,0,0,1,2.8,1.81l.08.06c1.92,1.47,3.1,1.19,5.06-1.19.64-.77.84-1.3.23-2.22a4.27,4.27,0,0,1,1.27-5.7,15.13,15.13,0,0,1,4.84-2.28,10.06,10.06,0,0,1,4.92-.32,7.94,7.94,0,0,1,1.65.52,7.46,7.46,0,0,0,1.53.47c.71.11.74.83.75,1.11a.71.71,0,0,0,0,.14c.06.7.38,1,1.12,1a3.57,3.57,0,0,1,2.45.73,1.87,1.87,0,0,0,1.56.17c2.13-.35,2.76-.21,3.62,1.91.2.48.24.5.77.3a4.68,4.68,0,0,1,3.46-.11c.46.06,1,.09,1.44.12a8.32,8.32,0,0,1,3.6.78,5,5,0,0,0,1.32.48,5.57,5.57,0,0,1,1.56.6,1.53,1.53,0,0,0,.95.1,4.28,4.28,0,0,1,.72,0,3.52,3.52,0,0,1,2.55,1c.94.28,1.61-.27,2.37-.9l.45-.36a18.73,18.73,0,0,1,5.55-2.66,2.73,2.73,0,0,1,1.67.1c.17.06.34.14.51.22.67.3.94.38,1.32,0a1.05,1.05,0,0,1,.84-.2.75.75,0,0,1,.6.33,2.68,2.68,0,0,0,1.23.88,3.63,3.63,0,0,1,1.6,1.16c.1,0,.2-.1.41-.32a2.78,2.78,0,0,1,.41-.36,2,2,0,0,1,2.31-.21,1.44,1.44,0,0,0,.77.19c.65-.16,1.44-.34,1.28-.49S337.3,176,337,176h-.16a2.53,2.53,0,0,0-1.28.31c-.55.34,1.39.43.95.4s1.59.21,1.59.29v0c0,1,2.5,2.23,2.74,3.64a10.46,10.46,0,0,1,2.24,6.5v.53c-5,1.51-2,3.08-1.92,4.7.06,1.18-1,1.69-1.37,1.89a2.64,2.64,0,0,1-2.26-.05,1.29,1.29,0,0,1-.19,1l-.11.09a1.62,1.62,0,0,0-.13.19l.15.14a2.66,2.66,0,0,1,.86,1.68,9,9,0,0,0,1,2.48c.25.48.5,1,.71,1.48l.22.27a12.61,12.61,0,0,1,2.53,4,4.84,4.84,0,0,1,1.48,2.19c.1.23.2.46.31.68a7.52,7.52,0,0,0,2.87,3,2,2,0,0,1,.68.77l0,.06c.45.77.15,1.18-.19,1.39-.15.09-4.86.25-5.31-.07,0,.27-4.33.54-4.33.8v.35c0,.27,4.59.55,4.7.82.27.65,2.69,1.26,3.21,1.69.1.09,1.26.19,1.32.28s.58,0,.6.07a7.12,7.12,0,0,1,3,1.68,7.79,7.79,0,0,0,1.78,1.21,1.39,1.39,0,0,1,.88,1.34c-.14,1.34.7,2.37,1.48,3.37a1.44,1.44,0,0,1,.41,1.06,19.25,19.25,0,0,0,.39,4.44c.14.88.29,1.79.36,2.7a9.53,9.53,0,0,0,.68,2.41c.1.25.2.51.28.76s.3.53.86.66a3.21,3.21,0,0,1,2.25,1.6,1.92,1.92,0,0,0,1,1l.14.08c2.17,1.23,3.07,3.26,3.87,5.42l0,.08a19.45,19.45,0,0,1,1.33,4.75,2.83,2.83,0,0,0,.72,1.39,4.28,4.28,0,0,1,.88,1.62h0a.76.76,0,0,0,.92.27,2.55,2.55,0,0,1,2.75,1.47,1.47,1.47,0,0,1,.1.22c.08.17.09.17.13.19a9.26,9.26,0,0,1,1.49.81,5.85,5.85,0,0,0,2,.92c1.26.23,1.86,1.37,2.3,2.2a3.74,3.74,0,0,0,1.64,1.4,5.78,5.78,0,0,1,1.68,1.27,3.08,3.08,0,0,0,.25.27,2.37,2.37,0,0,1,.64.89,2.61,2.61,0,0,0,2.2,1.78,1.29,1.29,0,0,1,.28.12c1.45.6,3.37,3.64,3.34,5.24a1.31,1.31,0,0,1-1.11,1.43,2.13,2.13,0,0,0-.71.42,1.9,1.9,0,0,1,.59.15,3.93,3.93,0,0,1,2,2.08c.1.17.19.34.29.5a5.84,5.84,0,0,0,4,3,4.34,4.34,0,0,0,3.22-.94l.18-.11a16.06,16.06,0,0,1,2.1-1.2,3.73,3.73,0,0,1,3.06.29c.67.31,1,.13,1.65-.23s1.25-.79,1.86-1.2c.37-.26.74-.51,1.12-.75a1.5,1.5,0,0,1,1.66-.07c.7.37,1.45.27,2.58-.35a3.31,3.31,0,0,1,2.36-.58,3.83,3.83,0,0,0,2.78-.21,10.25,10.25,0,0,1,2.53-.91,8.76,8.76,0,0,0,2.42-.9c.17-.11.23-.16.24-.19a3.1,3.1,0,0,1,2-1.47,3,3,0,0,1,2.38.53,1.72,1.72,0,0,1,.35,2.23,5.09,5.09,0,0,0,0,3.09c.09.45.19.92.24,1.4a.34.34,0,0,0,.16.08,2,2,0,0,1,1.07.29C427.27,276.93,427.58,277.27,427.58,277.48Z"/><path class="cls-1" d="M1581.49,253.21a144,144,0,0,1-30.06,45.61,139.77,139.77,0,0,1-45.76,30.94q-26.58,11.31-58,11.3t-57.79-11.3a143.47,143.47,0,0,1-45.57-30.54A136.72,136.72,0,0,1,1314.47,254a145.13,145.13,0,0,1-10.66-55.73v-.79a143.62,143.62,0,0,1,40.91-101.35,139.64,139.64,0,0,1,45.76-30.93q26.57-11.31,58-11.31t57.79,11.31a143.47,143.47,0,0,1,45.57,30.54A137.24,137.24,0,0,1,1581.68,141a145.37,145.37,0,0,1,10.67,55.74v.79A143,143,0,0,1,1581.49,253.21Zm-51.58-55.73a94.55,94.55,0,0,0-6-33.72A84.34,84.34,0,0,0,1506.83,136a81.91,81.91,0,0,0-26.18-18.84,78,78,0,0,0-33-6.94,79.75,79.75,0,0,0-33.17,6.74,75.9,75.9,0,0,0-25.59,18.64,88.24,88.24,0,0,0-16.68,27.57,92.74,92.74,0,0,0-6,33.52v.79a94.24,94.24,0,0,0,6,33.71A84.12,84.12,0,0,0,1389.32,259a82.79,82.79,0,0,0,26,18.84,77.67,77.67,0,0,0,33.16,6.94,80,80,0,0,0,33-6.74,75.62,75.62,0,0,0,25.79-18.64,88.5,88.5,0,0,0,16.68-27.57,93,93,0,0,0,6-33.52Z"/><path class="cls-1" d="M1820.58,277.4q-7.95,20.43-20.94,34.51a85.39,85.39,0,0,1-30.05,21.22,91.55,91.55,0,0,1-35.68,7.14q-23.67,0-39-9.45a104.61,104.61,0,0,1-25.79-22v91h-58.94V123.7h58.94V154a94.11,94.11,0,0,1,26.18-24.6q15.33-9.64,38.6-9.65a90.77,90.77,0,0,1,35.29,7.14,87.47,87.47,0,0,1,30.25,21.23q13.17,14.07,21.13,34.5t8,47v.79Q1828.54,257,1820.58,277.4Zm-51-47.79a69.09,69.09,0,0,0-4.07-24.16,58.23,58.23,0,0,0-11.06-18.77,49,49,0,0,0-16.1-12,47.87,47.87,0,0,0-39.17,0,46.93,46.93,0,0,0-15.9,12,60.07,60.07,0,0,0-10.86,18.77,69.09,69.09,0,0,0-4.07,24.16v.79a69.09,69.09,0,0,0,4.07,24.16,60,60,0,0,0,10.86,18.77,46.8,46.8,0,0,0,15.9,12,47.87,47.87,0,0,0,39.17,0,48.82,48.82,0,0,0,16.1-12,58.54,58.54,0,0,0,11.06-18.57,68.64,68.64,0,0,0,4.07-24.36Z"/><path class="cls-1" d="M2036.61,243.49c-.14,2.12-.33,4.63-.59,7.54H1891.36q4.28,20.62,17.65,31.13t33.16,10.51a64.43,64.43,0,0,0,26.37-5.15q11.64-5.16,24-16.66l33.75,30.54a105.06,105.06,0,0,1-35.68,29.15q-21,10.5-49.25,10.51a116.05,116.05,0,0,1-43.25-7.93,99.73,99.73,0,0,1-34.52-22.61,104.62,104.62,0,0,1-22.69-34.71q-8.13-20-8.14-44.62v-.79a121.4,121.4,0,0,1,7.56-42.84,109.24,109.24,0,0,1,21.14-35.3,99.23,99.23,0,0,1,32.38-23.8q18.81-8.72,41.69-8.73,26,0,45,9.52a91.88,91.88,0,0,1,31.61,25.59,107.33,107.33,0,0,1,18.62,36.89,156.07,156.07,0,0,1,6,43.43V236Q2036.79,240.33,2036.61,243.49Zm-71.17-62.87q-11.26-12.5-29.87-12.49t-30,12.29q-11.44,12.3-14.94,32.92h88.82Q1976.69,193.12,1965.44,180.62Z"/><path class="cls-1" d="M2183,336.3V218q0-21.36-9.3-32.25t-26.37-10.88q-17.09,0-27,10.88T2110.48,218V336.3h-58.95V123.7h58.95v30.39a129.67,129.67,0,0,1,11.05-13,77.73,77.73,0,0,1,13.39-11,65.22,65.22,0,0,1,16.29-7.59,67,67,0,0,1,20.16-2.81q33.75,0,52.16,21T2242,198.67V336.3Z"/><path class="cls-1" d="M2546.44,290.89a75.17,75.17,0,0,1-20.41,27,91.5,91.5,0,0,1-31.28,16.66,133.08,133.08,0,0,1-40.27,5.75,176.25,176.25,0,0,1-60.89-10.91,160.51,160.51,0,0,1-54.3-33.51l35.3-43.24a176.79,176.79,0,0,0,38.19,24.59,100.13,100.13,0,0,0,42.86,9.13q18.62,0,28.9-6.95a22,22,0,0,0,10.28-19.23v-.79a24.64,24.64,0,0,0-2.14-10.52q-2.14-4.56-8.18-8.52a84.91,84.91,0,0,0-16.71-7.94,289.45,289.45,0,0,0-27.81-8.33,332.72,332.72,0,0,1-37.33-11.5,104.19,104.19,0,0,1-28.38-15.67,63,63,0,0,1-18.09-23.2q-6.41-13.87-6.42-34.51v-.79q0-19,6.93-34.31a78.1,78.1,0,0,1,19.46-26.38,87,87,0,0,1,29.92-17,117.57,117.57,0,0,1,38.32-6q29.87,0,54.88,9.12a158,158,0,0,1,46,26.18l-31,46a195.79,195.79,0,0,0-35.68-20,89.54,89.54,0,0,0-34.91-7.34q-17.45,0-26.18,6.94t-8.72,17.26v.79a25.49,25.49,0,0,0,2.52,11.7q2.53,5,9.14,8.92t18.08,7.54q11.48,3.57,29,8.33a275.86,275.86,0,0,1,36.74,12.49,102.41,102.41,0,0,1,27.22,16.66,63.52,63.52,0,0,1,16.73,22.81q5.63,13.1,5.64,31.33v.8Q2553.77,274.83,2546.44,290.89Z"/><path class="cls-1" d="M2776.77,273.44a109.76,109.76,0,0,1-23.66,35.1,112.06,112.06,0,0,1-35.68,23.8,120.64,120.64,0,0,1-89.59.19,108.56,108.56,0,0,1-67.48-101.34v-.79a108.69,108.69,0,0,1,8.53-43,109.89,109.89,0,0,1,23.65-35.1,112,112,0,0,1,35.69-23.8,114.08,114.08,0,0,1,45-8.73,115.35,115.35,0,0,1,44.6,8.53,108.58,108.58,0,0,1,67.48,101.35v.79A108.8,108.8,0,0,1,2776.77,273.44Zm-49.65-43a64.37,64.37,0,0,0-3.87-22.41A56.8,56.8,0,0,0,2712,189.35a54.92,54.92,0,0,0-17.45-12.89,51.06,51.06,0,0,0-22.11-4.76,53.67,53.67,0,0,0-22.69,4.56,50.26,50.26,0,0,0-16.87,12.49,55.43,55.43,0,0,0-10.67,18.45,67.36,67.36,0,0,0-3.68,22.41v.79a64.14,64.14,0,0,0,3.88,22.41,56.8,56.8,0,0,0,11.25,18.64,55.61,55.61,0,0,0,17.26,12.89,50.65,50.65,0,0,0,22.3,4.76,53.67,53.67,0,0,0,22.69-4.56,50.09,50.09,0,0,0,16.86-12.49,55.26,55.26,0,0,0,10.67-18.45,67.36,67.36,0,0,0,3.68-22.41Z"/><path class="cls-1" d="M2928.79,336.3V305.91a126.21,126.21,0,0,1-11.05,13,77.72,77.72,0,0,1-13.38,11,65.39,65.39,0,0,1-16.29,7.59,67.46,67.46,0,0,1-20.16,2.8q-33.75,0-52.17-21t-18.42-57.91V123.7h58.95V242q0,21.38,9.31,32.25T2892,285.14q17.06,0,27-10.88t9.89-32.25V123.7h59V336.3Z"/><path class="cls-1" d="M3133.57,182.8q-29.47,0-46.35,18.25t-16.87,56.72V336.3H3011.4V123.7h58.95v42.84q8.91-21.81,24.43-34.9t41.89-11.91V182.8Z"/><path class="cls-1" d="M3293,330.15q-19.41,10.92-50.43,10.91A107,107,0,0,1,3165,308.74a108.4,108.4,0,0,1-22.49-34.91,111.92,111.92,0,0,1-8.15-42.64v-.79a113.45,113.45,0,0,1,8.15-42.84,110.28,110.28,0,0,1,22.49-35.3,104.63,104.63,0,0,1,34.32-23.8q20-8.72,44-8.73,29.47,0,48.87,9.52a110.22,110.22,0,0,1,34.13,26.18l-36.07,39.67A97.22,97.22,0,0,0,3269.5,178q-10.68-6.33-26.57-6.34a44.87,44.87,0,0,0-20.36,4.56,50.63,50.63,0,0,0-15.9,12.49,57.1,57.1,0,0,0-10.47,18.45,67.11,67.11,0,0,0-3.69,22.41v.79a70.11,70.11,0,0,0,3.69,23,54.81,54.81,0,0,0,10.66,18.65,49.77,49.77,0,0,0,38.4,17.05q14.73,0,25.79-6.14A109.43,109.43,0,0,0,3293,266.49l34.51,35.7A133.1,133.1,0,0,1,3293,330.15Z"/><path class="cls-1" d="M3530.51,243.49q-.2,3.18-.58,7.54H3385.27q4.26,20.62,17.64,31.13t33.17,10.51a64.43,64.43,0,0,0,26.37-5.15q11.63-5.16,24-16.66l33.75,30.54a105.19,105.19,0,0,1-35.69,29.15q-20.94,10.5-49.25,10.51a116.13,116.13,0,0,1-43.25-7.93,99.78,99.78,0,0,1-34.51-22.61,104.62,104.62,0,0,1-22.69-34.71q-8.14-20-8.14-44.62v-.79a121.4,121.4,0,0,1,7.56-42.84,109.24,109.24,0,0,1,21.14-35.3,99.13,99.13,0,0,1,32.38-23.8q18.81-8.72,41.69-8.73,26,0,45,9.52a92,92,0,0,1,31.61,25.59,107.31,107.31,0,0,1,18.61,36.89,155.71,155.71,0,0,1,6,43.43V236Q3530.7,240.33,3530.51,243.49Zm-71.16-62.87q-11.26-12.5-29.87-12.49t-30.05,12.29q-11.46,12.3-14.93,32.92h88.81Q3470.6,193.12,3459.35,180.62Z"/><path class="cls-1" d="M1436.88,435.84H1328.67v63.8h96.72V518h-96.72v77.84h-20.15V417.21h128.36Z"/><path class="cls-1" d="M1473.11,556.17a45.67,45.67,0,0,0,10.47,14,44.19,44.19,0,0,0,14.29,8.68,47.2,47.2,0,0,0,16.59,2.93q13.77,0,23.6-5.1a69.84,69.84,0,0,0,18-13.53l12.24,11a80.66,80.66,0,0,1-22.71,18q-12.77,6.76-31.64,6.76a66,66,0,0,1-25.52-5,63.55,63.55,0,0,1-21-14,66.93,66.93,0,0,1-14.29-21.82,72.36,72.36,0,0,1-5.3-28.07,76.18,76.18,0,0,1,4.72-26.92,67.34,67.34,0,0,1,13.14-21.95,61.48,61.48,0,0,1,20-14.68,63.63,63.63,0,0,1,51.42.13,57.25,57.25,0,0,1,19.4,14.93,65.27,65.27,0,0,1,12,22.2,89.18,89.18,0,0,1,4.08,27.31v2.81a23.32,23.32,0,0,1-.25,3.31H1468A54.45,54.45,0,0,0,1473.11,556.17Zm79.37-33.56a68,68,0,0,0-3.68-17.1,45.51,45.51,0,0,0-8.11-14.29,39.25,39.25,0,0,0-12.69-9.83,38.83,38.83,0,0,0-17.38-3.7,37.21,37.21,0,0,0-16,3.45,41.68,41.68,0,0,0-12.94,9.44,50.18,50.18,0,0,0-9.13,14.16,60.63,60.63,0,0,0-4.56,17.87Z"/><path class="cls-1" d="M1681.23,575.56a38.07,38.07,0,0,1-10,12.38,44,44,0,0,1-14.8,7.78,61.51,61.51,0,0,1-18.5,2.68,84.7,84.7,0,0,1-28.84-5.23A89.51,89.51,0,0,1,1583.36,579l10-14a86.92,86.92,0,0,0,22.34,12.51,66.25,66.25,0,0,0,23.34,4.33q12,0,19.65-5.61a18,18,0,0,0,7.66-15.31v-.51a13.62,13.62,0,0,0-2.68-8.42,24,24,0,0,0-7.27-6.26,58.93,58.93,0,0,0-10.6-4.72q-6-2-12.37-3.83-7.67-2.29-15.44-5a63.21,63.21,0,0,1-14-6.77,34.21,34.21,0,0,1-10.2-10.2q-4-6.14-4-15.31v-.52a35.66,35.66,0,0,1,3.31-15.43,34.77,34.77,0,0,1,9.32-12,42.61,42.61,0,0,1,14.3-7.66,58.32,58.32,0,0,1,18-2.68,81.69,81.69,0,0,1,24.76,4,93.25,93.25,0,0,1,22.72,10.59l-8.94,14.8a89.72,89.72,0,0,0-19.26-9.31,60.93,60.93,0,0,0-19.78-3.45q-11.75,0-18.63,5.49t-6.89,13.65v.51a12.34,12.34,0,0,0,2.8,8,24.57,24.57,0,0,0,7.53,6,68.47,68.47,0,0,0,10.85,4.59q6.12,2.06,12.76,4.09,7.65,2.29,15.18,5.1a59.2,59.2,0,0,1,13.66,7.15,34.76,34.76,0,0,1,9.82,10.46q3.69,6.12,3.7,15.05v.52A36.44,36.44,0,0,1,1681.23,575.56Z"/><path class="cls-1" d="M1732.65,558.33q0,12.25,6.12,17.1t16.09,4.85a42.21,42.21,0,0,0,9.56-1,43,43,0,0,0,9.57-3.57v16.84a43.49,43.49,0,0,1-10.84,4.21,54.2,54.2,0,0,1-12.89,1.41,52.21,52.21,0,0,1-14.8-2,30.45,30.45,0,0,1-11.87-6.51,30.14,30.14,0,0,1-7.78-11.61,46.83,46.83,0,0,1-2.81-17.1V481.26h-18.38V463.91H1713V424.1h19.65v39.81h41.86v17.35h-41.86Z"/><path class="cls-1" d="M1797,435.07V413.38h22.46v21.69Zm1.28,160.78V463.91h19.65V595.85Z"/><path class="cls-1" d="M1948.55,463.91h21.18l-57.42,133H1895l-57.17-133h21.69l44.41,109.48Z"/><path class="cls-1" d="M2007.88,482.16a118.38,118.38,0,0,0-18.75,7l-5.88-16.08a131.34,131.34,0,0,1,22.21-8,102.06,102.06,0,0,1,25.77-2.94q27.06,0,41.6,13.4t14.54,39.69v80.64h-18.88V575.94a64.57,64.57,0,0,1-18.5,15.83q-11.62,6.88-29.22,6.89a64.63,64.63,0,0,1-18-2.55,49,49,0,0,1-15.83-7.79,39.74,39.74,0,0,1-11.23-12.89,37,37,0,0,1-4.2-18.11,40.48,40.48,0,0,1,4.07-18.51,36.75,36.75,0,0,1,11.62-13.4,55.67,55.67,0,0,1,17.86-8.16,87.1,87.1,0,0,1,22.85-2.81,140.71,140.71,0,0,1,22.2,1.53,162.8,162.8,0,0,1,18.37,4.08v-4.59q0-17.87-10.33-26.92t-29-9.06A78.8,78.8,0,0,0,2007.88,482.16Zm-6.28,54.23q-9.93,7.41-9.92,20.16a22.88,22.88,0,0,0,2.67,11.23,25.84,25.84,0,0,0,7.25,8.29,32.78,32.78,0,0,0,10.55,5.23,43.46,43.46,0,0,0,12.6,1.79,53.69,53.69,0,0,0,17.16-2.68,45.52,45.52,0,0,0,14-7.4,35,35,0,0,0,9.41-11.23,30.4,30.4,0,0,0,3.44-14.42V534.6q-7.39-2-16.92-3.83a120,120,0,0,0-21.75-1.78Q2011.53,529,2001.6,536.39Z"/><path class="cls-1" d="M2118.26,595.85V409.55h19.64v186.3Z"/><path class="cls-1" d="M2264.74,440.31q-11,7.79-21.7,22.84l-14.8-10.72a158.79,158.79,0,0,1,12.5-16.06,66.85,66.85,0,0,1,13.91-11.9,61,61,0,0,1,16.84-7.3,81.2,81.2,0,0,1,21.06-2.51,62.48,62.48,0,0,1,22.33,3.82,54.29,54.29,0,0,1,17.48,10.59,47.48,47.48,0,0,1,11.49,16.08,50.24,50.24,0,0,1,4.08,20.29,57.75,57.75,0,0,1-2.68,18.12,62.44,62.44,0,0,1-8.29,16.21,130.34,130.34,0,0,1-14,16.58q-8.41,8.56-20.16,18.76L2255,577.48h94.68v18.37H2224.92V580.26L2289.74,523q10.2-9.19,17.36-16.61a110.47,110.47,0,0,0,11.61-13.93,46.89,46.89,0,0,0,6.37-12.78,43.45,43.45,0,0,0,1.92-12.91,33.1,33.1,0,0,0-2.93-14.18A33.3,33.3,0,0,0,2304.8,435a39.8,39.8,0,0,0-13.78-2.43Q2275.71,432.52,2264.74,440.31Z"/><path class="cls-1" d="M2514.06,542a93.8,93.8,0,0,1-15.18,29.48,73.05,73.05,0,0,1-23.86,20,65.67,65.67,0,0,1-31.14,7.4,66.4,66.4,0,0,1-31.26-7.27,72,72,0,0,1-23.73-19.91,92.15,92.15,0,0,1-15.06-29.34,118.8,118.8,0,0,1-5.23-35.6,117.25,117.25,0,0,1,5.35-35.73,93.83,93.83,0,0,1,15.2-29.48,73,73,0,0,1,23.85-20,70,70,0,0,1,62.4-.13,72.19,72.19,0,0,1,23.74,19.9,92.08,92.08,0,0,1,15.05,29.35,118.49,118.49,0,0,1,5.24,35.6A116.9,116.9,0,0,1,2514.06,542Zm-19.39-63.41a78.47,78.47,0,0,0-11-23.61,57.27,57.27,0,0,0-17.23-16.33,42.59,42.59,0,0,0-22.59-6.13,43.26,43.26,0,0,0-22.58,6,55,55,0,0,0-17.1,16.08,78.6,78.6,0,0,0-10.85,23.47,102.32,102.32,0,0,0-3.82,28.2,103.58,103.58,0,0,0,3.82,28.33,78,78,0,0,0,11,23.73,54.88,54.88,0,0,0,17.36,16.21,44,44,0,0,0,22.7,6,43.32,43.32,0,0,0,22.59-6,54.86,54.86,0,0,0,17.1-16.08A76.26,76.26,0,0,0,2494.8,535a105.83,105.83,0,0,0,3.7-28.2A102.22,102.22,0,0,0,2494.67,478.59Z"/><path class="cls-1" d="M2572,440.31q-11,7.79-21.7,22.84l-14.8-10.72A157.4,157.4,0,0,1,2548,436.37a66.59,66.59,0,0,1,13.91-11.9,60.9,60.9,0,0,1,16.84-7.3,81.2,81.2,0,0,1,21.06-2.51,62.46,62.46,0,0,1,22.32,3.82,54.45,54.45,0,0,1,17.49,10.59,47.32,47.32,0,0,1,11.48,16.08,50.07,50.07,0,0,1,4.08,20.29,58,58,0,0,1-2.67,18.12,62.49,62.49,0,0,1-8.3,16.21,129.52,129.52,0,0,1-14,16.58q-8.41,8.56-20.16,18.76l-47.72,42.37H2657v18.37h-124.8V580.26L2597,523q10.2-9.19,17.35-16.61A110.47,110.47,0,0,0,2626,492.46a47.23,47.23,0,0,0,6.38-12.78,43.78,43.78,0,0,0,1.92-12.91,33.1,33.1,0,0,0-2.93-14.18A33.36,33.36,0,0,0,2612.06,435a39.76,39.76,0,0,0-13.78-2.43Q2583,432.52,2572,440.31Z"/><path class="cls-1" d="M2821.33,542a93.82,93.82,0,0,1-15.19,29.48,73.05,73.05,0,0,1-23.86,20,65.6,65.6,0,0,1-31.13,7.4,66.37,66.37,0,0,1-31.26-7.27,72,72,0,0,1-23.74-19.91,91.92,91.92,0,0,1-15.05-29.34,122.65,122.65,0,0,1,.12-71.33,94,94,0,0,1,15.19-29.48,73,73,0,0,1,23.85-20,70,70,0,0,1,62.41-.13,72.25,72.25,0,0,1,23.73,19.9,92.3,92.3,0,0,1,15.06,29.35,118.8,118.8,0,0,1,5.23,35.6A117.2,117.2,0,0,1,2821.33,542Zm-19.4-63.41A78.23,78.23,0,0,0,2791,455a57.15,57.15,0,0,0-17.23-16.33,42.58,42.58,0,0,0-22.58-6.13,43.32,43.32,0,0,0-22.59,6,54.84,54.84,0,0,0-17.09,16.08,78.11,78.11,0,0,0-10.85,23.47,102,102,0,0,0-3.83,28.2,103.2,103.2,0,0,0,3.83,28.33,77.81,77.81,0,0,0,11,23.73A55,55,0,0,0,2729,574.54a44,44,0,0,0,22.7,6,43.38,43.38,0,0,0,22.6-6,54.82,54.82,0,0,0,17.09-16.08A76.26,76.26,0,0,0,2802.06,535a105.83,105.83,0,0,0,3.7-28.2A102.22,102.22,0,0,0,2801.93,478.59Z"/></g></g></svg>