<svg xmlns="http://www.w3.org/2000/svg" viewBox="0 0 231 109"><defs><style>.cls-1{fill:#f7931e;}</style></defs><title>OSCA Logo_Colored</title><g id="Layer_2" data-name="Layer 2"><g id="Layer_1-2" data-name="Layer 1"><path class="cls-1" d="M231,32V22.91a22.38,22.38,0,0,0-6.74-16A22.2,22.2,0,0,0,208.37,0H144.79a22.52,22.52,0,0,0-16,6.81A22.34,22.34,0,0,0,122,22.91V44.2A23.18,23.18,0,0,0,144.79,67H208V85H106V22.91c0-6.1-1.75-11.68-6.1-16S90.75,0,84.66,0H21.08C14.88,0,10.19,2.51,5.89,6.81S0,16.71,0,22.91V86.49c0,6.2,1.59,11.61,5.89,15.9s9,6.61,15.19,6.61H208.37A22.92,22.92,0,0,0,231,86.49V65.19a21.59,21.59,0,0,0-6.74-15.67A21.89,21.89,0,0,0,208.37,43H145V24h63v8ZM86,45h0a2.37,2.37,0,0,1-.13.54c-.05,0-.18.45-.21.45h0s0-.41-.08-.42,0-.21,0-.2-.08-.08-.08,0a1.69,1.69,0,0,0,0,.23,1.38,1.38,0,0,1-.2.89,1.74,1.74,0,0,0-.2.41,1,1,0,0,1-.29.52.73.73,0,0,0-.23.44,1,1,0,0,1-.17.42,1.77,1.77,0,0,0-.42.79,3.37,3.37,0,0,1-.54,1.22c-.08.12-.16.25-.23.38A11.78,11.78,0,0,1,81.24,53l-.27.28a3.1,3.1,0,0,1-.81.56l-.08,0a6.21,6.21,0,0,0-1.07.8l-.07.06a12.82,12.82,0,0,0-1,1c-.1.12-.21.23-.31.34l-.19.19a4,4,0,0,0-.44.49,2.4,2.4,0,0,0-.16.27,3,3,0,0,1-.3.43,1,1,0,0,0-.08.11.54.54,0,0,1-.57.29s0,0,0,0c-.06.38-.16.48-.56.56-.07,0-.13,0-.13.1a1.22,1.22,0,0,1-.23.73v0a2.68,2.68,0,0,0-.19.42c-.06.13-.11.26-.18.39l0,.05a.94.94,0,0,1-.2.29.79.79,0,0,0-.24.48,2.82,2.82,0,0,1-.28.64l0,.1a.19.19,0,0,0,0,.17s0,.08,0,.12,0,.13.12.17a.42.42,0,0,1,.26.32s0,.06,0,.06a.27.27,0,0,1,.23.19.37.37,0,0,1-.08.36c-.13.15-.18.24-.08.4a.5.5,0,0,1,0,.49.41.41,0,0,0,0,.5,1.54,1.54,0,0,1,.21.67,2.07,2.07,0,0,0,.1.43.39.39,0,0,0,.22.27c.42.18.51.34.45.81v0h0a.2.2,0,0,1,.13.25.43.43,0,0,1,0,0c0,.07,0,0,0,.05s-.12,0-.16,0h0v.2a2.13,2.13,0,0,0,0,.66,3.94,3.94,0,0,1,.06.61.36.36,0,0,1-.17.33.58.58,0,0,1,.07.28,1.13,1.13,0,0,1,0,.32.68.68,0,0,1,0,.14.91.91,0,0,0,.11.42,1,1,0,0,1,.12.55.81.81,0,0,1-.07.22s0,.08,0,.13a2.16,2.16,0,0,1-.71,1.08l-.07.08a4.14,4.14,0,0,1-.83.71,3,3,0,0,1-1,.35l-.12,0a1.41,1.41,0,0,0-.35.17l-.17.1a3.85,3.85,0,0,0-1,.92l-.06.07-.06.07a.68.68,0,0,1-.54.31.59.59,0,0,0-.28.23L70,75a1.4,1.4,0,0,1-.54.49c-.18.07-.2.13-.24.32v0c0,.19,0,.23.1.32a.48.48,0,0,1,.15.54c0,.13,0,.21.08.33a.15.15,0,0,1,.18-.07c.11,0,.15.11.12.26v0s0,0,0,.08a.27.27,0,0,1-.2.34v0c.27.07.21.29.18.39l0,.1c0,.14-.06.19,0,.26s0,.2,0,.23a1.24,1.24,0,0,0-.16.87.41.41,0,0,1-.14.42l-.06.07a1.33,1.33,0,0,1-.68.5l0,0a6.53,6.53,0,0,0-1.4.51.67.67,0,0,0-.25.18l0,.15a1.05,1.05,0,0,1,0,.53.83.83,0,0,0,0,.22,2.72,2.72,0,0,1-.24.91,4.06,4.06,0,0,0-.19.59,1.1,1.1,0,0,1-.62.82,1.55,1.55,0,0,0-.37.26.39.39,0,0,1-.1.08,2.16,2.16,0,0,0-.42.57c-.06.11-.12.22-.19.33a.91.91,0,0,0-.11.16,4,4,0,0,1-1.19,1.27,1,1,0,0,0-.31.28,3.24,3.24,0,0,1-.78.7h0l-.32.24a6,6,0,0,1-.78.54l-.07,0a1,1,0,0,1-1,.16.1.1,0,0,0-.09,0,.17.17,0,0,0-.05.14.2.2,0,0,1,0,.14.19.19,0,0,1-.13,0s0,0-.06,0a.41.41,0,0,1-.19,0c-.21-.09-.27-.08-.35.08a.14.14,0,0,1-.1.08.48.48,0,0,1-.33,0,1.45,1.45,0,0,0-.46-.14,2.61,2.61,0,0,1-.27-.06s-.07,0-.13,0a.52.52,0,0,1-.23.07,1.45,1.45,0,0,1-.3,0,1.19,1.19,0,0,0-.32,0,.37.37,0,0,0-.28.12.7.7,0,0,1-.65.24h-.2a3.63,3.63,0,0,0-.61.15.81.81,0,0,1-.51.24,1.08,1.08,0,0,1-.51-.19.35.35,0,0,1-.13-.14c0-.06-.06-.09-.1-.1h0a.34.34,0,0,1-.26-.15v0a.18.18,0,0,1-.11.12.17.17,0,0,1-.14,0,.25.25,0,0,1-.14-.15c0-.07-.06.14-.07.06s0,.38-.06.38h0s-.1-.61-.14-.66a1.34,1.34,0,0,1,0-.4.49.49,0,0,0-.08-.34.58.58,0,0,1-.12-.4v-.09a.36.36,0,0,1,.1-.25.21.21,0,0,1,.19,0,.09.09,0,0,0,.08,0s0,0,0-.13a1.35,1.35,0,0,0-.28-.9,3.89,3.89,0,0,1-.71-1.26l-.06-.17A6,6,0,0,0,52,84.14l0,0a3.52,3.52,0,0,1-1.07-1.28l0-.06a1.54,1.54,0,0,1-.23-.83v0a3,3,0,0,1-.3-1.27,1.34,1.34,0,0,0-.16-.55.41.41,0,0,0,0-.09,1,1,0,0,1-.12-.77,1,1,0,0,0,0-.41l0-.15v0a.34.34,0,0,1,0-.2c.17-.36,0-.59-.26-.87l0,0a4.79,4.79,0,0,1-.45-.69L49,76.63c-.18-.31-.34-.64-.5-1a8.37,8.37,0,0,0-.66-1.21h0l-.1-.13a1.84,1.84,0,0,1-.61-1.15.71.71,0,0,1,0-.29.89.89,0,0,0,0-.58v0a.24.24,0,0,1,.11-.37.55.55,0,0,0,0-.16.61.61,0,0,1,0-.13.13.13,0,0,1,0-.06.32.32,0,0,1,.2-.43s0-.08,0-.13v0a4.14,4.14,0,0,1,.15-.63,2.71,2.71,0,0,0,.16-.78.94.94,0,0,1,.06-.29.52.52,0,0,0,.06-.29.2.2,0,0,1,.1-.18h0a.86.86,0,0,1,.14-.13c.11-.09.18-.15.17-.28s0-.14.26-.32a.82.82,0,0,0,.47-.88,1.36,1.36,0,0,1,0-.29v-.07c0-.27-.75-.47-.91-.72s.85-.61-1.15-1h0c0-.14.56-.28.58-.41s.55-.36.68-.45.71-.16.69-.2c-.25-.39,0-.82,0-1.24v-.15c0-.1-.6-.18-.67-.26s-.42-.21-.47-.34-.17-.16-.18-.24a.71.71,0,0,0-.23-.38.19.19,0,0,1,0-.26.06.06,0,0,0,0,0,.59.59,0,0,0-.15-.27,3.21,3.21,0,0,1-.19-.31,1.28,1.28,0,0,0-.19-.3c-.21-.22-.42-.45-.61-.67l-.46-.5c-.1-.11-.22-.2-.34-.31a2.53,2.53,0,0,1-.42-.38L45,58.33a2.66,2.66,0,0,1-.56-.87,3.25,3.25,0,0,0-.4-.76.42.42,0,0,1-.06-.4l0-.09.1,0a.36.36,0,0,0,.29,0,.64.64,0,0,0,.16-.45c0-.06-.28-.11-.28-.18s-.29-.06-.29-.09v-.09h.32c0-.08.09-.18.12-.29s.23-.17.3-.17,0-.1,0-.16a.22.22,0,0,1-.17-.12c0-.1,0-.2.08-.28v0l.18-.26.13-.19a.3.3,0,0,0,0-.2,3.65,3.65,0,0,1,.12-.93.32.32,0,0,0-.12-.35.52.52,0,0,1-.18-.42.76.76,0,0,1-.46-.14.41.41,0,0,1-.19-.31l0-.12h0a.29.29,0,0,1-.26,0,.2.2,0,0,1-.09-.09.44.44,0,0,1-.33.06h-.07a1.21,1.21,0,0,0-.31.06,1.14,1.14,0,0,1-.33.06,2.73,2.73,0,0,0-.49.06,2.34,2.34,0,0,1-.75,0,.9.9,0,0,1-.7-.64,3.24,3.24,0,0,0-.67-1.21.88.88,0,0,0-.66-.27,13.64,13.64,0,0,0-1.92.09h-.12a1.84,1.84,0,0,0-.3.07,1.91,1.91,0,0,1-.36.07s0,.05-.06.1a.29.29,0,0,1-.37.26,1.88,1.88,0,0,0-1.14.35l0,0a3.15,3.15,0,0,1-1,.31.61.61,0,0,0-.21.11.58.58,0,0,1-.28.15h0a.4.4,0,0,1-.38-.08,1,1,0,0,0-.53-.18,1.08,1.08,0,0,1-.19,0l-.24-.05a3,3,0,0,0-.94-.1l-.49,0a7.79,7.79,0,0,0-1,.12,1.36,1.36,0,0,0-.41.15,3,3,0,0,1-.36.14,3.51,3.51,0,0,0-.6.26l-.17.08a.5.5,0,0,1-.43,0c-.16-.09-.34-.17-.51-.25a7.11,7.11,0,0,1-.9-.48,2.91,2.91,0,0,1-.5-.49,3.23,3.23,0,0,0-.37-.37l-.13-.11a.7.7,0,0,0-.36-.23c-.22,0-.32-.15-.31-.31a1.87,1.87,0,0,1-.67-.52,1.2,1.2,0,0,0-.55-.34l-.19-.07-.19-.1A1.17,1.17,0,0,0,23,48c-.14,0-.17-.15-.18-.21l0-.11.08,0a.17.17,0,0,1,.1,0,.14.14,0,0,1,0-.14.39.39,0,0,0,0-.11s-.07,0-.18,0l-.23.08.1-.22c.06-.14.05-.16,0-.19a.18.18,0,0,1,0-.21.16.16,0,0,1,.06-.06.75.75,0,0,1,0-.29.58.58,0,0,0,0-.23l0-.1c-.08-.2-.11-.26-.29-.22h0c0,.05,0,.32.05.34V47h0s-.09-.63-.12-.58,0-.42,0-.38l0,0,.06,0a.91.91,0,0,0-.07-.23c-.09-.09-.16-.28-.25-.32s-.26-.26-.34-.37l-.12-.18a.14.14,0,0,1-.05-.11.7.7,0,0,0,0-.29h0a.19.19,0,0,1-.18.07.13.13,0,0,1-.1-.1.27.27,0,0,0-.13-.16.52.52,0,0,1-.19-.26.23.23,0,0,1-.14.08.19.19,0,0,0-.13.06.49.49,0,0,1-.18.08h0a.33.33,0,0,1-.29,0,2.51,2.51,0,0,1-.06-.72s0-.57,0-.57h0c-.11,0-.15.25-.17.32s.21,0,.2,0-.1.07-.11.1h0s0,.06,0,0h0c-.07,0-.09-.13-.1-.07s0,0,0,0c-.16,0-.12,0-.1,0s-.56-.12-.56-.26v0l.43,0a.65.65,0,0,1-.4-.75,4.22,4.22,0,0,0,0-.61v0s.29-.07.3-.1h.15c0-.05.09-.09.11-.1a.22.22,0,0,1,.16-.05.16.16,0,0,1,0-.12v0h0l-.09,0,0-.1a.61.61,0,0,0-.12-.4,1.23,1.23,0,0,1-.12-.26c0-.11-.05-.11-.09-.11a.16.16,0,0,1-.15,0,.21.21,0,0,1,.06-.36h0a1.57,1.57,0,0,0,.9-1.3.45.45,0,0,1,.09-.25.21.21,0,0,1,.05-.15.21.21,0,0,1,.05-.15.56.56,0,0,1,.09-.17.16.16,0,0,1,0-.1s.14-.08.18-.11.33-.29.33-.42h0s-.12-.1-.07-.15a.75.75,0,0,1,0-.39,2.12,2.12,0,0,0-.05-.5c0-.13,0-.26,0-.4a.57.57,0,0,1-.1-.13l-.07-.11a.31.31,0,0,1,0-.45v-.05a.26.26,0,0,1,0-.22.26.26,0,0,1,.14-.2c.05,0,.07,0,.07-.09a.42.42,0,0,0,0-.16s0,0,0-.08l0-.06c0-.06,0-.08-.1-.09s-.17-.19-.19-.32l0,0a.2.2,0,0,1-.16,0,.17.17,0,0,1-.13-.09.27.27,0,0,1,0-.25s0,0,0-.06,0-.16.07-.25a3.11,3.11,0,0,1,.35-.9v-.11c.07-.11.16-.33.37-.33h0s0,.07,0,.06,0,0,0,0l.12-.16,0,0a.23.23,0,0,1,.11-.17,1.22,1.22,0,0,1,.18-.34,1,1,0,0,0,.18-.38.29.29,0,0,1,.13-.21l.1-.11a1.64,1.64,0,0,0,.37-.28,2.09,2.09,0,0,1,.45-.33.44.44,0,0,0,.24-.35,1.25,1.25,0,0,1,.27-.7c.05-.08.1-.15.14-.23l.06-.09,0-.06c.06-.29.29-.37.48-.44l.06,0,.34-.16.12-.06a4.32,4.32,0,0,1,.55-.91l.09-.08c.11-.29.36-.27.54-.26h.12a1.94,1.94,0,0,0,1.25-.53.87.87,0,0,1,.32-.18l.07,0a2.5,2.5,0,0,0,1-.87l.22-.27a.18.18,0,0,0,0-.23.55.55,0,0,1,0-.48v0a1.42,1.42,0,0,0,0-.2,1,1,0,0,1,.32-.66l.35-.35a1.43,1.43,0,0,0,.09-.27l0-.08a.75.75,0,0,1,.34-.38.64.64,0,0,0,.2-.16,1.7,1.7,0,0,1,.95-.5l.34-.1.14-.06a.76.76,0,0,1,.31-.11A.52.52,0,0,1,32,21l.07-.05a.9.9,0,0,1,.33-.42,4.76,4.76,0,0,1,.28-.49,5.79,5.79,0,0,0,.36-.64.16.16,0,0,1,.21-.1l.16,0a.49.49,0,0,1,.27,0c.17,0,.17.2.18.28a.22.22,0,0,0,0,.09l.22.27.08.1a1.45,1.45,0,0,0,.51,0l.25,0h0a.51.51,0,0,1,.28.09h.08c.08,0,.11,0,.13-.09a.19.19,0,0,1,.17-.1.18.18,0,0,1,.16.16c0,.16.07.2.27.2a.85.85,0,0,1,.23,0,.72.72,0,0,0,.29,0,.23.23,0,0,1,.11-.07h0a.29.29,0,0,1,.2-.1H37l0,0s0-.09.09-.13a.2.2,0,0,1,.13-.09h0c.08-.11.2,0,.26,0s0,.12,0,.12h0l.66-.13a5.7,5.7,0,0,1,.79-.32v0s-.41.05-.34.12-.25,0-.21,0h-.13c0-.05,0-.09,0-.13s0-.08.09-.08,0-.05.09-.05a.37.37,0,0,1,.16-.07h0a.37.37,0,0,1,.2-.08H39a.14.14,0,0,1,.1-.06.31.31,0,0,1,.27-.05h0a2.69,2.69,0,0,0,.49,0,1.77,1.77,0,0,1,.65,0h0l0,0A.33.33,0,0,1,41,19a.5.5,0,0,0,.34,0,.12.12,0,0,1,.08,0,3.45,3.45,0,0,1,1,.06.22.22,0,0,1,.14.05.15.15,0,0,1,.1.07.14.14,0,0,1,.08.1h.08a.22.22,0,0,1,.22-.14.51.51,0,0,0,.24,0l.13,0a.23.23,0,0,1,.11-.11h0l.12-.09v0a.27.27,0,0,1,.36.13l.07,0h.15v0a.14.14,0,0,1,.09-.11.39.39,0,0,1,.28,0l.07,0A.53.53,0,0,1,45,19s.06.05.08.07a2.27,2.27,0,0,1,.35-.05,1,1,0,0,0,.55-.15,1,1,0,0,1,1-.08c.16.05.08.19.08.25h0s.08.07.09.11,0,.43,0,.45.12.35.19.35h0a1.25,1.25,0,0,1,0-.63c0-.05.13-.25.19-.2s0-.07.08-.06.19,0,.23.14a.32.32,0,0,1-.1.37.52.52,0,0,0-.1.11.82.82,0,0,1-.35.27.15.15,0,0,0,0,.12.24.24,0,0,0,.08.15.55.55,0,0,1,.34.49.74.74,0,0,1-.13.6,1.63,1.63,0,0,1-.72.61c-.13.06-.1.13-.08.15s.13.22.23.24h0a.29.29,0,0,0,0-.09A.27.27,0,0,1,47.3,22h0c.14,0,.22.15.24.31a1.32,1.32,0,0,0,0,.26,1.55,1.55,0,0,1,0,.23c0,.07.12.1.25.12l.07,0a1.69,1.69,0,0,1,.46.2.56.56,0,0,0,.58.1.77.77,0,0,1,.6,0,1.19,1.19,0,0,0,.26,0,1,1,0,0,1,.45.18,1,1,0,0,0,.29.14l.1,0,.17,0c.35,0,.39.27.41.41.08.57.32.78.88.79a3.24,3.24,0,0,1,1.28.37,2.92,2.92,0,0,1,.57.36h0c.39.3.63.24,1-.23.13-.16.17-.27,0-.45a.86.86,0,0,1,.25-1.15,3.27,3.27,0,0,1,1-.46,2.07,2.07,0,0,1,1-.06,1.91,1.91,0,0,1,.34.1,1.76,1.76,0,0,0,.3.1c.15,0,.15.17.16.22v0c0,.14.07.2.22.19a.7.7,0,0,1,.49.15.41.41,0,0,0,.32,0c.43-.08.55-.05.73.38,0,.09,0,.1.15.06a1,1,0,0,1,.7,0l.29,0a1.73,1.73,0,0,1,.72.16.78.78,0,0,0,.27.09,1,1,0,0,1,.31.13.39.39,0,0,0,.19,0h.15a.7.7,0,0,1,.51.2c.19.06.32,0,.48-.18l.09-.07a3.68,3.68,0,0,1,1.11-.54.55.55,0,0,1,.34,0l.1.05c.14.06.19.07.27,0a.19.19,0,0,1,.17,0,.19.19,0,0,1,.12.07.55.55,0,0,0,.24.17.76.76,0,0,1,.33.24.21.21,0,0,0,.08-.07l.08-.07a.4.4,0,0,1,.47,0,.42.42,0,0,0,.15,0c.13,0,.29-.07.26-.1s.38-.05.32-.05h0a.65.65,0,0,0-.26.06c-.11.07.28.09.19.09s.32,0,.32.05h0c0,.21.5.45.55.73A2.14,2.14,0,0,1,69,26.83v.11c-1,.3-.4.62-.38.94a.43.43,0,0,1-.28.38.53.53,0,0,1-.46,0,.26.26,0,0,1,0,.21l0,0s0,0,0,0l0,0a.58.58,0,0,1,.17.34,1.64,1.64,0,0,0,.2.5,2.75,2.75,0,0,1,.14.3l0,.05a2.44,2.44,0,0,1,.5.82.87.87,0,0,1,.3.44l.06.13a1.53,1.53,0,0,0,.58.61.39.39,0,0,1,.14.15v0c.09.15,0,.23,0,.27a4.28,4.28,0,0,1-1.07,0c0,.06-.87.11-.87.16v.07c0,.06.92.11.94.17s.55.25.65.34a2.56,2.56,0,0,0,.27.05L70,33a1.33,1.33,0,0,1,.6.34,2.05,2.05,0,0,0,.36.24.29.29,0,0,1,.18.27,1,1,0,0,0,.3.68.31.31,0,0,1,.08.21,4.45,4.45,0,0,0,.07.89c0,.18.06.36.08.55a1.53,1.53,0,0,0,.14.48.88.88,0,0,0,0,.15c0,.07.06.11.17.14a.66.66,0,0,1,.46.32.37.37,0,0,0,.2.19l0,0a1.8,1.8,0,0,1,.78,1.09h0a3.89,3.89,0,0,1,.26,1,.64.64,0,0,0,.15.28,1,1,0,0,1,.18.32h0a.14.14,0,0,0,.18.06.52.52,0,0,1,.55.29s0,0,0,0,0,0,0,0a2.14,2.14,0,0,1,.3.17,1.06,1.06,0,0,0,.39.18.73.73,0,0,1,.47.45.76.76,0,0,0,.33.28,1.31,1.31,0,0,1,.33.25l0,.06a.35.35,0,0,1,.13.18.54.54,0,0,0,.45.35l0,0a1.5,1.5,0,0,1,.67,1,.26.26,0,0,1-.22.29.5.5,0,0,0-.14.08l.12,0a.87.87,0,0,1,.41.42.31.31,0,0,0,0,.1,1.17,1.17,0,0,0,.8.61.82.82,0,0,0,.65-.19l0,0a2.86,2.86,0,0,1,.42-.24.77.77,0,0,1,.62.06c.13.06.2,0,.33,0s.25-.16.37-.24l.23-.15a.29.29,0,0,1,.33,0,.54.54,0,0,0,.52-.07A.66.66,0,0,1,83,44a.76.76,0,0,0,.55,0,2.11,2.11,0,0,1,.51-.19,1.6,1.6,0,0,0,.49-.18l0,0a.61.61,0,0,1,.4-.29.59.59,0,0,1,.48.1.34.34,0,0,1,.07.45,1.12,1.12,0,0,0,0,.63,2.33,2.33,0,0,1,0,.28h0a.35.35,0,0,1,.21.06C85.94,44.88,86,45,86,45Z"/></g></g></svg>