<svg xmlns="http://www.w3.org/2000/svg" xmlns:xlink="http://www.w3.org/1999/xlink" viewBox="0 0 79.39 107.83"><defs><style>.cls-1,.cls-5,.cls-6,.cls-7{fill:none;}.cls-2{fill:#0a2237;}.cls-3{fill:#d18311;}.cls-4{clip-path:url(#clip-path);}.cls-5,.cls-6,.cls-7{stroke:#d18311;stroke-miterlimit:10;}.cls-5{stroke-width:0.81px;}.cls-6{stroke-width:0.81px;}.cls-7{stroke-width:1.22px;}</style><clipPath id="clip-path"><path class="cls-1" d="M38,49.46v-.19c0-7.52,4-13.94,10.16-16.35V15.69A33.59,33.59,0,0,0,19.18,49.46v.19c0,17.87,12.53,31.38,29,33.66V66C42,63.61,38,57.2,38,49.46Z"/></clipPath></defs><title>Asset 16</title><g id="Layer_2" data-name="Layer 2"><g id="Layer_1-2" data-name="Layer 1"><path class="cls-2" d="M52.7,15.3V32c5.3.54,9.13,3.39,12.5,7.61L78.92,29C73.34,21.24,65.17,15.75,52.7,15.3Zm7.8,9.31a1.12,1.12,0,0,1-1.12-1.12c0-.62.5-.9,1.12-.9s.9.39.9,1S61.12,24.61,60.5,24.61Zm7.72,5.49A1.13,1.13,0,0,1,67.09,29c0-.62.51-.9,1.13-.9s.89.39.89,1S68.84,30.1,68.22,30.1Z"/><path class="cls-3" d="M56.64,22.59c0,.62-.27,1-.89,1a1.12,1.12,0,0,1-1.12-1.12c0-.62.5-.89,1.12-.89S56.64,22,56.64,22.59Z"/><path class="cls-3" d="M65.77,25.6c0,.62-.28,1-.9,1a1.12,1.12,0,0,1-1.12-1.12c0-.62.5-.9,1.12-.9S65.77,25,65.77,25.6Z"/><path class="cls-3" d="M72,32.92c0,.62-.27,1-.89,1A1.14,1.14,0,0,1,70,32.8c0-.62.51-.89,1.13-.89S72,32.3,72,32.92Z"/><path class="cls-1" d="M38,49.27v.19C38,57.2,42,63.61,48.13,66V32.92C42,35.33,38,41.75,38,49.27Z"/><g class="cls-4"><polygon class="cls-5" points="32.23 79.19 7.43 53.88 33.72 10.14 59.13 52.83 32.23 79.19"/><polygon class="cls-5" points="32.03 88.54 0.51 56.38 33.92 0.79 66.21 55.04 32.03 88.54"/><polygon class="cls-6" points="32.47 71.83 12.96 51.92 33.64 17.5 53.64 51.09 32.47 71.83"/><polygon class="cls-6" points="32.71 64.47 18.49 49.95 33.57 24.87 48.14 49.35 32.71 64.47"/><polygon class="cls-6" points="32.93 58.05 23.32 48.24 33.5 31.29 43.35 47.83 32.93 58.05"/><polygon class="cls-6" points="33.04 52.66 27.3 46.8 33.39 36.67 39.27 46.56 33.04 52.66"/><polygon class="cls-6" points="33.16 47.28 31.28 45.37 33.27 42.05 35.2 45.29 33.16 47.28"/><line class="cls-7" x1="32.31" y1="88.31" x2="32.11" y2="107.82"/></g><path class="cls-2" d="M65.67,59c-3.57,4.34-7.22,7.37-13,7.9V83.59c13.07-.66,20.84-6.72,26.69-14.78Zm-4.41,15.5a.86.86,0,0,1-1.3.37c-.56-.27-.79-.69-.52-1.25a1.12,1.12,0,0,1,1.5-.52C61.5,73.41,61.52,74,61.26,74.54ZM69.54,70a.86.86,0,0,1-1.3.37c-.55-.27-.79-.69-.52-1.25a1.12,1.12,0,0,1,1.5-.52C69.78,68.83,69.81,69.4,69.54,70Z"/><path class="cls-3" d="M71.21,66.48c-.56-.27-.79-.68-.52-1.24a1.12,1.12,0,0,1,1.5-.53c.56.27.58.84.32,1.4A.86.86,0,0,1,71.21,66.48Z"/><path class="cls-3" d="M64.55,73.4c-.56-.27-.79-.68-.52-1.24a1.12,1.12,0,0,1,1.5-.53c.56.27.59.84.32,1.4A.86.86,0,0,1,64.55,73.4Z"/><path class="cls-3" d="M55.26,75.85c-.56-.27-.79-.68-.52-1.24a1.12,1.12,0,0,1,1.5-.53c.56.27.59.84.32,1.4A.86.86,0,0,1,55.26,75.85Z"/></g></g></svg>