<svg xmlns="http://www.w3.org/2000/svg" xmlns:xlink="http://www.w3.org/1999/xlink" viewBox="0 0 94.04 147.55"><defs><style>.cls-1,.cls-4,.cls-5{fill:none;}.cls-2{fill:#0a2237;}.cls-3{clip-path:url(#clip-path);}.cls-4,.cls-5{stroke:#d18311;stroke-miterlimit:10;}.cls-4{stroke-width:1.11px;}.cls-5{stroke-width:1.67px;}.cls-6{fill:#d18311;}</style><clipPath id="clip-path"><path class="cls-1" d="M50.43,60.62V23.33H31.54V61c0,20.07,11,29.81,28.59,30.62V74.69C54.18,73.68,50.43,69.1,50.43,60.62Z"/></clipPath></defs><title>Asset 7</title><g id="Layer_2" data-name="Layer 2"><g id="Layer_1-2" data-name="Layer 1"><path class="cls-2" d="M94,23.33V60.52C94,81.09,82.9,90.68,65.46,91.6V74.7c6-1,9.7-5.37,9.7-13.6V23.33ZM86.81,43.08c0-1.35-.6-2.45-2-2.45a2.45,2.45,0,0,0-2.45,2.45c0,1.36.85,2,2.2,2S86.81,44.44,86.81,43.08Zm0,23.14c0-1.36-.6-2.45-2-2.45a2.45,2.45,0,0,0-2.45,2.45c0,1.35.85,2,2.2,2S86.81,67.57,86.81,66.22ZM73,83.69c0-1.36-.59-2.45-1.94-2.45a2.44,2.44,0,0,0-2.45,2.45c0,1.35.84,2,2.19,2S73,85,73,83.69Z"/><g class="cls-3"><polygon class="cls-4" points="46.12 108.51 10.29 76.06 42.8 14.36 80.81 70.43 46.12 108.51"/><polygon class="cls-5" points="46.56 121.25 1.04 80.02 42.35 1.62 90.65 72.86 46.56 121.25"/><polygon class="cls-4" points="45.88 98.47 17.69 72.94 43.27 24.39 73.17 68.5 45.88 98.47"/><polygon class="cls-4" points="45.64 88.42 25.09 69.81 43.74 34.43 65.53 66.58 45.64 88.42"/><polygon class="cls-4" points="45.43 79.66 31.55 67.09 44.15 43.18 58.87 64.9 45.43 79.66"/><polygon class="cls-4" points="45.17 72.32 36.87 64.81 44.4 50.52 53.21 63.5 45.17 72.32"/><polygon class="cls-4" points="44.91 64.99 42.2 62.53 44.66 57.85 47.54 62.1 44.91 64.99"/><line class="cls-5" x1="46.93" y1="120.92" x2="48.17" y2="147.51"/></g><path class="cls-6" d="M84.61,33.47c-1.35,0-2.2-.6-2.2-1.95a2.45,2.45,0,0,1,2.45-2.45c1.35,0,2,1.09,2,2.45S86,33.47,84.61,33.47Z"/><path class="cls-6" d="M84.61,56.6c-1.35,0-2.2-.6-2.2-2a2.45,2.45,0,0,1,2.45-2.45c1.35,0,2,1.1,2,2.45S86,56.6,84.61,56.6Z"/><path class="cls-6" d="M80.52,79.32c-1.36,0-2.2-.6-2.2-1.95a2.45,2.45,0,0,1,2.45-2.45c1.35,0,1.94,1.1,1.94,2.45S81.87,79.32,80.52,79.32Z"/></g></g></svg>