<svg xmlns="http://www.w3.org/2000/svg" xmlns:xlink="http://www.w3.org/1999/xlink" viewBox="0 0 76.14 112.36"><defs><style>.cls-1,.cls-5{fill:none;}.cls-2{fill:#0a2237;}.cls-3{fill:#d18311;}.cls-4{clip-path:url(#clip-path);}.cls-5{stroke:#0a2237;stroke-miterlimit:10;stroke-width:0.94px;}</style><clipPath id="clip-path"><path class="cls-1" d="M38,61.16c7.91,0,13.8,5.55,15.81,12.85H72.41C70,57,56.2,44.07,38.19,44.07S6.35,57.05,3.83,74H22.4C24.31,66.67,30.1,61.16,38,61.16Z"/></clipPath></defs><title>Asset 22</title><g id="Layer_2" data-name="Layer 2"><g id="Layer_1-2" data-name="Layer 1"><path class="cls-1" d="M38,61.16c-7.91,0-13.7,5.51-15.61,12.85H53.82C51.81,66.71,45.92,61.16,38,61.16Z"/><path class="cls-2" d="M53.88,82.41C52,89.76,46.17,95.27,38.19,95.27S24.48,89.72,22.47,82.41H3.79c2.43,17,16.21,30,34.22,30s31.83-13,34.36-29.95ZM25,102A2.67,2.67,0,0,1,22.4,99.3c0-1.49,1.18-2.14,2.63-2.14s2.09.93,2.09,2.41S26.48,102,25,102Zm26.4,0c-1.45,0-2.09-.93-2.09-2.42s.64-2.41,2.09-2.41,2.63.65,2.63,2.14A2.67,2.67,0,0,1,51.43,102Z"/><path class="cls-3" d="M18,89.23c0,1.48-.65,2.41-2.1,2.41A2.66,2.66,0,0,1,13.27,89c0-1.48,1.17-2.14,2.62-2.14S18,87.74,18,89.23Z"/><path class="cls-3" d="M40.44,104.94c0,1.49-.64,2.41-2.09,2.41a2.66,2.66,0,0,1-2.63-2.68c0-1.49,1.18-2.14,2.63-2.14S40.44,103.46,40.44,104.94Z"/><path class="cls-3" d="M58.48,89.23c0,1.48.64,2.41,2.09,2.41A2.66,2.66,0,0,0,63.19,89c0-1.48-1.17-2.14-2.62-2.14S58.48,87.74,58.48,89.23Z"/><g class="cls-4"><polygon class="cls-5" points="37.4 88.83 13.61 63.94 37.68 19.73 62.32 62 37.4 88.83"/><polygon class="cls-5" points="37.36 98.19 7.13 66.55 37.72 10.38 69.03 64.09 37.36 98.19"/><polygon class="cls-5" points="37.07 107.31 0.58 69.1 37.82 0.96 75.56 65.91 37.07 107.31"/><polygon class="cls-5" points="37.51 81.47 18.79 61.88 37.73 27.1 57.12 60.36 37.51 81.47"/><polygon class="cls-5" points="37.61 74.09 23.98 59.82 37.78 34.47 51.91 58.71 37.61 74.09"/><polygon class="cls-5" points="37.71 67.67 28.49 58.02 37.82 40.9 47.37 57.27 37.71 67.67"/><polygon class="cls-5" points="37.73 62.28 32.22 56.52 37.8 46.28 43.51 56.07 37.73 62.28"/><polygon class="cls-5" points="37.75 56.9 35.95 55.01 37.78 51.66 39.64 54.87 37.75 56.9"/></g></g></g></svg>