<svg xmlns="http://www.w3.org/2000/svg" viewBox="0 0 62.07 68.29"><defs><style>.cls-1{fill:#0a2237;}.cls-2{fill:#d18311;}.cls-3{fill:#fff;}</style></defs><title>Asset 14</title><g id="Layer_2" data-name="Layer 2"><g id="Layer_1-2" data-name="Layer 1"><path class="cls-1" d="M18.93,42.34v26H0V0H18.93V25.56M7.38,33.06c0,1.29.56,2.33,1.85,2.33a2.32,2.32,0,0,0,2.32-2.33c0-1.28-.8-1.85-2.09-1.85S7.38,31.78,7.38,33.06Zm0-17.93c0,1.28.56,2.33,1.85,2.33a2.33,2.33,0,0,0,2.32-2.33c0-1.28-.8-1.85-2.09-1.85S7.38,13.85,7.38,15.13ZM7.38,51c0,1.28.56,2.32,1.85,2.32A2.32,2.32,0,0,0,11.55,51c0-1.29-.8-1.86-2.09-1.86S7.38,49.71,7.38,51Z"/><path class="cls-2" d="M43.14,25.56V0H62.07V68.29H43.14V42.34m7.64-9.28c0,1.29.57,2.33,1.85,2.33A2.33,2.33,0,0,0,55,33.06c0-1.28-.81-1.85-2.09-1.85S50.78,31.78,50.78,33.06Zm0-17.93c0,1.28.57,2.33,1.85,2.33A2.34,2.34,0,0,0,55,15.13c0-1.28-.81-1.85-2.09-1.85S50.78,13.85,50.78,15.13Zm0,35.87c0,1.28.57,2.32,1.85,2.32A2.33,2.33,0,0,0,55,51c0-1.29-.81-1.86-2.09-1.86S50.78,49.71,50.78,51Z"/><path class="cls-3" d="M52.87,22.24c1.28,0,2.09.57,2.09,1.86a2.33,2.33,0,0,1-2.33,2.32c-1.28,0-1.85-1-1.85-2.32S51.58,22.24,52.87,22.24Z"/><path class="cls-1" d="M52.87,4.31c1.28,0,2.09.57,2.09,1.85a2.33,2.33,0,0,1-2.33,2.33c-1.28,0-1.85-1-1.85-2.33S51.58,4.31,52.87,4.31Z"/><path class="cls-3" d="M52.87,58.11c1.28,0,2.09.57,2.09,1.85a2.33,2.33,0,0,1-2.33,2.33c-1.28,0-1.85-1-1.85-2.33S51.58,58.11,52.87,58.11Z"/><path class="cls-1" d="M52.87,40.18c1.28,0,2.09.57,2.09,1.85a2.34,2.34,0,0,1-2.33,2.33c-1.28,0-1.85-1-1.85-2.33S51.58,40.18,52.87,40.18Z"/><polygon class="cls-2" points="43.14 25.56 43.14 33.62 38.39 25.56 43.14 25.56"/><polygon class="cls-2" points="38.96 35.39 35.03 39.17 35.03 28.65 38.96 35.39"/><polygon class="cls-2" points="41.79 36.31 35.53 42.34 35.03 42.34 35.03 39.87 39.59 35.48 35.03 27.66 35.03 25.56 35.52 25.56 41.79 36.31"/><polygon class="cls-2" points="43.14 34.61 43.28 38.53 39.32 42.34 36.25 42.34 42.42 36.4 36.1 25.56 37.81 25.56 43.14 34.61"/><polygon class="cls-2" points="40.04 42.34 43.23 39.28 43.14 42.34 40.04 42.34"/><polygon class="cls-1" points="18.91 25.56 18.91 33.62 23.67 25.56 18.91 25.56"/><polygon class="cls-1" points="23.1 35.39 27.03 39.17 27.03 28.65 23.1 35.39"/><polygon class="cls-1" points="20.26 36.31 26.52 42.34 27.03 42.34 27.03 39.87 22.47 35.48 27.03 27.66 27.03 25.56 26.54 25.56 20.26 36.31"/><polygon class="cls-1" points="18.91 34.61 18.77 38.53 22.73 42.34 25.8 42.34 19.63 36.4 25.96 25.56 24.25 25.56 18.91 34.61"/><polygon class="cls-1" points="22.01 42.34 18.83 39.28 18.91 42.34 22.01 42.34"/><path class="cls-2" d="M9.46,22.24c1.29,0,2.09.57,2.09,1.86a2.32,2.32,0,0,1-2.32,2.32c-1.29,0-1.85-1-1.85-2.32S8.18,22.24,9.46,22.24Z"/><path class="cls-3" d="M9.46,4.31c1.29,0,2.09.57,2.09,1.85A2.32,2.32,0,0,1,9.23,8.49c-1.29,0-1.85-1-1.85-2.33S8.18,4.31,9.46,4.31Z"/><path class="cls-2" d="M9.46,58.11c1.29,0,2.09.57,2.09,1.85a2.32,2.32,0,0,1-2.32,2.33c-1.29,0-1.85-1-1.85-2.33S8.18,58.11,9.46,58.11Z"/><path class="cls-3" d="M9.46,40.18c1.29,0,2.09.57,2.09,1.85a2.33,2.33,0,0,1-2.32,2.33c-1.29,0-1.85-1-1.85-2.33S8.18,40.18,9.46,40.18Z"/></g></g></svg>