<svg xmlns="http://www.w3.org/2000/svg" xmlns:xlink="http://www.w3.org/1999/xlink" viewBox="0 0 124.02 94.71"><defs><style>.cls-1,.cls-5,.cls-6{fill:none;}.cls-2{fill:#0a2237;}.cls-3{fill:#d18311;}.cls-4{clip-path:url(#clip-path);}.cls-5,.cls-6{stroke:#d18311;stroke-miterlimit:10;}.cls-5{stroke-width:0.93px;}.cls-6{stroke-width:1.4px;}</style><clipPath id="clip-path"><path class="cls-1" d="M56.31,43.2H64c9.92,0,16.92,4.88,18.49,13.45h19.6c-1.6-17.84-15.48-30.23-38.38-30.23H37.38V56.65H56.31Z"/></clipPath></defs><title>Asset 27</title><g id="Layer_2" data-name="Layer 2"><g id="Layer_1-2" data-name="Layer 1"><path class="cls-2" d="M82.61,63.88c-1.34,9-8.43,14.05-18.59,14.05H56.31V63.88H37.38V94.71h26c23.1,0,37.15-12.92,38.76-30.83ZM43.79,87.59c-.75,0-1.08-.61-1.08-1.36s.47-1.09,1.22-1.09,1.22.34,1.22,1.09A1.36,1.36,0,0,1,43.79,87.59Zm0-9.49c-.75,0-1.08-.61-1.08-1.37s.47-1.08,1.22-1.08,1.22.33,1.22,1.08A1.36,1.36,0,0,1,43.79,78.1Zm0-9.5c-.75,0-1.08-.61-1.08-1.36s.47-1.09,1.22-1.09,1.22.34,1.22,1.09A1.36,1.36,0,0,1,43.79,68.6Zm4.48,23.74c-.75,0-1.08-.61-1.08-1.36s.47-1.09,1.22-1.09,1.23.33,1.23,1.09A1.36,1.36,0,0,1,48.27,92.34Zm0-9.5c-.75,0-1.08-.61-1.08-1.36s.47-1.08,1.22-1.08,1.23.33,1.23,1.08A1.36,1.36,0,0,1,48.27,82.84Zm0-9.49c-.75,0-1.08-.61-1.08-1.36s.47-1.09,1.22-1.09,1.23.33,1.23,1.09A1.36,1.36,0,0,1,48.27,73.35Z"/><path class="cls-3" d="M43.93,89.89c.75,0,1.22.33,1.22,1.09a1.36,1.36,0,0,1-1.36,1.36c-.75,0-1.08-.61-1.08-1.36S43.18,89.89,43.93,89.89Z"/><path class="cls-3" d="M43.93,80.4c.75,0,1.22.33,1.22,1.08a1.36,1.36,0,0,1-1.36,1.36c-.75,0-1.08-.61-1.08-1.36S43.18,80.4,43.93,80.4Z"/><path class="cls-3" d="M43.93,70.9c.75,0,1.22.33,1.22,1.09a1.36,1.36,0,0,1-1.36,1.36c-.75,0-1.08-.61-1.08-1.36S43.18,70.9,43.93,70.9Z"/><path class="cls-3" d="M48.27,87.59c-.75,0-1.08-.61-1.08-1.36s.47-1.09,1.22-1.09,1.23.34,1.23,1.09A1.36,1.36,0,0,1,48.27,87.59Z"/><path class="cls-3" d="M48.27,78.1c-.75,0-1.08-.61-1.08-1.37s.47-1.08,1.22-1.08,1.23.33,1.23,1.08A1.37,1.37,0,0,1,48.27,78.1Z"/><path class="cls-3" d="M48.27,68.6c-.75,0-1.08-.61-1.08-1.36s.47-1.09,1.22-1.09,1.23.34,1.23,1.09A1.36,1.36,0,0,1,48.27,68.6Z"/><path class="cls-1" d="M64,43.2H56.31V56.65h26.2C80.94,48.08,73.94,43.2,64,43.2Z"/><g class="cls-4"><polygon class="cls-5" points="32.81 37.66 61.32 8.75 111.94 38.01 63.53 67.96 32.81 37.66"/><polygon class="cls-6" points="22.1 37.61 58.32 0.88 122.66 38.05 61.14 76.11 22.1 37.61"/><polygon class="cls-5" points="41.24 37.79 63.67 15.04 103.51 38.07 65.42 61.63 41.24 37.79"/><polygon class="cls-5" points="49.69 37.93 66.04 21.35 95.07 38.13 67.31 55.3 49.69 37.93"/><polygon class="cls-5" points="57.05 38.04 68.09 26.84 87.71 38.18 68.95 49.78 57.05 38.04"/><polygon class="cls-5" points="63.21 38.07 69.82 31.37 81.54 38.15 70.33 45.09 63.21 38.07"/><polygon class="cls-5" points="69.38 38.1 71.54 35.91 75.38 38.12 71.71 40.39 69.38 38.1"/><line class="cls-6" x1="22.36" y1="37.93" y2="38.09"/></g></g></g></svg>