<svg xmlns="http://www.w3.org/2000/svg" xmlns:xlink="http://www.w3.org/1999/xlink" viewBox="0 0 78.71 85.8"><defs><style>.cls-1,.cls-3{fill:none;}.cls-2{clip-path:url(#clip-path);}.cls-3{stroke:#0a2237;stroke-miterlimit:10;stroke-width:0.78px;}.cls-4{fill:#d18311;}.cls-5{fill:#0a2237;}</style><clipPath id="clip-path"><polygon class="cls-1" points="27.63 17.51 6.61 17.51 27.26 67.85 36.45 42.16 27.63 17.51"/></clipPath></defs><title>Asset 6</title><g id="Layer_2" data-name="Layer 2"><g id="Layer_1-2" data-name="Layer 1"><g class="cls-2"><polygon class="cls-3" points="33.86 62.35 4.85 52.21 8.63 8.03 44.76 31.47 33.86 62.35"/><polygon class="cls-3" points="37.27 69.7 0.41 56.81 5.22 0.68 51.12 30.46 37.27 69.7"/><polygon class="cls-3" points="31.23 56.53 8.41 48.55 11.39 13.79 39.81 32.23 31.23 56.53"/><polygon class="cls-3" points="28.61 50.7 11.98 44.88 14.14 19.55 34.86 32.99 28.61 50.7"/><polygon class="cls-3" points="26.32 45.62 15.08 41.69 16.55 24.58 30.54 33.66 26.32 45.62"/><polygon class="cls-3" points="24.36 41.39 17.64 39.04 18.51 28.81 26.88 34.24 24.36 41.39"/><polygon class="cls-3" points="22.39 37.16 20.19 36.39 20.48 33.04 23.21 34.82 22.39 37.16"/><line class="cls-3" x1="37.4" y1="69.42" x2="44.7" y2="84.68"/></g><polygon class="cls-4" points="59.25 17.51 43.85 60.42 40.54 51.19 31.34 76.88 34.94 85.8 38.89 85.8 63.34 17.51 59.25 17.51"/><path class="cls-4" d="M51.2,85.8H37.67L62.12,17.51H78.71ZM64.94,34.25c0-1.41-.62-2.55-2-2.55a2.55,2.55,0,0,0-2.56,2.55c0,1.41.88,2,2.29,2S64.94,35.66,64.94,34.25ZM55.7,56.5c0-1.41-.62-2.55-2-2.55a2.55,2.55,0,0,0-2.55,2.55c0,1.41.88,2,2.29,2S55.7,57.91,55.7,56.5ZM46.09,79.15c0-1.42-.62-2.56-2-2.56a2.55,2.55,0,0,0-2.55,2.56c0,1.41.88,2,2.29,2S46.09,80.56,46.09,79.15Z"/><path class="cls-5" d="M66.07,25c-1.41,0-2.29-.63-2.29-2a2.55,2.55,0,0,1,2.55-2.55c1.41,0,2,1.14,2,2.55S67.48,25,66.07,25Z"/><path class="cls-5" d="M56.63,47.61c-1.41,0-2.29-.63-2.29-2A2.55,2.55,0,0,1,56.89,43c1.41,0,2,1.14,2,2.55S58,47.61,56.63,47.61Z"/><path class="cls-5" d="M47.6,70.25c-1.41,0-2.29-.62-2.29-2a2.56,2.56,0,0,1,2.56-2.55c1.41,0,2,1.14,2,2.55S49,70.25,47.6,70.25Z"/></g></g></svg>