<svg xmlns="http://www.w3.org/2000/svg" xmlns:xlink="http://www.w3.org/1999/xlink" viewBox="0 0 81.18 116.4"><defs><style>.cls-1,.cls-4{fill:none;}.cls-2{fill:#d18311;}.cls-3{clip-path:url(#clip-path);}.cls-4{stroke:#0a2237;stroke-miterlimit:10;stroke-width:0.92px;}.cls-5{fill:#0a2237;}</style><clipPath id="clip-path"><path class="cls-1" d="M59.93,92.58c0-11.79-8.79-16.47-23-19.62-8.53-2-10.64-3.24-10.64-6.12v-.18c0-2.26,2-4.06,6.15-4.06,5.46,0,11.61,2.16,17.24,6.22l8.53-12.34C51.58,51,43.4,48.11,32.93,48.11c-8.26,0-14.73,2.65-18.83,7C12.85,61,12.75,74,33.15,80.51c13,4.14,21.42,8.26,26.75,13.35,0-.36,0-.73,0-1.1Z"/></clipPath></defs><title>Asset 15</title><g id="Layer_2" data-name="Layer 2"><g id="Layer_1-2" data-name="Layer 1"><path class="cls-2" d="M31.46,83.16C10.28,76.53,10.37,63.41,11.67,57.42A18.9,18.9,0,0,0,6.49,70.75v.18c0,13.15,10.5,17,24.1,20.09,8.68,2,10.78,3.47,10.78,6.12v.18c0,2.74-2.56,4.38-7.31,4.38A32.87,32.87,0,0,1,13.34,94L3.47,105.81c7.86,7,18.63,10.59,30,10.59,15.08,0,25.24-7.32,25.81-19.7C53.69,91.53,44.9,87.36,31.46,83.16ZM25.67,110.8a2.51,2.51,0,0,1-2.51-2.52c0-1.38,1.12-2,2.51-2s2,.86,2,2.25S27.06,110.8,25.67,110.8ZM46,108a2.51,2.51,0,0,1-2.51-2.51c0-1.39,1.12-2,2.51-2s2,.86,2,2.25S47.42,108,46,108Z"/><g class="cls-3"><polygon class="cls-4" points="39.74 90.75 15.5 65.98 40.03 21.98 65.13 64.05 39.74 90.75"/><polygon class="cls-4" points="39.7 100.06 8.9 68.58 40.07 12.68 71.97 66.13 39.7 100.06"/><polygon class="cls-4" points="39.65 111.82 0.57 71.86 40.12 0.92 80.6 68.76 39.65 111.82"/><polygon class="cls-4" points="39.85 83.42 20.78 63.93 40.08 29.31 59.83 62.41 39.85 83.42"/><polygon class="cls-4" points="39.96 76.08 26.07 61.88 40.13 36.65 54.52 60.77 39.96 76.08"/><polygon class="cls-4" points="40.06 69.69 30.67 60.09 40.17 43.04 49.9 59.34 40.06 69.69"/><polygon class="cls-4" points="40.08 64.33 34.47 58.59 40.15 48.4 45.96 58.15 40.08 64.33"/><polygon class="cls-4" points="40.1 58.97 38.27 57.09 40.13 53.76 42.03 56.95 40.1 58.97"/></g><path class="cls-5" d="M18.16,104c0,1.39-.62,2.26-2,2.26a2.52,2.52,0,0,1-2.51-2.52c0-1.38,1.13-2,2.51-2S18.16,102.64,18.16,104Z"/><path class="cls-5" d="M38.3,110.23c0,1.39-.61,2.26-2,2.26A2.51,2.51,0,0,1,33.79,110c0-1.39,1.12-2,2.51-2S38.3,108.85,38.3,110.23Z"/><path class="cls-5" d="M51.94,96.12c0,1.38-.61,2.25-2,2.25a2.51,2.51,0,0,1-2.51-2.51c0-1.39,1.12-2,2.51-2S51.94,94.73,51.94,96.12Z"/></g></g></svg>