<svg xmlns="http://www.w3.org/2000/svg" xmlns:xlink="http://www.w3.org/1999/xlink" viewBox="0 0 62.63 83.7"><defs><style>.cls-1,.cls-5{fill:none;}.cls-2{fill:#0a2237;}.cls-3{fill:#d18311;}.cls-4{clip-path:url(#clip-path);}.cls-5{stroke:#0a2237;stroke-miterlimit:10;stroke-width:0.99px;}</style><clipPath id="clip-path"><rect class="cls-1" x="21.59" y="15.49" width="19.11" height="53.72"/></clipPath></defs><title>Asset 23</title><g id="Layer_2" data-name="Layer 2"><g id="Layer_1-2" data-name="Layer 1"><path class="cls-2" d="M.9.92V14.18H61.37V.92ZM15,8.74a1.59,1.59,0,0,1-1.59-1.59c0-.87.71-1.26,1.59-1.26s1.26.55,1.26,1.42S15.85,8.74,15,8.74Zm16,0a1.59,1.59,0,0,1-1.59-1.59c0-.87.71-1.26,1.59-1.26s1.26.55,1.26,1.42S31.88,8.74,31,8.74Zm16.47,0a1.59,1.59,0,0,1-1.59-1.59c0-.87.71-1.26,1.59-1.26s1.26.55,1.26,1.42S48.35,8.74,47.48,8.74Z"/><path class="cls-3" d="M8.24,7.31c0,.88-.39,1.43-1.27,1.43A1.59,1.59,0,0,1,5.39,7.15c0-.87.71-1.26,1.58-1.26S8.24,6.44,8.24,7.31Z"/><path class="cls-3" d="M24.27,7.31c0,.88-.39,1.43-1.26,1.43a1.59,1.59,0,0,1-1.59-1.59c0-.87.71-1.26,1.59-1.26S24.27,6.44,24.27,7.31Z"/><path class="cls-3" d="M40.74,7.31c0,.88-.39,1.43-1.26,1.43a1.59,1.59,0,0,1-1.59-1.59c0-.87.71-1.26,1.59-1.26S40.74,6.44,40.74,7.31Z"/><path class="cls-3" d="M56.77,7.31c0,.88-.39,1.43-1.26,1.43a1.59,1.59,0,0,1-1.59-1.59c0-.87.71-1.26,1.59-1.26S56.77,6.44,56.77,7.31Z"/><g class="cls-4"><polygon class="cls-5" points="30.63 74.27 7.04 51.01 30.91 9.7 55.35 49.2 30.63 74.27"/><polygon class="cls-5" points="30.59 83 0.62 53.45 30.95 0.96 62 51.15 30.59 83"/><polygon class="cls-5" points="30.74 67.38 12.18 49.08 30.96 16.58 50.19 47.66 30.74 67.38"/><polygon class="cls-5" points="30.85 60.49 17.32 47.16 31.01 23.47 45.02 46.12 30.85 60.49"/><polygon class="cls-5" points="30.94 54.49 21.8 45.48 31.05 29.47 40.52 44.78 30.94 54.49"/><polygon class="cls-5" points="30.96 49.46 25.5 44.07 31.03 34.5 36.69 43.65 30.96 49.46"/><polygon class="cls-5" points="30.99 44.43 29.2 42.66 31.01 39.53 32.86 42.53 30.99 44.43"/></g></g></g></svg>