<svg xmlns="http://www.w3.org/2000/svg" xmlns:xlink="http://www.w3.org/1999/xlink" viewBox="0 0 1083.78 367.15"><defs><style>.cls-1,.cls-14,.cls-15,.cls-25,.cls-29,.cls-31,.cls-32,.cls-33,.cls-4,.cls-6,.cls-7,.cls-9{fill:none;}.cls-2{fill:#0a2237;}.cls-3{fill:#d18311;}.cls-31,.cls-32,.cls-33,.cls-4,.cls-6,.cls-7{stroke:#d18311;}.cls-14,.cls-15,.cls-25,.cls-29,.cls-31,.cls-32,.cls-33,.cls-4,.cls-6,.cls-7,.cls-9{stroke-miterlimit:10;}.cls-25,.cls-4{stroke-width:0.75px;}.cls-5{clip-path:url(#clip-path);}.cls-6{stroke-width:1.23px;}.cls-7{stroke-width:1.23px;}.cls-8{clip-path:url(#clip-path-2);}.cls-14,.cls-25,.cls-29,.cls-9{stroke:#0a2237;}.cls-9{stroke-width:1.58px;}.cls-10{clip-path:url(#clip-path-3);}.cls-11{clip-path:url(#clip-path-4);}.cls-12{clip-path:url(#clip-path-5);}.cls-13{clip-path:url(#clip-path-6);}.cls-14{stroke-width:0.52px;}.cls-15{stroke:#fff;stroke-width:0.1px;}.cls-16{clip-path:url(#clip-path-7);}.cls-17{clip-path:url(#clip-path-8);}.cls-18{clip-path:url(#clip-path-9);}.cls-19{clip-path:url(#clip-path-10);}.cls-20{clip-path:url(#clip-path-11);}.cls-21{clip-path:url(#clip-path-12);}.cls-22{clip-path:url(#clip-path-13);}.cls-23{clip-path:url(#clip-path-14);}.cls-24{clip-path:url(#clip-path-15);}.cls-26{clip-path:url(#clip-path-16);}.cls-27{clip-path:url(#clip-path-17);}.cls-28{clip-path:url(#clip-path-18);}.cls-29{stroke-width:1.58px;}.cls-30{clip-path:url(#clip-path-19);}.cls-31{stroke-width:1.37px;}.cls-32{stroke-width:1.37px;}.cls-33{stroke-width:2.05px;}.cls-34{clip-path:url(#clip-path-20);}</style><clipPath id="clip-path"><rect class="cls-1" x="153.33" y="76.78" width="21.97" height="108.28"/></clipPath><clipPath id="clip-path-2"><polygon class="cls-1" points="42.33 74.35 42.33 182.63 68.51 182.63 68.51 123.23 109.27 182.63 132.44 182.63 132.44 181.63 53.08 74.35 42.33 74.35"/></clipPath><clipPath id="clip-path-3"><polygon class="cls-1" points="252.83 76.8 233.62 76.8 271.47 130 233.62 185.06 254.94 185.06 291.48 129.99 252.83 76.8"/></clipPath><clipPath id="clip-path-4"><polygon class="cls-1" points="334.64 76.8 353.86 76.8 316 130 353.86 185.06 332.53 185.06 296 129.99 334.64 76.8"/></clipPath><clipPath id="clip-path-5"><rect class="cls-1" x="377.61" y="100.2" width="30.71" height="86.34"/></clipPath><clipPath id="clip-path-6"><path class="cls-1" d="M913.68,103.18c13.35,0,23.29,9.37,26.67,21.69h31.36C967.62,96.13,944.38,74.35,914,74.35s-53.71,21.89-58,50.52h31.35C890.58,112.48,900.34,103.18,913.68,103.18Z"/></clipPath><clipPath id="clip-path-7"><rect class="cls-1" x="480.1" y="74.35" width="27.7" height="113.3"/></clipPath><clipPath id="clip-path-8"><polygon class="cls-1" points="981.31 74.35 981.31 182.63 1007.48 182.63 1007.48 123.23 1048.24 182.63 1071.42 182.63 1071.42 181.63 992.05 74.35 981.31 74.35"/></clipPath><clipPath id="clip-path-9"><rect class="cls-1" x="591.83" y="130.61" width="32.05" height="58.77"/></clipPath><clipPath id="clip-path-10"><rect class="cls-1" x="815.45" y="130.61" width="31.3" height="58.77"/></clipPath><clipPath id="clip-path-11"><rect class="cls-1" x="671.36" y="160.86" width="48.01" height="27.94"/></clipPath><clipPath id="clip-path-12"><rect class="cls-1" x="760.08" y="160.86" width="48.01" height="27.94"/></clipPath><clipPath id="clip-path-13"><rect class="cls-1" x="266.29" y="201.62" width="23.38" height="115.25"/></clipPath><clipPath id="clip-path-14"><rect class="cls-1" x="529.59" y="226.31" width="32.68" height="91.89"/></clipPath><clipPath id="clip-path-15"><path class="cls-1" d="M647.5,230.86c13.35,0,23.28,9.38,26.67,21.7h31.36C701.44,223.82,678.19,202,647.81,202s-53.72,21.9-58,50.53h31.34C624.4,240.17,634.16,230.86,647.5,230.86Z"/></clipPath><clipPath id="clip-path-16"><polygon class="cls-1" points="426.2 239.63 426.2 239.63 441.13 202.05 411.17 202.05 362.48 317.24 395.68 317.24 413.29 272.14 426.2 239.63"/></clipPath><clipPath id="clip-path-17"><path class="cls-1" d="M231.42,275.83c14.28-6.07,23.64-17.73,23.64-35.3v-.33c0-11.33-3.45-20.19-10.18-26.76C237.16,205.56,225,201,207.44,201H189.19v27.59H205.8c10.68,0,17.24,4.59,17.24,13.62v.33c0,8.37-6.24,13.63-17.07,13.63H189.19v25h9.72l23.15,34.81h36.78Z"/></clipPath><clipPath id="clip-path-18"><path class="cls-1" d="M791.56,276.62c14.28-6.08,23.64-17.74,23.64-35.31V241c0-11.33-3.45-20.2-10.18-26.77-7.72-7.88-19.87-12.48-37.44-12.48H749.33v27.59h16.61c10.67,0,17.24,4.6,17.24,13.63v.32c0,8.38-6.24,13.63-17.07,13.63H749.33v25h9.72l23.15,34.81H819Z"/></clipPath><clipPath id="clip-path-19"><path class="cls-1" d="M73.22,258.45v-.31c0-12.66,6.72-23.46,17.09-27.52v-29C61.78,206,41.6,229.37,41.6,258.45v.32c0,30.07,21.08,52.81,48.71,56.65V286.3C79.94,282.26,73.22,271.48,73.22,258.45Z"/></clipPath><clipPath id="clip-path-20"><path class="cls-1" d="M915.11,277.14c0-20.34-15.16-28.41-39.57-33.84-14.71-3.42-18.35-5.59-18.35-10.56v-.31c0-3.88,3.49-7,10.61-7,9.4,0,20,3.72,29.72,10.71l14.71-21.27c-11.53-9.46-25.63-14.43-43.67-14.43-14.24,0-25.4,4.56-32.47,12.11-2.16,10.18-2.32,32.48,32.85,43.75,22.31,7.15,36.92,14.24,46.12,23,0-.62.05-1.25.05-1.89Z"/></clipPath></defs><title>NXTBC</title><g id="Layer_2" data-name="Layer 2"><g id="Layer_1-2" data-name="Layer 1"><path class="cls-2" d="M183.92,118.7v23.67h47.86V118.7Zm12.48,13.89a2.28,2.28,0,0,1-2.28-2.29c0-1.26,1-1.81,2.28-1.81s1.82.79,1.82,2S197.67,132.59,196.4,132.59Zm15.94,0a2.28,2.28,0,0,1-2.29-2.29c0-1.26,1-1.81,2.29-1.81s1.82.79,1.82,2S213.6,132.59,212.34,132.59Zm15.93,0A2.28,2.28,0,0,1,226,130.3c0-1.26,1-1.81,2.29-1.81s1.82.79,1.82,2S229.53,132.59,228.27,132.59Z"/><path class="cls-3" d="M190.26,130.54c0,1.26-.56,2.05-1.82,2.05a2.29,2.29,0,0,1-2.29-2.29c0-1.26,1-1.81,2.29-1.81S190.26,129.28,190.26,130.54Z"/><path class="cls-3" d="M206.19,130.54c0,1.26-.56,2.05-1.82,2.05a2.29,2.29,0,0,1-2.29-2.29c0-1.26,1-1.81,2.29-1.81S206.19,129.28,206.19,130.54Z"/><path class="cls-3" d="M222.12,130.54c0,1.26-.56,2.05-1.82,2.05A2.28,2.28,0,0,1,218,130.3c0-1.26,1-1.81,2.28-1.81S222.12,129.28,222.12,130.54Z"/><path class="cls-4" d="M185,152.63c-.16,4.88,0,4.41,0,4.41"/><path class="cls-4" d="M187.3,152.63c-.16,4.88,0,4.41,0,4.41"/><path class="cls-4" d="M189.52,152.63c-.16,4.88,0,4.41,0,4.41"/><path class="cls-4" d="M196.94,152.61c-4.88-.16-4.41,0-4.41,0"/><path class="cls-4" d="M196.94,154.93c-4.88-.16-4.41,0-4.41,0"/><path class="cls-4" d="M196.94,157.14c-4.88-.16-4.41,0-4.41,0"/><path class="cls-4" d="M200.47,152.63c-.16,4.88,0,4.41,0,4.41"/><path class="cls-4" d="M202.79,152.63c-.16,4.88,0,4.41,0,4.41"/><path class="cls-4" d="M205,152.63c-.16,4.88,0,4.41,0,4.41"/><path class="cls-4" d="M212.42,152.61c-4.87-.16-4.41,0-4.41,0"/><path class="cls-4" d="M212.42,154.93c-4.87-.16-4.41,0-4.41,0"/><path class="cls-4" d="M212.42,157.14c-4.87-.16-4.41,0-4.41,0"/><path class="cls-4" d="M216,152.63c-.16,4.88,0,4.41,0,4.41"/><path class="cls-4" d="M218.27,152.63c-.16,4.88,0,4.41,0,4.41"/><path class="cls-4" d="M220.49,152.63c-.16,4.88,0,4.41,0,4.41"/><path class="cls-4" d="M227.91,152.61c-4.88-.16-4.41,0-4.41,0"/><path class="cls-4" d="M227.91,154.93c-4.88-.16-4.41,0-4.41,0"/><path class="cls-4" d="M227.91,157.14c-4.88-.16-4.41,0-4.41,0"/><path class="cls-4" d="M185,104.38c-.16,4.88,0,4.41,0,4.41"/><path class="cls-4" d="M187.3,104.38c-.16,4.88,0,4.41,0,4.41"/><path class="cls-4" d="M189.52,104.38c-.16,4.88,0,4.41,0,4.41"/><path class="cls-4" d="M196.94,104.36c-4.88-.16-4.41,0-4.41,0"/><path class="cls-4" d="M196.94,106.67c-4.88-.16-4.41,0-4.41,0"/><path class="cls-4" d="M196.94,108.89c-4.88-.16-4.41,0-4.41,0"/><path class="cls-4" d="M200.47,104.38c-.16,4.88,0,4.41,0,4.41"/><path class="cls-4" d="M202.79,104.38c-.16,4.88,0,4.41,0,4.41"/><path class="cls-4" d="M205,104.38c-.16,4.88,0,4.41,0,4.41"/><path class="cls-4" d="M212.42,104.36c-4.87-.16-4.41,0-4.41,0"/><path class="cls-4" d="M212.42,106.67c-4.87-.16-4.41,0-4.41,0"/><path class="cls-4" d="M212.42,108.89c-4.87-.16-4.41,0-4.41,0"/><path class="cls-4" d="M216,104.38c-.16,4.88,0,4.41,0,4.41"/><path class="cls-4" d="M218.27,104.38c-.16,4.88,0,4.41,0,4.41"/><path class="cls-4" d="M220.49,104.38c-.16,4.88,0,4.41,0,4.41"/><path class="cls-4" d="M227.91,104.36c-4.88-.16-4.41,0-4.41,0"/><path class="cls-4" d="M227.91,106.67c-4.88-.16-4.41,0-4.41,0"/><path class="cls-4" d="M227.91,108.89c-4.88-.16-4.41,0-4.41,0"/><g class="cls-5"><polygon class="cls-6" points="163.95 183.91 125.7 146.19 164.41 79.2 204.04 143.25 163.95 183.91"/><polygon class="cls-6" points="163.89 198.08 115.28 150.15 164.47 65.03 214.83 146.42 163.89 198.08"/><polygon class="cls-7" points="164.13 172.75 134.03 143.07 164.49 90.36 195.67 140.76 164.13 172.75"/><polygon class="cls-7" points="164.31 161.57 142.37 139.94 164.57 101.53 187.29 138.26 164.31 161.57"/><polygon class="cls-7" points="164.46 151.84 149.64 137.22 164.64 111.27 179.99 136.09 164.46 151.84"/><polygon class="cls-7" points="164.49 143.68 155.63 134.94 164.6 119.43 173.78 134.26 164.49 143.68"/><polygon class="cls-7" points="164.53 135.52 161.63 132.66 164.56 127.59 167.57 132.44 164.53 135.52"/></g><rect class="cls-2" x="183.92" y="159.54" width="54.05" height="25.52"/><rect class="cls-2" x="183.92" y="76.78" width="53.27" height="25.52"/><g class="cls-8"><polygon class="cls-9" points="70.88 195.83 26.75 152.32 71.41 75.05 117.12 148.94 70.88 195.83"/><polygon class="cls-9" points="70.8 212.18 14.74 156.89 71.48 58.7 129.56 152.59 70.8 212.18"/><polygon class="cls-9" points="70.72 230.87 0.99 162.11 71.56 40.01 143.8 156.76 70.72 230.87"/><polygon class="cls-9" points="71.08 182.96 36.36 148.72 71.5 87.92 107.47 146.06 71.08 182.96"/><polygon class="cls-9" points="71.28 170.07 45.98 145.12 71.59 100.81 97.8 143.18 71.28 170.07"/><polygon class="cls-9" points="71.46 158.84 54.36 141.98 71.67 112.04 89.38 140.67 71.46 158.84"/><polygon class="cls-9" points="71.5 149.42 61.28 139.35 71.62 121.45 82.21 138.56 71.5 149.42"/><polygon class="cls-9" points="71.54 140.01 68.2 136.72 71.58 130.86 75.05 136.46 71.54 140.01"/></g><path class="cls-3" d="M118.41,74.35v57.23L79.15,74.35H65.22l79.36,107.28V74.35Zm14,81.66c-2.2,0-3.58-1-3.58-3.18a4,4,0,0,1,4-4c2.21,0,3.18,1.79,3.18,4S134.65,156,132.44,156Zm0-27.83c-2.2,0-3.58-1-3.58-3.18a4,4,0,0,1,4-4c2.21,0,3.18,1.79,3.18,4S134.65,128.18,132.44,128.18Zm0-27.83c-2.2,0-3.58-1-3.58-3.18a4,4,0,0,1,4-4c2.21,0,3.18,1.79,3.18,4S134.65,100.35,132.44,100.35Z"/><path class="cls-2" d="M132.44,86.44c-2.2,0-3.58-1-3.58-3.18a4,4,0,0,1,4-4c2.21,0,3.18,1.78,3.18,4S134.65,86.44,132.44,86.44Z"/><path class="cls-2" d="M132.44,114.27c-2.2,0-3.58-1-3.58-3.18a4,4,0,0,1,4-4c2.21,0,3.18,1.78,3.18,4S134.65,114.27,132.44,114.27Z"/><path class="cls-2" d="M132.44,142.1c-2.2,0-3.58-1-3.58-3.18a4,4,0,0,1,4-4c2.21,0,3.18,1.78,3.18,4S134.65,142.1,132.44,142.1Z"/><path class="cls-3" d="M323.13,185.06l-29.71-42.79-29.08,42.79h12.79l16.15-22.84,15.85,22.84Zm-42.45-10.95a1.81,1.81,0,0,1-2,2c-1.39,0-2.52-.56-2.52-1.82a2.41,2.41,0,0,1,2.52-2.28A1.81,1.81,0,0,1,280.68,174.11Zm10.18-14.66a1.81,1.81,0,0,1-2,2.05c-1.39,0-2.52-.56-2.52-1.82a2.41,2.41,0,0,1,2.52-2.28A1.81,1.81,0,0,1,290.86,159.45Zm9.65.23c0,1.26-1.12,1.82-2.51,1.82a2.05,2.05,0,0,1,0-4.1A2.4,2.4,0,0,1,300.51,159.68Zm10.18,14.66c0,1.26-1.12,1.82-2.51,1.82a2.05,2.05,0,0,1,0-4.1A2.4,2.4,0,0,1,310.69,174.34Z"/><path class="cls-2" d="M275.37,181.09a1.81,1.81,0,0,0-2-2.05,2.42,2.42,0,0,0-2.52,2.29c0,1.26,1.13,1.81,2.52,1.81A1.81,1.81,0,0,0,275.37,181.09Z"/><path class="cls-2" d="M285.59,166.43a1.81,1.81,0,0,0-2-2.05,2.41,2.41,0,0,0-2.52,2.29c0,1.26,1.13,1.81,2.52,1.81A1.81,1.81,0,0,0,285.59,166.43Z"/><path class="cls-2" d="M311.48,181.09a1.81,1.81,0,0,1,2-2.05,2.42,2.42,0,0,1,2.52,2.29c0,1.26-1.13,1.81-2.52,1.81A1.81,1.81,0,0,1,311.48,181.09Z"/><path class="cls-2" d="M301.26,166.43a1.81,1.81,0,0,1,2-2.05,2.41,2.41,0,0,1,2.52,2.29c0,1.26-1.13,1.81-2.52,1.81A1.81,1.81,0,0,1,301.26,166.43Z"/><path class="cls-2" d="M296,152.28a1.81,1.81,0,0,0-2-2.05,2.41,2.41,0,0,0-2.51,2.29c0,1.26,1.12,1.81,2.51,1.81A1.81,1.81,0,0,0,296,152.28Z"/><path class="cls-3" d="M309.13,77.52l-15.85,22.84L277.13,77.52H264.34l29.08,42.79,29.71-42.79Zm-30.45,13a2.41,2.41,0,0,1-2.52-2.28c0-1.26,1.13-1.82,2.52-1.82a2.05,2.05,0,0,1,0,4.1Zm10.18,14.66a2.41,2.41,0,0,1-2.52-2.28c0-1.26,1.13-1.82,2.52-1.82a2.05,2.05,0,0,1,0,4.1Zm9.14,0a2.05,2.05,0,0,1,0-4.1c1.39,0,2.51.56,2.51,1.82A2.4,2.4,0,0,1,298,105.18Zm10.18-14.66a2.05,2.05,0,0,1,0-4.1c1.39,0,2.51.56,2.51,1.82A2.4,2.4,0,0,1,308.18,90.52Z"/><g class="cls-10"><polygon class="cls-9" points="279.18 186.5 234.08 146.11 279.72 74.37 326.44 142.96 279.18 186.5"/><polygon class="cls-9" points="279.1 201.68 221.8 150.35 279.79 59.2 339.16 146.35 279.1 201.68"/><polygon class="cls-9" points="279.38 174.55 243.9 142.76 279.81 86.32 316.57 140.29 279.38 174.55"/><polygon class="cls-9" points="279.59 162.58 253.73 139.42 279.9 98.29 306.69 137.62 279.59 162.58"/><polygon class="cls-9" points="279.77 152.16 262.3 136.5 279.98 108.71 298.09 135.29 279.77 152.16"/><polygon class="cls-9" points="279.81 143.42 269.37 134.06 279.94 117.45 290.76 133.34 279.81 143.42"/><polygon class="cls-9" points="279.86 134.68 276.44 131.62 279.9 126.19 283.44 131.38 279.86 134.68"/></g><g class="cls-11"><polygon class="cls-9" points="310.35 186.5 265.25 146.11 310.89 74.37 357.62 142.96 310.35 186.5"/><polygon class="cls-9" points="310.28 201.68 252.97 150.35 310.97 59.2 370.33 146.35 310.28 201.68"/><polygon class="cls-9" points="310.56 174.55 275.07 142.76 310.98 86.32 347.75 140.29 310.56 174.55"/><polygon class="cls-9" points="310.77 162.58 284.91 139.42 311.08 98.29 337.87 137.62 310.77 162.58"/><polygon class="cls-9" points="310.95 152.16 293.47 136.5 311.16 108.71 329.26 135.29 310.95 152.16"/><polygon class="cls-9" points="310.99 143.42 300.54 134.06 311.12 117.45 321.94 133.34 310.99 143.42"/><polygon class="cls-9" points="311.03 134.68 307.62 131.62 311.07 126.19 314.61 131.38 311.03 134.68"/></g><path class="cls-2" d="M275.37,81.49a1.81,1.81,0,0,1-2,2.05,2.42,2.42,0,0,1-2.52-2.29c0-1.26,1.13-1.81,2.52-1.81A1.81,1.81,0,0,1,275.37,81.49Z"/><path class="cls-2" d="M285.59,96.15a1.81,1.81,0,0,1-2,2,2.41,2.41,0,0,1-2.52-2.29c0-1.26,1.13-1.81,2.52-1.81A1.81,1.81,0,0,1,285.59,96.15Z"/><path class="cls-2" d="M311.48,81.49a1.81,1.81,0,0,0,2,2.05A2.42,2.42,0,0,0,316,81.25c0-1.26-1.13-1.81-2.52-1.81A1.81,1.81,0,0,0,311.48,81.49Z"/><path class="cls-2" d="M301.26,96.15a1.81,1.81,0,0,0,2,2,2.41,2.41,0,0,0,2.52-2.29c0-1.26-1.13-1.81-2.52-1.81A1.81,1.81,0,0,0,301.26,96.15Z"/><path class="cls-2" d="M296,110.3a1.81,1.81,0,0,1-2,2,2.41,2.41,0,0,1-2.51-2.29c0-1.26,1.12-1.81,2.51-1.81A1.81,1.81,0,0,1,296,110.3Z"/><path class="cls-2" d="M344.37,76.78V98.09h97.18V76.78ZM367,89.35a2.55,2.55,0,0,1-2.55-2.55c0-1.41,1.14-2,2.55-2s2,.88,2,2.28S368.39,89.35,367,89.35Zm25.76,0a2.55,2.55,0,0,1-2.55-2.55c0-1.41,1.15-2,2.55-2s2,.88,2,2.28S394.16,89.35,392.75,89.35Zm26.47,0a2.55,2.55,0,0,1-2.54-2.55c0-1.41,1.14-2,2.54-2s2,.88,2,2.28S420.63,89.35,419.22,89.35Z"/><path class="cls-3" d="M356.15,87.06c0,1.41-.62,2.29-2,2.29a2.55,2.55,0,0,1-2.55-2.55c0-1.41,1.14-2,2.55-2S356.15,85.66,356.15,87.06Z"/><path class="cls-3" d="M381.92,87.06c0,1.41-.62,2.29-2,2.29a2.55,2.55,0,0,1-2.54-2.55c0-1.41,1.14-2,2.54-2S381.92,85.66,381.92,87.06Z"/><path class="cls-3" d="M408.39,87.06c0,1.41-.62,2.29-2,2.29a2.55,2.55,0,0,1-2.54-2.55c0-1.41,1.14-2,2.54-2S408.39,85.66,408.39,87.06Z"/><path class="cls-3" d="M434.16,87.06c0,1.41-.62,2.29-2,2.29a2.55,2.55,0,0,1-2.55-2.55c0-1.41,1.14-2,2.55-2S434.16,85.66,434.16,87.06Z"/><g class="cls-12"><polygon class="cls-9" points="392.14 194.67 354.23 157.28 392.6 90.9 431.88 154.38 392.14 194.67"/><polygon class="cls-9" points="392.08 208.71 343.91 161.21 392.66 76.85 442.57 157.51 392.08 208.71"/><polygon class="cls-9" points="392.32 183.61 362.49 154.19 392.68 101.95 423.58 151.9 392.32 183.61"/><polygon class="cls-9" points="392.49 172.53 370.75 151.09 392.75 113.03 415.27 149.43 392.49 172.53"/><polygon class="cls-9" points="392.65 162.88 377.96 148.4 392.82 122.68 408.04 147.27 392.65 162.88"/><polygon class="cls-9" points="392.68 154.8 383.9 146.14 392.79 130.76 401.88 145.46 392.68 154.8"/><polygon class="cls-9" points="392.72 146.71 389.84 143.88 392.75 138.85 395.73 143.66 392.72 146.71"/></g><path class="cls-1" d="M913.68,103.18c-13.34,0-23.1,9.3-26.32,21.69h53C937,112.55,927,103.18,913.68,103.18Z"/><path class="cls-2" d="M940.47,139c-3.23,12.38-13,21.69-26.48,21.69-13.23,0-23.14-9.37-26.52-21.69H856c4.08,28.73,27.33,50.52,57.72,50.52s53.71-21.89,58-50.52Zm-48.69,33a4.48,4.48,0,0,1-4.42-4.54c0-2.5,2-3.6,4.42-3.6s3.53,1.56,3.53,4.07S894.23,172.06,891.78,172.06Zm44.55,0c-2.45,0-3.53-1.57-3.53-4.07s1.08-4.07,3.53-4.07,4.43,1.1,4.43,3.6A4.48,4.48,0,0,1,936.33,172.06Z"/><path class="cls-3" d="M879.9,150.53c0,2.5-1.08,4.07-3.53,4.07a4.49,4.49,0,0,1-4.43-4.53c0-2.51,2-3.61,4.43-3.61S879.9,148,879.9,150.53Z"/><path class="cls-3" d="M917.78,177.05c0,2.5-1.08,4.07-3.52,4.07a4.48,4.48,0,0,1-4.43-4.54c0-2.5,2-3.6,4.43-3.6S917.78,174.54,917.78,177.05Z"/><path class="cls-3" d="M948.21,150.53c0,2.5,1.09,4.07,3.53,4.07a4.48,4.48,0,0,0,4.43-4.53c0-2.51-2-3.61-4.43-3.61S948.21,148,948.21,150.53Z"/><g class="cls-13"><polygon class="cls-9" points="912.65 149.87 872.52 107.87 913.13 33.29 954.7 104.61 912.65 149.87"/><polygon class="cls-9" points="912.58 165.65 861.59 112.28 913.19 17.51 966.02 108.13 912.58 165.65"/><polygon class="cls-9" points="912.1 181.04 850.53 116.58 913.36 1.61 977.03 111.19 912.1 181.04"/><polygon class="cls-9" points="912.83 137.44 881.25 104.4 913.21 45.71 945.92 101.83 912.83 137.44"/><polygon class="cls-9" points="913.02 125 890 100.92 913.29 58.15 937.13 99.05 913.02 125"/><polygon class="cls-9" points="913.18 114.16 897.63 97.89 913.36 68.99 929.47 96.62 913.18 114.16"/><polygon class="cls-9" points="913.21 105.08 903.92 95.35 913.33 78.08 922.96 94.59 913.21 105.08"/><polygon class="cls-9" points="913.25 95.99 910.21 92.81 913.29 87.16 916.44 92.56 913.25 95.99"/></g><path class="cls-3" d="M560.7,129a1.91,1.91,0,0,1-2.09,1.69,2.7,2.7,0,0,1-2.71-2.7c0-1.5,1.21-2.16,2.71-2.16a1.92,1.92,0,0,1,2.1,1.73c9.12-4.5,15.7-12.1,15.7-24.42v-.33a24.83,24.83,0,0,0-7.29-18.29c-6.63-6.63-16.67-10.19-30.91-10.19H516V99.6h15.05c9.39,0,14.24,3.56,14.24,9.71v.32c0,6.64-5.34,9.88-14.89,9.88H516v22h18.61c10.52,0,15.38,4,15.38,10.2V152c0,6.64-5.51,10.36-15.06,10.36H516v25.25h22.49c27,0,42.9-11.82,42.9-31.24v-.32C581.43,141.38,573.43,133.64,560.7,129Zm-39.85,1.69a2.7,2.7,0,0,1-2.7-2.7c0-1.5,1.21-2.16,2.7-2.16s2.16.94,2.16,2.43S522.35,130.71,520.85,130.71Zm18.88,0A2.71,2.71,0,0,1,537,128c0-1.5,1.22-2.16,2.71-2.16s2.16.94,2.16,2.43S541.23,130.71,539.73,130.71Z"/><path class="cls-2" d="M532.45,128.28c0,1.5-.66,2.43-2.16,2.43a2.7,2.7,0,0,1-2.7-2.7c0-1.5,1.21-2.16,2.7-2.16S532.45,126.79,532.45,128.28Z"/><path class="cls-2" d="M551.33,128.28c0,1.5-.67,2.43-2.16,2.43a2.7,2.7,0,0,1-2.71-2.7c0-1.5,1.21-2.16,2.71-2.16S551.33,126.79,551.33,128.28Z"/><path class="cls-14" d="M516.36,155.45c-.16,5.11,0,4.62,0,4.62"/><path class="cls-14" d="M518.78,155.45c-.16,5.11,0,4.62,0,4.62"/><path class="cls-14" d="M521.1,155.45c-.17,5.11,0,4.62,0,4.62"/><path class="cls-14" d="M528.87,155.43c-5.11-.16-4.62,0-4.62,0"/><path class="cls-14" d="M528.87,157.86c-5.11-.17-4.62,0-4.62,0"/><path class="cls-14" d="M528.87,160.17c-5.11-.16-4.62,0-4.62,0"/><path class="cls-14" d="M532.57,155.45c-.17,5.11,0,4.62,0,4.62"/><path class="cls-14" d="M535,155.45c-.17,5.11,0,4.62,0,4.62"/><path class="cls-14" d="M537.31,155.45c-.17,5.11,0,4.62,0,4.62"/><path class="cls-14" d="M545.07,155.43c-5.1-.16-4.61,0-4.61,0"/><path class="cls-14" d="M545.07,157.86c-5.1-.17-4.61,0-4.61,0"/><path class="cls-14" d="M545.07,160.17c-5.1-.16-4.61,0-4.61,0"/><path class="cls-14" d="M516.36,101.49c-.16,5.1,0,4.61,0,4.61"/><path class="cls-14" d="M518.78,101.49c-.16,5.1,0,4.61,0,4.61"/><path class="cls-14" d="M521.1,101.49c-.17,5.1,0,4.61,0,4.61"/><path class="cls-14" d="M528.87,101.47c-5.11-.17-4.62,0-4.62,0"/><path class="cls-14" d="M528.87,103.89c-5.11-.17-4.62,0-4.62,0"/><path class="cls-14" d="M528.87,106.21c-5.11-.17-4.62,0-4.62,0"/><path class="cls-14" d="M532.57,101.49c-.17,5.1,0,4.61,0,4.61"/><path class="cls-14" d="M535,101.49c-.17,5.1,0,4.61,0,4.61"/><path class="cls-14" d="M537.31,101.49c-.17,5.1,0,4.61,0,4.61"/><path class="cls-15" d="M540.61,101.47c-.18-.17-.16,0-.16,0"/><path class="cls-14" d="M542.73,103.89c-2.52-.17-2.28,0-2.28,0"/><path class="cls-14" d="M543.83,106.21c-3.73-.17-3.38,0-3.38,0"/><g class="cls-16"><polygon class="cls-9" points="491.86 185.99 451.61 144.19 495.29 72.94 536.29 143.21 491.86 185.99"/><polygon class="cls-9" points="491.39 201.29 440.25 148.17 495.75 57.63 547.85 146.94 491.39 201.29"/><polygon class="cls-9" points="492.36 173.95 460.69 141.05 495.06 84.99 527.32 140.29 492.36 173.95"/><polygon class="cls-9" points="492.87 161.88 469.78 137.91 494.83 97.06 518.34 137.35 492.87 161.88"/><polygon class="cls-9" points="493.3 151.37 477.71 135.18 494.63 107.57 510.52 134.8 493.3 151.37"/><polygon class="cls-9" points="493.57 142.56 484.25 132.88 494.37 116.38 503.86 132.66 493.57 142.56"/><polygon class="cls-9" points="493.84 133.75 490.79 130.59 494.1 125.19 497.2 130.51 493.84 133.75"/><line class="cls-9" x1="491.86" y1="200.93" x2="491.26" y2="232.87"/></g><g class="cls-17"><polygon class="cls-9" points="1009.85 195.83 965.73 152.32 1010.38 75.05 1056.09 148.94 1009.85 195.83"/><polygon class="cls-9" points="1009.78 212.18 953.71 156.89 1010.45 58.7 1068.54 152.59 1009.78 212.18"/><polygon class="cls-9" points="1009.7 230.87 939.97 162.11 1010.53 40.01 1082.77 156.76 1009.7 230.87"/><polygon class="cls-9" points="1010.05 182.96 975.33 148.72 1010.47 87.92 1046.44 146.06 1010.05 182.96"/><polygon class="cls-9" points="1010.26 170.07 984.96 145.12 1010.56 100.81 1036.77 143.18 1010.26 170.07"/><polygon class="cls-9" points="1010.43 158.84 993.34 141.98 1010.64 112.04 1028.35 140.67 1010.43 158.84"/><polygon class="cls-9" points="1010.48 149.42 1000.26 139.35 1010.6 121.45 1021.19 138.56 1010.48 149.42"/><polygon class="cls-9" points="1010.52 140.01 1007.17 136.72 1010.56 130.86 1014.02 136.46 1010.52 140.01"/></g><path class="cls-3" d="M1057.38,74.35v57.23l-39.26-57.23h-13.93l79.37,107.28V74.35Zm14,81.66c-2.21,0-3.58-1-3.58-3.18a4,4,0,0,1,4-4c2.2,0,3.17,1.79,3.17,4S1073.62,156,1071.42,156Zm0-27.83c-2.21,0-3.58-1-3.58-3.18a4,4,0,0,1,4-4c2.2,0,3.17,1.79,3.17,4S1073.62,128.18,1071.42,128.18Zm0-27.83c-2.21,0-3.58-1-3.58-3.18a4,4,0,0,1,4-4c2.2,0,3.17,1.79,3.17,4S1073.62,100.35,1071.42,100.35Z"/><path class="cls-2" d="M1071.42,86.44c-2.21,0-3.58-1-3.58-3.18a4,4,0,0,1,4-4c2.2,0,3.17,1.78,3.17,4S1073.62,86.44,1071.42,86.44Z"/><path class="cls-2" d="M1071.42,114.27c-2.21,0-3.58-1-3.58-3.18a4,4,0,0,1,4-4c2.2,0,3.17,1.78,3.17,4S1073.62,114.27,1071.42,114.27Z"/><path class="cls-2" d="M1071.42,142.1c-2.21,0-3.58-1-3.58-3.18a4,4,0,0,1,4-4c2.2,0,3.17,1.78,3.17,4S1073.62,142.1,1071.42,142.1Z"/><path class="cls-2" d="M591.83,74.35V121h32V74.35Zm16.41,26.38a3.82,3.82,0,0,1-3.81-3.82c0-2.1,1.71-3,3.81-3s3,1.32,3,3.42S610.35,100.73,608.24,100.73Z"/><path class="cls-3" d="M611.28,82.55c0,2.11-.93,3.43-3,3.43a3.82,3.82,0,0,1-3.81-3.82c0-2.1,1.71-3,3.81-3S611.28,80.45,611.28,82.55Z"/><path class="cls-3" d="M611.28,112.05c0,2.11-.93,3.42-3,3.42a3.81,3.81,0,0,1-3.81-3.81c0-2.11,1.71-3,3.81-3S611.28,109.94,611.28,112.05Z"/><g class="cls-18"><polygon class="cls-9" points="607.12 238.75 566.37 198.56 607.61 127.19 649.84 195.43 607.12 238.75"/><polygon class="cls-9" points="607.06 253.84 555.27 202.78 607.68 112.09 661.33 198.81 607.06 253.84"/><polygon class="cls-9" points="607.31 226.86 575.25 195.24 607.7 139.08 640.92 192.78 607.31 226.86"/><polygon class="cls-9" points="607.5 214.95 584.13 191.91 607.78 150.99 631.99 190.11 607.5 214.95"/><polygon class="cls-9" points="607.66 204.58 591.87 189.01 607.85 161.36 624.21 187.8 607.66 204.58"/><polygon class="cls-9" points="607.7 195.88 598.26 186.58 607.82 170.05 617.59 185.85 607.7 195.88"/><polygon class="cls-9" points="607.74 187.19 604.65 184.15 607.78 178.74 610.98 183.91 607.74 187.19"/></g><path class="cls-3" d="M815.45,74.35V121h31.3V74.35Zm16,26.38a3.78,3.78,0,0,1-3.73-3.82c0-2.1,1.67-3,3.73-3s3,1.32,3,3.42S833.53,100.73,831.48,100.73Z"/><path class="cls-2" d="M834.44,82.55c0,2.11-.91,3.43-3,3.43a3.78,3.78,0,0,1-3.73-3.82c0-2.1,1.67-3,3.73-3S834.44,80.45,834.44,82.55Z"/><path class="cls-2" d="M834.44,112.05c0,2.11-.91,3.42-3,3.42a3.77,3.77,0,0,1-3.73-3.81c0-2.11,1.67-3,3.73-3S834.44,109.94,834.44,112.05Z"/><g class="cls-19"><polygon class="cls-9" points="830.38 238.75 790.57 198.56 830.86 127.19 872.11 195.43 830.38 238.75"/><polygon class="cls-9" points="830.32 253.84 779.73 202.78 830.93 112.09 883.33 198.81 830.32 253.84"/><polygon class="cls-9" points="830.57 226.86 799.24 195.24 830.94 139.08 863.39 192.78 830.57 226.86"/><polygon class="cls-9" points="830.75 214.95 807.92 191.91 831.02 150.99 854.67 190.11 830.75 214.95"/><polygon class="cls-9" points="830.91 204.58 815.49 189.01 831.1 161.36 847.08 187.8 830.91 204.58"/><polygon class="cls-9" points="830.95 195.88 821.73 186.58 831.06 170.05 840.61 185.85 830.95 195.88"/><polygon class="cls-9" points="830.99 187.19 827.97 184.15 831.02 178.74 834.15 183.91 830.99 187.19"/></g><path class="cls-3" d="M639.23,74.35v115h28.22v-115Zm14.57,83.87a4.52,4.52,0,0,1-4.52-4.52c0-2.5,2-3.6,4.52-3.6s3.61,1.57,3.61,4.06S656.3,158.22,653.8,158.22Zm0-42.3a4.52,4.52,0,0,1-4.52-4.52c0-2.5,2-3.6,4.52-3.6s3.61,1.57,3.61,4.06S656.3,115.92,653.8,115.92Z"/><path class="cls-2" d="M657.41,89.47c0,2.5-1.11,4.06-3.61,4.06A4.52,4.52,0,0,1,649.28,89c0-2.5,2-3.6,4.52-3.6S657.41,87,657.41,89.47Z"/><path class="cls-2" d="M657.41,133.5c0,2.49-1.11,4.06-3.61,4.06a4.53,4.53,0,0,1-4.52-4.53c0-2.5,2-3.59,4.52-3.59S657.41,131,657.41,133.5Z"/><path class="cls-2" d="M657.41,174.83c0,2.5-1.11,4.06-3.61,4.06a4.52,4.52,0,0,1-4.52-4.52c0-2.5,2-3.6,4.52-3.6S657.41,172.33,657.41,174.83Z"/><g class="cls-20"><polygon class="cls-9" points="751.04 176.12 712.52 215.18 644.12 175.65 709.52 135.18 751.04 176.12"/><polygon class="cls-9" points="765.51 176.18 716.56 225.81 629.65 175.58 712.76 124.16 765.51 176.18"/><polygon class="cls-9" points="739.64 175.94 709.33 206.67 655.51 175.57 706.98 143.72 739.64 175.94"/><polygon class="cls-9" points="728.23 175.75 706.14 198.15 666.92 175.49 704.43 152.28 728.23 175.75"/><polygon class="cls-9" points="718.29 175.6 703.37 190.73 676.86 175.42 702.2 159.74 718.29 175.6"/><polygon class="cls-9" points="709.96 175.56 701.04 184.61 685.2 175.45 700.34 166.08 709.96 175.56"/><polygon class="cls-9" points="701.63 175.53 698.71 178.49 693.53 175.49 698.48 172.42 701.63 175.53"/></g><path class="cls-2" d="M728,74.35v115h28.22v-115Zm14.57,83.87A4.52,4.52,0,0,1,738,153.7c0-2.5,2-3.6,4.52-3.6s3.61,1.57,3.61,4.06S745,158.22,742.53,158.22Zm0-42.3A4.52,4.52,0,0,1,738,111.4c0-2.5,2-3.6,4.52-3.6s3.61,1.57,3.61,4.06S745,115.92,742.53,115.92Z"/><path class="cls-3" d="M746.14,89.47c0,2.5-1.11,4.06-3.61,4.06A4.52,4.52,0,0,1,738,89c0-2.5,2-3.6,4.52-3.6S746.14,87,746.14,89.47Z"/><path class="cls-3" d="M746.14,133.5c0,2.49-1.11,4.06-3.61,4.06A4.53,4.53,0,0,1,738,133c0-2.5,2-3.59,4.52-3.59S746.14,131,746.14,133.5Z"/><path class="cls-3" d="M746.14,174.83c0,2.5-1.11,4.06-3.61,4.06a4.52,4.52,0,0,1-4.52-4.52c0-2.5,2-3.6,4.52-3.6S746.14,172.33,746.14,174.83Z"/><g class="cls-21"><polygon class="cls-9" points="839.77 176.12 801.25 215.18 732.85 175.65 798.25 135.18 839.77 176.12"/><polygon class="cls-9" points="854.24 176.18 805.29 225.81 718.38 175.58 801.49 124.16 854.24 176.18"/><polygon class="cls-9" points="828.37 175.94 798.06 206.67 744.24 175.57 795.71 143.72 828.37 175.94"/><polygon class="cls-9" points="816.96 175.75 794.87 198.15 755.65 175.49 793.15 152.28 816.96 175.75"/><polygon class="cls-9" points="807.02 175.6 792.09 190.73 765.59 175.42 790.93 159.74 807.02 175.6"/><polygon class="cls-9" points="798.69 175.56 789.76 184.61 773.92 175.45 789.07 166.08 798.69 175.56"/><polygon class="cls-9" points="790.36 175.53 787.44 178.49 782.25 175.49 787.21 172.42 790.36 175.53"/></g><path class="cls-2" d="M298.86,246.24v25.19h50.93V246.24ZM312.15,261a2.43,2.43,0,0,1-2.44-2.43c0-1.34,1.09-1.93,2.44-1.93s1.93.84,1.93,2.18S313.49,261,312.15,261Zm17,0a2.43,2.43,0,0,1-2.43-2.43c0-1.34,1.09-1.93,2.43-1.93s1.94.84,1.94,2.18S330.45,261,329.1,261Zm17,0a2.43,2.43,0,0,1-2.43-2.43c0-1.34,1.09-1.93,2.43-1.93s1.94.84,1.94,2.18S347.4,261,346.06,261Z"/><path class="cls-3" d="M305.6,258.84c0,1.34-.59,2.18-1.93,2.18a2.42,2.42,0,0,1-2.43-2.43c0-1.34,1.08-1.93,2.43-1.93S305.6,257.5,305.6,258.84Z"/><path class="cls-3" d="M322.56,258.84c0,1.34-.59,2.18-1.94,2.18a2.43,2.43,0,0,1-2.43-2.43c0-1.34,1.09-1.93,2.43-1.93S322.56,257.5,322.56,258.84Z"/><path class="cls-3" d="M339.52,258.84c0,1.34-.6,2.18-1.94,2.18a2.43,2.43,0,0,1-2.43-2.43c0-1.34,1.09-1.93,2.43-1.93S339.52,257.5,339.52,258.84Z"/><path class="cls-4" d="M300,282.35c-.17,5.2,0,4.7,0,4.7"/><path class="cls-4" d="M302.46,282.35c-.17,5.2,0,4.7,0,4.7"/><path class="cls-4" d="M304.81,282.35c-.17,5.2,0,4.7,0,4.7"/><path class="cls-4" d="M312.71,282.34c-5.19-.17-4.69,0-4.69,0"/><path class="cls-4" d="M312.71,284.8c-5.19-.17-4.69,0-4.69,0"/><path class="cls-4" d="M312.71,287.16c-5.19-.17-4.69,0-4.69,0"/><path class="cls-4" d="M316.48,282.35c-.17,5.2,0,4.7,0,4.7"/><path class="cls-4" d="M318.94,282.35c-.17,5.2,0,4.7,0,4.7"/><path class="cls-4" d="M321.3,282.35c-.17,5.2,0,4.7,0,4.7"/><path class="cls-4" d="M329.2,282.34c-5.2-.17-4.7,0-4.7,0"/><path class="cls-4" d="M329.2,284.8c-5.2-.17-4.7,0-4.7,0"/><path class="cls-4" d="M329.2,287.16c-5.2-.17-4.7,0-4.7,0"/><path class="cls-4" d="M333,282.35c-.17,5.2,0,4.7,0,4.7"/><path class="cls-4" d="M335.42,282.35c-.17,5.2,0,4.7,0,4.7"/><path class="cls-4" d="M337.78,282.35c-.17,5.2,0,4.7,0,4.7"/><path class="cls-4" d="M345.68,282.34c-5.19-.17-4.69,0-4.69,0"/><path class="cls-4" d="M345.68,284.8c-5.19-.17-4.69,0-4.69,0"/><path class="cls-4" d="M345.68,287.16c-5.19-.17-4.69,0-4.69,0"/><path class="cls-4" d="M300,231c-.17,5.19,0,4.69,0,4.69"/><path class="cls-4" d="M302.46,231c-.17,5.19,0,4.69,0,4.69"/><path class="cls-4" d="M304.81,231c-.17,5.19,0,4.69,0,4.69"/><path class="cls-4" d="M312.71,231c-5.19-.17-4.69,0-4.69,0"/><path class="cls-4" d="M312.71,233.44c-5.19-.17-4.69,0-4.69,0"/><path class="cls-4" d="M312.71,235.8c-5.19-.17-4.69,0-4.69,0"/><path class="cls-4" d="M316.48,231c-.17,5.19,0,4.69,0,4.69"/><path class="cls-4" d="M318.94,231c-.17,5.19,0,4.69,0,4.69"/><path class="cls-4" d="M321.3,231c-.17,5.19,0,4.69,0,4.69"/><path class="cls-4" d="M329.2,231c-5.2-.17-4.7,0-4.7,0"/><path class="cls-4" d="M329.2,233.44c-5.2-.17-4.7,0-4.7,0"/><path class="cls-4" d="M329.2,235.8c-5.2-.17-4.7,0-4.7,0"/><path class="cls-4" d="M333,231c-.17,5.19,0,4.69,0,4.69"/><path class="cls-4" d="M335.42,231c-.17,5.19,0,4.69,0,4.69"/><path class="cls-4" d="M337.78,231c-.17,5.19,0,4.69,0,4.69"/><path class="cls-4" d="M345.68,231c-5.19-.17-4.69,0-4.69,0"/><path class="cls-4" d="M345.68,233.44c-5.19-.17-4.69,0-4.69,0"/><path class="cls-4" d="M345.68,235.8c-5.19-.17-4.69,0-4.69,0"/><g class="cls-22"><polygon class="cls-9" points="277.61 315.64 236.89 275.5 278.09 204.2 320.27 272.38 277.61 315.64"/><polygon class="cls-9" points="277.54 330.73 225.81 279.71 278.16 189.12 331.76 275.75 277.54 330.73"/><polygon class="cls-9" points="277.79 303.77 245.76 272.18 278.18 216.08 311.37 269.72 277.79 303.77"/><polygon class="cls-9" points="277.98 291.87 254.63 268.85 278.26 227.97 302.45 267.06 277.98 291.87"/><polygon class="cls-9" points="278.14 281.51 262.37 265.95 278.33 238.33 294.68 264.75 278.14 281.51"/><polygon class="cls-9" points="278.18 272.83 268.75 263.53 278.3 247.02 288.06 262.81 278.18 272.83"/><polygon class="cls-9" points="278.22 264.14 275.13 261.1 278.26 255.7 281.45 260.86 278.22 264.14"/></g><rect class="cls-2" x="298.86" y="289.71" width="57.52" height="27.17"/><rect class="cls-2" x="298.86" y="201.62" width="56.7" height="27.17"/><path class="cls-2" d="M494.21,201.39v22.68H597.64V201.39Zm24.07,13.38a2.71,2.71,0,0,1-2.71-2.71c0-1.5,1.21-2.16,2.71-2.16s2.16.94,2.16,2.43S519.78,214.77,518.28,214.77Zm27.42,0a2.72,2.72,0,0,1-2.71-2.71c0-1.5,1.22-2.16,2.71-2.16s2.16.94,2.16,2.43S547.2,214.77,545.7,214.77Zm28.18,0a2.71,2.71,0,0,1-2.71-2.71c0-1.5,1.21-2.16,2.71-2.16s2.16.94,2.16,2.43S575.37,214.77,573.88,214.77Z"/><path class="cls-3" d="M506.75,212.33c0,1.5-.66,2.44-2.16,2.44a2.72,2.72,0,0,1-2.71-2.71c0-1.5,1.22-2.16,2.71-2.16S506.75,210.84,506.75,212.33Z"/><path class="cls-3" d="M534.18,212.33c0,1.5-.67,2.44-2.16,2.44a2.71,2.71,0,0,1-2.71-2.71c0-1.5,1.21-2.16,2.71-2.16S534.18,210.84,534.18,212.33Z"/><path class="cls-3" d="M562.35,212.33c0,1.5-.66,2.44-2.16,2.44a2.71,2.71,0,0,1-2.71-2.71c0-1.5,1.21-2.16,2.71-2.16S562.35,210.84,562.35,212.33Z"/><path class="cls-3" d="M589.77,212.33c0,1.5-.66,2.44-2.16,2.44a2.72,2.72,0,0,1-2.71-2.71c0-1.5,1.22-2.16,2.71-2.16S589.77,210.84,589.77,212.33Z"/><g class="cls-23"><polygon class="cls-9" points="545.06 326.86 504.71 287.07 545.54 216.41 587.34 283.98 545.06 326.86"/><polygon class="cls-9" points="544.99 341.81 493.72 291.25 545.61 201.47 598.72 287.32 544.99 341.81"/><polygon class="cls-9" points="545.24 315.09 513.49 283.78 545.62 228.19 578.51 281.35 545.24 315.09"/><polygon class="cls-9" points="545.43 303.3 522.29 280.49 545.71 239.97 569.67 278.71 545.43 303.3"/><polygon class="cls-9" points="545.59 293.03 529.96 277.62 545.78 250.24 561.97 276.42 545.59 293.03"/><polygon class="cls-9" points="545.63 284.43 536.28 275.21 545.74 258.85 555.42 274.49 545.63 284.43"/><polygon class="cls-9" points="545.66 275.82 542.61 272.8 545.7 267.45 548.87 272.57 545.66 275.82"/></g><path class="cls-1" d="M647.5,230.86c-13.34,0-23.1,9.31-26.33,21.7h53C670.78,240.24,660.85,230.86,647.5,230.86Z"/><path class="cls-3" d="M674.28,266.73c-3.23,12.38-13,21.69-26.47,21.69-13.23,0-23.14-9.37-26.52-21.69H589.77c4.09,28.73,27.34,50.52,57.73,50.52s53.71-21.9,58-50.52Zm-48.68,33a4.49,4.49,0,0,1-4.43-4.54c0-2.5,2-3.6,4.43-3.6s3.53,1.56,3.53,4.07S628.05,299.75,625.6,299.75Zm44.55,0c-2.45,0-3.53-1.57-3.53-4.07s1.08-4.07,3.53-4.07,4.43,1.1,4.43,3.6A4.49,4.49,0,0,1,670.15,299.75Z"/><path class="cls-2" d="M613.72,278.22c0,2.5-1.09,4.07-3.53,4.07a4.48,4.48,0,0,1-4.43-4.54c0-2.5,2-3.6,4.43-3.6S613.72,275.71,613.72,278.22Z"/><path class="cls-2" d="M651.6,304.73c0,2.51-1.08,4.07-3.53,4.07a4.49,4.49,0,0,1-4.43-4.53c0-2.5,2-3.61,4.43-3.61S651.6,302.23,651.6,304.73Z"/><path class="cls-2" d="M682,278.22c0,2.5,1.08,4.07,3.53,4.07a4.49,4.49,0,0,0,4.43-4.54c0-2.5-2-3.6-4.43-3.6S682,275.71,682,278.22Z"/><g class="cls-24"><polygon class="cls-9" points="646.46 277.56 606.33 235.56 646.95 160.98 688.52 232.29 646.46 277.56"/><polygon class="cls-9" points="646.4 293.34 595.4 239.97 647.01 145.2 699.84 235.82 646.4 293.34"/><polygon class="cls-9" points="645.92 308.73 584.35 244.27 647.18 129.3 710.84 238.88 645.92 308.73"/><polygon class="cls-9" points="646.65 265.13 615.07 232.09 647.03 173.4 679.74 229.52 646.65 265.13"/><polygon class="cls-9" points="646.83 252.69 623.82 228.61 647.11 185.84 670.95 226.74 646.83 252.69"/><polygon class="cls-9" points="646.99 241.85 631.45 225.58 647.18 196.68 663.29 224.31 646.99 241.85"/><polygon class="cls-9" points="647.03 232.76 637.74 223.04 647.14 205.76 656.77 222.28 647.03 232.76"/><polygon class="cls-9" points="647.07 223.68 644.03 220.5 647.11 214.85 650.25 220.25 647.07 223.68"/></g><polyline class="cls-3" points="410.68 296.81 454.79 296.81 463.13 317.24 497.11 317.24 448.42 202.05 447.83 202.05 432.9 239.63 445.64 272.14 419.99 272.14"/><path class="cls-25" d="M409.84,299.13c-.17,5.15,0,4.65,0,4.65"/><path class="cls-25" d="M412.28,299.13c-.17,5.15,0,4.65,0,4.65"/><path class="cls-25" d="M414.62,299.13c-.17,5.15,0,4.65,0,4.65"/><path class="cls-25" d="M422.46,299.11c-5.15-.17-4.66,0-4.66,0"/><path class="cls-25" d="M422.46,301.55c-5.15-.17-4.66,0-4.66,0"/><path class="cls-25" d="M422.46,303.89c-5.15-.17-4.66,0-4.66,0"/><path class="cls-25" d="M426.2,299.13c-.17,5.15,0,4.65,0,4.65"/><path class="cls-25" d="M428.64,299.13c-.17,5.15,0,4.65,0,4.65"/><path class="cls-25" d="M431,299.13c-.17,5.15,0,4.65,0,4.65"/><path class="cls-25" d="M438.82,299.11c-5.15-.17-4.66,0-4.66,0"/><path class="cls-25" d="M438.82,301.55c-5.15-.17-4.66,0-4.66,0"/><path class="cls-25" d="M438.82,303.89c-5.15-.17-4.66,0-4.66,0"/><path class="cls-25" d="M442.55,299.13c-.16,5.15,0,4.65,0,4.65"/><path class="cls-25" d="M445,299.13c-.17,5.15,0,4.65,0,4.65"/><path class="cls-25" d="M447.34,299.13c-.17,5.15,0,4.65,0,4.65"/><path class="cls-25" d="M455.18,299.11c-5.16-.17-4.66,0-4.66,0"/><path class="cls-25" d="M455.18,301.55c-5.16-.17-4.66,0-4.66,0"/><path class="cls-25" d="M455.18,303.89c-5.16-.17-4.66,0-4.66,0"/><path class="cls-2" d="M456.29,209.44c-.9.37-1.62.2-2-.69a1.75,1.75,0,0,1,.95-2.29c.89-.37,1.59.19,2,1.08S457.18,209.07,456.29,209.44Z"/><path class="cls-2" d="M458.63,215.09c-.9.37-1.62.2-2-.69a1.75,1.75,0,0,1,.95-2.29c.89-.37,1.59.19,2,1.08S459.52,214.72,458.63,215.09Z"/><path class="cls-2" d="M461,220.74c-.9.37-1.62.2-2-.69a1.75,1.75,0,0,1,.95-2.29c.89-.37,1.59.19,2,1.08S461.86,220.37,461,220.74Z"/><path class="cls-2" d="M463.31,226.38c-.9.38-1.62.21-2-.68a1.75,1.75,0,0,1,.95-2.29c.89-.38,1.59.19,2,1.08S464.2,226,463.31,226.38Z"/><path class="cls-2" d="M465.65,232c-.9.37-1.62.21-2-.68a1.76,1.76,0,0,1,.95-2.3c.89-.37,1.59.2,2,1.09S466.54,231.66,465.65,232Z"/><path class="cls-2" d="M468,237.68c-.9.37-1.62.21-2-.68a1.76,1.76,0,0,1,.95-2.3c.89-.37,1.59.2,2,1.09S468.88,237.31,468,237.68Z"/><path class="cls-2" d="M470.33,243.33c-.9.37-1.62.21-2-.69a1.75,1.75,0,0,1,1-2.29c.89-.37,1.59.19,2,1.09S471.22,243,470.33,243.33Z"/><path class="cls-2" d="M472.67,249c-.9.37-1.62.21-2-.69a1.75,1.75,0,0,1,.95-2.29c.89-.37,1.59.19,2,1.09S473.56,248.61,472.67,249Z"/><path class="cls-2" d="M475,254.63c-.9.37-1.62.21-2-.69a1.75,1.75,0,0,1,1-2.29c.89-.37,1.59.19,2,1.09S475.9,254.26,475,254.63Z"/><path class="cls-2" d="M477.35,260.28c-.9.37-1.62.21-2-.69a1.75,1.75,0,0,1,.95-2.29c.89-.37,1.58.19,2,1.09S478.24,259.91,477.35,260.28Z"/><path class="cls-2" d="M479.68,265.93c-.89.37-1.61.21-2-.69a1.75,1.75,0,0,1,.95-2.29c.89-.37,1.58.19,2,1.09S480.58,265.56,479.68,265.93Z"/><path class="cls-2" d="M482,271.58c-.89.37-1.61.21-2-.69a1.75,1.75,0,0,1,.94-2.29c.9-.37,1.59.19,2,1.09S482.92,271.21,482,271.58Z"/><path class="cls-2" d="M484.36,277.23a1.34,1.34,0,0,1-2-.69,1.76,1.76,0,0,1,.95-2.29c.9-.37,1.59.19,2,1.09S485.26,276.86,484.36,277.23Z"/><path class="cls-2" d="M486.7,282.88a1.34,1.34,0,0,1-2-.69,1.76,1.76,0,0,1,1-2.29c.9-.37,1.59.19,2,1.08S487.6,282.51,486.7,282.88Z"/><path class="cls-2" d="M489,288.53a1.34,1.34,0,0,1-2-.69,1.76,1.76,0,0,1,.95-2.29c.9-.37,1.59.19,2,1.08S489.94,288.16,489,288.53Z"/><path class="cls-2" d="M491.38,294.18a1.34,1.34,0,0,1-2-.69,1.76,1.76,0,0,1,.95-2.29c.9-.37,1.59.19,2,1.08S492.28,293.81,491.38,294.18Z"/><path class="cls-2" d="M493.72,299.83a1.34,1.34,0,0,1-2-.69,1.76,1.76,0,0,1,.95-2.29c.9-.38,1.59.19,2,1.08S494.62,299.45,493.72,299.83Z"/><path class="cls-2" d="M496.06,305.47a1.33,1.33,0,0,1-2-.68,1.77,1.77,0,0,1,.95-2.3c.9-.37,1.59.2,2,1.09S497,305.1,496.06,305.47Z"/><path class="cls-2" d="M498.4,311.12c-.89.37-1.62.21-2-.68a1.77,1.77,0,0,1,.95-2.3c.9-.37,1.59.2,2,1.09S499.3,310.75,498.4,311.12Z"/><path class="cls-2" d="M500.74,316.77c-.89.37-1.62.21-2-.69a1.76,1.76,0,0,1,.95-2.29c.9-.37,1.59.2,2,1.09S501.64,316.4,500.74,316.77Z"/><polygon class="cls-1" points="445.64 272.14 432.9 239.63 419.99 272.14 445.64 272.14"/><g class="cls-26"><polygon class="cls-9" points="384.31 303.29 364.06 254.72 424.42 208.9 435.93 281.77 384.31 303.29"/><polygon class="cls-9" points="378.88 316.07 353.15 254.35 429.85 196.12 444.48 288.72 378.88 316.07"/><polygon class="cls-9" points="388.7 293.28 372.77 255.06 420.26 219 429.32 276.34 388.7 293.28"/><polygon class="cls-9" points="393.1 283.25 381.49 255.4 416.09 229.13 422.69 270.91 393.1 283.25"/><polygon class="cls-9" points="396.93 274.52 389.08 255.7 412.46 237.94 416.93 266.18 396.93 274.52"/><polygon class="cls-9" points="400.05 267.16 395.36 255.91 409.34 245.3 412.01 262.18 400.05 267.16"/><polygon class="cls-9" points="403.18 259.81 401.64 256.13 406.21 252.65 407.09 258.18 403.18 259.81"/></g><path class="cls-1" d="M210.83,257.76c10.7,0,16.86-5.18,16.86-13.45V244c0-8.91-6.49-13.45-17-13.45h-16.4v27.23Z"/><path class="cls-3" d="M153.33,201V315.9h28.19V201Zm14.55,83.8a4.52,4.52,0,0,1-4.52-4.52c0-2.49,2-3.59,4.52-3.59s3.6,1.56,3.6,4.06S170.38,284.76,167.88,284.76Zm0-42.26a4.52,4.52,0,0,1-4.52-4.52c0-2.49,2-3.59,4.52-3.59s3.6,1.56,3.6,4.05S170.38,242.5,167.88,242.5Z"/><path class="cls-2" d="M171.48,216.07c0,2.5-1.1,4.06-3.6,4.06a4.53,4.53,0,0,1-4.52-4.52c0-2.5,2-3.59,4.52-3.59S171.48,213.58,171.48,216.07Z"/><path class="cls-2" d="M171.48,260.06c0,2.49-1.1,4.05-3.6,4.05a4.52,4.52,0,0,1-4.52-4.52c0-2.49,2-3.59,4.52-3.59S171.48,257.56,171.48,260.06Z"/><path class="cls-2" d="M171.48,301.36c0,2.49-1.1,4.05-3.6,4.05a4.52,4.52,0,0,1-4.52-4.52c0-2.49,2-3.59,4.52-3.59S171.48,298.86,171.48,301.36Z"/><g class="cls-27"><polygon class="cls-9" points="233.43 323.26 185.15 273.9 234.01 186.25 284.03 270.06 233.43 323.26"/><polygon class="cls-9" points="233.35 341.8 172 279.08 234.09 167.71 297.64 274.2 233.35 341.8"/><polygon class="cls-9" points="233.25 365.23 155.39 285.63 234.19 144.28 314.85 279.44 233.25 365.23"/><polygon class="cls-9" points="233.65 308.65 195.66 269.82 234.11 200.85 273.46 266.8 233.65 308.65"/><polygon class="cls-9" points="233.87 294.03 206.19 265.73 234.21 215.47 262.89 263.53 233.87 294.03"/><polygon class="cls-9" points="234.07 281.29 215.36 262.17 234.29 228.21 253.67 260.68 234.07 281.29"/><polygon class="cls-9" points="234.11 270.62 222.93 259.19 234.25 238.88 245.83 258.3 234.11 270.62"/><polygon class="cls-9" points="234.16 259.94 230.5 256.2 234.2 249.56 237.99 255.91 234.16 259.94"/></g><path class="cls-2" d="M713.46,201.74V316.68h28.2V201.74ZM728,285.54A4.51,4.51,0,0,1,723.5,281c0-2.5,2-3.6,4.52-3.6s3.6,1.56,3.6,4.06S730.52,285.54,728,285.54Zm0-42.26a4.52,4.52,0,0,1-4.52-4.52c0-2.49,2-3.59,4.52-3.59s3.6,1.56,3.6,4.06S730.52,243.28,728,243.28Z"/><path class="cls-3" d="M731.62,216.85c0,2.5-1.1,4.06-3.6,4.06a4.52,4.52,0,0,1-4.52-4.52c0-2.49,2-3.59,4.52-3.59S731.62,214.36,731.62,216.85Z"/><path class="cls-3" d="M731.62,260.84c0,2.5-1.1,4.06-3.6,4.06a4.52,4.52,0,0,1-4.52-4.52c0-2.5,2-3.6,4.52-3.6S731.62,258.34,731.62,260.84Z"/><path class="cls-3" d="M731.62,302.14c0,2.49-1.1,4.05-3.6,4.05a4.51,4.51,0,0,1-4.52-4.51c0-2.5,2-3.6,4.52-3.6S731.62,299.64,731.62,302.14Z"/><g class="cls-28"><polygon class="cls-29" points="793.57 324.04 745.29 274.68 794.15 187.03 844.16 270.84 793.57 324.04"/><polygon class="cls-29" points="793.49 342.58 732.14 279.87 794.22 168.49 857.78 274.99 793.49 342.58"/><polygon class="cls-29" points="793.39 366.01 715.53 286.41 794.32 145.07 874.99 280.22 793.39 366.01"/><polygon class="cls-9" points="793.79 309.44 755.8 270.6 794.25 201.63 833.6 267.58 793.79 309.44"/><polygon class="cls-9" points="794.01 294.81 766.33 266.51 794.34 216.25 823.02 264.31 794.01 294.81"/><polygon class="cls-9" points="794.21 282.07 775.5 262.95 794.43 228.99 813.81 261.46 794.21 282.07"/><polygon class="cls-9" points="794.25 271.4 783.07 259.97 794.38 239.67 805.97 259.08 794.25 271.4"/><polygon class="cls-9" points="794.29 260.72 790.64 256.98 794.34 250.34 798.13 256.69 794.29 260.72"/></g><path class="cls-2" d="M98,201v28.09c8.92.9,15.37,5.7,21,12.8L142.13,224C132.74,211,119,201.72,98,201Zm13.14,15.67a1.88,1.88,0,0,1-1.89-1.89c0-1,.84-1.5,1.89-1.5s1.5.65,1.5,1.7S112.18,216.63,111.14,216.63Zm13,9.24a1.89,1.89,0,0,1-1.89-1.89c0-1,.85-1.5,1.89-1.5s1.51.65,1.51,1.69S125.17,225.87,124.12,225.87Z"/><path class="cls-3" d="M104.65,213.24c0,1-.46,1.7-1.51,1.7a1.9,1.9,0,0,1-1.89-1.9c0-1,.85-1.5,1.89-1.5S104.65,212.19,104.65,213.24Z"/><path class="cls-3" d="M120,218.3c0,1-.46,1.7-1.51,1.7a1.89,1.89,0,0,1-1.89-1.89c0-1.05.85-1.51,1.89-1.51S120,217.26,120,218.3Z"/><path class="cls-3" d="M130.48,230.62c0,1-.46,1.69-1.51,1.69a1.89,1.89,0,0,1-1.89-1.89c0-1,.85-1.5,1.89-1.5S130.48,229.57,130.48,230.62Z"/><path class="cls-1" d="M73.22,258.14v.31c0,13,6.72,23.81,17.09,27.85V230.62C79.94,234.68,73.22,245.48,73.22,258.14Z"/><g class="cls-30"><polygon class="cls-31" points="63.55 308.49 21.81 265.89 66.06 192.28 108.83 264.13 63.55 308.49"/><polygon class="cls-31" points="63.22 324.22 10.17 270.09 66.4 176.55 120.75 267.85 63.22 324.22"/><polygon class="cls-32" points="63.96 296.11 31.12 262.59 65.93 204.66 99.59 261.2 63.96 296.11"/><polygon class="cls-32" points="64.37 283.71 40.44 259.28 65.81 217.07 90.33 258.27 64.37 283.71"/><polygon class="cls-32" points="64.73 272.9 48.55 256.4 65.7 227.88 82.27 255.72 64.73 272.9"/><polygon class="cls-32" points="64.92 263.85 55.26 253.98 65.5 236.93 75.41 253.57 64.92 263.85"/><polygon class="cls-32" points="65.12 254.79 61.96 251.56 65.31 245.99 68.55 251.43 65.12 254.79"/><line class="cls-33" x1="63.69" y1="323.84" x2="63.36" y2="356.68"/></g><path class="cls-2" d="M119.84,274.58c-6,7.3-12.16,12.4-21.84,13.3v28c22-1.12,35.08-11.31,44.92-24.88Zm-7.43,26.08c-.46.94-1.24,1.07-2.19.62s-1.33-1.15-.87-2.09a1.89,1.89,0,0,1,2.52-.89C112.81,298.75,112.86,299.72,112.41,300.66ZM126.35,293c-.45.94-1.24,1.07-2.18.62s-1.33-1.15-.88-2.09a1.89,1.89,0,0,1,2.52-.89C126.76,291.05,126.8,292,126.35,293Z"/><path class="cls-3" d="M129.16,287.1c-.94-.45-1.33-1.15-.88-2.09a1.88,1.88,0,0,1,2.52-.89c.95.45,1,1.41.54,2.35S130.1,287.55,129.16,287.1Z"/><path class="cls-3" d="M118,298.75c-.94-.45-1.33-1.15-.87-2.09a1.88,1.88,0,0,1,2.52-.89c.94.45,1,1.41.54,2.35S118.9,299.2,118,298.75Z"/><path class="cls-3" d="M102.32,302.87c-.94-.46-1.33-1.15-.88-2.1a1.89,1.89,0,0,1,2.52-.88c.94.45,1,1.41.54,2.35A1.44,1.44,0,0,1,102.32,302.87Z"/><path class="cls-3" d="M866,260.89c-36.52-11.43-36.36-34-34.12-44.37a32.48,32.48,0,0,0-8.94,23v.31c0,22.67,18.11,29.28,41.56,34.63,15,3.47,18.58,6,18.58,10.55v.32c0,4.72-4.41,7.55-12.6,7.55-12.75,0-24.87-4.56-35.73-13.22l-17,20.31c13.54,12.12,32.11,18.26,51.63,18.26,26,0,43.52-12.62,44.51-34C904.36,275.33,889.19,268.14,866,260.89Zm-10,47.65a4.33,4.33,0,0,1-4.34-4.33c0-2.39,1.94-3.44,4.34-3.44s3.45,1.49,3.45,3.89S858.43,308.54,856,308.54Zm35.1-4.86a4.33,4.33,0,0,1-4.33-4.33c0-2.39,1.94-3.44,4.33-3.44s3.45,1.49,3.45,3.88S893.53,303.68,891.14,303.68Z"/><g class="cls-34"><polygon class="cls-29" points="880.29 273.98 838.51 231.27 880.79 155.41 924.08 227.94 880.29 273.98"/><polygon class="cls-29" points="880.22 290.03 827.13 235.75 880.86 139.37 935.87 231.53 880.22 290.03"/><polygon class="cls-29" points="880.14 310.3 812.76 241.42 880.95 119.09 950.75 236.06 880.14 310.3"/><polygon class="cls-29" points="880.48 261.34 847.61 227.73 880.88 168.05 914.94 225.12 880.48 261.34"/><polygon class="cls-29" points="880.68 248.69 856.72 224.2 880.96 180.7 905.78 222.29 880.68 248.69"/><polygon class="cls-29" points="880.84 237.66 864.65 221.11 881.04 191.72 897.81 219.83 880.84 237.66"/><polygon class="cls-29" points="880.88 228.43 871.21 218.53 881 200.96 891.02 217.76 880.88 228.43"/><polygon class="cls-29" points="880.92 219.19 877.76 215.95 880.96 210.2 884.24 215.7 880.92 219.19"/></g><path class="cls-2" d="M843.08,296.88c0,2.39-1.06,3.89-3.45,3.89a4.33,4.33,0,0,1-4.33-4.34c0-2.39,1.94-3.44,4.33-3.44S843.08,294.48,843.08,296.88Z"/><path class="cls-2" d="M877.82,307.57c0,2.4-1.06,3.89-3.45,3.89a4.33,4.33,0,0,1-4.34-4.33c0-2.39,1.94-3.45,4.34-3.45S877.82,305.18,877.82,307.57Z"/><path class="cls-2" d="M901.34,283.23c0,2.39-1.06,3.89-3.46,3.89a4.33,4.33,0,0,1-4.33-4.33c0-2.4,1.94-3.45,4.33-3.45S901.34,280.84,901.34,283.23Z"/></g></g></svg>