<svg xmlns="http://www.w3.org/2000/svg" xmlns:xlink="http://www.w3.org/1999/xlink" viewBox="0 0 1083.57 366.08"><defs><style>.cls-1,.cls-10,.cls-12,.cls-13,.cls-16,.cls-17,.cls-19,.cls-20,.cls-21,.cls-22,.cls-23,.cls-24,.cls-25,.cls-27,.cls-28,.cls-31,.cls-32,.cls-34,.cls-35,.cls-37,.cls-38,.cls-4,.cls-40,.cls-42,.cls-43,.cls-45,.cls-46,.cls-48,.cls-50,.cls-51,.cls-53,.cls-54,.cls-57,.cls-58,.cls-59,.cls-6,.cls-61,.cls-62,.cls-7,.cls-9{fill:none;}.cls-2{fill:#fff;}.cls-3{fill:#d18311;}.cls-21,.cls-22,.cls-23,.cls-24,.cls-25,.cls-4,.cls-40,.cls-48{stroke:#fff;}.cls-10,.cls-12,.cls-13,.cls-16,.cls-17,.cls-19,.cls-20,.cls-21,.cls-22,.cls-23,.cls-24,.cls-25,.cls-27,.cls-28,.cls-31,.cls-32,.cls-34,.cls-35,.cls-37,.cls-38,.cls-4,.cls-40,.cls-42,.cls-43,.cls-45,.cls-46,.cls-48,.cls-50,.cls-51,.cls-53,.cls-54,.cls-57,.cls-58,.cls-59,.cls-6,.cls-61,.cls-62,.cls-7,.cls-9{stroke-miterlimit:10;}.cls-4{stroke-width:0.5px;}.cls-5{clip-path:url(#clip-path);}.cls-10,.cls-12,.cls-13,.cls-16,.cls-17,.cls-19,.cls-20,.cls-27,.cls-28,.cls-31,.cls-32,.cls-34,.cls-35,.cls-37,.cls-38,.cls-42,.cls-43,.cls-45,.cls-46,.cls-50,.cls-51,.cls-53,.cls-54,.cls-57,.cls-58,.cls-59,.cls-6,.cls-61,.cls-62,.cls-7,.cls-9{stroke:#d18311;}.cls-6{stroke-width:1.23px;}.cls-7{stroke-width:1.23px;}.cls-8{clip-path:url(#clip-path-2);}.cls-9{stroke-width:1.42px;}.cls-10{stroke-width:1.42px;}.cls-11{clip-path:url(#clip-path-3);}.cls-12{stroke-width:1.39px;}.cls-13{stroke-width:1.39px;}.cls-14{clip-path:url(#clip-path-4);}.cls-15{clip-path:url(#clip-path-5);}.cls-16{stroke-width:1.22px;}.cls-17{stroke-width:1.22px;}.cls-18{clip-path:url(#clip-path-6);}.cls-19{stroke-width:1.33px;}.cls-20{stroke-width:1.33px;}.cls-21{stroke-width:0.52px;}.cls-22{stroke-width:0.1px;}.cls-23{stroke-width:0.37px;}.cls-24{stroke-width:0.45px;}.cls-25{stroke-width:0.44px;}.cls-26{clip-path:url(#clip-path-7);}.cls-27{stroke-width:1.33px;}.cls-28{stroke-width:2px;}.cls-29{clip-path:url(#clip-path-8);}.cls-30{clip-path:url(#clip-path-9);}.cls-31{stroke-width:1.31px;}.cls-32{stroke-width:1.31px;}.cls-33{clip-path:url(#clip-path-10);}.cls-34{stroke-width:1.3px;}.cls-35{stroke-width:1.3px;}.cls-36{clip-path:url(#clip-path-11);}.cls-37{stroke-width:1.26px;}.cls-38{stroke-width:1.89px;}.cls-39{clip-path:url(#clip-path-12);}.cls-40{stroke-width:0.53px;}.cls-41{clip-path:url(#clip-path-13);}.cls-42{stroke-width:1.31px;}.cls-43{stroke-width:1.31px;}.cls-44{clip-path:url(#clip-path-14);}.cls-45{stroke-width:1.3px;}.cls-46{stroke-width:1.95px;}.cls-47{clip-path:url(#clip-path-15);}.cls-48{stroke-width:0.53px;}.cls-49{clip-path:url(#clip-path-16);}.cls-50{stroke-width:1.21px;}.cls-51{stroke-width:1.21px;}.cls-52{clip-path:url(#clip-path-17);}.cls-53{stroke-width:1.58px;}.cls-54{stroke-width:1.58px;}.cls-55{clip-path:url(#clip-path-18);}.cls-56{clip-path:url(#clip-path-19);}.cls-57{stroke-width:1.37px;}.cls-58{stroke-width:1.37px;}.cls-59{stroke-width:2.05px;}.cls-60{clip-path:url(#clip-path-20);}.cls-61{stroke-width:1.37px;}.cls-62{stroke-width:1.37px;}</style><clipPath id="clip-path"><rect class="cls-1" x="153.22" y="74.71" width="21.97" height="108.28"/></clipPath><clipPath id="clip-path-2"><polygon class="cls-1" points="42.23 72.27 42.23 180.56 68.41 180.56 68.41 121.16 109.17 180.56 132.34 180.56 132.34 179.55 52.98 72.27 42.23 72.27"/></clipPath><clipPath id="clip-path-3"><polygon class="cls-1" points="252.73 74.73 233.51 74.73 271.37 127.93 233.51 182.99 254.84 182.99 291.37 127.91 252.73 74.73"/></clipPath><clipPath id="clip-path-4"><polygon class="cls-1" points="334.54 74.73 353.75 74.73 315.9 127.93 353.75 182.99 332.43 182.99 295.89 127.91 334.54 74.73"/></clipPath><clipPath id="clip-path-5"><rect class="cls-1" x="377.51" y="98.12" width="30.71" height="86.34"/></clipPath><clipPath id="clip-path-6"><path class="cls-1" d="M913.58,102.92c13.35,0,23.28,9.37,26.67,21.69h31.36c-4.09-28.73-27.34-50.52-57.72-50.52s-53.71,21.89-58,50.52h31.34C890.48,112.23,900.24,102.92,913.58,102.92Z"/></clipPath><clipPath id="clip-path-7"><rect class="cls-1" x="480" y="74.09" width="27.7" height="113.3"/></clipPath><clipPath id="clip-path-8"><polygon class="cls-1" points="981.21 87.12 981.21 195.4 1007.38 195.4 1007.38 136 1048.14 195.4 1071.32 195.4 1071.32 194.4 991.95 87.12 981.21 87.12"/></clipPath><clipPath id="clip-path-9"><rect class="cls-1" x="591.73" y="130.36" width="32.05" height="58.77"/></clipPath><clipPath id="clip-path-10"><rect class="cls-1" x="815.34" y="130.36" width="31.3" height="58.77"/></clipPath><clipPath id="clip-path-11"><rect class="cls-1" x="671.25" y="160.61" width="48.01" height="27.94"/></clipPath><clipPath id="clip-path-12"><rect class="cls-1" x="759.98" y="160.61" width="48.01" height="27.94"/></clipPath><clipPath id="clip-path-13"><rect class="cls-1" x="266.19" y="200.55" width="23.38" height="115.25"/></clipPath><clipPath id="clip-path-14"><rect class="cls-1" x="529.49" y="225.24" width="32.68" height="91.89"/></clipPath><clipPath id="clip-path-15"><path class="cls-1" d="M647.39,229.79c13.36,0,23.29,9.37,26.68,21.69h31.36C701.34,222.75,678.09,201,647.7,201s-53.71,21.9-58,50.52h31.34C624.29,239.1,634.06,229.79,647.39,229.79Z"/></clipPath><clipPath id="clip-path-16"><polygon class="cls-1" points="426.1 238.55 426.1 238.56 441.02 200.97 411.06 200.97 362.38 316.16 395.57 316.16 413.19 271.07 426.1 238.55"/></clipPath><clipPath id="clip-path-17"><path class="cls-1" d="M231.32,274.76C245.6,268.68,255,257,255,239.46v-.33c0-11.33-3.45-20.2-10.18-26.76-7.72-7.89-19.87-12.48-37.44-12.48H189.09v27.58H205.7c10.67,0,17.24,4.6,17.24,13.63v.33c0,8.37-6.24,13.63-17.07,13.63H189.09V280h9.72L222,314.82h36.78Z"/></clipPath><clipPath id="clip-path-18"><path class="cls-1" d="M791.45,275.54c14.29-6.07,23.65-17.73,23.65-35.3v-.33c0-11.33-3.45-20.19-10.18-26.76-7.72-7.88-19.87-12.48-37.44-12.48H749.22v27.58h16.62c10.67,0,17.24,4.6,17.24,13.63v.33c0,8.37-6.24,13.63-17.08,13.63H749.22v25h9.72l23.15,34.81h36.78Z"/></clipPath><clipPath id="clip-path-19"><path class="cls-1" d="M73.12,257.38v-.32c0-12.65,6.71-23.45,17.09-27.52v-29c-28.54,4.33-48.72,27.75-48.72,56.83v.32c0,30.07,21.09,52.81,48.72,56.65V285.23C79.83,281.19,73.12,270.41,73.12,257.38Z"/></clipPath><clipPath id="clip-path-20"><path class="cls-1" d="M915,276.06c0-20.33-15.17-28.4-39.58-33.83-14.7-3.42-18.34-5.59-18.34-10.56v-.31c0-3.88,3.49-7,10.61-7,9.4,0,20,3.72,29.72,10.71l14.7-21.27c-11.52-9.47-25.62-14.43-43.66-14.43-14.24,0-25.4,4.56-32.48,12.11-2.15,10.18-2.31,32.48,32.86,43.75,22.31,7.14,36.92,14.24,46.12,23,0-.63,0-1.26,0-1.9Z"/></clipPath></defs><title>NXTBC - II</title><g id="Layer_2" data-name="Layer 2"><g id="Layer_1-2" data-name="Layer 1"><path class="cls-2" d="M183.82,116.63V140.3h47.85V116.63Zm12.48,13.89a2.29,2.29,0,0,1-2.28-2.29c0-1.26,1-1.82,2.28-1.82s1.82.79,1.82,2.05S197.56,130.52,196.3,130.52Zm15.93,0a2.29,2.29,0,0,1-2.28-2.29c0-1.26,1-1.82,2.28-1.82s1.82.79,1.82,2.05S213.5,130.52,212.23,130.52Zm15.93,0a2.29,2.29,0,0,1-2.28-2.29c0-1.26,1-1.82,2.28-1.82s1.82.79,1.82,2.05S229.43,130.52,228.16,130.52Z"/><path class="cls-3" d="M190.16,128.46c0,1.27-.56,2.06-1.82,2.06a2.3,2.3,0,0,1-2.29-2.29c0-1.26,1-1.82,2.29-1.82S190.16,127.2,190.16,128.46Z"/><path class="cls-3" d="M206.09,128.46c0,1.27-.56,2.06-1.82,2.06a2.3,2.3,0,0,1-2.29-2.29c0-1.26,1-1.82,2.29-1.82S206.09,127.2,206.09,128.46Z"/><path class="cls-3" d="M222,128.46c0,1.27-.56,2.06-1.82,2.06a2.3,2.3,0,0,1-2.29-2.29c0-1.26,1-1.82,2.29-1.82S222,127.2,222,128.46Z"/><path class="cls-4" d="M184.89,150.56c-.16,4.88,0,4.41,0,4.41"/><path class="cls-4" d="M187.2,150.56c-.16,4.88,0,4.41,0,4.41"/><path class="cls-4" d="M189.41,150.56c-.16,4.88,0,4.41,0,4.41"/><path class="cls-4" d="M196.84,150.54c-4.88-.16-4.41,0-4.41,0"/><path class="cls-4" d="M196.84,152.85c-4.88-.16-4.41,0-4.41,0"/><path class="cls-4" d="M196.84,155.07c-4.88-.16-4.41,0-4.41,0"/><path class="cls-4" d="M200.37,150.56c-.16,4.88,0,4.41,0,4.41"/><path class="cls-4" d="M202.69,150.56c-.16,4.88,0,4.41,0,4.41"/><path class="cls-4" d="M204.9,150.56c-.16,4.88,0,4.41,0,4.41"/><path class="cls-4" d="M212.32,150.54c-4.88-.16-4.41,0-4.41,0"/><path class="cls-4" d="M212.32,152.85c-4.88-.16-4.41,0-4.41,0"/><path class="cls-4" d="M212.32,155.07c-4.88-.16-4.41,0-4.41,0"/><path class="cls-4" d="M215.86,150.56c-.16,4.88,0,4.41,0,4.41"/><path class="cls-4" d="M218.17,150.56c-.16,4.88,0,4.41,0,4.41"/><path class="cls-4" d="M220.39,150.56c-.16,4.88,0,4.41,0,4.41"/><path class="cls-4" d="M227.81,150.54c-4.88-.16-4.41,0-4.41,0"/><path class="cls-4" d="M227.81,152.85c-4.88-.16-4.41,0-4.41,0"/><path class="cls-4" d="M227.81,155.07c-4.88-.16-4.41,0-4.41,0"/><path class="cls-4" d="M184.89,102.3c-.16,4.88,0,4.41,0,4.41"/><path class="cls-4" d="M187.2,102.3c-.16,4.88,0,4.41,0,4.41"/><path class="cls-4" d="M189.41,102.3c-.16,4.88,0,4.41,0,4.41"/><path class="cls-4" d="M196.84,102.29c-4.88-.16-4.41,0-4.41,0"/><path class="cls-4" d="M196.84,104.6c-4.88-.16-4.41,0-4.41,0"/><path class="cls-4" d="M196.84,106.81c-4.88-.16-4.41,0-4.41,0"/><path class="cls-4" d="M200.37,102.3c-.16,4.88,0,4.41,0,4.41"/><path class="cls-4" d="M202.69,102.3c-.16,4.88,0,4.41,0,4.41"/><path class="cls-4" d="M204.9,102.3c-.16,4.88,0,4.41,0,4.41"/><path class="cls-4" d="M212.32,102.29c-4.88-.16-4.41,0-4.41,0"/><path class="cls-4" d="M212.32,104.6c-4.88-.16-4.41,0-4.41,0"/><path class="cls-4" d="M212.32,106.81c-4.88-.16-4.41,0-4.41,0"/><path class="cls-4" d="M215.86,102.3c-.16,4.88,0,4.41,0,4.41"/><path class="cls-4" d="M218.17,102.3c-.16,4.88,0,4.41,0,4.41"/><path class="cls-4" d="M220.39,102.3c-.16,4.88,0,4.41,0,4.41"/><path class="cls-4" d="M227.81,102.29c-4.88-.16-4.41,0-4.41,0"/><path class="cls-4" d="M227.81,104.6c-4.88-.16-4.41,0-4.41,0"/><path class="cls-4" d="M227.81,106.81c-4.88-.16-4.41,0-4.41,0"/><g class="cls-5"><polygon class="cls-6" points="163.85 181.83 125.6 144.11 164.31 77.13 203.94 141.18 163.85 181.83"/><polygon class="cls-6" points="163.79 196 115.18 148.07 164.37 62.96 214.73 144.35 163.79 196"/><polygon class="cls-7" points="164.03 170.67 133.93 140.99 164.39 88.29 195.57 138.69 164.03 170.67"/><polygon class="cls-7" points="164.2 159.5 142.27 137.87 164.47 99.46 187.19 136.19 164.2 159.5"/><polygon class="cls-7" points="164.36 149.76 149.54 135.15 164.53 109.2 179.89 134.01 164.36 149.76"/><polygon class="cls-7" points="164.39 141.6 155.53 132.87 164.5 117.35 173.68 132.19 164.39 141.6"/><polygon class="cls-7" points="164.43 133.45 161.53 130.59 164.46 125.51 167.47 130.37 164.43 133.45"/></g><rect class="cls-2" x="183.82" y="157.47" width="54.05" height="25.52"/><rect class="cls-2" x="183.82" y="74.71" width="53.27" height="25.52"/><g class="cls-8"><polygon class="cls-9" points="70.77 193.76 26.65 150.25 71.31 72.98 117.02 146.86 70.77 193.76"/><polygon class="cls-9" points="70.7 210.1 14.63 154.81 71.38 56.63 129.46 150.51 70.7 210.1"/><polygon class="cls-9" points="70.62 228.8 0.89 160.04 71.46 37.93 143.7 154.69 70.62 228.8"/><polygon class="cls-10" points="70.98 180.88 36.26 146.65 71.39 85.85 107.36 143.98 70.98 180.88"/><polygon class="cls-10" points="71.18 167.99 45.88 143.04 71.48 98.74 97.7 141.1 71.18 167.99"/><polygon class="cls-10" points="71.36 156.76 54.26 139.9 71.56 109.97 89.28 138.59 71.36 156.76"/><polygon class="cls-10" points="71.4 147.35 61.18 137.27 71.52 119.38 82.11 136.49 71.4 147.35"/><polygon class="cls-10" points="71.44 137.94 68.1 134.64 71.48 128.79 74.94 134.39 71.44 137.94"/></g><path class="cls-2" d="M118.31,72.27v57.24L79,72.27H65.12l79.36,107.28V72.27Zm14,81.67c-2.2,0-3.58-1-3.58-3.18a4,4,0,0,1,4-4c2.21,0,3.18,1.78,3.18,4S134.55,153.94,132.34,153.94Zm0-27.83c-2.2,0-3.58-1-3.58-3.18a4,4,0,0,1,4-4c2.21,0,3.18,1.78,3.18,4S134.55,126.11,132.34,126.11Zm0-27.83c-2.2,0-3.58-1-3.58-3.18a4,4,0,0,1,4-4c2.21,0,3.18,1.78,3.18,4S134.55,98.28,132.34,98.28Z"/><path class="cls-3" d="M132.34,84.36c-2.2,0-3.58-1-3.58-3.18a4,4,0,0,1,4-4c2.21,0,3.18,1.79,3.18,4S134.55,84.36,132.34,84.36Z"/><path class="cls-3" d="M132.34,112.19c-2.2,0-3.58-1-3.58-3.18a4,4,0,0,1,4-4c2.21,0,3.18,1.79,3.18,4S134.55,112.19,132.34,112.19Z"/><path class="cls-3" d="M132.34,140c-2.2,0-3.58-1-3.58-3.18a4,4,0,0,1,4-4c2.21,0,3.18,1.79,3.18,4S134.55,140,132.34,140Z"/><path class="cls-2" d="M323,183l-29.71-42.8L264.24,183H277l16.16-22.84L309,183Zm-42.45-11a1.82,1.82,0,0,1-2,2.06c-1.38,0-2.51-.56-2.51-1.82a2.41,2.41,0,0,1,2.51-2.29A1.82,1.82,0,0,1,280.58,172Zm10.18-14.66a1.81,1.81,0,0,1-2,2c-1.39,0-2.51-.55-2.51-1.81a2.41,2.41,0,0,1,2.51-2.29A1.82,1.82,0,0,1,290.76,157.37Zm9.65.24c0,1.26-1.12,1.81-2.51,1.81a2.05,2.05,0,0,1,0-4.1A2.41,2.41,0,0,1,300.41,157.61Zm10.18,14.66c0,1.26-1.13,1.82-2.51,1.82a2.06,2.06,0,0,1,0-4.11A2.41,2.41,0,0,1,310.59,172.27Z"/><path class="cls-3" d="M275.27,179a1.81,1.81,0,0,0-2-2.05,2.41,2.41,0,0,0-2.52,2.28c0,1.27,1.13,1.82,2.52,1.82A1.81,1.81,0,0,0,275.27,179Z"/><path class="cls-3" d="M285.49,164.36a1.81,1.81,0,0,0-2-2.05,2.41,2.41,0,0,0-2.52,2.28c0,1.26,1.13,1.82,2.52,1.82A1.81,1.81,0,0,0,285.49,164.36Z"/><path class="cls-3" d="M311.38,179a1.81,1.81,0,0,1,2-2.05,2.41,2.41,0,0,1,2.52,2.28c0,1.27-1.13,1.82-2.52,1.82A1.81,1.81,0,0,1,311.38,179Z"/><path class="cls-3" d="M301.16,164.36a1.81,1.81,0,0,1,2-2.05,2.41,2.41,0,0,1,2.52,2.28c0,1.26-1.13,1.82-2.52,1.82A1.81,1.81,0,0,1,301.16,164.36Z"/><path class="cls-3" d="M295.89,150.21a1.81,1.81,0,0,0-2-2.05,2.41,2.41,0,0,0-2.52,2.28c0,1.27,1.13,1.82,2.52,1.82A1.81,1.81,0,0,0,295.89,150.21Z"/><path class="cls-2" d="M309,75.44,293.18,98.29,277,75.44H264.24l29.08,42.8L323,75.44Zm-30.46,13a2.41,2.41,0,0,1-2.51-2.29c0-1.26,1.13-1.81,2.51-1.81a2.05,2.05,0,0,1,0,4.1Zm10.18,14.66a2.4,2.4,0,0,1-2.51-2.29c0-1.26,1.12-1.81,2.51-1.81a2.05,2.05,0,0,1,0,4.1Zm9.15,0a2.05,2.05,0,0,1,0-4.1c1.39,0,2.51.55,2.51,1.81A2.4,2.4,0,0,1,297.9,103.11Zm10.18-14.66a2.05,2.05,0,0,1,0-4.1c1.38,0,2.51.55,2.51,1.81A2.41,2.41,0,0,1,308.08,88.45Z"/><g class="cls-11"><polygon class="cls-12" points="279.07 184.43 233.97 144.03 279.62 72.3 326.34 140.89 279.07 184.43"/><polygon class="cls-12" points="279 199.6 221.69 148.27 279.69 57.12 339.06 144.28 279 199.6"/><polygon class="cls-13" points="279.28 172.47 243.8 140.69 279.71 84.25 316.47 138.22 279.28 172.47"/><polygon class="cls-13" points="279.49 160.51 253.63 137.35 279.8 96.21 306.59 135.54 279.49 160.51"/><polygon class="cls-13" points="279.67 150.08 262.2 134.43 279.88 106.64 297.98 133.21 279.67 150.08"/><polygon class="cls-13" points="279.71 141.34 269.27 131.99 279.84 115.38 290.66 131.26 279.71 141.34"/><polygon class="cls-13" points="279.76 132.61 276.34 129.55 279.8 124.11 283.34 129.31 279.76 132.61"/></g><g class="cls-14"><polygon class="cls-12" points="310.25 184.43 265.15 144.03 310.79 72.3 357.51 140.89 310.25 184.43"/><polygon class="cls-12" points="310.18 199.6 252.87 148.27 310.86 57.12 370.23 144.28 310.18 199.6"/><polygon class="cls-13" points="310.46 172.47 274.97 140.69 310.88 84.25 347.65 138.22 310.46 172.47"/><polygon class="cls-13" points="310.66 160.51 284.8 137.35 310.98 96.21 337.77 135.54 310.66 160.51"/><polygon class="cls-13" points="310.85 150.08 293.37 134.43 311.06 106.64 329.16 133.21 310.85 150.08"/><polygon class="cls-13" points="310.89 141.34 300.44 131.99 311.01 115.38 321.83 131.26 310.89 141.34"/><polygon class="cls-13" points="310.93 132.61 307.51 129.55 310.97 124.11 314.51 129.31 310.93 132.61"/></g><path class="cls-3" d="M275.27,79.41a1.81,1.81,0,0,1-2,2,2.41,2.41,0,0,1-2.52-2.28c0-1.26,1.13-1.82,2.52-1.82A1.81,1.81,0,0,1,275.27,79.41Z"/><path class="cls-3" d="M285.49,94.07a1.81,1.81,0,0,1-2,2.05A2.41,2.41,0,0,1,281,93.84c0-1.26,1.13-1.82,2.52-1.82A1.81,1.81,0,0,1,285.49,94.07Z"/><path class="cls-3" d="M311.38,79.41a1.81,1.81,0,0,0,2,2,2.41,2.41,0,0,0,2.52-2.28c0-1.26-1.13-1.82-2.52-1.82A1.81,1.81,0,0,0,311.38,79.41Z"/><path class="cls-3" d="M301.16,94.07a1.81,1.81,0,0,0,2,2.05,2.41,2.41,0,0,0,2.52-2.28c0-1.26-1.13-1.82-2.52-1.82A1.81,1.81,0,0,0,301.16,94.07Z"/><path class="cls-3" d="M295.89,108.22a1.81,1.81,0,0,1-2,2,2.41,2.41,0,0,1-2.52-2.28c0-1.26,1.13-1.82,2.52-1.82A1.81,1.81,0,0,1,295.89,108.22Z"/><path class="cls-2" d="M344.27,74.71V96h97.18V74.71Zm22.61,12.56a2.54,2.54,0,0,1-2.54-2.54c0-1.41,1.14-2,2.54-2s2,.88,2,2.29S368.29,87.27,366.88,87.27Zm25.77,0a2.55,2.55,0,0,1-2.55-2.54c0-1.41,1.14-2,2.55-2s2,.88,2,2.29S394.06,87.27,392.65,87.27Zm26.47,0a2.55,2.55,0,0,1-2.55-2.54c0-1.41,1.14-2,2.55-2s2,.88,2,2.29S420.53,87.27,419.12,87.27Z"/><path class="cls-3" d="M356.05,85c0,1.4-.62,2.28-2,2.28a2.54,2.54,0,0,1-2.54-2.54c0-1.41,1.14-2,2.54-2S356.05,83.58,356.05,85Z"/><path class="cls-3" d="M381.82,85c0,1.4-.62,2.28-2,2.28a2.55,2.55,0,0,1-2.55-2.54c0-1.41,1.14-2,2.55-2S381.82,83.58,381.82,85Z"/><path class="cls-3" d="M408.29,85c0,1.4-.62,2.28-2,2.28a2.54,2.54,0,0,1-2.54-2.54c0-1.41,1.14-2,2.54-2S408.29,83.58,408.29,85Z"/><path class="cls-3" d="M434.06,85c0,1.4-.63,2.28-2,2.28a2.55,2.55,0,0,1-2.55-2.54c0-1.41,1.14-2,2.55-2S434.06,83.58,434.06,85Z"/><g class="cls-15"><polygon class="cls-16" points="392.04 192.59 354.13 155.21 392.5 88.82 431.77 152.3 392.04 192.59"/><polygon class="cls-16" points="391.98 206.64 343.81 159.13 392.56 74.78 442.47 155.44 391.98 206.64"/><polygon class="cls-17" points="392.22 181.53 362.39 152.12 392.57 99.88 423.48 149.83 392.22 181.53"/><polygon class="cls-17" points="392.39 170.46 370.65 149.02 392.65 110.95 415.17 147.35 392.39 170.46"/><polygon class="cls-17" points="392.54 160.81 377.86 146.32 392.72 120.6 407.94 145.2 392.54 160.81"/><polygon class="cls-17" points="392.58 152.72 383.8 144.06 392.69 128.69 401.78 143.39 392.58 152.72"/><polygon class="cls-17" points="392.62 144.64 389.74 141.8 392.65 136.78 395.63 141.58 392.62 144.64"/></g><path class="cls-1" d="M913.58,102.92c-13.34,0-23.1,9.31-26.33,21.69h53C936.86,112.29,926.93,102.92,913.58,102.92Z"/><path class="cls-2" d="M940.36,138.78c-3.22,12.39-13,21.69-26.47,21.69-13.23,0-23.14-9.37-26.52-21.69H855.85c4.09,28.74,27.34,50.52,57.73,50.52s53.71-21.89,58-50.52Zm-48.68,33a4.49,4.49,0,0,1-4.43-4.53c0-2.51,2-3.61,4.43-3.61s3.53,1.57,3.53,4.07S894.13,171.8,891.68,171.8Zm44.55,0c-2.45,0-3.53-1.57-3.53-4.07s1.08-4.07,3.53-4.07,4.43,1.1,4.43,3.61A4.49,4.49,0,0,1,936.23,171.8Z"/><path class="cls-3" d="M879.8,150.27c0,2.51-1.08,4.07-3.53,4.07a4.48,4.48,0,0,1-4.43-4.53c0-2.51,2-3.61,4.43-3.61S879.8,147.77,879.8,150.27Z"/><path class="cls-3" d="M917.68,176.79c0,2.5-1.08,4.07-3.53,4.07a4.49,4.49,0,0,1-4.43-4.53c0-2.51,2-3.61,4.43-3.61S917.68,174.29,917.68,176.79Z"/><path class="cls-3" d="M948.11,150.27c0,2.51,1.08,4.07,3.53,4.07a4.48,4.48,0,0,0,4.43-4.53c0-2.51-2-3.61-4.43-3.61S948.11,147.77,948.11,150.27Z"/><g class="cls-18"><polygon class="cls-19" points="912.54 149.61 872.41 107.61 913.03 33.03 954.6 104.35 912.54 149.61"/><polygon class="cls-19" points="912.48 165.39 861.49 112.02 913.09 17.25 965.92 107.87 912.48 165.39"/><polygon class="cls-19" points="912 180.79 850.43 116.33 913.26 1.36 976.93 110.93 912 180.79"/><polygon class="cls-20" points="912.73 137.19 881.15 104.14 913.11 45.46 945.82 101.57 912.73 137.19"/><polygon class="cls-20" points="912.91 124.75 889.9 100.66 913.19 57.9 937.03 98.79 912.91 124.75"/><polygon class="cls-20" points="913.08 113.91 897.53 97.63 913.26 68.74 929.37 96.37 913.08 113.91"/><polygon class="cls-20" points="913.11 104.82 903.82 95.09 913.22 77.82 922.85 94.34 913.11 104.82"/><polygon class="cls-20" points="913.15 95.74 910.11 92.56 913.19 86.9 916.34 92.31 913.15 95.74"/></g><path class="cls-2" d="M560.6,128.77a1.92,1.92,0,0,1-2.09,1.69,2.71,2.71,0,0,1-2.71-2.71c0-1.5,1.21-2.15,2.71-2.15a1.91,1.91,0,0,1,2.09,1.73c9.13-4.5,15.71-12.11,15.71-24.43v-.32A24.85,24.85,0,0,0,569,84.29c-6.63-6.64-16.67-10.2-30.91-10.2H515.94V99.34h15c9.38,0,14.24,3.56,14.24,9.71v.32c0,6.64-5.34,9.88-14.89,9.88h-14.4v22h18.61c10.52,0,15.37,4.05,15.37,10.2v.32c0,6.64-5.5,10.36-15,10.36H515.94v25.25h22.49c27,0,42.89-11.81,42.89-31.24v-.32C581.32,141.12,573.33,133.38,560.6,128.77Zm-39.85,1.69a2.71,2.71,0,0,1-2.7-2.71c0-1.5,1.21-2.15,2.7-2.15s2.16.93,2.16,2.43S522.25,130.46,520.75,130.46Zm18.88,0a2.71,2.71,0,0,1-2.71-2.71c0-1.5,1.21-2.15,2.71-2.15s2.16.93,2.16,2.43S541.12,130.46,539.63,130.46Z"/><path class="cls-3" d="M532.35,128c0,1.49-.66,2.43-2.16,2.43a2.72,2.72,0,0,1-2.71-2.71c0-1.5,1.22-2.15,2.71-2.15S532.35,126.53,532.35,128Z"/><path class="cls-3" d="M551.22,128c0,1.49-.66,2.43-2.15,2.43a2.71,2.71,0,0,1-2.71-2.71c0-1.5,1.21-2.15,2.71-2.15S551.22,126.53,551.22,128Z"/><path class="cls-2" d="M538.59,170.11c0,.57-.25.92-.82.92a1,1,0,0,1-1-1c0-.57.46-.82,1-.82S538.59,169.55,538.59,170.11Z"/><path class="cls-2" d="M542.15,170.11c0,.57-.25.92-.81.92a1,1,0,0,1-1-1c0-.57.46-.82,1-.82S542.15,169.55,542.15,170.11Z"/><path class="cls-2" d="M545.71,170.11c0,.57-.24.92-.81.92a1,1,0,0,1-1-1c0-.57.46-.82,1-.82S545.71,169.55,545.71,170.11Z"/><path class="cls-21" d="M516.26,155.2c-.17,5.1,0,4.61,0,4.61"/><path class="cls-21" d="M518.68,155.2c-.17,5.1,0,4.61,0,4.61"/><path class="cls-21" d="M521,155.2c-.17,5.1,0,4.61,0,4.61"/><path class="cls-21" d="M528.77,155.18c-5.11-.17-4.62,0-4.62,0"/><path class="cls-21" d="M528.77,157.6c-5.11-.17-4.62,0-4.62,0"/><path class="cls-21" d="M528.77,159.92c-5.11-.17-4.62,0-4.62,0"/><path class="cls-21" d="M532.47,155.2c-.17,5.1,0,4.61,0,4.61"/><path class="cls-21" d="M534.89,155.2c-.17,5.1,0,4.61,0,4.61"/><path class="cls-21" d="M537.2,155.2c-.16,5.1,0,4.61,0,4.61"/><path class="cls-21" d="M545,155.18c-5.1-.17-4.61,0-4.61,0"/><path class="cls-21" d="M545,157.6c-5.1-.17-4.61,0-4.61,0"/><path class="cls-21" d="M545,159.92c-5.1-.17-4.61,0-4.61,0"/><path class="cls-21" d="M551.09,155.2c-.16,5.1,0,4.61,0,4.61"/><path class="cls-21" d="M553.41,155.2c-.17,5.1,0,4.61,0,4.61"/><path class="cls-21" d="M561.18,155.18c-5.11-.17-4.62,0-4.62,0"/><path class="cls-21" d="M561.18,157.6c-5.11-.17-4.62,0-4.62,0"/><path class="cls-21" d="M561.18,159.92c-5.11-.17-4.62,0-4.62,0"/><path class="cls-21" d="M516.26,101.23c-.17,5.11,0,4.62,0,4.62"/><path class="cls-21" d="M518.68,101.23c-.17,5.11,0,4.62,0,4.62"/><path class="cls-21" d="M521,101.23c-.17,5.11,0,4.62,0,4.62"/><path class="cls-21" d="M528.77,101.21c-5.11-.16-4.62,0-4.62,0"/><path class="cls-21" d="M528.77,103.63c-5.11-.16-4.62,0-4.62,0"/><path class="cls-21" d="M528.77,106c-5.11-.17-4.62,0-4.62,0"/><path class="cls-21" d="M532.47,101.23c-.17,5.11,0,4.62,0,4.62"/><path class="cls-21" d="M534.89,101.23c-.17,5.11,0,4.62,0,4.62"/><path class="cls-21" d="M537.2,101.23c-.16,5.11,0,4.62,0,4.62"/><path class="cls-22" d="M540.51,101.21c-.18-.16-.17,0-.17,0"/><path class="cls-23" d="M542.63,103.63c-2.52-.16-2.28,0-2.28,0"/><path class="cls-24" d="M543.73,106c-3.74-.17-3.38,0-3.38,0"/><path class="cls-21" d="M548.67,101.23c-.17,5.11,0,4.62,0,4.62"/><path class="cls-21" d="M551.09,101.23c-.16,5.11,0,4.62,0,4.62"/><path class="cls-21" d="M553.41,101.23c-.17,5.11,0,4.62,0,4.62"/><path class="cls-21" d="M561.18,101.21c-5.11-.16-4.62,0-4.62,0"/><path class="cls-21" d="M561.18,103.63c-5.11-.16-4.62,0-4.62,0"/><path class="cls-21" d="M561.18,106c-5.11-.17-4.62,0-4.62,0"/><path class="cls-25" d="M540.61,174c-4.25-.14-3.84,0-3.84,0"/><path class="cls-25" d="M540.61,176c-4.25-.14-3.84,0-3.84,0"/><path class="cls-25" d="M540.61,177.92c-4.25-.14-3.84,0-3.84,0"/><path class="cls-25" d="M543.69,174c-.14,4.25,0,3.84,0,3.84"/><path class="cls-25" d="M545.7,174c-.14,4.25,0,3.84,0,3.84"/><path class="cls-1" d="M534.87,162.14c9.55,0,15-3.72,15-10.36v-.32c0-6.15-4.85-10.2-15.37-10.2H515.94v20.88Z"/><g class="cls-26"><polygon class="cls-19" points="491.76 185.74 451.5 143.93 495.19 72.68 536.19 142.96 491.76 185.74"/><polygon class="cls-19" points="491.29 201.04 440.15 147.92 495.65 57.38 547.75 146.68 491.29 201.04"/><polygon class="cls-27" points="492.26 173.69 460.59 140.79 494.96 84.73 527.22 140.03 492.26 173.69"/><polygon class="cls-27" points="492.76 161.63 469.68 137.66 494.73 96.8 518.24 137.1 492.76 161.63"/><polygon class="cls-27" points="493.2 151.12 477.61 134.92 494.53 107.31 510.42 134.54 493.2 151.12"/><polygon class="cls-27" points="493.47 142.31 484.15 132.63 494.26 116.12 503.76 132.4 493.47 142.31"/><polygon class="cls-27" points="493.74 133.5 490.69 130.33 494 124.93 497.1 130.26 493.74 133.5"/><line class="cls-28" x1="491.76" y1="200.67" x2="491.15" y2="232.62"/></g><g class="cls-29"><polygon class="cls-9" points="1009.75 208.6 965.62 165.09 1010.28 87.82 1055.99 161.71 1009.75 208.6"/><polygon class="cls-9" points="1009.68 224.95 953.61 169.66 1010.35 71.48 1068.44 165.36 1009.68 224.95"/><polygon class="cls-9" points="1009.6 243.65 939.87 174.89 1010.43 52.78 1082.67 169.54 1009.6 243.65"/><polygon class="cls-10" points="1009.95 195.73 975.23 161.49 1010.37 100.69 1046.34 158.83 1009.95 195.73"/><polygon class="cls-10" points="1010.15 182.84 984.85 157.89 1010.46 113.58 1036.67 155.95 1010.15 182.84"/><polygon class="cls-10" points="1010.33 171.61 993.24 154.75 1010.54 124.81 1028.25 153.44 1010.33 171.61"/><polygon class="cls-10" points="1010.37 162.2 1000.15 152.12 1010.5 134.22 1021.08 151.34 1010.37 162.2"/><polygon class="cls-10" points="1010.41 152.79 1007.07 149.49 1010.46 143.63 1013.92 149.23 1010.41 152.79"/></g><path class="cls-2" d="M1057.28,87.12v57.23L1018,87.12h-13.93l79.36,107.28V87.12Zm14,81.66c-2.21,0-3.59-1-3.59-3.17a4,4,0,0,1,4-4c2.2,0,3.17,1.79,3.17,4S1073.52,168.78,1071.32,168.78Zm0-27.83c-2.21,0-3.59-1-3.59-3.17a4,4,0,0,1,4-4c2.2,0,3.17,1.79,3.17,4S1073.52,141,1071.32,141Zm0-27.83c-2.21,0-3.59-1-3.59-3.17a4,4,0,0,1,4-4c2.2,0,3.17,1.79,3.17,4S1073.52,113.12,1071.32,113.12Z"/><path class="cls-3" d="M1071.32,99.21c-2.21,0-3.59-1-3.59-3.18a4,4,0,0,1,4-4c2.2,0,3.17,1.79,3.17,4S1073.52,99.21,1071.32,99.21Z"/><path class="cls-3" d="M1071.32,127c-2.21,0-3.59-1-3.59-3.18a4,4,0,0,1,4-4c2.2,0,3.17,1.79,3.17,4S1073.52,127,1071.32,127Z"/><path class="cls-3" d="M1071.32,154.87c-2.21,0-3.59-1-3.59-3.18a4,4,0,0,1,4-4c2.2,0,3.17,1.79,3.17,4S1073.52,154.87,1071.32,154.87Z"/><path class="cls-2" d="M591.73,74.09v46.67h32V74.09Zm16.41,26.38a3.81,3.81,0,0,1-3.81-3.82c0-2.1,1.7-3,3.81-3s3,1.32,3,3.43S610.25,100.47,608.14,100.47Z"/><path class="cls-3" d="M611.18,82.3c0,2.1-.93,3.42-3,3.42a3.81,3.81,0,0,1-3.81-3.81c0-2.11,1.7-3,3.81-3S611.18,80.19,611.18,82.3Z"/><path class="cls-3" d="M611.18,111.79c0,2.11-.93,3.43-3,3.43a3.81,3.81,0,0,1-3.81-3.82c0-2.1,1.7-3,3.81-3S611.18,109.69,611.18,111.79Z"/><g class="cls-30"><polygon class="cls-31" points="607.02 238.49 566.27 198.3 607.51 126.94 649.73 195.18 607.02 238.49"/><polygon class="cls-31" points="606.96 253.59 555.17 202.52 607.58 111.84 661.23 198.55 606.96 253.59"/><polygon class="cls-32" points="607.21 226.6 575.14 194.98 607.6 138.82 640.82 192.52 607.21 226.6"/><polygon class="cls-32" points="607.4 214.69 584.03 191.65 607.68 150.73 631.89 189.86 607.4 214.69"/><polygon class="cls-32" points="607.56 204.32 591.77 188.75 607.75 161.1 624.11 187.54 607.56 204.32"/><polygon class="cls-32" points="607.6 195.63 598.16 186.32 607.71 169.79 617.49 185.6 607.6 195.63"/><polygon class="cls-32" points="607.64 186.94 604.55 183.89 607.67 178.48 610.87 183.65 607.64 186.94"/></g><path class="cls-2" d="M815.34,74.09v46.67h31.31V74.09Zm16,26.38a3.77,3.77,0,0,1-3.72-3.82c0-2.1,1.67-3,3.72-3s3,1.32,3,3.43S833.43,100.47,831.37,100.47Z"/><path class="cls-3" d="M834.34,82.3c0,2.1-.91,3.42-3,3.42a3.77,3.77,0,0,1-3.72-3.81c0-2.11,1.67-3,3.72-3S834.34,80.19,834.34,82.3Z"/><path class="cls-3" d="M834.34,111.79c0,2.11-.91,3.43-3,3.43a3.77,3.77,0,0,1-3.72-3.82c0-2.1,1.67-3,3.72-3S834.34,109.69,834.34,111.79Z"/><g class="cls-33"><polygon class="cls-34" points="830.28 238.49 790.47 198.3 830.76 126.94 872 195.18 830.28 238.49"/><polygon class="cls-34" points="830.22 253.59 779.63 202.52 830.83 111.84 883.23 198.55 830.22 253.59"/><polygon class="cls-35" points="830.47 226.6 799.14 194.98 830.84 138.82 863.29 192.52 830.47 226.6"/><polygon class="cls-35" points="830.65 214.69 807.82 191.65 830.92 150.73 854.57 189.86 830.65 214.69"/><polygon class="cls-35" points="830.81 204.32 815.38 188.75 830.99 161.1 846.97 187.54 830.81 204.32"/><polygon class="cls-35" points="830.85 195.63 821.63 186.32 830.96 169.79 840.51 185.6 830.85 195.63"/><polygon class="cls-35" points="830.88 186.94 827.87 183.89 830.92 178.48 834.04 183.65 830.88 186.94"/></g><path class="cls-2" d="M639.13,74.09v115h28.22v-115ZM653.7,158a4.52,4.52,0,0,1-4.52-4.53c0-2.49,2-3.59,4.52-3.59s3.61,1.56,3.61,4.06S656.2,158,653.7,158Zm0-42.3a4.52,4.52,0,0,1-4.52-4.53c0-2.49,2-3.59,4.52-3.59s3.61,1.56,3.61,4.06S656.2,115.67,653.7,115.67Z"/><path class="cls-3" d="M657.31,89.21c0,2.5-1.11,4.06-3.61,4.06a4.52,4.52,0,0,1-4.52-4.52c0-2.5,2-3.6,4.52-3.6S657.31,86.72,657.31,89.21Z"/><path class="cls-3" d="M657.31,133.24c0,2.5-1.11,4.06-3.61,4.06a4.52,4.52,0,0,1-4.52-4.52c0-2.5,2-3.6,4.52-3.6S657.31,130.74,657.31,133.24Z"/><path class="cls-3" d="M657.31,174.57c0,2.5-1.11,4.06-3.61,4.06a4.52,4.52,0,0,1-4.52-4.52c0-2.5,2-3.6,4.52-3.6S657.31,172.08,657.31,174.57Z"/><g class="cls-36"><polygon class="cls-37" points="750.94 175.86 712.42 214.92 644.02 175.39 709.42 134.92 750.94 175.86"/><polygon class="cls-38" points="765.41 175.92 716.46 225.56 629.55 175.32 712.66 123.91 765.41 175.92"/><polygon class="cls-37" points="739.54 175.68 709.23 206.41 655.41 175.31 706.88 143.47 739.54 175.68"/><polygon class="cls-37" points="728.13 175.5 706.04 197.9 666.82 175.23 704.33 152.03 728.13 175.5"/><polygon class="cls-37" points="718.19 175.34 703.26 190.47 676.76 175.16 702.1 159.48 718.19 175.34"/><polygon class="cls-37" points="709.86 175.31 700.93 184.35 685.09 175.2 700.24 165.82 709.86 175.31"/><polygon class="cls-37" points="701.52 175.27 698.61 178.23 693.42 175.23 698.38 172.17 701.52 175.27"/></g><path class="cls-2" d="M727.86,74.09v115h28.22v-115ZM742.43,158a4.52,4.52,0,0,1-4.52-4.53c0-2.49,2-3.59,4.52-3.59s3.6,1.56,3.6,4.06S744.93,158,742.43,158Zm0-42.3a4.52,4.52,0,0,1-4.52-4.53c0-2.49,2-3.59,4.52-3.59s3.6,1.56,3.6,4.06S744.93,115.67,742.43,115.67Z"/><path class="cls-3" d="M746,89.21c0,2.5-1.1,4.06-3.6,4.06a4.52,4.52,0,0,1-4.52-4.52c0-2.5,2-3.6,4.52-3.6S746,86.72,746,89.21Z"/><path class="cls-3" d="M746,133.24c0,2.5-1.1,4.06-3.6,4.06a4.52,4.52,0,0,1-4.52-4.52c0-2.5,2-3.6,4.52-3.6S746,130.74,746,133.24Z"/><path class="cls-3" d="M746,174.57c0,2.5-1.1,4.06-3.6,4.06a4.52,4.52,0,0,1-4.52-4.52c0-2.5,2-3.6,4.52-3.6S746,172.08,746,174.57Z"/><g class="cls-39"><polygon class="cls-37" points="839.66 175.86 801.15 214.92 732.75 175.39 798.15 134.92 839.66 175.86"/><polygon class="cls-38" points="854.13 175.92 805.19 225.56 718.28 175.32 801.38 123.91 854.13 175.92"/><polygon class="cls-37" points="828.27 175.68 797.96 206.41 744.14 175.31 795.6 143.47 828.27 175.68"/><polygon class="cls-37" points="816.86 175.5 794.77 197.9 755.55 175.23 793.05 152.03 816.86 175.5"/><polygon class="cls-37" points="806.92 175.34 791.99 190.47 765.49 175.16 790.83 159.48 806.92 175.34"/><polygon class="cls-37" points="798.58 175.31 789.66 184.35 773.82 175.2 788.97 165.82 798.58 175.31"/><polygon class="cls-37" points="790.25 175.27 787.34 178.23 782.15 175.23 787.11 172.17 790.25 175.27"/></g><path class="cls-2" d="M298.75,245.17v25.19h50.94V245.17ZM312,260a2.43,2.43,0,0,1-2.43-2.43c0-1.34,1.09-1.93,2.43-1.93s1.94.84,1.94,2.18S313.39,260,312,260Zm17,0a2.43,2.43,0,0,1-2.43-2.43c0-1.34,1.09-1.93,2.43-1.93s1.94.84,1.94,2.18S330.34,260,329,260Zm17,0a2.43,2.43,0,0,1-2.43-2.43c0-1.34,1.08-1.93,2.43-1.93s1.93.84,1.93,2.18S347.3,260,346,260Z"/><path class="cls-3" d="M305.5,257.77c0,1.34-.59,2.18-1.93,2.18a2.43,2.43,0,0,1-2.44-2.43c0-1.34,1.09-1.93,2.44-1.93S305.5,256.43,305.5,257.77Z"/><path class="cls-3" d="M322.46,257.77c0,1.34-.59,2.18-1.94,2.18a2.43,2.43,0,0,1-2.43-2.43c0-1.34,1.09-1.93,2.43-1.93S322.46,256.43,322.46,257.77Z"/><path class="cls-3" d="M339.42,257.77c0,1.34-.6,2.18-1.94,2.18a2.43,2.43,0,0,1-2.43-2.43c0-1.34,1.09-1.93,2.43-1.93S339.42,256.43,339.42,257.77Z"/><path class="cls-40" d="M299.89,281.28c-.17,5.2,0,4.7,0,4.7"/><path class="cls-40" d="M302.35,281.28c-.17,5.2,0,4.7,0,4.7"/><path class="cls-40" d="M304.71,281.28c-.17,5.2,0,4.7,0,4.7"/><path class="cls-40" d="M312.61,281.26c-5.19-.17-4.69,0-4.69,0"/><path class="cls-40" d="M312.61,283.72c-5.19-.16-4.69,0-4.69,0"/><path class="cls-40" d="M312.61,286.08c-5.19-.17-4.69,0-4.69,0"/><path class="cls-40" d="M316.38,281.28c-.17,5.2,0,4.7,0,4.7"/><path class="cls-40" d="M318.84,281.28c-.17,5.2,0,4.7,0,4.7"/><path class="cls-40" d="M321.2,281.28c-.17,5.2,0,4.7,0,4.7"/><path class="cls-40" d="M329.1,281.26c-5.2-.17-4.7,0-4.7,0"/><path class="cls-40" d="M329.1,283.72c-5.2-.16-4.7,0-4.7,0"/><path class="cls-40" d="M329.1,286.08c-5.2-.17-4.7,0-4.7,0"/><path class="cls-40" d="M332.86,281.28c-.17,5.2,0,4.7,0,4.7"/><path class="cls-40" d="M335.32,281.28c-.17,5.2,0,4.7,0,4.7"/><path class="cls-40" d="M337.68,281.28c-.17,5.2,0,4.7,0,4.7"/><path class="cls-40" d="M345.58,281.26c-5.19-.17-4.69,0-4.69,0"/><path class="cls-40" d="M345.58,283.72c-5.19-.16-4.69,0-4.69,0"/><path class="cls-40" d="M345.58,286.08c-5.19-.17-4.69,0-4.69,0"/><path class="cls-40" d="M299.89,229.92c-.17,5.2,0,4.7,0,4.7"/><path class="cls-40" d="M302.35,229.92c-.17,5.2,0,4.7,0,4.7"/><path class="cls-40" d="M304.71,229.92c-.17,5.2,0,4.7,0,4.7"/><path class="cls-40" d="M312.61,229.9c-5.19-.17-4.69,0-4.69,0"/><path class="cls-40" d="M312.61,232.37c-5.19-.17-4.69,0-4.69,0"/><path class="cls-40" d="M312.61,234.72c-5.19-.17-4.69,0-4.69,0"/><path class="cls-40" d="M316.38,229.92c-.17,5.2,0,4.7,0,4.7"/><path class="cls-40" d="M318.84,229.92c-.17,5.2,0,4.7,0,4.7"/><path class="cls-40" d="M321.2,229.92c-.17,5.2,0,4.7,0,4.7"/><path class="cls-40" d="M329.1,229.9c-5.2-.17-4.7,0-4.7,0"/><path class="cls-40" d="M329.1,232.37c-5.2-.17-4.7,0-4.7,0"/><path class="cls-40" d="M329.1,234.72c-5.2-.17-4.7,0-4.7,0"/><path class="cls-40" d="M332.86,229.92c-.17,5.2,0,4.7,0,4.7"/><path class="cls-40" d="M335.32,229.92c-.17,5.2,0,4.7,0,4.7"/><path class="cls-40" d="M337.68,229.92c-.17,5.2,0,4.7,0,4.7"/><path class="cls-40" d="M345.58,229.9c-5.19-.17-4.69,0-4.69,0"/><path class="cls-40" d="M345.58,232.37c-5.19-.17-4.69,0-4.69,0"/><path class="cls-40" d="M345.58,234.72c-5.19-.17-4.69,0-4.69,0"/><g class="cls-41"><polygon class="cls-42" points="277.5 314.57 236.79 274.42 277.99 203.13 320.17 271.3 277.5 314.57"/><polygon class="cls-42" points="277.44 329.65 225.7 278.64 278.06 188.05 331.65 274.67 277.44 329.65"/><polygon class="cls-43" points="277.69 302.69 245.66 271.1 278.08 215.01 311.26 268.65 277.69 302.69"/><polygon class="cls-43" points="277.88 290.8 254.53 267.78 278.16 226.9 302.35 265.99 277.88 290.8"/><polygon class="cls-43" points="278.04 280.44 262.27 264.88 278.23 237.26 294.57 263.67 278.04 280.44"/><polygon class="cls-43" points="278.08 271.75 268.65 262.45 278.19 245.94 287.96 261.73 278.08 271.75"/><polygon class="cls-43" points="278.12 263.07 275.03 260.03 278.15 254.63 281.35 259.79 278.12 263.07"/></g><rect class="cls-2" x="298.75" y="288.64" width="57.52" height="27.17"/><rect class="cls-2" x="298.75" y="200.55" width="56.7" height="27.17"/><path class="cls-2" d="M494.11,200.32V223H597.54V200.32Zm24.07,13.37a2.71,2.71,0,0,1-2.71-2.71c0-1.49,1.21-2.15,2.71-2.15s2.16.93,2.16,2.43S519.67,213.69,518.18,213.69Zm27.42,0a2.71,2.71,0,0,1-2.71-2.71c0-1.49,1.21-2.15,2.71-2.15s2.16.93,2.16,2.43S547.1,213.69,545.6,213.69Zm28.18,0a2.71,2.71,0,0,1-2.72-2.71c0-1.49,1.22-2.15,2.72-2.15s2.15.93,2.15,2.43S575.27,213.69,573.78,213.69Z"/><path class="cls-3" d="M506.65,211.26c0,1.5-.66,2.43-2.16,2.43a2.71,2.71,0,0,1-2.71-2.71c0-1.49,1.21-2.15,2.71-2.15S506.65,209.76,506.65,211.26Z"/><path class="cls-3" d="M534.07,211.26c0,1.5-.66,2.43-2.16,2.43A2.71,2.71,0,0,1,529.2,211c0-1.49,1.22-2.15,2.71-2.15S534.07,209.76,534.07,211.26Z"/><path class="cls-3" d="M562.25,211.26c0,1.5-.66,2.43-2.16,2.43a2.71,2.71,0,0,1-2.71-2.71c0-1.49,1.21-2.15,2.71-2.15S562.25,209.76,562.25,211.26Z"/><path class="cls-3" d="M589.67,211.26c0,1.5-.66,2.43-2.16,2.43A2.71,2.71,0,0,1,584.8,211c0-1.49,1.22-2.15,2.71-2.15S589.67,209.76,589.67,211.26Z"/><g class="cls-44"><polygon class="cls-45" points="544.95 325.79 504.61 286 545.44 215.34 587.24 282.9 544.95 325.79"/><polygon class="cls-46" points="544.89 340.74 493.62 290.18 545.5 200.39 598.62 286.25 544.89 340.74"/><polygon class="cls-45" points="545.14 314.02 513.39 282.71 545.52 227.11 578.41 280.27 545.14 314.02"/><polygon class="cls-45" points="545.33 302.23 522.19 279.41 545.6 238.9 569.57 277.64 545.33 302.23"/><polygon class="cls-45" points="545.49 291.96 529.86 276.54 545.68 249.17 561.87 275.34 545.49 291.96"/><polygon class="cls-45" points="545.53 283.35 536.18 274.14 545.64 257.77 555.32 273.42 545.53 283.35"/><polygon class="cls-45" points="545.56 274.75 542.51 271.73 545.6 266.38 548.77 271.5 545.56 274.75"/></g><path class="cls-1" d="M647.39,229.79c-13.33,0-23.1,9.31-26.32,21.69h53C670.68,239.16,660.75,229.79,647.39,229.79Z"/><path class="cls-2" d="M674.18,265.65c-3.23,12.39-13,21.7-26.48,21.7-13.22,0-23.13-9.38-26.51-21.7H589.67c4.09,28.74,27.34,50.53,57.72,50.53s53.71-21.9,58-50.53Zm-48.68,33a4.48,4.48,0,0,1-4.43-4.53c0-2.51,2-3.61,4.43-3.61S629,292.1,629,294.6,628,298.67,625.5,298.67Zm44.54,0c-2.44,0-3.52-1.56-3.52-4.07s1.08-4.07,3.52-4.07,4.43,1.1,4.43,3.61A4.48,4.48,0,0,1,670,298.67Z"/><path class="cls-3" d="M613.61,277.14c0,2.51-1.08,4.07-3.52,4.07a4.48,4.48,0,0,1-4.43-4.53c0-2.5,2-3.61,4.43-3.61S613.61,274.64,613.61,277.14Z"/><path class="cls-3" d="M651.5,303.66c0,2.51-1.08,4.07-3.53,4.07a4.48,4.48,0,0,1-4.43-4.53c0-2.51,2-3.61,4.43-3.61S651.5,301.16,651.5,303.66Z"/><path class="cls-3" d="M681.93,277.14c0,2.51,1.08,4.07,3.53,4.07a4.49,4.49,0,0,0,4.43-4.53c0-2.5-2-3.61-4.43-3.61S681.93,274.64,681.93,277.14Z"/><g class="cls-47"><polygon class="cls-19" points="646.36 276.49 606.23 234.49 646.84 159.91 688.42 231.22 646.36 276.49"/><polygon class="cls-19" points="646.3 292.26 595.3 238.9 646.91 144.13 699.74 234.75 646.3 292.26"/><polygon class="cls-19" points="645.82 307.66 584.25 243.2 647.08 128.23 710.74 237.81 645.82 307.66"/><polygon class="cls-20" points="646.55 264.06 614.97 231.01 646.92 172.33 679.64 228.44 646.55 264.06"/><polygon class="cls-20" points="646.73 251.62 623.72 227.53 647.01 184.77 670.85 225.66 646.73 251.62"/><polygon class="cls-20" points="646.89 240.78 631.34 224.5 647.08 195.61 663.19 223.24 646.89 240.78"/><polygon class="cls-20" points="646.93 231.69 637.63 221.97 647.04 204.69 656.67 221.21 646.93 231.69"/><polygon class="cls-20" points="646.97 222.61 643.93 219.43 647 213.78 650.15 219.18 646.97 222.61"/></g><polyline class="cls-2" points="410.58 295.74 454.69 295.74 463.02 316.16 497.01 316.16 448.32 200.97 447.73 200.97 432.8 238.56 445.54 271.07 419.89 271.07"/><path class="cls-48" d="M409.74,298.05c-.17,5.16,0,4.66,0,4.66"/><path class="cls-48" d="M412.18,298.05c-.17,5.16,0,4.66,0,4.66"/><path class="cls-48" d="M414.52,298.05c-.17,5.16,0,4.66,0,4.66"/><path class="cls-48" d="M422.36,298c-5.15-.17-4.66,0-4.66,0"/><path class="cls-48" d="M422.36,300.48c-5.15-.17-4.66,0-4.66,0"/><path class="cls-48" d="M422.36,302.82c-5.15-.17-4.66,0-4.66,0"/><path class="cls-48" d="M426.09,298.05c-.16,5.16,0,4.66,0,4.66"/><path class="cls-48" d="M428.54,298.05c-.17,5.16,0,4.66,0,4.66"/><path class="cls-48" d="M430.88,298.05c-.17,5.16,0,4.66,0,4.66"/><path class="cls-48" d="M438.72,298c-5.16-.17-4.66,0-4.66,0"/><path class="cls-48" d="M438.72,300.48c-5.16-.17-4.66,0-4.66,0"/><path class="cls-48" d="M438.72,302.82c-5.16-.17-4.66,0-4.66,0"/><path class="cls-48" d="M442.45,298.05c-.17,5.16,0,4.66,0,4.66"/><path class="cls-48" d="M444.9,298.05c-.17,5.16,0,4.66,0,4.66"/><path class="cls-48" d="M447.24,298.05c-.17,5.16,0,4.66,0,4.66"/><path class="cls-48" d="M455.08,298c-5.16-.17-4.66,0-4.66,0"/><path class="cls-48" d="M455.08,300.48c-5.16-.17-4.66,0-4.66,0"/><path class="cls-48" d="M455.08,302.82c-5.16-.17-4.66,0-4.66,0"/><path class="cls-2" d="M456.19,208.36c-.9.37-1.62.21-2-.68a1.76,1.76,0,0,1,.95-2.3c.89-.37,1.59.2,2,1.09S457.08,208,456.19,208.36Z"/><path class="cls-2" d="M458.53,214c-.9.37-1.62.21-2-.68a1.76,1.76,0,0,1,.95-2.3c.89-.37,1.59.2,2,1.09S459.42,213.64,458.53,214Z"/><path class="cls-2" d="M460.87,219.66c-.9.37-1.62.21-2-.69a1.75,1.75,0,0,1,.95-2.29c.89-.37,1.59.19,2,1.09S461.76,219.29,460.87,219.66Z"/><path class="cls-2" d="M463.21,225.31c-.9.37-1.62.21-2-.69a1.75,1.75,0,0,1,.95-2.29c.89-.37,1.59.19,2,1.09S464.1,224.94,463.21,225.31Z"/><path class="cls-2" d="M465.55,231c-.9.37-1.62.21-2-.69a1.75,1.75,0,0,1,.95-2.29c.89-.37,1.59.19,2,1.09S466.44,230.59,465.55,231Z"/><path class="cls-2" d="M467.89,236.61c-.9.37-1.62.21-2-.69a1.75,1.75,0,0,1,1-2.29c.89-.37,1.58.19,2,1.09S468.78,236.24,467.89,236.61Z"/><path class="cls-2" d="M470.23,242.26c-.9.37-1.62.21-2-.69a1.75,1.75,0,0,1,.95-2.29c.89-.37,1.58.19,2,1.09S471.12,241.89,470.23,242.26Z"/><path class="cls-2" d="M472.56,247.91c-.89.37-1.61.21-2-.69a1.75,1.75,0,0,1,.94-2.29c.9-.37,1.59.19,2,1.09S473.46,247.54,472.56,247.91Z"/><path class="cls-2" d="M474.9,253.56a1.33,1.33,0,0,1-2-.69,1.74,1.74,0,0,1,.94-2.29c.9-.37,1.59.19,2,1.09S475.8,253.19,474.9,253.56Z"/><path class="cls-2" d="M477.24,259.21a1.34,1.34,0,0,1-2-.69,1.76,1.76,0,0,1,.95-2.29c.9-.37,1.59.19,2,1.08S478.14,258.84,477.24,259.21Z"/><path class="cls-2" d="M479.58,264.86a1.34,1.34,0,0,1-2-.69,1.76,1.76,0,0,1,1-2.29c.9-.37,1.59.19,2,1.08S480.48,264.49,479.58,264.86Z"/><path class="cls-2" d="M481.92,270.51a1.34,1.34,0,0,1-2-.69,1.76,1.76,0,0,1,.95-2.29c.9-.37,1.59.19,2,1.08S482.82,270.14,481.92,270.51Z"/><path class="cls-2" d="M484.26,276.16a1.34,1.34,0,0,1-2-.69,1.76,1.76,0,0,1,1-2.29c.9-.38,1.59.19,2,1.08S485.16,275.78,484.26,276.16Z"/><path class="cls-2" d="M486.6,281.8a1.33,1.33,0,0,1-2-.68,1.77,1.77,0,0,1,.95-2.3c.9-.37,1.59.2,2,1.09S487.5,281.43,486.6,281.8Z"/><path class="cls-2" d="M488.94,287.45c-.89.37-1.62.21-2-.68a1.77,1.77,0,0,1,.95-2.3c.9-.37,1.59.2,2,1.09S489.84,287.08,488.94,287.45Z"/><path class="cls-2" d="M491.28,293.1c-.89.37-1.62.21-2-.69a1.76,1.76,0,0,1,.95-2.29c.9-.37,1.59.2,2,1.09S492.18,292.73,491.28,293.1Z"/><path class="cls-2" d="M493.62,298.75c-.89.37-1.62.21-2-.69a1.76,1.76,0,0,1,.95-2.29c.9-.37,1.59.19,2,1.09S494.52,298.38,493.62,298.75Z"/><path class="cls-2" d="M496,304.4c-.89.37-1.62.21-2-.69a1.76,1.76,0,0,1,.95-2.29c.9-.37,1.59.19,2,1.09S496.85,304,496,304.4Z"/><path class="cls-2" d="M498.3,310.05c-.9.37-1.62.21-2-.69a1.75,1.75,0,0,1,.95-2.29c.89-.37,1.59.19,2,1.09S499.19,309.68,498.3,310.05Z"/><path class="cls-2" d="M500.64,315.7c-.9.37-1.62.21-2-.69a1.75,1.75,0,0,1,1-2.29c.89-.37,1.59.19,2,1.09S501.53,315.33,500.64,315.7Z"/><polygon class="cls-1" points="445.54 271.07 432.8 238.56 419.89 271.07 445.54 271.07"/><g class="cls-49"><polygon class="cls-50" points="384.21 302.22 363.96 253.65 424.31 207.82 435.83 280.69 384.21 302.22"/><polygon class="cls-50" points="378.78 314.99 353.05 253.28 429.74 195.05 444.37 287.64 378.78 314.99"/><polygon class="cls-51" points="388.6 292.2 372.67 253.99 420.16 217.93 429.22 275.27 388.6 292.2"/><polygon class="cls-51" points="393 282.18 381.38 254.33 415.99 228.05 422.59 269.84 393 282.18"/><polygon class="cls-51" points="396.82 273.44 388.98 254.63 412.36 236.87 416.82 265.1 396.82 273.44"/><polygon class="cls-51" points="399.95 266.09 395.26 254.84 409.24 244.22 411.9 261.1 399.95 266.09"/><polygon class="cls-51" points="403.07 258.73 401.54 255.05 406.11 251.58 406.99 257.1 403.07 258.73"/></g><path class="cls-1" d="M210.73,256.69c10.7,0,16.86-5.19,16.86-13.46v-.32c0-8.92-6.49-13.46-17-13.46h-16.4v27.24Z"/><path class="cls-2" d="M153.22,199.89V314.82h28.2V199.89Zm14.56,83.8a4.52,4.52,0,0,1-4.52-4.52c0-2.5,2-3.59,4.52-3.59s3.6,1.56,3.6,4.05S170.28,283.69,167.78,283.69Zm0-42.26a4.52,4.52,0,0,1-4.52-4.52c0-2.5,2-3.59,4.52-3.59s3.6,1.56,3.6,4.05S170.28,241.43,167.78,241.43Z"/><path class="cls-3" d="M171.38,215c0,2.49-1.1,4.06-3.6,4.06a4.53,4.53,0,0,1-4.52-4.52c0-2.5,2-3.6,4.52-3.6S171.38,212.5,171.38,215Z"/><path class="cls-3" d="M171.38,259c0,2.5-1.1,4.06-3.6,4.06a4.52,4.52,0,0,1-4.52-4.52c0-2.49,2-3.59,4.52-3.59S171.38,256.49,171.38,259Z"/><path class="cls-3" d="M171.38,300.28c0,2.5-1.1,4.06-3.6,4.06a4.52,4.52,0,0,1-4.52-4.52c0-2.5,2-3.59,4.52-3.59S171.38,297.79,171.38,300.28Z"/><g class="cls-52"><polygon class="cls-53" points="233.33 322.18 185.05 272.83 233.91 185.18 283.92 268.99 233.33 322.18"/><polygon class="cls-53" points="233.25 340.73 171.9 278.01 233.99 166.64 297.54 273.13 233.25 340.73"/><polygon class="cls-53" points="233.15 364.15 155.29 284.56 234.08 143.21 314.75 278.37 233.15 364.15"/><polygon class="cls-54" points="233.55 307.58 195.56 268.75 234 199.78 273.36 265.72 233.55 307.58"/><polygon class="cls-54" points="233.77 292.96 206.09 264.66 234.1 214.4 262.78 262.46 233.77 292.96"/><polygon class="cls-54" points="233.97 280.22 215.26 261.1 234.19 227.14 253.57 259.61 233.97 280.22"/><polygon class="cls-54" points="234.01 269.54 222.83 258.11 234.14 237.81 245.73 257.22 234.01 269.54"/><polygon class="cls-54" points="234.06 258.87 230.4 255.13 234.1 248.49 237.89 254.84 234.06 258.87"/></g><path class="cls-2" d="M713.36,200.67V315.61h28.2V200.67Zm14.56,83.8A4.52,4.52,0,0,1,723.4,280c0-2.49,2-3.59,4.52-3.59s3.6,1.56,3.6,4.06S730.41,284.47,727.92,284.47Zm0-42.26a4.52,4.52,0,0,1-4.52-4.52c0-2.49,2-3.59,4.52-3.59s3.6,1.56,3.6,4.05S730.41,242.21,727.92,242.21Z"/><path class="cls-3" d="M731.52,215.78c0,2.5-1.11,4.06-3.6,4.06a4.52,4.52,0,0,1-4.52-4.52c0-2.5,2-3.59,4.52-3.59S731.52,213.29,731.52,215.78Z"/><path class="cls-3" d="M731.52,259.77c0,2.49-1.11,4.05-3.6,4.05a4.52,4.52,0,0,1-4.52-4.52c0-2.49,2-3.59,4.52-3.59S731.52,257.27,731.52,259.77Z"/><path class="cls-3" d="M731.52,301.07c0,2.49-1.11,4.05-3.6,4.05a4.52,4.52,0,0,1-4.52-4.52c0-2.49,2-3.59,4.52-3.59S731.52,298.57,731.52,301.07Z"/><g class="cls-55"><polygon class="cls-53" points="793.46 322.97 745.18 273.61 794.04 185.96 844.06 269.77 793.46 322.97"/><polygon class="cls-53" points="793.39 341.51 732.04 278.79 794.12 167.42 857.68 273.91 793.39 341.51"/><polygon class="cls-53" points="793.29 364.93 715.43 285.34 794.22 143.99 874.88 279.15 793.29 364.93"/><polygon class="cls-54" points="793.69 308.36 755.7 269.53 794.14 200.56 833.5 266.51 793.69 308.36"/><polygon class="cls-54" points="793.91 293.74 766.23 265.44 794.24 215.18 822.92 263.24 793.91 293.74"/><polygon class="cls-54" points="794.1 281 775.4 261.88 794.33 227.92 813.71 260.39 794.1 281"/><polygon class="cls-54" points="794.15 270.33 782.97 258.89 794.28 238.59 805.87 258.01 794.15 270.33"/><polygon class="cls-54" points="794.19 259.65 790.53 255.91 794.24 249.27 798.03 255.62 794.19 259.65"/></g><path class="cls-2" d="M97.9,199.89V228c8.92.91,15.37,5.71,21,12.81L142,222.91C132.64,209.89,118.9,200.65,97.9,199.89ZM111,215.56a1.9,1.9,0,0,1-1.9-1.89c0-1,.85-1.5,1.9-1.5s1.5.65,1.5,1.69S112.08,215.56,111,215.56Zm13,9.24a1.89,1.89,0,0,1-1.89-1.89c0-1,.84-1.51,1.89-1.51s1.51.66,1.51,1.7S125.06,224.8,124,224.8Z"/><path class="cls-3" d="M104.55,212.17c0,1-.47,1.69-1.51,1.69a1.89,1.89,0,0,1-1.89-1.89c0-1,.85-1.5,1.89-1.5S104.55,211.12,104.55,212.17Z"/><path class="cls-3" d="M119.9,217.23c0,1-.46,1.69-1.51,1.69A1.89,1.89,0,0,1,116.5,217c0-1,.85-1.5,1.89-1.5S119.9,216.18,119.9,217.23Z"/><path class="cls-3" d="M130.38,229.54c0,1.05-.47,1.7-1.51,1.7a1.89,1.89,0,0,1-1.89-1.89c0-1,.85-1.51,1.89-1.51S130.38,228.5,130.38,229.54Z"/><path class="cls-1" d="M73.12,257.06v.32c0,13,6.71,23.81,17.09,27.85V229.54C79.83,233.61,73.12,244.41,73.12,257.06Z"/><g class="cls-56"><polygon class="cls-57" points="63.45 307.42 21.71 264.82 65.96 191.2 108.73 263.06 63.45 307.42"/><polygon class="cls-57" points="63.11 323.15 10.07 269.02 66.3 175.47 120.64 266.78 63.11 323.15"/><polygon class="cls-58" points="63.86 295.04 31.02 261.52 65.83 203.59 99.49 260.13 63.86 295.04"/><polygon class="cls-58" points="64.27 282.63 40.33 258.21 65.71 216 90.23 257.2 64.27 282.63"/><polygon class="cls-58" points="64.63 271.83 48.45 255.32 65.6 226.8 82.17 254.64 64.63 271.83"/><polygon class="cls-58" points="64.82 262.77 55.15 252.91 65.4 235.86 75.31 252.5 64.82 262.77"/><polygon class="cls-58" points="65.02 253.72 61.85 250.49 65.21 244.91 68.45 250.36 65.02 253.72"/><line class="cls-59" x1="63.59" y1="322.77" x2="63.26" y2="355.61"/></g><path class="cls-2" d="M119.74,273.51c-6,7.3-12.16,12.4-21.84,13.29v28c22-1.12,35.08-11.31,44.92-24.87Zm-7.44,26.07c-.45.95-1.24,1.08-2.18.63s-1.33-1.15-.88-2.09a1.9,1.9,0,0,1,2.53-.89C112.71,297.68,112.76,298.64,112.3,299.58Zm14-7.7c-.45.94-1.24,1.07-2.18.62s-1.33-1.15-.88-2.09a1.89,1.89,0,0,1,2.52-.89C126.65,290,126.7,290.93,126.25,291.88Z"/><path class="cls-3" d="M129.06,286c-.94-.45-1.33-1.15-.88-2.09a1.88,1.88,0,0,1,2.52-.88c.94.45,1,1.41.54,2.35A1.43,1.43,0,0,1,129.06,286Z"/><path class="cls-3" d="M117.85,297.67c-.94-.45-1.33-1.15-.88-2.09a1.89,1.89,0,0,1,2.53-.88c.94.45,1,1.41.53,2.35A1.43,1.43,0,0,1,117.85,297.67Z"/><path class="cls-3" d="M102.22,301.79c-1-.45-1.34-1.15-.88-2.09a1.89,1.89,0,0,1,2.52-.89c.94.46,1,1.42.54,2.36A1.44,1.44,0,0,1,102.22,301.79Z"/><path class="cls-2" d="M865.92,259.82c-36.52-11.43-36.36-34-34.12-44.37a32.45,32.45,0,0,0-8.94,23v.32c0,22.67,18.1,29.28,41.56,34.63,15,3.47,18.58,6,18.58,10.55v.31c0,4.73-4.41,7.56-12.6,7.56-12.75,0-24.87-4.56-35.73-13.22l-17,20.3c13.53,12.13,32.11,18.27,51.63,18.27,26,0,43.52-12.63,44.51-34C904.25,274.26,889.08,267.06,865.92,259.82Zm-10,47.65a4.33,4.33,0,0,1-4.34-4.33c0-2.39,1.94-3.45,4.34-3.45s3.45,1.5,3.45,3.89S858.33,307.47,855.94,307.47Zm35.1-4.86a4.33,4.33,0,0,1-4.34-4.33c0-2.4,1.94-3.45,4.34-3.45s3.45,1.5,3.45,3.89S893.43,302.61,891,302.61Z"/><g class="cls-60"><polygon class="cls-61" points="880.19 272.91 838.41 230.19 880.69 154.34 923.98 226.87 880.19 272.91"/><polygon class="cls-61" points="880.12 288.95 827.03 234.68 880.76 138.29 935.76 230.46 880.12 288.95"/><polygon class="cls-61" points="880.04 309.23 812.65 240.34 880.85 118.02 950.65 234.99 880.04 309.23"/><polygon class="cls-62" points="880.38 260.27 847.5 226.66 880.78 166.98 914.84 224.05 880.38 260.27"/><polygon class="cls-62" points="880.57 247.62 856.62 223.12 880.86 179.63 905.68 221.22 880.57 247.62"/><polygon class="cls-62" points="880.74 236.59 864.55 220.04 880.94 190.65 897.71 218.75 880.74 236.59"/><polygon class="cls-62" points="880.78 227.35 871.1 217.46 880.9 199.89 890.92 216.69 880.78 227.35"/><polygon class="cls-62" points="880.82 218.11 877.65 214.88 880.86 209.13 884.14 214.63 880.82 218.11"/></g><path class="cls-3" d="M843,295.8c0,2.4-1.06,3.89-3.45,3.89a4.33,4.33,0,0,1-4.33-4.33c0-2.39,1.94-3.44,4.33-3.44S843,293.41,843,295.8Z"/><path class="cls-3" d="M877.72,306.5c0,2.39-1.06,3.89-3.45,3.89a4.33,4.33,0,0,1-4.34-4.33c0-2.4,1.94-3.45,4.34-3.45S877.72,304.11,877.72,306.5Z"/><path class="cls-3" d="M901.23,282.16c0,2.39-1.05,3.89-3.45,3.89a4.33,4.33,0,0,1-4.33-4.34c0-2.39,1.94-3.44,4.33-3.44S901.23,279.77,901.23,282.16Z"/></g></g></svg>