<svg xmlns="http://www.w3.org/2000/svg" xmlns:xlink="http://www.w3.org/1999/xlink" viewBox="0 0 96.56 132.9"><defs><style>.cls-1,.cls-5{fill:none;}.cls-2{fill:#d18311;}.cls-3{fill:#0a2237;}.cls-4{clip-path:url(#clip-path);}.cls-5{stroke:#0a2237;stroke-miterlimit:10;stroke-width:0.94px;}</style><clipPath id="clip-path"><path class="cls-1" d="M46.4,79.11c8.49-3.61,14.05-10.54,14.05-21v-.2c0-6.73-2.05-12-6.05-15.9-4.59-4.68-11.8-7.41-22.24-7.41H21.31V51h9.87c6.34,0,10.24,2.73,10.24,8.1v.19c0,5-3.7,8.1-10.14,8.1h-10V82.23h5.77l13.76,20.68H62.69Z"/></clipPath></defs><title>Asset 17</title><g id="Layer_2" data-name="Layer 2"><g id="Layer_1-2" data-name="Layer 1"><path class="cls-2" d="M0,34.62v68.29H16.75V34.62ZM8.65,84.41A2.69,2.69,0,0,1,6,81.73c0-1.49,1.21-2.14,2.69-2.14s2.14.93,2.14,2.41S10.13,84.41,8.65,84.41Zm0-25.11A2.69,2.69,0,0,1,6,56.62c0-1.49,1.21-2.14,2.69-2.14s2.14.93,2.14,2.41S10.13,59.3,8.65,59.3Z"/><path class="cls-3" d="M10.79,43.6c0,1.48-.66,2.41-2.14,2.41A2.69,2.69,0,0,1,6,43.32c0-1.48,1.21-2.13,2.69-2.13S10.79,42.11,10.79,43.6Z"/><path class="cls-3" d="M10.79,69.73c0,1.48-.66,2.41-2.14,2.41A2.69,2.69,0,0,1,6,69.46C6,68,7.17,67.32,8.65,67.32S10.79,68.25,10.79,69.73Z"/><path class="cls-3" d="M10.79,94.27c0,1.48-.66,2.41-2.14,2.41A2.69,2.69,0,0,1,6,94c0-1.49,1.21-2.14,2.69-2.14S10.79,92.79,10.79,94.27Z"/><g class="cls-4"><polygon class="cls-5" points="47.59 107.28 18.91 77.96 47.94 25.88 77.66 75.68 47.59 107.28"/><polygon class="cls-5" points="47.55 118.3 11.1 81.04 47.99 14.86 85.75 78.14 47.55 118.3"/><polygon class="cls-5" points="47.49 132.22 1.23 84.93 48.05 0.94 95.97 81.25 47.49 132.22"/><polygon class="cls-5" points="47.73 98.61 25.16 75.53 48 34.55 71.38 73.74 47.73 98.61"/><polygon class="cls-5" points="47.86 89.92 31.41 73.1 48.06 43.24 65.1 71.8 47.86 89.92"/><polygon class="cls-5" points="47.97 82.35 36.86 70.99 48.11 50.81 59.62 70.1 47.97 82.35"/><polygon class="cls-5" points="48 76.01 41.36 69.21 48.08 57.15 54.96 68.69 48 76.01"/><polygon class="cls-5" points="48.03 69.66 45.85 67.44 48.05 63.49 50.31 67.27 48.03 69.66"/></g></g></g></svg>