<svg xmlns="http://www.w3.org/2000/svg" xmlns:xlink="http://www.w3.org/1999/xlink" viewBox="0 0 120.31 151.72"><defs><style>.cls-1,.cls-4{fill:none;}.cls-2{fill:#d18311;}.cls-3{clip-path:url(#clip-path);}.cls-4{stroke:#0a2237;stroke-miterlimit:10;stroke-width:1.24px;}.cls-5{fill:#0a2237;}</style><clipPath id="clip-path"><polygon class="cls-1" points="66.07 42.17 46.07 42.17 46.07 110.46 64.61 110.46 64.61 71.43 80.3 95.42 80.3 65.26 66.07 42.17"/></clipPath></defs><title>Asset 11</title><g id="Layer_2" data-name="Layer 2"><g id="Layer_1-2" data-name="Layer 1"><path class="cls-2" d="M120.31,42.17v68.29H101.48V71.24L85.27,96.05V66.57l15-24.4Zm-6.64,5.41c0-1.59-.7-2.87-2.28-2.87a2.87,2.87,0,0,0-2.88,2.87c0,1.58,1,2.28,2.58,2.28S113.67,49.16,113.67,47.58ZM102,61.74c0-1.59-.7-2.87-2.28-2.87a2.86,2.86,0,0,0-2.87,2.87c0,1.59,1,2.29,2.57,2.29S102,63.33,102,61.74ZM113.67,71c0-1.59-.7-2.87-2.28-2.87A2.87,2.87,0,0,0,108.51,71c0,1.59,1,2.29,2.58,2.29S113.67,72.61,113.67,71Zm0,22.34c0-1.59-.7-2.88-2.28-2.88a2.88,2.88,0,0,0-2.88,2.88c0,1.58,1,2.28,2.58,2.28S113.67,94.94,113.67,93.36Z"/><g class="cls-3"><polygon class="cls-4" points="55.56 123.37 20.97 89.26 55.98 28.68 91.82 86.61 55.56 123.37"/><polygon class="cls-4" points="55.51 136.19 11.55 92.84 56.04 15.87 101.58 89.47 55.51 136.19"/><polygon class="cls-4" points="55.44 150.84 0.78 96.94 56.1 1.21 112.73 92.75 55.44 150.84"/><polygon class="cls-4" points="55.72 113.28 28.5 86.44 56.05 38.77 84.25 84.35 55.72 113.28"/><polygon class="cls-4" points="55.88 103.17 36.05 83.61 56.12 48.88 76.67 82.09 55.88 103.17"/><polygon class="cls-4" points="56.02 94.37 42.62 81.15 56.18 57.68 70.07 80.12 56.02 94.37"/><polygon class="cls-4" points="56.05 86.99 48.04 79.09 56.15 65.06 64.45 78.47 56.05 86.99"/><polygon class="cls-4" points="56.09 79.61 53.47 77.03 56.12 72.44 58.83 76.83 56.09 79.61"/></g><path class="cls-5" d="M90.24,78.76c-1.59,0-2.58-.7-2.58-2.28a2.87,2.87,0,0,1,2.87-2.87c1.59,0,2.29,1.28,2.29,2.87S91.82,78.76,90.24,78.76Z"/><path class="cls-5" d="M111.09,62.14c-1.58,0-2.58-.7-2.58-2.29A2.88,2.88,0,0,1,111.39,57c1.58,0,2.28,1.29,2.28,2.87S112.68,62.14,111.09,62.14Z"/><path class="cls-5" d="M111.09,84.47c-1.58,0-2.58-.7-2.58-2.28a2.87,2.87,0,0,1,2.88-2.87c1.58,0,2.28,1.28,2.28,2.87S112.68,84.47,111.09,84.47Z"/><path class="cls-5" d="M111.09,106.81c-1.58,0-2.58-.7-2.58-2.29a2.88,2.88,0,0,1,2.88-2.87c1.58,0,2.28,1.29,2.28,2.87S112.68,106.81,111.09,106.81Z"/></g></g></svg>