<svg xmlns="http://www.w3.org/2000/svg" xmlns:xlink="http://www.w3.org/1999/xlink" viewBox="0 0 70.93 91.09"><defs><style>.cls-1,.cls-4,.cls-5{fill:none;}.cls-2{fill:#0a2237;}.cls-3{clip-path:url(#clip-path);}.cls-4,.cls-5{stroke:#d18311;stroke-miterlimit:10;}.cls-4{stroke-width:0.69px;}.cls-5{stroke-width:1.03px;}.cls-6{fill:#d18311;}</style><clipPath id="clip-path"><polygon class="cls-1" points="52.48 17.54 44.45 17.54 35.6 32.8 27.04 17.54 18.57 17.54 35.47 47.39 52.48 17.54"/></clipPath></defs><title>Asset 4</title><g id="Layer_2" data-name="Layer 2"><g id="Layer_1-2" data-name="Layer 1"><path class="cls-2" d="M70.93,14.87,45,57.31V83.16H26V57.6L0,14.87H14.06L35.55,51.8,57.06,14.87ZM37.16,59.34c0-1-.44-1.79-1.43-1.79A1.79,1.79,0,0,0,34,59.34c0,1,.62,1.42,1.6,1.42S37.16,60.32,37.16,59.34Zm0,17.56c0-1-.44-1.79-1.43-1.79A1.79,1.79,0,0,0,34,76.9c0,1,.62,1.42,1.6,1.42S37.16,77.89,37.16,76.9ZM48,45.06c.49-.86.52-1.77-.33-2.26a1.79,1.79,0,0,0-2.45.65c-.49.85-.17,1.54.68,2A1.36,1.36,0,0,0,48,45.06Zm9.58-15.33c.5-.86.52-1.77-.33-2.26a1.78,1.78,0,0,0-2.44.65c-.5.85-.18,1.54.67,2S57,30.58,57.53,29.73ZM25.41,45.57c.85-.49,1.17-1.18.67-2a1.79,1.79,0,0,0-2.44-.65c-.85.49-.83,1.4-.33,2.26S24.55,46.07,25.41,45.57ZM15.83,30.24c.85-.49,1.17-1.18.67-2a1.78,1.78,0,0,0-2.44-.65c-.85.49-.83,1.4-.33,2.26S15,30.74,15.83,30.24Z"/><g class="cls-3"><polygon class="cls-4" points="35.23 66.99 13.87 46.19 35.29 8.87 57.47 44.28 35.23 66.99"/><polygon class="cls-5" points="35.23 74.86 8.07 48.42 35.29 1 63.48 46 35.23 74.86"/><polygon class="cls-4" points="35.31 60.8 18.5 44.43 35.35 15.06 52.81 42.93 35.31 60.8"/><polygon class="cls-4" points="35.39 54.59 23.13 42.66 35.42 21.26 48.14 41.57 35.39 54.59"/><polygon class="cls-4" points="35.45 49.19 27.17 41.13 35.47 26.66 44.07 40.39 35.45 49.19"/><polygon class="cls-4" points="35.46 44.66 30.51 39.84 35.47 31.19 40.61 39.4 35.46 44.66"/><polygon class="cls-4" points="35.46 40.13 33.84 38.55 35.47 35.72 37.15 38.41 35.46 40.13"/><line class="cls-5" x1="35.46" y1="74.66" x2="35.63" y2="91.08"/></g><path class="cls-6" d="M35.55,69.54c-1,0-1.6-.44-1.6-1.42a1.79,1.79,0,0,1,1.78-1.79c1,0,1.43.8,1.43,1.79S36.54,69.54,35.55,69.54Z"/><path class="cls-6" d="M50.25,37.88a1.36,1.36,0,0,1-.68-2A1.79,1.79,0,0,1,52,35.2c.86.49.83,1.4.34,2.26A1.36,1.36,0,0,1,50.25,37.88Z"/><path class="cls-6" d="M41.45,53.08c-.85-.49-1.17-1.18-.67-2a1.78,1.78,0,0,1,2.44-.65c.85.49.83,1.4.33,2.26S42.31,53.58,41.45,53.08Z"/><path class="cls-6" d="M59.83,22.55c-.85-.49-1.17-1.18-.67-2a1.78,1.78,0,0,1,2.44-.65c.85.49.82,1.4.33,2.25A1.35,1.35,0,0,1,59.83,22.55Z"/><path class="cls-6" d="M21,38c.85-.49,1.17-1.18.68-2a1.79,1.79,0,0,0-2.44-.65c-.86.49-.83,1.4-.34,2.26A1.36,1.36,0,0,0,21,38Z"/><path class="cls-6" d="M29.81,53.18c.85-.5,1.17-1.19.67-2A1.79,1.79,0,0,0,28,50.49c-.85.49-.83,1.4-.33,2.26S29,53.67,29.81,53.18Z"/><path class="cls-6" d="M11.43,22.64c.85-.49,1.17-1.18.67-2A1.78,1.78,0,0,0,9.66,20c-.85.49-.83,1.4-.33,2.26S10.57,23.14,11.43,22.64Z"/></g></g></svg>