<svg xmlns="http://www.w3.org/2000/svg" xmlns:xlink="http://www.w3.org/1999/xlink" viewBox="0 0 81.92 110.93"><defs><style>.cls-1,.cls-4{fill:none;}.cls-2{fill:#0a2237;}.cls-3{clip-path:url(#clip-path);}.cls-4{stroke:#d18311;stroke-miterlimit:10;stroke-width:0.86px;}.cls-5{fill:#d18311;}</style><clipPath id="clip-path"><path class="cls-1" d="M41.84,45l8.78,7.51a18.13,18.13,0,0,1-6.43,1.17C34.51,53.67,28,45.62,28,36.48V36.3a18.34,18.34,0,0,1,2.79-9.83L18,14.93A32.32,32.32,0,0,0,10,36.3v.18c0,18.19,14.48,32.75,34,32.75a35.25,35.25,0,0,0,19.27-5.6l7,6.24,3.94-4.38L46.09,40.22Z"/></clipPath></defs><title>Asset 28</title><g id="Layer_2" data-name="Layer 2"><g id="Layer_1-2" data-name="Layer 1"><path class="cls-2" d="M81.19,58.21l-4.92,5.48L48.17,38.43l4.62-5.19L61.38,41a17.12,17.12,0,0,0,1.09-6.15v-.18c0-9.23-6.61-17.28-16.38-17.28a15.37,15.37,0,0,0-13.22,7.27L20,13.14A34.36,34.36,0,0,1,46.27,1.58c19.54,0,34,14.56,34,32.75v.18a31.56,31.56,0,0,1-5.61,18.18ZM46.85,9.45c0-1.53-.67-2.77-2.2-2.77a2.78,2.78,0,0,0-2.78,2.77c0,1.53,1,2.21,2.49,2.21S46.85,11,46.85,9.45Zm22.9,11c0-1.53-.67-2.77-2.2-2.77a2.77,2.77,0,0,0-2.77,2.77c0,1.53,1,2.21,2.48,2.21S69.75,21.94,69.75,20.41Zm1.63,25.74c0-1.54-.67-2.78-2.2-2.78a2.77,2.77,0,0,0-2.77,2.78c0,1.53,1,2.2,2.48,2.2S71.38,47.68,71.38,46.15Z"/><path class="cls-1" d="M28,36.48c0,9.14,6.51,17.19,16.19,17.19a18.13,18.13,0,0,0,6.43-1.17L41.84,45l4.25-4.77L30.79,26.47A18.34,18.34,0,0,0,28,36.3Z"/><g class="cls-3"><polygon class="cls-4" points="46.62 90.23 13.49 73.23 25.18 20.91 64.68 55.03 46.62 90.23"/><polygon class="cls-4" points="49.52 99.62 7.43 78.02 22.28 11.53 72.47 54.88 49.52 99.62"/><polygon class="cls-4" points="52.84 110.35 0.49 83.48 18.96 0.79 81.39 54.72 52.84 110.35"/><polygon class="cls-4" points="44.42 82.82 18.35 69.44 27.55 28.27 58.63 55.12 44.42 82.82"/><polygon class="cls-4" points="42.21 75.39 23.22 65.64 29.92 35.64 52.57 55.21 42.21 75.39"/><polygon class="cls-4" points="40.29 68.92 27.46 62.34 31.99 42.06 47.29 55.28 40.29 68.92"/><polygon class="cls-4" points="38.62 63.52 30.95 59.58 33.66 47.47 42.81 55.37 38.62 63.52"/><polygon class="cls-4" points="36.95 58.12 34.44 56.83 35.33 52.87 38.32 55.45 36.95 58.12"/></g><path class="cls-5" d="M31.67,16.19c-1.53,0-2.49-.67-2.49-2.2A2.78,2.78,0,0,1,32,11.21c1.54,0,2.21,1.25,2.21,2.78S33.2,16.19,31.67,16.19Z"/><path class="cls-5" d="M56.91,14.27c-1.53,0-2.49-.68-2.49-2.21a2.77,2.77,0,0,1,2.77-2.77c1.54,0,2.21,1.24,2.21,2.77S58.44,14.27,56.91,14.27Z"/><path class="cls-5" d="M71.28,35.26c-1.53,0-2.49-.67-2.49-2.2a2.77,2.77,0,0,1,2.78-2.78c1.53,0,2.2,1.24,2.2,2.78S72.81,35.26,71.28,35.26Z"/></g></g></svg>