<svg xmlns="http://www.w3.org/2000/svg" xmlns:xlink="http://www.w3.org/1999/xlink" viewBox="0 0 88.01 113.24"><defs><style>.cls-1,.cls-4,.cls-5{fill:none;}.cls-2{fill:#0a2237;}.cls-3{clip-path:url(#clip-path);}.cls-4,.cls-5{stroke:#d18311;stroke-miterlimit:10;}.cls-4{stroke-width:1.01px;}.cls-5{stroke-width:1.51px;}.cls-6{fill:#d18311;}</style><clipPath id="clip-path"><path class="cls-1" d="M43.31,68.29A41.53,41.53,0,0,0,70,58.81V38.05H41.73v5.58H53.85v7.46A17.38,17.38,0,0,1,44,53.63c-9.26,0-16-6.42-16.62-15.58H9.91C10.67,55.85,24.71,68.29,43.31,68.29Z"/></clipPath></defs><title>Asset 10</title><g id="Layer_2" data-name="Layer 2"><g id="Layer_1-2" data-name="Layer 1"><path class="cls-2" d="M27.39,33.66H9.91c0-.51,0-1,0-1.54V32C9.87,14,23.91,0,43,0c10.8,0,18.43,3.34,24.93,9l-10,12c-4.39-3.69-8.77-5.8-14.83-5.8-8.87,0-15.71,7.47-15.71,16.86v.17C27.34,32.7,27.36,33.18,27.39,33.66Zm-6.87-5.09c0-1.13-.5-2.05-1.63-2.05a2.05,2.05,0,0,0-2.06,2.05c0,1.14.71,1.64,1.85,1.64S20.52,29.71,20.52,28.57ZM31.27,12c0-1.14-.5-2.06-1.64-2.06A2.05,2.05,0,0,0,27.58,12c0,1.13.71,1.63,1.84,1.63S31.27,13.16,31.27,12ZM51.82,8.46c0-1.14-.5-2.06-1.63-2.06a2.06,2.06,0,0,0-2.06,2.06c0,1.13.71,1.63,1.85,1.63S51.82,9.59,51.82,8.46Z"/><g class="cls-3"><polygon class="cls-4" points="63.97 86.14 20.17 83.13 8.48 20.99 67.17 39.59 63.97 86.14"/><polygon class="cls-5" points="71.48 94.96 15.82 91.13 0.98 12.17 75.54 35.8 71.48 94.96"/><polygon class="cls-4" points="58.13 79.13 23.67 76.76 14.48 27.86 60.65 42.5 58.13 79.13"/><polygon class="cls-4" points="52.29 72.11 27.17 70.38 20.48 34.75 54.13 45.41 52.29 72.11"/><polygon class="cls-4" points="47.2 65.99 30.23 64.82 25.7 40.75 48.44 47.95 47.2 65.99"/><polygon class="cls-4" points="42.88 60.91 32.73 60.22 30.03 45.82 43.62 50.13 42.88 60.91"/><polygon class="cls-4" points="38.55 55.84 35.24 55.61 34.35 50.9 38.8 52.31 38.55 55.84"/><line class="cls-5" x1="71.55" y1="94.51" x2="87.44" y2="112.74"/></g><path class="cls-6" d="M22.05,21c-1.13,0-1.84-.5-1.84-1.63a2.05,2.05,0,0,1,2.05-2.06c1.13,0,1.63.92,1.63,2.06S23.18,21,22.05,21Z"/><path class="cls-6" d="M39.49,9.63c-1.13,0-1.84-.5-1.84-1.64a2.05,2.05,0,0,1,2.05-2c1.13,0,1.63.92,1.63,2.05S40.62,9.63,39.49,9.63Z"/><path class="cls-6" d="M59.09,14.87c-1.13,0-1.84-.5-1.84-1.63a2.06,2.06,0,0,1,2.06-2.06c1.13,0,1.63.92,1.63,2.06S60.23,14.87,59.09,14.87Z"/></g></g></svg>