<svg xmlns="http://www.w3.org/2000/svg" xmlns:xlink="http://www.w3.org/1999/xlink" viewBox="0 0 123.52 86.18"><defs><style>.cls-1,.cls-4,.cls-5{fill:none;}.cls-2{fill:#d18311;}.cls-3{clip-path:url(#clip-path);}.cls-4,.cls-5{stroke:#0a2237;stroke-miterlimit:10;}.cls-4{stroke-width:1.08px;}.cls-5{stroke-width:1.33px;}.cls-6{fill:#0a2237;}</style><clipPath id="clip-path"><polygon class="cls-1" points="93.83 6.94 38.39 6.94 38.39 21.91 69.35 21.91 37.29 57.99 37.29 70.87 37.3 70.87 93.83 6.95 93.83 6.94"/></clipPath></defs><title>Asset 3</title><g id="Layer_2" data-name="Layer 2"><g id="Layer_1-2" data-name="Layer 1"><path class="cls-2" d="M94.25,75.23H35.93L93.77,9.69l.48,14.48L62.19,60.25H94.25ZM80.07,67.94c0-1-.43-1.74-1.39-1.74a1.74,1.74,0,0,0-1.74,1.74c0,1,.6,1.39,1.56,1.39S80.07,68.9,80.07,67.94Zm-18.3,0c0-1-.43-1.74-1.39-1.74a1.74,1.74,0,0,0-1.74,1.74c0,1,.6,1.39,1.56,1.39S61.77,68.9,61.77,67.94ZM82.86,30.83c-.71-.65-1.57-.86-2.22-.15a1.74,1.74,0,0,0,.11,2.46,1.33,1.33,0,0,0,2.08-.22A1.33,1.33,0,0,0,82.86,30.83ZM70.07,44.59c-.71-.65-1.57-.86-2.22-.15A1.74,1.74,0,0,0,68,46.9a1.58,1.58,0,0,0,2.11-2.31ZM57.75,58.12c-.71-.65-1.58-.86-2.22-.15a1.74,1.74,0,0,0,.11,2.46,1.58,1.58,0,0,0,2.11-2.31Z"/><g class="cls-3"><polygon class="cls-4" points="93.76 60.02 52.39 70.17 23.38 15.98 83.07 15.9 93.76 60.02"/><polygon class="cls-4" points="103.28 65.99 50.71 78.88 13.86 10.02 89.7 9.92 103.28 65.99"/><polygon class="cls-5" points="111 69.56 46.4 85.41 1.11 0.79 94.31 0.67 111 69.56"/><polygon class="cls-4" points="86.31 55.24 53.76 63.23 30.93 20.59 77.9 20.53 86.31 55.24"/><polygon class="cls-4" points="78.85 50.46 55.13 56.27 38.5 25.2 72.72 25.16 78.85 50.46"/><polygon class="cls-4" points="72.35 46.29 56.33 50.22 45.09 29.22 68.21 29.19 72.35 46.29"/><polygon class="cls-4" points="66.87 42.85 57.29 45.2 50.57 32.66 64.39 32.64 66.87 42.85"/><polygon class="cls-4" points="61.39 39.42 58.25 40.19 56.05 36.09 60.58 36.08 61.39 39.42"/><line class="cls-4" x1="103.22" y1="65.55" x2="123.24" y2="77.77"/></g><path class="cls-6" d="M87.65,69.33c-1,0-1.56-.43-1.56-1.39a1.74,1.74,0,0,1,1.74-1.74c1,0,1.39.78,1.39,1.74S88.62,69.33,87.65,69.33Z"/><path class="cls-6" d="M69.35,69.33c-1,0-1.56-.43-1.56-1.39a1.74,1.74,0,0,1,1.74-1.74c1,0,1.39.78,1.39,1.74S70.31,69.33,69.35,69.33Z"/><path class="cls-6" d="M51.05,69.33c-1,0-1.56-.43-1.56-1.39a1.74,1.74,0,0,1,1.74-1.74c1,0,1.39.78,1.39,1.74S52,69.33,51.05,69.33Z"/><path class="cls-6" d="M76.44,39.68a1.33,1.33,0,0,1-2.08.22,1.75,1.75,0,0,1-.12-2.46c.65-.71,1.51-.5,2.23.15A1.33,1.33,0,0,1,76.44,39.68Z"/><path class="cls-6" d="M63.88,53.45a1.33,1.33,0,0,1-2.08.22,1.74,1.74,0,0,1-.11-2.46c.65-.72,1.51-.5,2.22.14A1.34,1.34,0,0,1,63.88,53.45Z"/></g></g></svg>