<svg xmlns="http://www.w3.org/2000/svg" xmlns:xlink="http://www.w3.org/1999/xlink" viewBox="0 0 88.7 72.66"><defs><style>.cls-1,.cls-3,.cls-6{fill:none;}.cls-2{fill:#d18311;}.cls-3,.cls-6{stroke:#0a2237;stroke-miterlimit:10;}.cls-3{stroke-width:0.44px;}.cls-4{fill:#0a2237;}.cls-5{clip-path:url(#clip-path);}.cls-6{stroke-width:0.94px;}</style><clipPath id="clip-path"><polygon class="cls-1" points="43.88 26.64 43.88 26.65 52.73 4.36 34.97 4.36 6.1 72.66 25.78 72.66 36.23 45.92 43.88 26.64"/></clipPath></defs><title>Asset 18</title><g id="Layer_2" data-name="Layer 2"><g id="Layer_1-2" data-name="Layer 1"><polyline class="cls-2" points="34.68 60.55 60.84 60.55 65.78 72.66 85.92 72.66 57.06 4.36 56.7 4.36 47.86 26.65 55.41 45.92 40.2 45.92"/><path class="cls-3" d="M34.18,61.92c-.1,3.06,0,2.76,0,2.76"/><path class="cls-3" d="M35.63,61.92c-.1,3.06,0,2.76,0,2.76"/><path class="cls-3" d="M37,61.92c-.1,3.06,0,2.76,0,2.76"/><path class="cls-3" d="M41.67,61.91c-3.06-.1-2.77,0-2.77,0"/><path class="cls-3" d="M41.67,63.36c-3.06-.1-2.77,0-2.77,0"/><path class="cls-3" d="M41.67,64.74c-3.06-.1-2.77,0-2.77,0"/><path class="cls-3" d="M43.88,61.92c-.1,3.06,0,2.76,0,2.76"/><path class="cls-3" d="M45.33,61.92c-.1,3.06,0,2.76,0,2.76"/><path class="cls-3" d="M46.72,61.92c-.1,3.06,0,2.76,0,2.76"/><path class="cls-3" d="M51.36,61.91c-3-.1-2.76,0-2.76,0"/><path class="cls-3" d="M51.36,63.36c-3-.1-2.76,0-2.76,0"/><path class="cls-3" d="M51.36,64.74c-3-.1-2.76,0-2.76,0"/><path class="cls-3" d="M53.58,61.92c-.1,3.06,0,2.76,0,2.76"/><path class="cls-3" d="M55,61.92c-.1,3.06,0,2.76,0,2.76"/><path class="cls-3" d="M56.41,61.92c-.1,3.06,0,2.76,0,2.76"/><path class="cls-3" d="M61.06,61.91c-3.05-.1-2.76,0-2.76,0"/><path class="cls-3" d="M61.06,63.36c-3.05-.1-2.76,0-2.76,0"/><path class="cls-3" d="M61.06,64.74c-3.05-.1-2.76,0-2.76,0"/><path class="cls-4" d="M61.72,8.74c-.53.22-1,.13-1.18-.4A1,1,0,0,1,61.11,7c.53-.22.94.11,1.16.64S62.25,8.52,61.72,8.74Z"/><path class="cls-4" d="M63.11,12.09c-.53.22-1,.13-1.18-.4a1,1,0,0,1,.56-1.36c.53-.22.94.11,1.16.64S63.64,11.87,63.11,12.09Z"/><path class="cls-4" d="M64.5,15.44c-.53.22-1,.13-1.18-.41a1,1,0,0,1,.56-1.35c.53-.22.94.11,1.16.64S65,15.22,64.5,15.44Z"/><path class="cls-4" d="M65.88,18.79a.79.79,0,0,1-1.18-.41A1,1,0,0,1,65.27,17c.53-.22.94.11,1.16.64S66.41,18.57,65.88,18.79Z"/><path class="cls-4" d="M67.27,22.14a.79.79,0,0,1-1.18-.41,1,1,0,0,1,.56-1.36c.53-.22.95.12,1.17.65S67.8,21.92,67.27,22.14Z"/><path class="cls-4" d="M68.66,25.49a.79.79,0,0,1-1.18-.41A1,1,0,0,1,68,23.72c.53-.22.94.12,1.16.65S69.19,25.27,68.66,25.49Z"/><path class="cls-4" d="M70,28.84a.79.79,0,0,1-1.18-.41,1.05,1.05,0,0,1,.57-1.36c.53-.22.94.12,1.16.65S70.57,28.62,70,28.84Z"/><path class="cls-4" d="M71.43,32.19a.79.79,0,0,1-1.18-.41,1,1,0,0,1,.56-1.36c.54-.22,1,.12,1.17.65S72,32,71.43,32.19Z"/><path class="cls-4" d="M72.82,35.54a.79.79,0,0,1-1.18-.41,1,1,0,0,1,.56-1.36c.53-.22.94.12,1.16.65S73.35,35.32,72.82,35.54Z"/><path class="cls-4" d="M74.21,38.89c-.54.22-1,.12-1.18-.41a1,1,0,0,1,.56-1.36c.53-.22.94.12,1.16.65S74.74,38.67,74.21,38.89Z"/><path class="cls-4" d="M75.59,42.24a.79.79,0,0,1-1.18-.41A1,1,0,0,1,75,40.47c.53-.22.94.11,1.16.65S76.12,42,75.59,42.24Z"/><path class="cls-4" d="M77,45.59a.79.79,0,0,1-1.18-.41,1,1,0,0,1,.56-1.36c.53-.22,1,.11,1.17.64A.8.8,0,0,1,77,45.59Z"/><path class="cls-4" d="M78.37,48.94a.79.79,0,0,1-1.18-.41,1,1,0,0,1,.56-1.36c.53-.22.94.11,1.16.64A.8.8,0,0,1,78.37,48.94Z"/><path class="cls-4" d="M79.75,52.29a.79.79,0,0,1-1.18-.41,1,1,0,0,1,.57-1.36c.53-.22.94.11,1.16.64S80.28,52.07,79.75,52.29Z"/><path class="cls-4" d="M81.14,55.64c-.53.21-1,.12-1.18-.41a1,1,0,0,1,.56-1.36c.54-.22,1,.11,1.17.64S81.67,55.42,81.14,55.64Z"/><path class="cls-4" d="M82.53,59c-.53.22-1,.13-1.18-.4a1,1,0,0,1,.56-1.36c.53-.22.94.11,1.16.64S83.06,58.76,82.53,59Z"/><path class="cls-4" d="M83.91,62.33c-.53.22-1,.13-1.17-.4a1,1,0,0,1,.56-1.36c.53-.22.94.11,1.16.64S84.45,62.11,83.91,62.33Z"/><path class="cls-4" d="M85.3,65.68c-.53.22-1,.13-1.18-.4a1,1,0,0,1,.57-1.36c.53-.22.94.11,1.16.64S85.83,65.46,85.3,65.68Z"/><path class="cls-4" d="M86.69,69c-.53.22-1,.13-1.18-.41a1,1,0,0,1,.56-1.35c.53-.22.94.11,1.16.64S87.22,68.81,86.69,69Z"/><path class="cls-4" d="M88.08,72.38A.79.79,0,0,1,86.9,72a1,1,0,0,1,.56-1.35c.53-.22.94.11,1.16.64S88.61,72.16,88.08,72.38Z"/><polygon class="cls-1" points="55.41 45.92 47.86 26.65 40.2 45.92 55.41 45.92"/><g class="cls-5"><polygon class="cls-6" points="19.05 64.39 7.04 35.59 42.83 8.42 49.65 51.63 19.05 64.39"/><polygon class="cls-6" points="15.83 71.96 0.57 35.37 46.04 0.85 54.72 55.75 15.83 71.96"/><polygon class="cls-6" points="21.65 58.45 12.2 35.79 40.36 14.42 45.73 48.41 21.65 58.45"/><polygon class="cls-6" points="24.26 52.51 17.37 36 37.89 20.42 41.8 45.19 24.26 52.51"/><polygon class="cls-6" points="26.53 47.33 21.87 36.17 35.74 25.64 38.38 42.38 26.53 47.33"/><polygon class="cls-6" points="28.38 42.97 25.6 36.3 33.89 30.01 35.47 40.01 28.38 42.97"/><polygon class="cls-6" points="30.23 38.61 29.32 36.42 32.03 34.37 32.55 37.64 30.23 38.61"/></g></g></g></svg>