<svg xmlns="http://www.w3.org/2000/svg" xmlns:xlink="http://www.w3.org/1999/xlink" viewBox="0 0 64.14 107.22"><defs><style>.cls-1,.cls-5{fill:none;}.cls-2{fill:#0a2237;}.cls-3{fill:#d18311;}.cls-4{clip-path:url(#clip-path);}.cls-5{stroke:#0a2237;stroke-miterlimit:10;stroke-width:0.94px;}</style><clipPath id="clip-path"><rect class="cls-1" x="22.29" y="33.4" width="19.02" height="34.89"/></clipPath></defs><title>Asset 20</title><g id="Layer_2" data-name="Layer 2"><g id="Layer_1-2" data-name="Layer 1"><path class="cls-2" d="M22.29,0V27.71h19V0ZM32,15.66a2.26,2.26,0,0,1-2.26-2.26c0-1.25,1-1.8,2.26-1.8s1.81.78,1.81,2S33.29,15.66,32,15.66Z"/><path class="cls-3" d="M33.84,4.87c0,1.25-.55,2-1.81,2a2.27,2.27,0,0,1-2.26-2.27c0-1.25,1-1.8,2.26-1.8S33.84,3.62,33.84,4.87Z"/><path class="cls-3" d="M33.84,22.38c0,1.25-.55,2-1.81,2a2.26,2.26,0,0,1-2.26-2.26c0-1.25,1-1.8,2.26-1.8S33.84,21.13,33.84,22.38Z"/><g class="cls-4"><polygon class="cls-5" points="31.37 97.6 7.18 73.74 31.66 31.37 56.73 71.88 31.37 97.6"/><polygon class="cls-5" points="31.33 106.56 0.59 76.24 31.7 22.41 63.55 73.89 31.33 106.56"/><polygon class="cls-5" points="31.48 90.54 12.45 71.77 31.71 38.43 51.43 70.31 31.48 90.54"/><polygon class="cls-5" points="31.59 83.47 17.72 69.79 31.76 45.5 46.13 68.72 31.59 83.47"/><polygon class="cls-5" points="31.69 77.31 22.32 68.07 31.8 51.65 41.52 67.35 31.69 77.31"/><polygon class="cls-5" points="31.71 72.15 26.11 66.63 31.78 56.81 37.59 66.2 31.71 72.15"/><polygon class="cls-5" points="31.74 66.99 29.9 65.18 31.76 61.97 33.66 65.04 31.74 66.99"/></g></g></g></svg>