<svg xmlns="http://www.w3.org/2000/svg" xmlns:xlink="http://www.w3.org/1999/xlink" viewBox="0 0 105 102.31"><defs><style>.cls-1,.cls-4{fill:none;}.cls-2{fill:#0a2237;}.cls-3{clip-path:url(#clip-path);}.cls-4{stroke:#d18311;stroke-miterlimit:10;stroke-width:0.78px;}.cls-5{fill:#d18311;}</style><clipPath id="clip-path"><polygon class="cls-1" points="37.95 68.29 44.62 68.29 52.54 45.32 60.36 68.29 68.01 68.29 52.58 28.41 37.95 68.29"/></clipPath></defs><title>Asset 5</title><g id="Layer_2" data-name="Layer 2"><g id="Layer_1-2" data-name="Layer 1"><path class="cls-2" d="M82.39,68.29H72.84L52.5,16.06,33,68.29H22.6L0,.19H19.8L31.59,39.31,44.63,0H60.76l13,39.31L85.58.19H105Zm-69.58-62C12.81,5,12.26,4,11,4A2.26,2.26,0,0,0,8.75,6.26c0,1.25.78,1.81,2,1.81S12.81,7.51,12.81,6.26ZM19.5,26.9c0-1.25-.55-2.26-1.8-2.26a2.26,2.26,0,0,0-2.26,2.26c0,1.25.78,1.81,2,1.81S19.5,28.15,19.5,26.9Zm7,19.81c0-1.25-.55-2.26-1.8-2.26a2.26,2.26,0,0,0-2.26,2.26c0,1.25.78,1.81,2,1.81S26.52,48,26.52,46.71Zm64.8-28c1.25,0,2-.56,2-1.81a2.26,2.26,0,0,0-2.26-2.26c-1.25,0-1.8,1-1.8,2.26S90.07,18.69,91.32,18.69ZM84.44,38.61c1.25,0,2-.55,2-1.8a2.27,2.27,0,0,0-2.27-2.26c-1.25,0-1.8,1-1.8,2.26S83.19,38.61,84.44,38.61ZM36.78,46.38c0-1.25-.55-2.26-1.8-2.26a2.26,2.26,0,0,0-2.26,2.26c0,1.25.78,1.8,2,1.8S36.78,47.63,36.78,46.38Zm7.11-19.94c0-1.25-.55-2.26-1.8-2.26a2.26,2.26,0,0,0-2.26,2.26c0,1.25.78,1.8,2,1.8S43.89,27.69,43.89,26.44ZM70.94,48.18c1.25,0,2-.55,2-1.8a2.26,2.26,0,0,0-2.26-2.26c-1.25,0-1.8,1-1.8,2.26S69.69,48.18,70.94,48.18Zm-7.1-19.94c1.24,0,2-.55,2-1.8a2.27,2.27,0,0,0-2.27-2.26c-1.25,0-1.8,1-1.8,2.26S62.59,28.24,63.84,28.24ZM54.53,6.5c0-1.25-.55-2.26-1.8-2.26A2.26,2.26,0,0,0,50.47,6.5c0,1.25.78,1.8,2,1.8S54.53,7.75,54.53,6.5Z"/><g class="cls-3"><polygon class="cls-4" points="52.39 78.29 31.05 57.6 52.32 20.35 74.51 55.61 52.39 78.29"/><polygon class="cls-4" points="52.4 86.13 25.28 59.84 52.31 12.51 80.51 57.31 52.4 86.13"/><polygon class="cls-4" points="52.45 72.11 35.66 55.83 52.4 26.53 69.86 54.27 52.45 72.11"/><polygon class="cls-4" points="52.52 65.93 40.28 54.06 52.48 32.71 65.2 52.92 52.52 65.93"/><polygon class="cls-4" points="52.57 60.54 44.3 52.52 52.55 38.09 61.14 51.75 52.57 60.54"/><polygon class="cls-4" points="52.57 56.03 47.63 51.23 52.55 42.61 57.69 50.77 52.57 56.03"/><polygon class="cls-4" points="52.56 51.51 50.95 49.95 52.56 47.12 54.24 49.79 52.56 51.51"/><line class="cls-4" x1="52.63" y1="85.94" x2="52.84" y2="102.3"/></g><path class="cls-5" d="M14,18.69c-1.25,0-2-.56-2-1.81a2.26,2.26,0,0,1,2.26-2.26c1.25,0,1.8,1,1.8,2.26S15.28,18.69,14,18.69Z"/><path class="cls-5" d="M20.91,38.61c-1.25,0-2-.55-2-1.8a2.26,2.26,0,0,1,2.26-2.26c1.25,0,1.8,1,1.8,2.26S22.16,38.61,20.91,38.61Z"/><path class="cls-5" d="M94.57,8.07c1.25,0,2-.56,2-1.81A2.26,2.26,0,0,0,94.34,4c-1.25,0-1.8,1-1.8,2.26S93.32,8.07,94.57,8.07Z"/><path class="cls-5" d="M87.88,28.71c1.25,0,2-.56,2-1.81a2.26,2.26,0,0,0-2.26-2.26c-1.25,0-1.8,1-1.8,2.26S86.63,28.71,87.88,28.71Z"/><path class="cls-5" d="M80.86,48.52c1.25,0,2-.56,2-1.81a2.26,2.26,0,0,0-2.26-2.26c-1.25,0-1.8,1-1.8,2.26S79.61,48.52,80.86,48.52Z"/><path class="cls-5" d="M28.55,58.69c-1.25,0-2-.55-2-1.8a2.27,2.27,0,0,1,2.27-2.26c1.25,0,1.8,1,1.8,2.26S29.8,58.69,28.55,58.69Z"/><path class="cls-5" d="M38.48,38.21c-1.25,0-2-.55-2-1.8a2.27,2.27,0,0,1,2.27-2.26c1.25,0,1.8,1,1.8,2.26S39.73,38.21,38.48,38.21Z"/><path class="cls-5" d="M77.14,58.69c1.25,0,2-.55,2-1.8a2.26,2.26,0,0,0-2.26-2.26c-1.25,0-1.8,1-1.8,2.26S75.89,58.69,77.14,58.69Z"/><path class="cls-5" d="M67.22,38.21c1.25,0,2-.55,2-1.8A2.27,2.27,0,0,0,67,34.15c-1.25,0-1.8,1-1.8,2.26S66,38.21,67.22,38.21Z"/><path class="cls-5" d="M45.91,18.27c-1.25,0-2-.55-2-1.8a2.26,2.26,0,0,1,2.26-2.26c1.25,0,1.8,1,1.8,2.26S47.16,18.27,45.91,18.27Z"/><path class="cls-5" d="M60.11,18.27c-1.25,0-2-.55-2-1.8a2.26,2.26,0,0,1,2.26-2.26c1.25,0,1.8,1,1.8,2.26S61.36,18.27,60.11,18.27Z"/></g></g></svg>