<svg xmlns="http://www.w3.org/2000/svg" xmlns:xlink="http://www.w3.org/1999/xlink" viewBox="0 0 85.7 106.56"><defs><style>.cls-1,.cls-4,.cls-5,.cls-7{fill:none;}.cls-2{fill:#d18311;}.cls-3{fill:#0a2237;}.cls-4,.cls-7{stroke:#0a2237;}.cls-4,.cls-5,.cls-7{stroke-miterlimit:10;}.cls-4{stroke-width:0.32px;}.cls-5{stroke:#fff;stroke-width:0.06px;}.cls-6{clip-path:url(#clip-path);}.cls-7{stroke-width:0.96px;}</style><clipPath id="clip-path"><rect class="cls-1" x="24.62" y="11" width="16.69" height="68.29"/></clipPath></defs><title>Asset 21</title><g id="Layer_2" data-name="Layer 2"><g id="Layer_1-2" data-name="Layer 1"><path class="cls-2" d="M73.2,44a1.15,1.15,0,0,1-1.26,1,1.63,1.63,0,0,1-1.63-1.63c0-.9.73-1.3,1.63-1.3a1.16,1.16,0,0,1,1.27,1c5.5-2.71,9.46-7.29,9.46-14.72v-.2a15,15,0,0,0-4.39-11c-4-4-10-6.15-18.63-6.15H46.28V26.22h9.07c5.66,0,8.59,2.15,8.59,5.86v.19c0,4-3.22,5.95-9,5.95H46.28V51.49H57.5c6.34,0,9.27,2.44,9.27,6.15v.19c0,4-3.32,6.25-9.07,6.25H46.28V79.3H59.84c16.29,0,25.86-7.13,25.86-18.83v-.2C85.7,51.41,80.88,46.74,73.2,44Zm-24,1a1.63,1.63,0,0,1-1.64-1.63c0-.9.73-1.3,1.64-1.3s1.3.56,1.3,1.46S50.09,45,49.19,45Zm11.37,0a1.63,1.63,0,0,1-1.63-1.63c0-.9.73-1.3,1.63-1.3s1.3.56,1.3,1.46S61.46,45,60.56,45Z"/><path class="cls-3" d="M56.17,43.51c0,.9-.39,1.47-1.3,1.47a1.63,1.63,0,0,1-1.63-1.63c0-.9.73-1.3,1.63-1.3S56.17,42.61,56.17,43.51Z"/><path class="cls-3" d="M67.55,43.51c0,.9-.4,1.47-1.3,1.47a1.63,1.63,0,0,1-1.63-1.63c0-.9.73-1.3,1.63-1.3S67.55,42.61,67.55,43.51Z"/><path class="cls-4" d="M46.48,59.89c-.1,3.08,0,2.78,0,2.78"/><path class="cls-4" d="M47.94,59.89c-.1,3.08,0,2.78,0,2.78"/><path class="cls-4" d="M49.33,59.89c-.1,3.08,0,2.78,0,2.78"/><path class="cls-4" d="M54,59.88c-3.08-.1-2.79,0-2.79,0"/><path class="cls-4" d="M54,61.34c-3.08-.1-2.79,0-2.79,0"/><path class="cls-4" d="M54,62.73c-3.08-.1-2.79,0-2.79,0"/><path class="cls-4" d="M56.25,59.89c-.1,3.08,0,2.78,0,2.78"/><path class="cls-4" d="M57.71,59.89c-.11,3.08,0,2.78,0,2.78"/><path class="cls-4" d="M59.1,59.89c-.1,3.08,0,2.78,0,2.78"/><path class="cls-4" d="M63.78,59.88c-3.07-.1-2.78,0-2.78,0"/><path class="cls-4" d="M63.78,61.34c-3.07-.1-2.78,0-2.78,0"/><path class="cls-4" d="M63.78,62.73c-3.07-.1-2.78,0-2.78,0"/><path class="cls-4" d="M46.48,27.36c-.1,3.08,0,2.78,0,2.78"/><path class="cls-4" d="M47.94,27.36c-.1,3.08,0,2.78,0,2.78"/><path class="cls-4" d="M49.33,27.36c-.1,3.08,0,2.78,0,2.78"/><path class="cls-4" d="M54,27.35c-3.08-.1-2.79,0-2.79,0"/><path class="cls-4" d="M54,28.81c-3.08-.1-2.79,0-2.79,0"/><path class="cls-4" d="M54,30.21c-3.08-.1-2.79,0-2.79,0"/><path class="cls-4" d="M56.25,27.36c-.1,3.08,0,2.78,0,2.78"/><path class="cls-4" d="M57.71,27.36c-.11,3.08,0,2.78,0,2.78"/><path class="cls-4" d="M59.1,27.36c-.1,3.08,0,2.78,0,2.78"/><path class="cls-5" d="M61.09,27.35c-.11-.1-.1,0-.1,0"/><path class="cls-4" d="M62.37,28.81c-1.52-.1-1.37,0-1.37,0"/><path class="cls-4" d="M63,30.21c-2.26-.1-2,0-2,0"/><g class="cls-6"><polygon class="cls-7" points="31.71 78.3 7.45 53.1 33.78 10.15 58.49 52.51 31.71 78.3"/><polygon class="cls-7" points="31.43 87.52 0.6 55.5 34.05 0.93 65.46 54.76 31.43 87.52"/><polygon class="cls-7" points="32.01 71.04 12.92 51.21 33.64 17.42 53.08 50.75 32.01 71.04"/><polygon class="cls-7" points="32.31 63.77 18.4 49.32 33.5 24.69 47.67 48.98 32.31 63.77"/><polygon class="cls-7" points="32.58 57.43 23.18 47.67 33.38 31.03 42.95 47.44 32.58 57.43"/><polygon class="cls-7" points="32.74 52.12 27.12 46.28 33.22 36.34 38.94 46.15 32.74 52.12"/><polygon class="cls-7" points="32.9 46.81 31.06 44.9 33.06 41.65 34.93 44.86 32.9 46.81"/><line class="cls-7" x1="31.71" y1="87.3" x2="31.35" y2="106.56"/></g></g></g></svg>