<svg xmlns="http://www.w3.org/2000/svg" xmlns:xlink="http://www.w3.org/1999/xlink" viewBox="0 0 77.86 85.22"><defs><style>.cls-1,.cls-4,.cls-6,.cls-7{fill:none;}.cls-2{fill:#0a2237;}.cls-3{fill:#d18311;}.cls-4{stroke:#fff;stroke-width:0.32px;}.cls-4,.cls-6,.cls-7{stroke-miterlimit:10;}.cls-5{clip-path:url(#clip-path);}.cls-6,.cls-7{stroke:#d18311;}.cls-6{stroke-width:0.78px;}.cls-7{stroke-width:0.78px;}</style><clipPath id="clip-path"><rect class="cls-1" x="24.48" y="8.17" width="13.85" height="68.29"/></clipPath></defs><title>Asset 26</title><g id="Layer_2" data-name="Layer 2"><g id="Layer_1-2" data-name="Layer 1"><path class="cls-2" d="M43.77,34.61V49.53H74V34.61Zm7.88,8.75a1.43,1.43,0,0,1-1.44-1.44c0-.79.64-1.14,1.44-1.14s1.15.5,1.15,1.29S52.44,43.36,51.65,43.36Zm10.05,0a1.43,1.43,0,0,1-1.44-1.44c0-.79.64-1.14,1.44-1.14s1.14.5,1.14,1.29S62.49,43.36,61.7,43.36Zm10,0a1.44,1.44,0,0,1-1.44-1.44c0-.79.65-1.14,1.44-1.14s1.15.5,1.15,1.29S72.54,43.36,71.74,43.36Z"/><path class="cls-3" d="M47.77,42.07c0,.8-.35,1.29-1.15,1.29a1.44,1.44,0,0,1-1.44-1.44c0-.79.65-1.14,1.44-1.14S47.77,41.27,47.77,42.07Z"/><path class="cls-3" d="M57.82,42.07c0,.8-.35,1.29-1.15,1.29a1.44,1.44,0,0,1-1.44-1.44c0-.79.65-1.14,1.44-1.14S57.82,41.27,57.82,42.07Z"/><path class="cls-3" d="M67.87,42.07c0,.8-.35,1.29-1.15,1.29a1.43,1.43,0,0,1-1.44-1.44c0-.79.64-1.14,1.44-1.14S67.87,41.27,67.87,42.07Z"/><path class="cls-4" d="M44.45,56c-.1,3.08,0,2.79,0,2.79"/><path class="cls-4" d="M45.91,56c-.1,3.08,0,2.79,0,2.79"/><path class="cls-4" d="M47.3,56c-.1,3.08,0,2.79,0,2.79"/><path class="cls-4" d="M52,56c-3.08-.1-2.79,0-2.79,0"/><path class="cls-4" d="M52,57.45c-3.08-.1-2.79,0-2.79,0"/><path class="cls-4" d="M52,58.85c-3.08-.1-2.79,0-2.79,0"/><path class="cls-4" d="M54.22,56c-.11,3.08,0,2.79,0,2.79"/><path class="cls-4" d="M55.67,56c-.1,3.08,0,2.79,0,2.79"/><path class="cls-4" d="M57.07,56c-.1,3.08,0,2.79,0,2.79"/><path class="cls-4" d="M61.75,56c-3.07-.1-2.78,0-2.78,0"/><path class="cls-4" d="M61.75,57.45c-3.07-.1-2.78,0-2.78,0"/><path class="cls-4" d="M61.75,58.85c-3.07-.1-2.78,0-2.78,0"/><path class="cls-4" d="M64,56c-.1,3.08,0,2.79,0,2.79"/><path class="cls-4" d="M65.44,56c-.1,3.08,0,2.79,0,2.79"/><path class="cls-4" d="M66.84,56c-.1,3.08,0,2.79,0,2.79"/><path class="cls-4" d="M71.52,56c-3.08-.1-2.78,0-2.78,0"/><path class="cls-4" d="M71.52,57.45c-3.08-.1-2.78,0-2.78,0"/><path class="cls-4" d="M71.52,58.85c-3.08-.1-2.78,0-2.78,0"/><path class="cls-4" d="M44.45,25.57c-.1,3.08,0,2.78,0,2.78"/><path class="cls-4" d="M45.91,25.57c-.1,3.08,0,2.78,0,2.78"/><path class="cls-4" d="M47.3,25.57c-.1,3.08,0,2.78,0,2.78"/><path class="cls-4" d="M52,25.56c-3.08-.1-2.79,0-2.79,0"/><path class="cls-4" d="M52,27c-3.08-.1-2.79,0-2.79,0"/><path class="cls-4" d="M52,28.42c-3.08-.1-2.79,0-2.79,0"/><path class="cls-4" d="M54.22,25.57c-.11,3.08,0,2.78,0,2.78"/><path class="cls-4" d="M55.67,25.57c-.1,3.08,0,2.78,0,2.78"/><path class="cls-4" d="M57.07,25.57c-.1,3.08,0,2.78,0,2.78"/><path class="cls-4" d="M61.75,25.56c-3.07-.1-2.78,0-2.78,0"/><path class="cls-4" d="M61.75,27c-3.07-.1-2.78,0-2.78,0"/><path class="cls-4" d="M61.75,28.42c-3.07-.1-2.78,0-2.78,0"/><path class="cls-4" d="M64,25.57c-.1,3.08,0,2.78,0,2.78"/><path class="cls-4" d="M65.44,25.57c-.1,3.08,0,2.78,0,2.78"/><path class="cls-4" d="M66.84,25.57c-.1,3.08,0,2.78,0,2.78"/><path class="cls-4" d="M71.52,25.56c-3.08-.1-2.78,0-2.78,0"/><path class="cls-4" d="M71.52,27c-3.08-.1-2.78,0-2.78,0"/><path class="cls-4" d="M71.52,28.42c-3.08-.1-2.78,0-2.78,0"/><g class="cls-5"><polygon class="cls-6" points="31.18 75.73 7.06 51.94 31.47 9.69 56.47 50.09 31.18 75.73"/><polygon class="cls-6" points="31.14 84.67 0.49 54.44 31.51 0.76 63.27 52.09 31.14 84.67"/><polygon class="cls-7" points="31.29 68.69 12.31 49.97 31.52 16.73 51.19 48.52 31.29 68.69"/><polygon class="cls-7" points="31.4 61.64 17.57 48 31.57 23.78 45.9 46.94 31.4 61.64"/><polygon class="cls-7" points="31.5 55.5 22.15 46.29 31.61 29.92 41.3 45.57 31.5 55.5"/><polygon class="cls-7" points="31.52 50.36 25.94 44.85 31.59 35.06 37.38 44.42 31.52 50.36"/><polygon class="cls-7" points="31.55 45.21 29.72 43.41 31.57 40.21 33.46 43.27 31.55 45.21"/></g><rect class="cls-2" x="43.77" y="60.36" width="34.09" height="16.1"/><rect class="cls-2" x="43.77" y="8.17" width="33.6" height="16.1"/></g></g></svg>