<svg xmlns="http://www.w3.org/2000/svg" xmlns:xlink="http://www.w3.org/1999/xlink" viewBox="0 0 95 91.46"><defs><style>.cls-1,.cls-5{fill:none;}.cls-2{fill:#0a2237;}.cls-3{fill:#d18311;}.cls-4{clip-path:url(#clip-path);}.cls-5{stroke:#0a2237;stroke-miterlimit:10;}.cls-6{clip-path:url(#clip-path-2);}</style><clipPath id="clip-path"><polygon class="cls-1" points="20.23 12.01 8.11 12.01 31.98 45.57 8.11 80.3 21.56 80.3 44.6 45.56 20.23 12.01"/></clipPath><clipPath id="clip-path-2"><polygon class="cls-1" points="71.83 12.01 83.95 12.01 60.07 45.57 83.95 80.3 70.5 80.3 47.45 45.56 71.83 12.01"/></clipPath></defs><title>Asset 24</title><g id="Layer_2" data-name="Layer 2"><g id="Layer_1-2" data-name="Layer 1"><path class="cls-2" d="M34.44,77.8a1.13,1.13,0,0,0-1.26-1.29A1.52,1.52,0,0,0,31.59,78c0,.79.71,1.14,1.59,1.14A1.13,1.13,0,0,0,34.44,77.8Z"/><path class="cls-2" d="M57.22,77.8a1.14,1.14,0,0,1,1.27-1.29A1.51,1.51,0,0,1,60.07,78c0,.79-.71,1.14-1.58,1.14A1.14,1.14,0,0,1,57.22,77.8Z"/><path class="cls-3" d="M64.57,80.3l-18.74-27-18.34,27h8.06L45.74,65.9l10,14.4ZM37.79,73.39a1.14,1.14,0,0,1-1.26,1.3c-.88,0-1.59-.35-1.59-1.15a1.52,1.52,0,0,1,1.59-1.44A1.14,1.14,0,0,1,37.79,73.39Zm6.42-9.24A1.14,1.14,0,0,1,43,65.44c-.88,0-1.59-.35-1.59-1.15A1.52,1.52,0,0,1,43,62.85,1.14,1.14,0,0,1,44.21,64.15Zm6.09.14c0,.8-.71,1.15-1.58,1.15a1.3,1.3,0,0,1,0-2.59A1.52,1.52,0,0,1,50.3,64.29Zm6.42,9.25c0,.8-.71,1.15-1.58,1.15a1.3,1.3,0,0,1,0-2.59A1.52,1.52,0,0,1,56.72,73.54Z"/><path class="cls-2" d="M40.89,68.55a1.14,1.14,0,0,0-1.26-1.29A1.52,1.52,0,0,0,38,68.7c0,.8.71,1.15,1.59,1.15A1.15,1.15,0,0,0,40.89,68.55Z"/><path class="cls-2" d="M50.78,68.55A1.14,1.14,0,0,1,52,67.26a1.52,1.52,0,0,1,1.59,1.44c0,.8-.71,1.15-1.59,1.15A1.14,1.14,0,0,1,50.78,68.55Z"/><path class="cls-2" d="M47.45,59.63a1.14,1.14,0,0,0-1.26-1.3,1.52,1.52,0,0,0-1.59,1.44c0,.8.71,1.15,1.59,1.15A1.14,1.14,0,0,0,47.45,59.63Z"/><path class="cls-3" d="M55.74,12.46l-10,14.41L35.55,12.46H27.49l18.34,27,18.74-27ZM36.53,20.67a1.52,1.52,0,0,1-1.59-1.44c0-.8.71-1.15,1.59-1.15a1.14,1.14,0,0,1,1.26,1.29A1.14,1.14,0,0,1,36.53,20.67ZM43,29.92a1.52,1.52,0,0,1-1.59-1.44c0-.8.71-1.15,1.59-1.15a1.14,1.14,0,0,1,1.26,1.29A1.14,1.14,0,0,1,43,29.92Zm5.77,0a1.15,1.15,0,0,1-1.27-1.3,1.15,1.15,0,0,1,1.27-1.29c.87,0,1.58.35,1.58,1.15A1.52,1.52,0,0,1,48.72,29.92Zm6.42-9.25a1.15,1.15,0,0,1-1.27-1.3,1.15,1.15,0,0,1,1.27-1.29c.87,0,1.58.35,1.58,1.15A1.52,1.52,0,0,1,55.14,20.67Z"/><g class="cls-4"><polygon class="cls-5" points="36.84 81.21 8.4 55.73 37.19 10.48 66.66 53.75 36.84 81.21"/><polygon class="cls-5" points="36.8 90.78 0.65 58.41 37.23 0.91 74.68 55.89 36.8 90.78"/><polygon class="cls-5" points="36.98 73.67 14.59 53.62 37.24 18.02 60.44 52.06 36.98 73.67"/><polygon class="cls-5" points="37.11 66.12 20.79 51.51 37.3 25.57 54.2 50.38 37.11 66.12"/><polygon class="cls-5" points="37.22 59.55 26.2 49.67 37.35 32.14 48.77 48.91 37.22 59.55"/><polygon class="cls-5" points="37.25 54.03 30.66 48.13 37.33 37.65 44.15 47.67 37.25 54.03"/><polygon class="cls-5" points="37.27 48.52 35.12 46.59 37.3 43.16 39.53 46.44 37.27 48.52"/></g><g class="cls-6"><polygon class="cls-5" points="56.51 81.21 28.06 55.73 56.85 10.48 86.32 53.75 56.51 81.21"/><polygon class="cls-5" points="56.46 90.78 20.31 58.41 56.9 0.91 94.35 55.89 56.46 90.78"/><polygon class="cls-5" points="56.64 73.67 34.26 53.62 56.91 18.02 80.1 52.06 56.64 73.67"/><polygon class="cls-5" points="56.77 66.12 40.46 51.51 56.97 25.57 73.87 50.38 56.77 66.12"/><polygon class="cls-5" points="56.88 59.55 45.86 49.67 57.02 32.14 68.44 48.91 56.88 59.55"/><polygon class="cls-5" points="56.91 54.03 50.32 48.13 56.99 37.65 63.82 47.67 56.91 54.03"/><polygon class="cls-5" points="56.94 48.52 54.78 46.59 56.97 43.16 59.2 46.44 56.94 48.52"/></g><path class="cls-2" d="M34.44,15a1.14,1.14,0,0,1-1.26,1.29,1.52,1.52,0,0,1-1.59-1.44c0-.79.71-1.14,1.59-1.14A1.13,1.13,0,0,1,34.44,15Z"/><path class="cls-2" d="M40.89,24.22a1.14,1.14,0,0,1-1.26,1.29A1.52,1.52,0,0,1,38,24.07c0-.8.71-1.15,1.59-1.15A1.15,1.15,0,0,1,40.89,24.22Z"/><path class="cls-2" d="M57.22,15a1.15,1.15,0,0,0,1.27,1.29,1.51,1.51,0,0,0,1.58-1.44c0-.79-.71-1.14-1.58-1.14A1.14,1.14,0,0,0,57.22,15Z"/><path class="cls-2" d="M50.78,24.22A1.14,1.14,0,0,0,52,25.51a1.52,1.52,0,0,0,1.59-1.44c0-.8-.71-1.15-1.59-1.15A1.14,1.14,0,0,0,50.78,24.22Z"/><path class="cls-2" d="M47.45,33.14a1.14,1.14,0,0,1-1.26,1.3A1.52,1.52,0,0,1,44.6,33c0-.79.71-1.14,1.59-1.14A1.14,1.14,0,0,1,47.45,33.14Z"/></g></g></svg>